<?xml version="1.0" encoding="utf-8" standalone="no"?>
<!DOCTYPE svg PUBLIC "-//W3C//DTD SVG 1.1//EN"
  "http://www.w3.org/Graphics/SVG/1.1/DTD/svg11.dtd">
<svg xmlns:xlink="http://www.w3.org/1999/xlink" width="352.882812pt" height="352.954375pt" viewBox="0 0 352.882812 352.954375" xmlns="http://www.w3.org/2000/svg" version="1.1">
 <metadata>
  <rdf:RDF xmlns:dc="http://purl.org/dc/elements/1.1/" xmlns:cc="http://creativecommons.org/ns#" xmlns:rdf="http://www.w3.org/1999/02/22-rdf-syntax-ns#">
   <cc:Work>
    <dc:type rdf:resource="http://purl.org/dc/dcmitype/StillImage"/>
    <dc:date>2025-10-05T03:02:33.342253</dc:date>
    <dc:format>image/svg+xml</dc:format>
    <dc:creator>
     <cc:Agent>
      <dc:title>Matplotlib v3.9.1, https://matplotlib.org/</dc:title>
     </cc:Agent>
    </dc:creator>
   </cc:Work>
  </rdf:RDF>
 </metadata>
 <defs>
  <style type="text/css">*{stroke-linejoin: round; stroke-linecap: butt}</style>
 </defs>
 <g id="figure_1">
  <g id="patch_1">
   <path d="M -0 352.954375 
L 352.882812 352.954375 
L 352.882812 0 
L -0 0 
z
" style="fill: #ffffff"/>
  </g>
  <g id="axes_1">
   <g id="patch_2">
    <path d="M 43.78125 315.398125 
L 337.73125 315.398125 
L 337.73125 22.318125 
L 43.78125 22.318125 
z
" style="fill: #ffffff"/>
   </g>
   <g id="matplotlib.axis_1">
    <g id="xtick_1">
     <g id="line2d_1">
      <defs>
       <path id="m7223ebdb33" d="M 0 0 
L 0 3.5 
" style="stroke: #000000; stroke-width: 0.8"/>
      </defs>
      <g>
       <use xlink:href="#m7223ebdb33" x="43.78125" y="315.398125" style="stroke: #000000; stroke-width: 0.8"/>
      </g>
     </g>
     <g id="text_1">
      <!-- 0.0 -->
      <g transform="translate(35.829688 329.996562) scale(0.1 -0.1)">
       <defs>
        <path id="DejaVuSans-30" d="M 2034 4250 
Q 1547 4250 1301 3770 
Q 1056 3291 1056 2328 
Q 1056 1369 1301 889 
Q 1547 409 2034 409 
Q 2525 409 2770 889 
Q 3016 1369 3016 2328 
Q 3016 3291 2770 3770 
Q 2525 4250 2034 4250 
z
M 2034 4750 
Q 2819 4750 3233 4129 
Q 3647 3509 3647 2328 
Q 3647 1150 3233 529 
Q 2819 -91 2034 -91 
Q 1250 -91 836 529 
Q 422 1150 422 2328 
Q 422 3509 836 4129 
Q 1250 4750 2034 4750 
z
" transform="scale(0.015625)"/>
        <path id="DejaVuSans-2e" d="M 684 794 
L 1344 794 
L 1344 0 
L 684 0 
L 684 794 
z
" transform="scale(0.015625)"/>
       </defs>
       <use xlink:href="#DejaVuSans-30"/>
       <use xlink:href="#DejaVuSans-2e" x="63.623047"/>
       <use xlink:href="#DejaVuSans-30" x="95.410156"/>
      </g>
     </g>
    </g>
    <g id="xtick_2">
     <g id="line2d_2">
      <g>
       <use xlink:href="#m7223ebdb33" x="102.57125" y="315.398125" style="stroke: #000000; stroke-width: 0.8"/>
      </g>
     </g>
     <g id="text_2">
      <!-- 0.2 -->
      <g transform="translate(94.619688 329.996562) scale(0.1 -0.1)">
       <defs>
        <path id="DejaVuSans-32" d="M 1228 531 
L 3431 531 
L 3431 0 
L 469 0 
L 469 531 
Q 828 903 1448 1529 
Q 2069 2156 2228 2338 
Q 2531 2678 2651 2914 
Q 2772 3150 2772 3378 
Q 2772 3750 2511 3984 
Q 2250 4219 1831 4219 
Q 1534 4219 1204 4116 
Q 875 4013 500 3803 
L 500 4441 
Q 881 4594 1212 4672 
Q 1544 4750 1819 4750 
Q 2544 4750 2975 4387 
Q 3406 4025 3406 3419 
Q 3406 3131 3298 2873 
Q 3191 2616 2906 2266 
Q 2828 2175 2409 1742 
Q 1991 1309 1228 531 
z
" transform="scale(0.015625)"/>
       </defs>
       <use xlink:href="#DejaVuSans-30"/>
       <use xlink:href="#DejaVuSans-2e" x="63.623047"/>
       <use xlink:href="#DejaVuSans-32" x="95.410156"/>
      </g>
     </g>
    </g>
    <g id="xtick_3">
     <g id="line2d_3">
      <g>
       <use xlink:href="#m7223ebdb33" x="161.36125" y="315.398125" style="stroke: #000000; stroke-width: 0.8"/>
      </g>
     </g>
     <g id="text_3">
      <!-- 0.4 -->
      <g transform="translate(153.409688 329.996562) scale(0.1 -0.1)">
       <defs>
        <path id="DejaVuSans-34" d="M 2419 4116 
L 825 1625 
L 2419 1625 
L 2419 4116 
z
M 2253 4666 
L 3047 4666 
L 3047 1625 
L 3713 1625 
L 3713 1100 
L 3047 1100 
L 3047 0 
L 2419 0 
L 2419 1100 
L 313 1100 
L 313 1709 
L 2253 4666 
z
" transform="scale(0.015625)"/>
       </defs>
       <use xlink:href="#DejaVuSans-30"/>
       <use xlink:href="#DejaVuSans-2e" x="63.623047"/>
       <use xlink:href="#DejaVuSans-34" x="95.410156"/>
      </g>
     </g>
    </g>
    <g id="xtick_4">
     <g id="line2d_4">
      <g>
       <use xlink:href="#m7223ebdb33" x="220.15125" y="315.398125" style="stroke: #000000; stroke-width: 0.8"/>
      </g>
     </g>
     <g id="text_4">
      <!-- 0.6 -->
      <g transform="translate(212.199688 329.996562) scale(0.1 -0.1)">
       <defs>
        <path id="DejaVuSans-36" d="M 2113 2584 
Q 1688 2584 1439 2293 
Q 1191 2003 1191 1497 
Q 1191 994 1439 701 
Q 1688 409 2113 409 
Q 2538 409 2786 701 
Q 3034 994 3034 1497 
Q 3034 2003 2786 2293 
Q 2538 2584 2113 2584 
z
M 3366 4563 
L 3366 3988 
Q 3128 4100 2886 4159 
Q 2644 4219 2406 4219 
Q 1781 4219 1451 3797 
Q 1122 3375 1075 2522 
Q 1259 2794 1537 2939 
Q 1816 3084 2150 3084 
Q 2853 3084 3261 2657 
Q 3669 2231 3669 1497 
Q 3669 778 3244 343 
Q 2819 -91 2113 -91 
Q 1303 -91 875 529 
Q 447 1150 447 2328 
Q 447 3434 972 4092 
Q 1497 4750 2381 4750 
Q 2619 4750 2861 4703 
Q 3103 4656 3366 4563 
z
" transform="scale(0.015625)"/>
       </defs>
       <use xlink:href="#DejaVuSans-30"/>
       <use xlink:href="#DejaVuSans-2e" x="63.623047"/>
       <use xlink:href="#DejaVuSans-36" x="95.410156"/>
      </g>
     </g>
    </g>
    <g id="xtick_5">
     <g id="line2d_5">
      <g>
       <use xlink:href="#m7223ebdb33" x="278.94125" y="315.398125" style="stroke: #000000; stroke-width: 0.8"/>
      </g>
     </g>
     <g id="text_5">
      <!-- 0.8 -->
      <g transform="translate(270.989688 329.996562) scale(0.1 -0.1)">
       <defs>
        <path id="DejaVuSans-38" d="M 2034 2216 
Q 1584 2216 1326 1975 
Q 1069 1734 1069 1313 
Q 1069 891 1326 650 
Q 1584 409 2034 409 
Q 2484 409 2743 651 
Q 3003 894 3003 1313 
Q 3003 1734 2745 1975 
Q 2488 2216 2034 2216 
z
M 1403 2484 
Q 997 2584 770 2862 
Q 544 3141 544 3541 
Q 544 4100 942 4425 
Q 1341 4750 2034 4750 
Q 2731 4750 3128 4425 
Q 3525 4100 3525 3541 
Q 3525 3141 3298 2862 
Q 3072 2584 2669 2484 
Q 3125 2378 3379 2068 
Q 3634 1759 3634 1313 
Q 3634 634 3220 271 
Q 2806 -91 2034 -91 
Q 1263 -91 848 271 
Q 434 634 434 1313 
Q 434 1759 690 2068 
Q 947 2378 1403 2484 
z
M 1172 3481 
Q 1172 3119 1398 2916 
Q 1625 2713 2034 2713 
Q 2441 2713 2670 2916 
Q 2900 3119 2900 3481 
Q 2900 3844 2670 4047 
Q 2441 4250 2034 4250 
Q 1625 4250 1398 4047 
Q 1172 3844 1172 3481 
z
" transform="scale(0.015625)"/>
       </defs>
       <use xlink:href="#DejaVuSans-30"/>
       <use xlink:href="#DejaVuSans-2e" x="63.623047"/>
       <use xlink:href="#DejaVuSans-38" x="95.410156"/>
      </g>
     </g>
    </g>
    <g id="xtick_6">
     <g id="line2d_6">
      <g>
       <use xlink:href="#m7223ebdb33" x="337.73125" y="315.398125" style="stroke: #000000; stroke-width: 0.8"/>
      </g>
     </g>
     <g id="text_6">
      <!-- 1.0 -->
      <g transform="translate(329.779687 329.996562) scale(0.1 -0.1)">
       <defs>
        <path id="DejaVuSans-31" d="M 794 531 
L 1825 531 
L 1825 4091 
L 703 3866 
L 703 4441 
L 1819 4666 
L 2450 4666 
L 2450 531 
L 3481 531 
L 3481 0 
L 794 0 
L 794 531 
z
" transform="scale(0.015625)"/>
       </defs>
       <use xlink:href="#DejaVuSans-31"/>
       <use xlink:href="#DejaVuSans-2e" x="63.623047"/>
       <use xlink:href="#DejaVuSans-30" x="95.410156"/>
      </g>
     </g>
    </g>
    <g id="text_7">
     <!-- False Positive Rate -->
     <g transform="translate(144.289844 343.674687) scale(0.1 -0.1)">
      <defs>
       <path id="DejaVuSans-46" d="M 628 4666 
L 3309 4666 
L 3309 4134 
L 1259 4134 
L 1259 2759 
L 3109 2759 
L 3109 2228 
L 1259 2228 
L 1259 0 
L 628 0 
L 628 4666 
z
" transform="scale(0.015625)"/>
       <path id="DejaVuSans-61" d="M 2194 1759 
Q 1497 1759 1228 1600 
Q 959 1441 959 1056 
Q 959 750 1161 570 
Q 1363 391 1709 391 
Q 2188 391 2477 730 
Q 2766 1069 2766 1631 
L 2766 1759 
L 2194 1759 
z
M 3341 1997 
L 3341 0 
L 2766 0 
L 2766 531 
Q 2569 213 2275 61 
Q 1981 -91 1556 -91 
Q 1019 -91 701 211 
Q 384 513 384 1019 
Q 384 1609 779 1909 
Q 1175 2209 1959 2209 
L 2766 2209 
L 2766 2266 
Q 2766 2663 2505 2880 
Q 2244 3097 1772 3097 
Q 1472 3097 1187 3025 
Q 903 2953 641 2809 
L 641 3341 
Q 956 3463 1253 3523 
Q 1550 3584 1831 3584 
Q 2591 3584 2966 3190 
Q 3341 2797 3341 1997 
z
" transform="scale(0.015625)"/>
       <path id="DejaVuSans-6c" d="M 603 4863 
L 1178 4863 
L 1178 0 
L 603 0 
L 603 4863 
z
" transform="scale(0.015625)"/>
       <path id="DejaVuSans-73" d="M 2834 3397 
L 2834 2853 
Q 2591 2978 2328 3040 
Q 2066 3103 1784 3103 
Q 1356 3103 1142 2972 
Q 928 2841 928 2578 
Q 928 2378 1081 2264 
Q 1234 2150 1697 2047 
L 1894 2003 
Q 2506 1872 2764 1633 
Q 3022 1394 3022 966 
Q 3022 478 2636 193 
Q 2250 -91 1575 -91 
Q 1294 -91 989 -36 
Q 684 19 347 128 
L 347 722 
Q 666 556 975 473 
Q 1284 391 1588 391 
Q 1994 391 2212 530 
Q 2431 669 2431 922 
Q 2431 1156 2273 1281 
Q 2116 1406 1581 1522 
L 1381 1569 
Q 847 1681 609 1914 
Q 372 2147 372 2553 
Q 372 3047 722 3315 
Q 1072 3584 1716 3584 
Q 2034 3584 2315 3537 
Q 2597 3491 2834 3397 
z
" transform="scale(0.015625)"/>
       <path id="DejaVuSans-65" d="M 3597 1894 
L 3597 1613 
L 953 1613 
Q 991 1019 1311 708 
Q 1631 397 2203 397 
Q 2534 397 2845 478 
Q 3156 559 3463 722 
L 3463 178 
Q 3153 47 2828 -22 
Q 2503 -91 2169 -91 
Q 1331 -91 842 396 
Q 353 884 353 1716 
Q 353 2575 817 3079 
Q 1281 3584 2069 3584 
Q 2775 3584 3186 3129 
Q 3597 2675 3597 1894 
z
M 3022 2063 
Q 3016 2534 2758 2815 
Q 2500 3097 2075 3097 
Q 1594 3097 1305 2825 
Q 1016 2553 972 2059 
L 3022 2063 
z
" transform="scale(0.015625)"/>
       <path id="DejaVuSans-20" transform="scale(0.015625)"/>
       <path id="DejaVuSans-50" d="M 1259 4147 
L 1259 2394 
L 2053 2394 
Q 2494 2394 2734 2622 
Q 2975 2850 2975 3272 
Q 2975 3691 2734 3919 
Q 2494 4147 2053 4147 
L 1259 4147 
z
M 628 4666 
L 2053 4666 
Q 2838 4666 3239 4311 
Q 3641 3956 3641 3272 
Q 3641 2581 3239 2228 
Q 2838 1875 2053 1875 
L 1259 1875 
L 1259 0 
L 628 0 
L 628 4666 
z
" transform="scale(0.015625)"/>
       <path id="DejaVuSans-6f" d="M 1959 3097 
Q 1497 3097 1228 2736 
Q 959 2375 959 1747 
Q 959 1119 1226 758 
Q 1494 397 1959 397 
Q 2419 397 2687 759 
Q 2956 1122 2956 1747 
Q 2956 2369 2687 2733 
Q 2419 3097 1959 3097 
z
M 1959 3584 
Q 2709 3584 3137 3096 
Q 3566 2609 3566 1747 
Q 3566 888 3137 398 
Q 2709 -91 1959 -91 
Q 1206 -91 779 398 
Q 353 888 353 1747 
Q 353 2609 779 3096 
Q 1206 3584 1959 3584 
z
" transform="scale(0.015625)"/>
       <path id="DejaVuSans-69" d="M 603 3500 
L 1178 3500 
L 1178 0 
L 603 0 
L 603 3500 
z
M 603 4863 
L 1178 4863 
L 1178 4134 
L 603 4134 
L 603 4863 
z
" transform="scale(0.015625)"/>
       <path id="DejaVuSans-74" d="M 1172 4494 
L 1172 3500 
L 2356 3500 
L 2356 3053 
L 1172 3053 
L 1172 1153 
Q 1172 725 1289 603 
Q 1406 481 1766 481 
L 2356 481 
L 2356 0 
L 1766 0 
Q 1100 0 847 248 
Q 594 497 594 1153 
L 594 3053 
L 172 3053 
L 172 3500 
L 594 3500 
L 594 4494 
L 1172 4494 
z
" transform="scale(0.015625)"/>
       <path id="DejaVuSans-76" d="M 191 3500 
L 800 3500 
L 1894 563 
L 2988 3500 
L 3597 3500 
L 2284 0 
L 1503 0 
L 191 3500 
z
" transform="scale(0.015625)"/>
       <path id="DejaVuSans-52" d="M 2841 2188 
Q 3044 2119 3236 1894 
Q 3428 1669 3622 1275 
L 4263 0 
L 3584 0 
L 2988 1197 
Q 2756 1666 2539 1819 
Q 2322 1972 1947 1972 
L 1259 1972 
L 1259 0 
L 628 0 
L 628 4666 
L 2053 4666 
Q 2853 4666 3247 4331 
Q 3641 3997 3641 3322 
Q 3641 2881 3436 2590 
Q 3231 2300 2841 2188 
z
M 1259 4147 
L 1259 2491 
L 2053 2491 
Q 2509 2491 2742 2702 
Q 2975 2913 2975 3322 
Q 2975 3731 2742 3939 
Q 2509 4147 2053 4147 
L 1259 4147 
z
" transform="scale(0.015625)"/>
      </defs>
      <use xlink:href="#DejaVuSans-46"/>
      <use xlink:href="#DejaVuSans-61" x="48.394531"/>
      <use xlink:href="#DejaVuSans-6c" x="109.673828"/>
      <use xlink:href="#DejaVuSans-73" x="137.457031"/>
      <use xlink:href="#DejaVuSans-65" x="189.556641"/>
      <use xlink:href="#DejaVuSans-20" x="251.080078"/>
      <use xlink:href="#DejaVuSans-50" x="282.867188"/>
      <use xlink:href="#DejaVuSans-6f" x="339.544922"/>
      <use xlink:href="#DejaVuSans-73" x="400.726562"/>
      <use xlink:href="#DejaVuSans-69" x="452.826172"/>
      <use xlink:href="#DejaVuSans-74" x="480.609375"/>
      <use xlink:href="#DejaVuSans-69" x="519.818359"/>
      <use xlink:href="#DejaVuSans-76" x="547.601562"/>
      <use xlink:href="#DejaVuSans-65" x="606.78125"/>
      <use xlink:href="#DejaVuSans-20" x="668.304688"/>
      <use xlink:href="#DejaVuSans-52" x="700.091797"/>
      <use xlink:href="#DejaVuSans-61" x="767.324219"/>
      <use xlink:href="#DejaVuSans-74" x="828.603516"/>
      <use xlink:href="#DejaVuSans-65" x="867.8125"/>
     </g>
    </g>
   </g>
   <g id="matplotlib.axis_2">
    <g id="ytick_1">
     <g id="line2d_7">
      <defs>
       <path id="mb4ab750436" d="M 0 0 
L -3.5 0 
" style="stroke: #000000; stroke-width: 0.8"/>
      </defs>
      <g>
       <use xlink:href="#mb4ab750436" x="43.78125" y="315.398125" style="stroke: #000000; stroke-width: 0.8"/>
      </g>
     </g>
     <g id="text_8">
      <!-- 0.0 -->
      <g transform="translate(20.878125 319.197344) scale(0.1 -0.1)">
       <use xlink:href="#DejaVuSans-30"/>
       <use xlink:href="#DejaVuSans-2e" x="63.623047"/>
       <use xlink:href="#DejaVuSans-30" x="95.410156"/>
      </g>
     </g>
    </g>
    <g id="ytick_2">
     <g id="line2d_8">
      <g>
       <use xlink:href="#mb4ab750436" x="43.78125" y="256.782125" style="stroke: #000000; stroke-width: 0.8"/>
      </g>
     </g>
     <g id="text_9">
      <!-- 0.2 -->
      <g transform="translate(20.878125 260.581344) scale(0.1 -0.1)">
       <use xlink:href="#DejaVuSans-30"/>
       <use xlink:href="#DejaVuSans-2e" x="63.623047"/>
       <use xlink:href="#DejaVuSans-32" x="95.410156"/>
      </g>
     </g>
    </g>
    <g id="ytick_3">
     <g id="line2d_9">
      <g>
       <use xlink:href="#mb4ab750436" x="43.78125" y="198.166125" style="stroke: #000000; stroke-width: 0.8"/>
      </g>
     </g>
     <g id="text_10">
      <!-- 0.4 -->
      <g transform="translate(20.878125 201.965344) scale(0.1 -0.1)">
       <use xlink:href="#DejaVuSans-30"/>
       <use xlink:href="#DejaVuSans-2e" x="63.623047"/>
       <use xlink:href="#DejaVuSans-34" x="95.410156"/>
      </g>
     </g>
    </g>
    <g id="ytick_4">
     <g id="line2d_10">
      <g>
       <use xlink:href="#mb4ab750436" x="43.78125" y="139.550125" style="stroke: #000000; stroke-width: 0.8"/>
      </g>
     </g>
     <g id="text_11">
      <!-- 0.6 -->
      <g transform="translate(20.878125 143.349344) scale(0.1 -0.1)">
       <use xlink:href="#DejaVuSans-30"/>
       <use xlink:href="#DejaVuSans-2e" x="63.623047"/>
       <use xlink:href="#DejaVuSans-36" x="95.410156"/>
      </g>
     </g>
    </g>
    <g id="ytick_5">
     <g id="line2d_11">
      <g>
       <use xlink:href="#mb4ab750436" x="43.78125" y="80.934125" style="stroke: #000000; stroke-width: 0.8"/>
      </g>
     </g>
     <g id="text_12">
      <!-- 0.8 -->
      <g transform="translate(20.878125 84.733344) scale(0.1 -0.1)">
       <use xlink:href="#DejaVuSans-30"/>
       <use xlink:href="#DejaVuSans-2e" x="63.623047"/>
       <use xlink:href="#DejaVuSans-38" x="95.410156"/>
      </g>
     </g>
    </g>
    <g id="ytick_6">
     <g id="line2d_12">
      <g>
       <use xlink:href="#mb4ab750436" x="43.78125" y="22.318125" style="stroke: #000000; stroke-width: 0.8"/>
      </g>
     </g>
     <g id="text_13">
      <!-- 1.0 -->
      <g transform="translate(20.878125 26.117344) scale(0.1 -0.1)">
       <use xlink:href="#DejaVuSans-31"/>
       <use xlink:href="#DejaVuSans-2e" x="63.623047"/>
       <use xlink:href="#DejaVuSans-30" x="95.410156"/>
      </g>
     </g>
    </g>
    <g id="text_14">
     <!-- True Positive Rate -->
     <g transform="translate(14.798438 213.387812) rotate(-90) scale(0.1 -0.1)">
      <defs>
       <path id="DejaVuSans-54" d="M -19 4666 
L 3928 4666 
L 3928 4134 
L 2272 4134 
L 2272 0 
L 1638 0 
L 1638 4134 
L -19 4134 
L -19 4666 
z
" transform="scale(0.015625)"/>
       <path id="DejaVuSans-72" d="M 2631 2963 
Q 2534 3019 2420 3045 
Q 2306 3072 2169 3072 
Q 1681 3072 1420 2755 
Q 1159 2438 1159 1844 
L 1159 0 
L 581 0 
L 581 3500 
L 1159 3500 
L 1159 2956 
Q 1341 3275 1631 3429 
Q 1922 3584 2338 3584 
Q 2397 3584 2469 3576 
Q 2541 3569 2628 3553 
L 2631 2963 
z
" transform="scale(0.015625)"/>
       <path id="DejaVuSans-75" d="M 544 1381 
L 544 3500 
L 1119 3500 
L 1119 1403 
Q 1119 906 1312 657 
Q 1506 409 1894 409 
Q 2359 409 2629 706 
Q 2900 1003 2900 1516 
L 2900 3500 
L 3475 3500 
L 3475 0 
L 2900 0 
L 2900 538 
Q 2691 219 2414 64 
Q 2138 -91 1772 -91 
Q 1169 -91 856 284 
Q 544 659 544 1381 
z
M 1991 3584 
L 1991 3584 
z
" transform="scale(0.015625)"/>
      </defs>
      <use xlink:href="#DejaVuSans-54"/>
      <use xlink:href="#DejaVuSans-72" x="46.333984"/>
      <use xlink:href="#DejaVuSans-75" x="87.447266"/>
      <use xlink:href="#DejaVuSans-65" x="150.826172"/>
      <use xlink:href="#DejaVuSans-20" x="212.349609"/>
      <use xlink:href="#DejaVuSans-50" x="244.136719"/>
      <use xlink:href="#DejaVuSans-6f" x="300.814453"/>
      <use xlink:href="#DejaVuSans-73" x="361.996094"/>
      <use xlink:href="#DejaVuSans-69" x="414.095703"/>
      <use xlink:href="#DejaVuSans-74" x="441.878906"/>
      <use xlink:href="#DejaVuSans-69" x="481.087891"/>
      <use xlink:href="#DejaVuSans-76" x="508.871094"/>
      <use xlink:href="#DejaVuSans-65" x="568.050781"/>
      <use xlink:href="#DejaVuSans-20" x="629.574219"/>
      <use xlink:href="#DejaVuSans-52" x="661.361328"/>
      <use xlink:href="#DejaVuSans-61" x="728.59375"/>
      <use xlink:href="#DejaVuSans-74" x="789.873047"/>
      <use xlink:href="#DejaVuSans-65" x="829.082031"/>
     </g>
    </g>
   </g>
   <g id="line2d_13">
    <path d="M 43.78125 314.469061 
L 45.258386 313.027108 
L 46.735521 310.582234 
L 48.212657 309.148487 
L 49.689793 307.411109 
L 51.166928 305.976775 
L 52.644064 303.544211 
L 54.1212 301.908825 
L 55.598335 299.745895 
L 57.075471 298.534888 
L 58.552607 296.68907 
L 60.029742 295.355556 
L 61.506878 292.97516 
L 62.984014 291.099448 
L 64.461149 288.284708 
L 65.938285 286.156947 
L 67.415421 283.232009 
L 68.892557 281.497561 
L 70.369692 278.820569 
L 71.846828 277.169942 
L 73.323964 274.82413 
L 74.801099 273.422035 
L 76.278235 271.702242 
L 77.755371 270.710459 
L 79.232506 269.218682 
L 80.709642 268.160077 
L 82.186778 266.444973 
L 83.663913 265.257412 
L 85.141049 263.484865 
L 86.618185 262.328957 
L 88.09532 260.836594 
L 89.572456 259.780333 
L 91.049592 258.273902 
L 92.526727 257.210022 
L 94.003863 255.281555 
L 95.480999 253.762229 
L 96.958134 251.091098 
L 98.43527 249.262865 
L 99.912406 246.373096 
L 101.389541 244.477454 
L 104.343813 239.018546 
L 105.820948 237.475773 
L 107.298084 235.378493 
L 108.77522 234.150487 
L 110.252356 232.458243 
L 111.729491 231.294716 
L 113.206627 229.512203 
L 114.683763 228.190999 
L 116.160898 226.081409 
L 117.638034 224.607216 
L 119.11517 222.376878 
L 120.592305 220.845828 
L 122.069441 218.630729 
L 123.546577 217.06451 
L 125.023712 214.967815 
L 126.500848 213.573341 
L 127.977984 211.525298 
L 129.455119 210.329531 
L 130.932255 208.724625 
L 132.409391 207.712913 
L 133.886526 206.506009 
L 135.363662 205.662525 
L 136.840798 204.595714 
L 138.317933 203.889391 
L 139.795069 202.77979 
L 141.272205 201.952719 
L 142.74934 200.637376 
L 144.226476 199.663764 
L 145.703612 198.126266 
L 147.180747 197.01901 
L 148.657883 195.305664 
L 150.135019 194.150343 
L 151.612155 192.391863 
L 153.08929 191.225404 
L 154.566426 189.472786 
L 156.043562 188.398941 
L 157.520697 186.795793 
L 158.997833 185.791701 
L 160.474969 184.364402 
L 161.952104 183.165704 
L 163.42924 182.40311 
L 164.906376 181.333368 
L 166.383511 180.676283 
L 167.860647 179.659295 
L 169.337783 178.963523 
L 170.814918 177.86037 
L 172.292054 177.030954 
L 173.76919 175.651133 
L 175.246325 174.635904 
L 176.723461 172.981174 
L 178.200597 171.773685 
L 179.677732 169.85108 
L 181.154868 168.480638 
L 182.632004 166.52345 
L 184.109139 165.289583 
L 185.586275 163.449627 
L 187.063411 162.222208 
L 188.540546 160.549307 
L 190.017682 159.4696 
L 191.494818 157.777943 
L 192.971954 156.643137 
L 194.449089 154.859452 
L 195.926225 153.557004 
L 197.403361 151.552923 
L 198.880496 150.202997 
L 200.357632 147.995518 
L 201.834768 146.452159 
L 203.311903 144.208339 
L 204.789039 142.68315 
L 206.266175 140.63159 
L 207.74331 139.376622 
L 209.220446 137.656828 
L 210.697582 136.503265 
L 212.174717 134.819228 
L 213.651853 133.674457 
L 215.128989 132.036726 
L 216.606124 130.910127 
L 218.08326 129.23664 
L 219.560396 128.098317 
L 221.037531 126.427761 
L 222.514667 124.950638 
L 223.991803 124.040331 
L 225.468938 122.705645 
L 226.946074 121.85161 
L 228.42321 120.622432 
L 229.900345 119.872148 
L 231.377481 118.770753 
L 232.854617 118.055052 
L 234.331753 116.950726 
L 235.808888 116.100208 
L 237.286024 114.922613 
L 238.76316 114.042786 
L 240.240295 112.624279 
L 241.717431 111.645392 
L 243.194567 110.110239 
L 244.671702 109.074494 
L 246.148838 107.5411 
L 247.625974 106.443808 
L 249.103109 104.797871 
L 250.580245 103.694718 
L 252.057381 101.863554 
L 253.534516 100.555831 
L 255.011652 98.533579 
L 256.488788 97.297368 
L 257.965923 95.593987 
L 259.443059 94.476766 
L 260.920195 92.9252 
L 262.39733 92.014894 
L 263.874466 90.7271 
L 265.351602 89.98678 
L 266.828737 88.867214 
L 268.305873 88.140962 
L 269.783009 86.884235 
L 271.260144 85.943448 
L 272.73728 84.310993 
L 274.214416 83.07654 
L 275.691552 80.960502 
L 277.168687 79.482207 
L 280.122959 74.681556 
L 281.600094 73.144645 
L 283.07723 70.947717 
L 284.554366 69.649373 
L 286.031501 67.902616 
L 287.508637 66.824081 
L 288.985773 65.338752 
L 290.462908 64.444272 
L 291.940044 62.995871 
L 293.41718 61.974194 
L 294.894315 60.275502 
L 296.371451 59.088528 
L 297.848587 57.153028 
L 299.325722 55.830651 
L 300.802858 53.957869 
L 302.279994 52.739829 
L 303.757129 51.096236 
L 305.234265 50.11266 
L 306.711401 48.718771 
L 308.188536 47.838945 
L 309.665672 46.536498 
L 311.142808 45.634984 
L 312.619943 44.274506 
L 314.097079 43.365958 
L 315.574215 41.876526 
L 317.051351 40.637383 
L 318.528486 38.634475 
L 320.005622 37.29803 
L 321.482758 35.500277 
L 322.959893 34.433466 
L 324.437029 32.910622 
L 325.914165 31.899496 
L 327.3913 30.370791 
L 328.868436 29.337977 
L 330.345572 27.703763 
L 331.822707 26.809869 
L 334.776979 25.410119 
L 337.73125 22.318125 
L 337.73125 22.318125 
" clip-path="url(#p8c6a5ab734)" style="fill: none; stroke: #1f77b4; stroke-width: 2; stroke-linecap: square"/>
   </g>
   <g id="line2d_14">
    <path d="M 43.78125 314.030614 
L 45.258386 312.412812 
L 46.735521 308.817893 
L 48.212657 305.610425 
L 49.689793 300.87308 
L 52.644064 295.769971 
L 54.1212 294.426493 
L 55.598335 292.108816 
L 57.075471 290.48105 
L 58.552607 287.820469 
L 60.029742 286.157533 
L 61.506878 283.686283 
L 62.984014 281.891461 
L 64.461149 279.025725 
L 65.938285 277.181665 
L 67.415421 274.740895 
L 68.892557 273.180537 
L 70.369692 271.005884 
L 71.846828 269.618443 
L 73.323964 267.446134 
L 74.801099 265.960218 
L 76.278235 263.588029 
L 77.755371 261.952056 
L 79.232506 259.283856 
L 80.709642 257.583406 
L 82.186778 255.066435 
L 83.663913 253.443358 
L 85.141049 251.039515 
L 86.618185 249.460987 
L 88.09532 247.173204 
L 89.572456 245.567712 
L 91.049592 243.327995 
L 92.526727 241.895419 
L 94.003863 239.88196 
L 95.480999 238.605303 
L 96.958134 236.720213 
L 98.43527 235.448832 
L 99.912406 233.49223 
L 101.389541 232.107134 
L 104.343813 227.961224 
L 105.820948 226.515167 
L 107.298084 224.376269 
L 108.77522 222.989415 
L 110.252356 220.848759 
L 111.729491 219.530485 
L 113.206627 217.566263 
L 114.683763 216.291365 
L 116.160898 214.572157 
L 117.638034 213.37346 
L 119.11517 211.676527 
L 120.592305 210.600337 
L 122.069441 208.974329 
L 123.546577 207.899898 
L 125.023712 206.462047 
L 126.500848 205.461472 
L 127.977984 203.960903 
L 129.455119 202.970292 
L 130.932255 201.479101 
L 132.409391 200.43984 
L 133.886526 198.613951 
L 135.363662 197.464491 
L 136.840798 195.640948 
L 138.317933 194.436389 
L 139.795069 192.695494 
L 141.272205 191.50383 
L 142.74934 189.767625 
L 144.226476 188.628716 
L 145.703612 186.823929 
L 147.180747 185.708467 
L 148.657883 184.029118 
L 150.135019 182.994546 
L 151.612155 181.513906 
L 153.08929 180.585428 
L 154.566426 179.114753 
L 156.043562 178.192137 
L 157.520697 176.695084 
L 158.997833 175.740816 
L 161.952104 173.036273 
L 163.42924 172.123036 
L 164.906376 170.852827 
L 166.383511 170.043927 
L 167.860647 168.797751 
L 169.337783 167.943715 
L 170.814918 166.622511 
L 172.292054 165.645382 
L 173.76919 164.213393 
L 175.246325 163.184096 
L 176.723461 161.704042 
L 178.200597 160.673573 
L 179.677732 159.180623 
L 181.154868 158.174773 
L 182.632004 156.715821 
L 184.109139 155.699419 
L 185.586275 154.296152 
L 187.063411 153.362985 
L 188.540546 151.941547 
L 190.017682 151.045895 
L 191.494818 149.735241 
L 192.971954 148.795627 
L 194.449089 147.446873 
L 195.926225 146.49319 
L 197.403361 144.952176 
L 198.880496 143.947497 
L 200.357632 142.361935 
L 201.834768 141.298054 
L 203.311903 139.660909 
L 204.789039 138.558928 
L 206.266175 136.770554 
L 207.74331 135.587683 
L 209.220446 133.754175 
L 210.697582 132.58713 
L 212.174717 130.804032 
L 213.651853 129.669226 
L 215.128989 127.971707 
L 216.606124 126.838659 
L 218.08326 125.228478 
L 219.560396 124.225558 
L 222.514667 121.315274 
L 223.991803 120.416104 
L 225.468938 119.070281 
L 226.946074 118.25376 
L 228.42321 116.875698 
L 229.900345 115.975942 
L 231.377481 114.570917 
L 232.854617 113.626613 
L 234.331753 112.159454 
L 235.808888 111.191704 
L 237.286024 109.73158 
L 238.76316 108.763829 
L 240.240295 107.314842 
L 241.717431 106.403949 
L 243.194567 105.044644 
L 244.671702 104.168335 
L 246.148838 102.797307 
L 247.625974 101.890517 
L 249.103109 100.527695 
L 250.580245 99.578702 
L 252.057381 98.167815 
L 253.534516 97.289161 
L 255.011652 95.939235 
L 256.488788 95.106888 
L 257.965923 93.878296 
L 259.443059 93.052983 
L 260.920195 91.724158 
L 262.39733 90.863089 
L 263.874466 89.57471 
L 265.351602 88.704848 
L 266.828737 87.558319 
L 268.305873 86.791036 
L 269.783009 85.649782 
L 271.260144 84.835606 
L 272.73728 83.519091 
L 274.214416 82.541962 
L 275.691552 80.969295 
L 277.168687 79.85266 
L 280.122959 76.39373 
L 281.600094 75.200308 
L 283.07723 73.217329 
L 284.554366 71.794132 
L 286.031501 69.695093 
L 287.508637 68.351614 
L 288.985773 66.621856 
L 290.462908 65.599593 
L 291.940044 64.192809 
L 293.41718 63.366324 
L 294.894315 62.142422 
L 296.371451 61.274319 
L 297.848587 59.86519 
L 299.325722 58.876338 
L 300.802858 57.21223 
L 302.279994 56.03229 
L 303.757129 54.371112 
L 305.234265 53.30899 
L 306.711401 51.939134 
L 308.188536 51.101512 
L 309.665672 49.942673 
L 311.142808 49.114429 
L 312.619943 47.687716 
L 314.097079 46.553496 
L 315.574215 44.689508 
L 317.051351 43.388232 
L 318.528486 41.418149 
L 320.005622 40.225899 
L 321.482758 38.494969 
L 322.959893 37.237069 
L 324.437029 35.062416 
L 325.914165 33.587051 
L 327.3913 31.885429 
L 328.868436 30.907127 
L 330.345572 29.511481 
L 331.822707 28.496251 
L 333.299843 26.790526 
L 336.254114 23.996887 
L 337.73125 22.318125 
L 337.73125 22.318125 
" clip-path="url(#p8c6a5ab734)" style="fill: none; stroke: #ff7f0e; stroke-width: 2; stroke-linecap: square"/>
   </g>
   <g id="line2d_15">
    <path d="M 43.78125 312.892877 
L 45.258386 310.728774 
L 46.735521 307.603369 
L 48.212657 305.704211 
L 49.689793 303.397085 
L 51.166928 301.391832 
L 52.644064 298.231257 
L 54.1212 296.063051 
L 55.598335 292.686183 
L 57.075471 290.701446 
L 58.552607 288.249538 
L 60.029742 286.675699 
L 61.506878 283.766587 
L 62.984014 281.562039 
L 64.461149 278.115418 
L 65.938285 276.105476 
L 67.415421 273.207501 
L 68.892557 271.35758 
L 70.369692 268.732755 
L 71.846828 266.735122 
L 73.323964 263.49776 
L 74.801099 261.395204 
L 76.278235 258.483747 
L 77.755371 256.533007 
L 79.232506 253.959178 
L 80.709642 252.398821 
L 82.186778 250.137415 
L 83.663913 248.679049 
L 85.141049 246.478018 
L 86.618185 244.880146 
L 88.09532 242.400689 
L 89.572456 240.575973 
L 91.049592 237.840951 
L 92.526727 236.080126 
L 94.003863 233.646976 
L 95.480999 232.11534 
L 96.958134 230.020404 
L 98.43527 228.705647 
L 99.912406 226.808247 
L 101.389541 225.650581 
L 104.343813 222.371602 
L 105.820948 221.368682 
L 107.298084 219.788395 
L 108.77522 218.780786 
L 110.252356 217.324765 
L 111.729491 216.260884 
L 113.206627 214.651289 
L 114.683763 213.654817 
L 116.160898 212.042291 
L 117.638034 211.03644 
L 119.11517 209.550525 
L 120.592305 208.643149 
L 122.069441 207.324289 
L 123.546577 206.558178 
L 125.023712 205.506607 
L 126.500848 204.785044 
L 127.977984 203.681891 
L 129.455119 202.895264 
L 130.932255 201.648502 
L 132.409391 200.783329 
L 133.886526 199.350754 
L 135.363662 198.367764 
L 136.840798 196.964497 
L 138.317933 195.963922 
L 139.795069 194.371911 
L 141.272205 193.279895 
L 142.74934 191.720123 
L 144.226476 190.624004 
L 145.703612 189.037855 
L 147.180747 188.041383 
L 148.657883 186.495679 
L 150.135019 185.516206 
L 151.612155 184.070149 
L 153.08929 182.995132 
L 154.566426 181.337471 
L 156.043562 180.113569 
L 157.520697 178.16576 
L 158.997833 176.846313 
L 161.952104 173.181641 
L 163.42924 172.158206 
L 164.906376 170.718597 
L 166.383511 169.879802 
L 167.860647 168.72155 
L 169.337783 167.969506 
L 170.814918 166.833528 
L 172.292054 166.032248 
L 173.76919 164.831792 
L 175.246325 163.937898 
L 176.723461 162.520563 
L 178.200597 161.483646 
L 179.677732 159.761508 
L 181.154868 158.48661 
L 182.632004 156.47022 
L 184.109139 155.056988 
L 185.586275 152.91047 
L 187.063411 151.354215 
L 188.540546 149.152598 
L 190.017682 147.608653 
L 191.494818 145.42169 
L 192.971954 144.03718 
L 194.449089 141.934624 
L 195.926225 140.577663 
L 197.403361 138.765257 
L 198.880496 137.577429 
L 200.357632 135.847747 
L 201.834768 134.702075 
L 203.311903 133.047814 
L 204.789039 131.94846 
L 206.266175 130.347459 
L 207.74331 129.195635 
L 209.220446 127.471161 
L 210.697582 126.295145 
L 212.174717 124.526697 
L 213.651853 123.374346 
L 215.128989 121.712385 
L 216.606124 120.590671 
L 218.08326 118.978712 
L 219.560396 117.895672 
L 222.514667 114.605412 
L 223.991803 113.529291 
L 225.468938 111.959574 
L 226.946074 110.956068 
L 228.42321 109.553387 
L 229.900345 108.630185 
L 231.377481 107.251537 
L 232.854617 106.360573 
L 234.331753 105.063988 
L 235.808888 104.223434 
L 237.286024 102.938571 
L 238.76316 102.00306 
L 240.240295 100.657823 
L 241.717431 99.734621 
L 243.194567 98.319044 
L 244.671702 97.397601 
L 246.148838 96.073465 
L 247.625974 95.14323 
L 249.103109 93.81968 
L 250.580245 92.987919 
L 252.057381 91.691919 
L 253.534516 90.809163 
L 255.011652 89.411757 
L 256.488788 88.592305 
L 257.965923 87.264653 
L 259.443059 86.42703 
L 260.920195 85.109343 
L 262.39733 84.239481 
L 263.874466 82.962239 
L 265.351602 82.163303 
L 266.828737 80.954054 
L 268.305873 80.201425 
L 269.783009 79.025588 
L 271.260144 78.310473 
L 272.73728 77.270625 
L 274.214416 76.624091 
L 275.691552 75.64872 
L 277.168687 75.065491 
L 280.122959 73.129991 
L 281.600094 72.438908 
L 283.07723 71.375614 
L 284.554366 70.632363 
L 286.031501 69.560863 
L 287.508637 68.821715 
L 288.985773 67.63181 
L 290.462908 66.774258 
L 291.940044 65.444847 
L 293.41718 64.47358 
L 294.894315 63.005249 
L 296.371451 61.99764 
L 297.848587 60.579719 
L 299.325722 59.69579 
L 300.802858 58.34938 
L 302.279994 57.478346 
L 303.757129 56.034048 
L 305.234265 55.082124 
L 306.711401 53.487769 
L 308.188536 52.413924 
L 309.665672 50.934456 
L 311.142808 49.957327 
L 312.619943 48.527097 
L 314.097079 47.504834 
L 315.574215 46.074604 
L 317.051351 45.191847 
L 318.528486 43.775684 
L 320.005622 42.673117 
L 321.482758 40.477948 
L 322.959893 38.579962 
L 324.437029 35.569444 
L 327.3913 32.330324 
L 328.868436 31.589418 
L 330.345572 30.482161 
L 331.822707 29.636333 
L 333.299843 28.567763 
L 334.776979 27.732485 
L 336.254114 26.18385 
L 337.73125 22.318125 
L 337.73125 22.318125 
" clip-path="url(#p8c6a5ab734)" style="fill: none; stroke: #2ca02c; stroke-width: 2; stroke-linecap: square"/>
   </g>
   <g id="line2d_16">
    <path d="M 43.78125 313.857697 
L 45.258386 310.628541 
L 46.735521 306.562349 
L 49.689793 302.799202 
L 51.166928 301.771077 
L 52.644064 300.005563 
L 54.1212 298.75587 
L 55.598335 296.809233 
L 57.075471 295.364935 
L 58.552607 292.843861 
L 60.029742 290.985147 
L 61.506878 288.327498 
L 62.984014 286.707351 
L 64.461149 284.073148 
L 65.938285 282.183955 
L 67.415421 279.237328 
L 68.892557 277.478848 
L 70.369692 275.176998 
L 71.846828 273.774903 
L 73.323964 271.735653 
L 74.801099 270.323593 
L 76.278235 268.131355 
L 77.755371 266.67885 
L 79.232506 264.284973 
L 80.709642 262.552284 
L 82.186778 259.913978 
L 83.663913 258.266282 
L 85.141049 255.969707 
L 86.618185 254.428693 
L 88.09532 251.966821 
L 89.572456 250.272232 
L 91.049592 247.734159 
L 92.526727 245.925856 
L 94.003863 243.262345 
L 95.480999 241.574204 
L 96.958134 239.312212 
L 98.43527 237.819849 
L 99.912406 235.763014 
L 101.389541 234.529147 
L 104.343813 230.801755 
L 105.820948 229.621815 
L 107.298084 227.926641 
L 108.77522 226.793007 
L 110.252356 225.247303 
L 111.729491 224.137702 
L 113.206627 222.569724 
L 114.683763 221.499396 
L 116.160898 219.744433 
L 117.638034 218.531668 
L 119.11517 216.594409 
L 120.592305 215.200521 
L 122.069441 213.076277 
L 123.546577 211.66539 
L 125.023712 209.483116 
L 126.500848 208.036473 
L 127.977984 205.895817 
L 129.455119 204.499584 
L 130.932255 202.449782 
L 132.409391 201.044757 
L 133.886526 199.10105 
L 135.363662 197.853702 
L 136.840798 195.974473 
L 138.317933 194.891249 
L 139.795069 193.261138 
L 141.272205 192.220704 
L 142.74934 190.666208 
L 144.226476 189.639255 
L 145.703612 188.092379 
L 147.180747 187.087701 
L 148.657883 185.530274 
L 150.135019 184.496288 
L 151.612155 182.920103 
L 153.08929 181.872635 
L 154.566426 180.434785 
L 156.043562 179.50748 
L 157.520697 178.158726 
L 158.997833 177.298243 
L 161.952104 174.794753 
L 163.42924 173.971785 
L 164.906376 172.6582 
L 166.383511 171.820578 
L 167.860647 170.523406 
L 169.337783 169.651786 
L 170.814918 168.226245 
L 172.292054 167.291319 
L 173.76919 165.7632 
L 175.246325 164.674115 
L 176.723461 162.969562 
L 178.200597 161.782001 
L 179.677732 160.014729 
L 181.154868 158.788482 
L 182.632004 156.985454 
L 184.109139 155.661319 
L 185.586275 153.758643 
L 187.063411 152.501916 
L 188.540546 150.623274 
L 190.017682 149.344859 
L 191.494818 147.278058 
L 192.971954 145.914064 
L 194.449089 143.72886 
L 195.926225 142.242358 
L 197.403361 140.085875 
L 198.880496 138.637206 
L 200.357632 136.545864 
L 201.834768 135.29058 
L 203.311903 133.393648 
L 204.789039 132.179994 
L 206.266175 130.441244 
L 207.74331 129.246045 
L 209.220446 127.440095 
L 210.697582 126.165603 
L 212.174717 124.282854 
L 213.651853 123.005651 
L 215.128989 121.050611 
L 216.606124 119.747773 
L 218.08326 117.817529 
L 219.560396 116.542229 
L 222.514667 112.70977 
L 223.991803 111.475973 
L 225.468938 109.872258 
L 226.946074 108.939677 
L 228.42321 107.76853 
L 229.900345 107.034657 
L 231.377481 105.919195 
L 232.854617 105.216389 
L 234.331753 104.008313 
L 235.808888 103.164829 
L 237.286024 101.670121 
L 238.76316 100.5529 
L 240.240295 98.830176 
L 241.717431 97.608032 
L 243.194567 95.74463 
L 244.671702 94.539485 
L 246.148838 92.852516 
L 247.625974 91.816185 
L 249.103109 90.394747 
L 250.580245 89.541885 
L 252.057381 88.203681 
L 253.534516 87.26055 
L 255.011652 85.891866 
L 256.488788 84.974526 
L 257.965923 83.675009 
L 259.443059 82.729533 
L 260.920195 81.298717 
L 262.39733 80.300486 
L 263.874466 78.989246 
L 265.351602 78.056666 
L 266.828737 76.774734 
L 268.305873 75.92656 
L 269.783009 74.806995 
L 271.260144 74.045573 
L 272.73728 72.904319 
L 274.214416 72.200341 
L 275.691552 71.10598 
L 277.168687 70.345731 
L 280.122959 67.973541 
L 281.600094 67.092543 
L 283.07723 65.666415 
L 284.554366 64.620706 
L 286.031501 62.968907 
L 287.508637 61.850514 
L 288.985773 60.226265 
L 290.462908 59.157109 
L 291.940044 57.655367 
L 293.41718 56.759714 
L 294.894315 55.440854 
L 296.371451 54.607335 
L 297.848587 53.461978 
L 299.325722 52.684144 
L 300.802858 51.454966 
L 302.279994 50.591553 
L 303.757129 49.158978 
L 305.234265 48.106234 
L 306.711401 46.385268 
L 308.188536 45.128541 
L 309.665672 43.446262 
L 311.142808 42.382382 
L 312.619943 41.082279 
L 314.097079 40.339614 
L 315.574215 39.276906 
L 317.051351 38.654404 
L 318.528486 37.516668 
L 320.005622 36.626291 
L 321.482758 35.040728 
L 322.959893 33.824446 
L 324.437029 32.134547 
L 327.3913 30.604669 
L 328.868436 30.168566 
L 331.822707 28.38195 
L 333.299843 26.811628 
L 334.776979 25.747747 
L 336.254114 24.332171 
L 337.73125 22.318125 
L 337.73125 22.318125 
" clip-path="url(#p8c6a5ab734)" style="fill: none; stroke: #d62728; stroke-width: 2; stroke-linecap: square"/>
   </g>
   <g id="line2d_17">
    <path d="M 43.78125 313.219954 
L 45.258386 311.785621 
L 46.735521 309.533594 
L 48.212657 307.772183 
L 49.689793 304.276325 
L 51.166928 301.402969 
L 52.644064 297.040766 
L 55.598335 292.559573 
L 57.075471 291.226645 
L 58.552607 289.194428 
L 60.029742 287.709099 
L 61.506878 285.230228 
L 62.984014 283.439509 
L 64.461149 280.465334 
L 65.938285 278.359847 
L 67.415421 275.378637 
L 68.892557 273.414415 
L 70.369692 270.668842 
L 71.846828 269.070969 
L 73.323964 266.769119 
L 74.801099 265.413331 
L 76.278235 263.49014 
L 77.755371 262.315475 
L 79.232506 260.557582 
L 80.709642 259.327818 
L 82.186778 257.449175 
L 83.663913 256.146728 
L 85.141049 254.243466 
L 86.618185 252.9545 
L 88.09532 250.932834 
L 89.572456 249.583494 
L 91.049592 247.42115 
L 92.526727 245.885411 
L 94.003863 243.619902 
L 95.480999 242.001514 
L 96.958134 239.658047 
L 98.43527 238.059002 
L 99.912406 235.768289 
L 101.389541 234.315785 
L 104.343813 229.951823 
L 105.820948 228.566141 
L 107.298084 226.714462 
L 108.77522 225.502283 
L 110.252356 223.689876 
L 111.729491 222.548036 
L 113.206627 220.705735 
L 114.683763 219.427907 
L 116.160898 217.581503 
L 117.638034 216.270263 
L 119.11517 214.352347 
L 120.592305 213.128445 
L 122.069441 211.258009 
L 123.546577 210.029417 
L 125.023712 208.037059 
L 126.500848 206.649033 
L 127.977984 204.476724 
L 129.455119 202.974395 
L 130.932255 200.817327 
L 132.409391 199.346065 
L 133.886526 197.15031 
L 135.363662 195.630397 
L 136.840798 193.511428 
L 138.317933 192.011445 
L 139.795069 189.816276 
L 141.272205 188.460488 
L 142.74934 186.517367 
L 144.226476 185.256537 
L 145.703612 183.455854 
L 147.180747 182.329254 
L 148.657883 180.682145 
L 150.135019 179.604782 
L 151.612155 177.963534 
L 153.08929 176.869174 
L 154.566426 175.171068 
L 156.043562 174.023367 
L 157.520697 172.28423 
L 158.997833 171.159975 
L 160.474969 169.534554 
L 161.952104 168.075601 
L 163.42924 167.126608 
L 164.906376 165.854641 
L 166.383511 165.056877 
L 167.860647 163.905073 
L 169.337783 163.120205 
L 170.814918 161.997122 
L 172.292054 161.253285 
L 173.76919 159.946735 
L 175.246325 159.071011 
L 176.723461 157.744531 
L 178.200597 156.900461 
L 179.677732 155.625563 
L 181.154868 154.789699 
L 182.632004 153.625585 
L 184.109139 152.894057 
L 185.586275 151.878828 
L 187.063411 151.220571 
L 188.540546 150.248717 
L 190.017682 149.617423 
L 191.494818 148.673119 
L 192.971954 148.015448 
L 194.449089 147.000219 
L 195.926225 146.230591 
L 197.403361 144.947486 
L 198.880496 143.972702 
L 200.357632 142.292181 
L 201.834768 141.102863 
L 203.311903 139.049544 
L 204.789039 137.697859 
L 206.266175 135.575374 
L 207.74331 134.317475 
L 209.220446 132.388422 
L 210.697582 131.252444 
L 212.174717 129.527961 
L 213.651853 128.478149 
L 215.128989 126.989889 
L 216.606124 126.019208 
L 218.08326 124.587219 
L 219.560396 123.641156 
L 222.514667 120.819968 
L 223.991803 119.940142 
L 225.468938 118.657624 
L 226.946074 117.737939 
L 228.42321 116.42201 
L 229.900345 115.518737 
L 231.377481 114.007617 
L 232.854617 112.972458 
L 234.331753 111.367552 
L 235.808888 110.280812 
L 237.286024 108.519401 
L 238.76316 107.423282 
L 240.240295 105.714039 
L 241.717431 104.558131 
L 243.194567 102.944433 
L 244.671702 101.911619 
L 246.148838 100.481389 
L 247.625974 99.557601 
L 249.103109 98.245774 
L 250.580245 97.362431 
L 252.057381 96.159045 
L 253.534516 95.338421 
L 255.011652 94.143241 
L 256.488788 93.392956 
L 257.965923 92.257564 
L 259.443059 91.497901 
L 260.920195 90.333787 
L 262.39733 89.579399 
L 263.874466 88.326189 
L 265.351602 87.410021 
L 266.828737 85.903003 
L 268.305873 84.844398 
L 269.783009 83.321555 
L 271.260144 82.344426 
L 272.73728 80.815135 
L 274.214416 79.862625 
L 275.691552 78.491596 
L 277.168687 77.666283 
L 280.122959 75.12821 
L 281.600094 74.196802 
L 283.07723 72.675131 
L 284.554366 71.537394 
L 286.031501 69.666957 
L 287.508637 68.283034 
L 288.985773 66.27778 
L 290.462908 64.907338 
L 291.940044 62.861054 
L 293.41718 61.570329 
L 294.894315 59.729201 
L 296.371451 58.51878 
L 297.848587 57.053967 
L 299.325722 56.260306 
L 300.802858 55.321278 
L 302.279994 54.803698 
L 303.757129 54.111443 
L 305.234265 53.577452 
L 306.711401 52.524122 
L 308.188536 51.646641 
L 309.665672 49.957327 
L 311.142808 48.699428 
L 312.619943 46.814924 
L 314.097079 45.753974 
L 315.574215 44.341915 
L 317.051351 43.500189 
L 318.528486 41.95214 
L 320.005622 40.803267 
L 321.482758 38.572342 
L 322.959893 36.991468 
L 324.437029 34.968044 
L 325.914165 33.78869 
L 327.3913 32.096446 
L 328.868436 30.737141 
L 330.345572 28.523215 
L 333.299843 26.050792 
L 334.776979 25.203791 
L 336.254114 23.893137 
L 337.73125 22.318125 
L 337.73125 22.318125 
" clip-path="url(#p8c6a5ab734)" style="fill: none; stroke: #9467bd; stroke-width: 2; stroke-linecap: square"/>
   </g>
   <g id="line2d_18">
    <path d="M 43.78125 313.928622 
L 46.735521 308.4036 
L 48.212657 306.60294 
L 60.029742 294.980018 
L 337.73125 22.318125 
L 337.73125 22.318125 
" clip-path="url(#p8c6a5ab734)" style="fill: none; stroke: #8c564b; stroke-width: 2; stroke-linecap: square"/>
   </g>
   <g id="line2d_19">
    <path d="M 43.78125 314.066369 
L 46.735521 309.988478 
L 51.166928 302.737322 
L 54.1212 297.278161 
L 55.598335 294.869294 
L 57.075471 291.77375 
L 58.552607 288.401625 
L 61.506878 282.519839 
L 67.415421 269.88781 
L 76.278235 251.790545 
L 89.572456 228.152754 
L 94.003863 221.666494 
L 98.43527 215.911863 
L 108.77522 203.349954 
L 114.683763 195.258311 
L 117.638034 190.90165 
L 125.023712 180.408286 
L 129.455119 175.14088 
L 133.886526 170.011642 
L 139.795069 162.99695 
L 150.135019 151.457486 
L 153.08929 148.647861 
L 161.952104 141.131946 
L 167.860647 135.283799 
L 172.292054 130.799216 
L 178.200597 125.281854 
L 191.494818 113.747407 
L 197.403361 109.364151 
L 203.311903 105.585058 
L 265.351602 67.149921 
L 337.73125 22.318125 
L 337.73125 22.318125 
" clip-path="url(#p8c6a5ab734)" style="fill: none; stroke: #e377c2; stroke-width: 2; stroke-linecap: square"/>
   </g>
   <g id="line2d_20">
    <path d="M 43.78125 315.398125 
L 337.73125 22.318125 
" clip-path="url(#p8c6a5ab734)" style="fill: none; stroke-dasharray: 3.7,1.6; stroke-dashoffset: 0; stroke: #7f7f7f"/>
   </g>
   <g id="patch_3">
    <path d="M 43.78125 315.398125 
L 43.78125 22.318125 
" style="fill: none; stroke: #000000; stroke-width: 0.8; stroke-linejoin: miter; stroke-linecap: square"/>
   </g>
   <g id="patch_4">
    <path d="M 337.73125 315.398125 
L 337.73125 22.318125 
" style="fill: none; stroke: #000000; stroke-width: 0.8; stroke-linejoin: miter; stroke-linecap: square"/>
   </g>
   <g id="patch_5">
    <path d="M 43.78125 315.398125 
L 337.73125 315.398125 
" style="fill: none; stroke: #000000; stroke-width: 0.8; stroke-linejoin: miter; stroke-linecap: square"/>
   </g>
   <g id="patch_6">
    <path d="M 43.78125 22.318125 
L 337.73125 22.318125 
" style="fill: none; stroke: #000000; stroke-width: 0.8; stroke-linejoin: miter; stroke-linecap: square"/>
   </g>
   <g id="text_15">
    <!-- $s$ = 0.001 -->
    <g transform="translate(161.59625 16.318125) scale(0.12 -0.12)">
     <defs>
      <path id="DejaVuSans-Oblique-73" d="M 3200 3397 
L 3091 2853 
Q 2863 2978 2609 3040 
Q 2356 3103 2088 3103 
Q 1634 3103 1373 2948 
Q 1113 2794 1113 2528 
Q 1113 2219 1719 2053 
Q 1766 2041 1788 2034 
L 1972 1978 
Q 2547 1819 2739 1644 
Q 2931 1469 2931 1166 
Q 2931 609 2489 259 
Q 2047 -91 1331 -91 
Q 1053 -91 747 -37 
Q 441 16 72 128 
L 184 722 
Q 500 559 806 475 
Q 1113 391 1394 391 
Q 1816 391 2080 572 
Q 2344 753 2344 1031 
Q 2344 1331 1650 1516 
L 1591 1531 
L 1394 1581 
Q 956 1697 753 1886 
Q 550 2075 550 2369 
Q 550 2928 970 3256 
Q 1391 3584 2113 3584 
Q 2397 3584 2667 3537 
Q 2938 3491 3200 3397 
z
" transform="scale(0.015625)"/>
      <path id="DejaVuSans-3d" d="M 678 2906 
L 4684 2906 
L 4684 2381 
L 678 2381 
L 678 2906 
z
M 678 1631 
L 4684 1631 
L 4684 1100 
L 678 1100 
L 678 1631 
z
" transform="scale(0.015625)"/>
     </defs>
     <use xlink:href="#DejaVuSans-Oblique-73" transform="translate(0 0.78125)"/>
     <use xlink:href="#DejaVuSans-20" transform="translate(52.099609 0.78125)"/>
     <use xlink:href="#DejaVuSans-3d" transform="translate(83.886719 0.78125)"/>
     <use xlink:href="#DejaVuSans-20" transform="translate(167.675781 0.78125)"/>
     <use xlink:href="#DejaVuSans-30" transform="translate(199.462891 0.78125)"/>
     <use xlink:href="#DejaVuSans-2e" transform="translate(263.085938 0.78125)"/>
     <use xlink:href="#DejaVuSans-30" transform="translate(294.873047 0.78125)"/>
     <use xlink:href="#DejaVuSans-30" transform="translate(358.496094 0.78125)"/>
     <use xlink:href="#DejaVuSans-31" transform="translate(422.119141 0.78125)"/>
    </g>
   </g>
   <g id="legend_1">
    <g id="patch_7">
     <path d="M 209.49125 311.398125 
L 332.13125 311.398125 
Q 333.73125 311.398125 333.73125 309.798125 
L 333.73125 228.383125 
Q 333.73125 226.783125 332.13125 226.783125 
L 209.49125 226.783125 
Q 207.89125 226.783125 207.89125 228.383125 
L 207.89125 309.798125 
Q 207.89125 311.398125 209.49125 311.398125 
z
" style="fill: #ffffff; opacity: 0.8; stroke: #cccccc; stroke-linejoin: miter"/>
    </g>
    <g id="line2d_21">
     <path d="M 211.09125 233.261875 
L 219.09125 233.261875 
L 227.09125 233.261875 
" style="fill: none; stroke: #1f77b4; stroke-width: 2; stroke-linecap: square"/>
    </g>
    <g id="text_16">
     <!-- $D_{anc}$ (mean AUC = 0.53) -->
     <g transform="translate(233.49125 236.061875) scale(0.08 -0.08)">
      <defs>
       <path id="DejaVuSans-Oblique-44" d="M 1081 4666 
L 2438 4666 
Q 3519 4666 4070 4208 
Q 4622 3750 4622 2847 
Q 4622 2250 4412 1698 
Q 4203 1147 3834 769 
Q 3463 381 2891 190 
Q 2319 0 1538 0 
L 172 0 
L 1081 4666 
z
M 1613 4147 
L 909 519 
L 1734 519 
Q 2794 519 3375 1128 
Q 3956 1738 3956 2847 
Q 3956 3519 3581 3833 
Q 3206 4147 2406 4147 
L 1613 4147 
z
" transform="scale(0.015625)"/>
       <path id="DejaVuSans-Oblique-61" d="M 3438 1997 
L 3047 0 
L 2472 0 
L 2578 531 
Q 2325 219 2001 64 
Q 1678 -91 1281 -91 
Q 834 -91 548 182 
Q 263 456 263 884 
Q 263 1497 752 1853 
Q 1241 2209 2100 2209 
L 2900 2209 
L 2931 2363 
Q 2938 2388 2941 2417 
Q 2944 2447 2944 2509 
Q 2944 2788 2717 2942 
Q 2491 3097 2081 3097 
Q 1800 3097 1504 3025 
Q 1209 2953 897 2809 
L 997 3341 
Q 1322 3463 1633 3523 
Q 1944 3584 2234 3584 
Q 2853 3584 3176 3315 
Q 3500 3047 3500 2534 
Q 3500 2431 3484 2292 
Q 3469 2153 3438 1997 
z
M 2816 1759 
L 2241 1759 
Q 1534 1759 1195 1570 
Q 856 1381 856 984 
Q 856 709 1029 553 
Q 1203 397 1509 397 
Q 1978 397 2328 733 
Q 2678 1069 2791 1631 
L 2816 1759 
z
" transform="scale(0.015625)"/>
       <path id="DejaVuSans-Oblique-6e" d="M 3566 2113 
L 3156 0 
L 2578 0 
L 2988 2091 
Q 3016 2238 3031 2350 
Q 3047 2463 3047 2528 
Q 3047 2791 2881 2937 
Q 2716 3084 2419 3084 
Q 1956 3084 1622 2776 
Q 1288 2469 1184 1941 
L 800 0 
L 225 0 
L 903 3500 
L 1478 3500 
L 1363 2950 
Q 1603 3253 1940 3418 
Q 2278 3584 2650 3584 
Q 3113 3584 3367 3334 
Q 3622 3084 3622 2631 
Q 3622 2519 3608 2391 
Q 3594 2263 3566 2113 
z
" transform="scale(0.015625)"/>
       <path id="DejaVuSans-Oblique-63" d="M 3431 3366 
L 3316 2797 
Q 3109 2947 2876 3022 
Q 2644 3097 2394 3097 
Q 2119 3097 1870 3000 
Q 1622 2903 1453 2725 
Q 1184 2453 1037 2087 
Q 891 1722 891 1331 
Q 891 859 1127 628 
Q 1363 397 1844 397 
Q 2081 397 2348 469 
Q 2616 541 2906 684 
L 2797 116 
Q 2547 13 2283 -39 
Q 2019 -91 1741 -91 
Q 1044 -91 669 257 
Q 294 606 294 1253 
Q 294 1797 489 2255 
Q 684 2713 1069 3078 
Q 1331 3328 1684 3456 
Q 2038 3584 2456 3584 
Q 2700 3584 2940 3529 
Q 3181 3475 3431 3366 
z
" transform="scale(0.015625)"/>
       <path id="DejaVuSans-28" d="M 1984 4856 
Q 1566 4138 1362 3434 
Q 1159 2731 1159 2009 
Q 1159 1288 1364 580 
Q 1569 -128 1984 -844 
L 1484 -844 
Q 1016 -109 783 600 
Q 550 1309 550 2009 
Q 550 2706 781 3412 
Q 1013 4119 1484 4856 
L 1984 4856 
z
" transform="scale(0.015625)"/>
       <path id="DejaVuSans-6d" d="M 3328 2828 
Q 3544 3216 3844 3400 
Q 4144 3584 4550 3584 
Q 5097 3584 5394 3201 
Q 5691 2819 5691 2113 
L 5691 0 
L 5113 0 
L 5113 2094 
Q 5113 2597 4934 2840 
Q 4756 3084 4391 3084 
Q 3944 3084 3684 2787 
Q 3425 2491 3425 1978 
L 3425 0 
L 2847 0 
L 2847 2094 
Q 2847 2600 2669 2842 
Q 2491 3084 2119 3084 
Q 1678 3084 1418 2786 
Q 1159 2488 1159 1978 
L 1159 0 
L 581 0 
L 581 3500 
L 1159 3500 
L 1159 2956 
Q 1356 3278 1631 3431 
Q 1906 3584 2284 3584 
Q 2666 3584 2933 3390 
Q 3200 3197 3328 2828 
z
" transform="scale(0.015625)"/>
       <path id="DejaVuSans-6e" d="M 3513 2113 
L 3513 0 
L 2938 0 
L 2938 2094 
Q 2938 2591 2744 2837 
Q 2550 3084 2163 3084 
Q 1697 3084 1428 2787 
Q 1159 2491 1159 1978 
L 1159 0 
L 581 0 
L 581 3500 
L 1159 3500 
L 1159 2956 
Q 1366 3272 1645 3428 
Q 1925 3584 2291 3584 
Q 2894 3584 3203 3211 
Q 3513 2838 3513 2113 
z
" transform="scale(0.015625)"/>
       <path id="DejaVuSans-41" d="M 2188 4044 
L 1331 1722 
L 3047 1722 
L 2188 4044 
z
M 1831 4666 
L 2547 4666 
L 4325 0 
L 3669 0 
L 3244 1197 
L 1141 1197 
L 716 0 
L 50 0 
L 1831 4666 
z
" transform="scale(0.015625)"/>
       <path id="DejaVuSans-55" d="M 556 4666 
L 1191 4666 
L 1191 1831 
Q 1191 1081 1462 751 
Q 1734 422 2344 422 
Q 2950 422 3222 751 
Q 3494 1081 3494 1831 
L 3494 4666 
L 4128 4666 
L 4128 1753 
Q 4128 841 3676 375 
Q 3225 -91 2344 -91 
Q 1459 -91 1007 375 
Q 556 841 556 1753 
L 556 4666 
z
" transform="scale(0.015625)"/>
       <path id="DejaVuSans-43" d="M 4122 4306 
L 4122 3641 
Q 3803 3938 3442 4084 
Q 3081 4231 2675 4231 
Q 1875 4231 1450 3742 
Q 1025 3253 1025 2328 
Q 1025 1406 1450 917 
Q 1875 428 2675 428 
Q 3081 428 3442 575 
Q 3803 722 4122 1019 
L 4122 359 
Q 3791 134 3420 21 
Q 3050 -91 2638 -91 
Q 1578 -91 968 557 
Q 359 1206 359 2328 
Q 359 3453 968 4101 
Q 1578 4750 2638 4750 
Q 3056 4750 3426 4639 
Q 3797 4528 4122 4306 
z
" transform="scale(0.015625)"/>
       <path id="DejaVuSans-35" d="M 691 4666 
L 3169 4666 
L 3169 4134 
L 1269 4134 
L 1269 2991 
Q 1406 3038 1543 3061 
Q 1681 3084 1819 3084 
Q 2600 3084 3056 2656 
Q 3513 2228 3513 1497 
Q 3513 744 3044 326 
Q 2575 -91 1722 -91 
Q 1428 -91 1123 -41 
Q 819 9 494 109 
L 494 744 
Q 775 591 1075 516 
Q 1375 441 1709 441 
Q 2250 441 2565 725 
Q 2881 1009 2881 1497 
Q 2881 1984 2565 2268 
Q 2250 2553 1709 2553 
Q 1456 2553 1204 2497 
Q 953 2441 691 2322 
L 691 4666 
z
" transform="scale(0.015625)"/>
       <path id="DejaVuSans-33" d="M 2597 2516 
Q 3050 2419 3304 2112 
Q 3559 1806 3559 1356 
Q 3559 666 3084 287 
Q 2609 -91 1734 -91 
Q 1441 -91 1130 -33 
Q 819 25 488 141 
L 488 750 
Q 750 597 1062 519 
Q 1375 441 1716 441 
Q 2309 441 2620 675 
Q 2931 909 2931 1356 
Q 2931 1769 2642 2001 
Q 2353 2234 1838 2234 
L 1294 2234 
L 1294 2753 
L 1863 2753 
Q 2328 2753 2575 2939 
Q 2822 3125 2822 3475 
Q 2822 3834 2567 4026 
Q 2313 4219 1838 4219 
Q 1578 4219 1281 4162 
Q 984 4106 628 3988 
L 628 4550 
Q 988 4650 1302 4700 
Q 1616 4750 1894 4750 
Q 2613 4750 3031 4423 
Q 3450 4097 3450 3541 
Q 3450 3153 3228 2886 
Q 3006 2619 2597 2516 
z
" transform="scale(0.015625)"/>
       <path id="DejaVuSans-29" d="M 513 4856 
L 1013 4856 
Q 1481 4119 1714 3412 
Q 1947 2706 1947 2009 
Q 1947 1309 1714 600 
Q 1481 -109 1013 -844 
L 513 -844 
Q 928 -128 1133 580 
Q 1338 1288 1338 2009 
Q 1338 2731 1133 3434 
Q 928 4138 513 4856 
z
" transform="scale(0.015625)"/>
      </defs>
      <use xlink:href="#DejaVuSans-Oblique-44" transform="translate(0 0.125)"/>
      <use xlink:href="#DejaVuSans-Oblique-61" transform="translate(77.001953 -16.28125) scale(0.7)"/>
      <use xlink:href="#DejaVuSans-Oblique-6e" transform="translate(119.897461 -16.28125) scale(0.7)"/>
      <use xlink:href="#DejaVuSans-Oblique-63" transform="translate(164.262695 -16.28125) scale(0.7)"/>
      <use xlink:href="#DejaVuSans-20" transform="translate(205.483398 0.125)"/>
      <use xlink:href="#DejaVuSans-28" transform="translate(237.270508 0.125)"/>
      <use xlink:href="#DejaVuSans-6d" transform="translate(276.28418 0.125)"/>
      <use xlink:href="#DejaVuSans-65" transform="translate(373.696289 0.125)"/>
      <use xlink:href="#DejaVuSans-61" transform="translate(435.219727 0.125)"/>
      <use xlink:href="#DejaVuSans-6e" transform="translate(496.499023 0.125)"/>
      <use xlink:href="#DejaVuSans-20" transform="translate(559.87793 0.125)"/>
      <use xlink:href="#DejaVuSans-41" transform="translate(591.665039 0.125)"/>
      <use xlink:href="#DejaVuSans-55" transform="translate(660.073242 0.125)"/>
      <use xlink:href="#DejaVuSans-43" transform="translate(733.266602 0.125)"/>
      <use xlink:href="#DejaVuSans-20" transform="translate(803.09082 0.125)"/>
      <use xlink:href="#DejaVuSans-3d" transform="translate(834.87793 0.125)"/>
      <use xlink:href="#DejaVuSans-20" transform="translate(918.666992 0.125)"/>
      <use xlink:href="#DejaVuSans-30" transform="translate(950.454102 0.125)"/>
      <use xlink:href="#DejaVuSans-2e" transform="translate(1014.077148 0.125)"/>
      <use xlink:href="#DejaVuSans-35" transform="translate(1045.864258 0.125)"/>
      <use xlink:href="#DejaVuSans-33" transform="translate(1109.487305 0.125)"/>
      <use xlink:href="#DejaVuSans-29" transform="translate(1173.110352 0.125)"/>
     </g>
    </g>
    <g id="line2d_22">
     <path d="M 211.09125 245.021875 
L 219.09125 245.021875 
L 227.09125 245.021875 
" style="fill: none; stroke: #ff7f0e; stroke-width: 2; stroke-linecap: square"/>
    </g>
    <g id="text_17">
     <!-- $D^+$ (mean AUC = 0.55) -->
     <g transform="translate(233.49125 247.821875) scale(0.08 -0.08)">
      <defs>
       <path id="DejaVuSans-2b" d="M 2944 4013 
L 2944 2272 
L 4684 2272 
L 4684 1741 
L 2944 1741 
L 2944 0 
L 2419 0 
L 2419 1741 
L 678 1741 
L 678 2272 
L 2419 2272 
L 2419 4013 
L 2944 4013 
z
" transform="scale(0.015625)"/>
      </defs>
      <use xlink:href="#DejaVuSans-Oblique-44" transform="translate(0 0.826562)"/>
      <use xlink:href="#DejaVuSans-2b" transform="translate(97.656419 39.107812) scale(0.7)"/>
      <use xlink:href="#DejaVuSans-20" transform="translate(172.680833 0.826562)"/>
      <use xlink:href="#DejaVuSans-28" transform="translate(204.467943 0.826562)"/>
      <use xlink:href="#DejaVuSans-6d" transform="translate(243.481615 0.826562)"/>
      <use xlink:href="#DejaVuSans-65" transform="translate(340.893724 0.826562)"/>
      <use xlink:href="#DejaVuSans-61" transform="translate(402.417161 0.826562)"/>
      <use xlink:href="#DejaVuSans-6e" transform="translate(463.696458 0.826562)"/>
      <use xlink:href="#DejaVuSans-20" transform="translate(527.075365 0.826562)"/>
      <use xlink:href="#DejaVuSans-41" transform="translate(558.862474 0.826562)"/>
      <use xlink:href="#DejaVuSans-55" transform="translate(627.270677 0.826562)"/>
      <use xlink:href="#DejaVuSans-43" transform="translate(700.464036 0.826562)"/>
      <use xlink:href="#DejaVuSans-20" transform="translate(770.288255 0.826562)"/>
      <use xlink:href="#DejaVuSans-3d" transform="translate(802.075365 0.826562)"/>
      <use xlink:href="#DejaVuSans-20" transform="translate(885.864427 0.826562)"/>
      <use xlink:href="#DejaVuSans-30" transform="translate(917.651536 0.826562)"/>
      <use xlink:href="#DejaVuSans-2e" transform="translate(981.274583 0.826562)"/>
      <use xlink:href="#DejaVuSans-35" transform="translate(1013.061693 0.826562)"/>
      <use xlink:href="#DejaVuSans-35" transform="translate(1076.68474 0.826562)"/>
      <use xlink:href="#DejaVuSans-29" transform="translate(1140.307786 0.826562)"/>
     </g>
    </g>
    <g id="line2d_23">
     <path d="M 211.09125 256.764375 
L 219.09125 256.764375 
L 227.09125 256.764375 
" style="fill: none; stroke: #2ca02c; stroke-width: 2; stroke-linecap: square"/>
    </g>
    <g id="text_18">
     <!-- $d_f$ (mean AUC = 0.56) -->
     <g transform="translate(233.49125 259.564375) scale(0.08 -0.08)">
      <defs>
       <path id="DejaVuSans-Oblique-64" d="M 2675 525 
Q 2444 222 2128 65 
Q 1813 -91 1428 -91 
Q 903 -91 598 267 
Q 294 625 294 1247 
Q 294 1766 478 2236 
Q 663 2706 1013 3078 
Q 1244 3325 1534 3454 
Q 1825 3584 2144 3584 
Q 2481 3584 2739 3421 
Q 2997 3259 3138 2956 
L 3513 4863 
L 4091 4863 
L 3144 0 
L 2566 0 
L 2675 525 
z
M 891 1350 
Q 891 897 1095 644 
Q 1300 391 1663 391 
Q 1931 391 2161 520 
Q 2391 650 2566 903 
Q 2750 1166 2856 1509 
Q 2963 1853 2963 2188 
Q 2963 2622 2758 2865 
Q 2553 3109 2194 3109 
Q 1922 3109 1687 2981 
Q 1453 2853 1288 2613 
Q 1106 2353 998 2009 
Q 891 1666 891 1350 
z
" transform="scale(0.015625)"/>
       <path id="DejaVuSans-Oblique-66" d="M 3059 4863 
L 2969 4384 
L 2419 4384 
Q 2106 4384 1964 4261 
Q 1822 4138 1753 3809 
L 1691 3500 
L 2638 3500 
L 2553 3053 
L 1606 3053 
L 1013 0 
L 434 0 
L 1031 3053 
L 481 3053 
L 563 3500 
L 1113 3500 
L 1159 3744 
Q 1278 4363 1576 4613 
Q 1875 4863 2516 4863 
L 3059 4863 
z
" transform="scale(0.015625)"/>
      </defs>
      <use xlink:href="#DejaVuSans-Oblique-64" transform="translate(0 0.015625)"/>
      <use xlink:href="#DejaVuSans-Oblique-66" transform="translate(63.476562 -16.390625) scale(0.7)"/>
      <use xlink:href="#DejaVuSans-20" transform="translate(90.854492 0.015625)"/>
      <use xlink:href="#DejaVuSans-28" transform="translate(122.641602 0.015625)"/>
      <use xlink:href="#DejaVuSans-6d" transform="translate(161.655273 0.015625)"/>
      <use xlink:href="#DejaVuSans-65" transform="translate(259.067383 0.015625)"/>
      <use xlink:href="#DejaVuSans-61" transform="translate(320.59082 0.015625)"/>
      <use xlink:href="#DejaVuSans-6e" transform="translate(381.870117 0.015625)"/>
      <use xlink:href="#DejaVuSans-20" transform="translate(445.249023 0.015625)"/>
      <use xlink:href="#DejaVuSans-41" transform="translate(477.036133 0.015625)"/>
      <use xlink:href="#DejaVuSans-55" transform="translate(545.444336 0.015625)"/>
      <use xlink:href="#DejaVuSans-43" transform="translate(618.637695 0.015625)"/>
      <use xlink:href="#DejaVuSans-20" transform="translate(688.461914 0.015625)"/>
      <use xlink:href="#DejaVuSans-3d" transform="translate(720.249023 0.015625)"/>
      <use xlink:href="#DejaVuSans-20" transform="translate(804.038086 0.015625)"/>
      <use xlink:href="#DejaVuSans-30" transform="translate(835.825195 0.015625)"/>
      <use xlink:href="#DejaVuSans-2e" transform="translate(899.448242 0.015625)"/>
      <use xlink:href="#DejaVuSans-35" transform="translate(931.235352 0.015625)"/>
      <use xlink:href="#DejaVuSans-36" transform="translate(994.858398 0.015625)"/>
      <use xlink:href="#DejaVuSans-29" transform="translate(1058.481445 0.015625)"/>
     </g>
    </g>
    <g id="line2d_24">
     <path d="M 211.09125 268.506875 
L 219.09125 268.506875 
L 227.09125 268.506875 
" style="fill: none; stroke: #d62728; stroke-width: 2; stroke-linecap: square"/>
    </g>
    <g id="text_19">
     <!-- $f_d$ (mean AUC = 0.56) -->
     <g transform="translate(233.49125 271.306875) scale(0.08 -0.08)">
      <use xlink:href="#DejaVuSans-Oblique-66" transform="translate(0 0.015625)"/>
      <use xlink:href="#DejaVuSans-Oblique-64" transform="translate(35.205078 -16.390625) scale(0.7)"/>
      <use xlink:href="#DejaVuSans-20" transform="translate(82.373047 0.015625)"/>
      <use xlink:href="#DejaVuSans-28" transform="translate(114.160156 0.015625)"/>
      <use xlink:href="#DejaVuSans-6d" transform="translate(153.173828 0.015625)"/>
      <use xlink:href="#DejaVuSans-65" transform="translate(250.585938 0.015625)"/>
      <use xlink:href="#DejaVuSans-61" transform="translate(312.109375 0.015625)"/>
      <use xlink:href="#DejaVuSans-6e" transform="translate(373.388672 0.015625)"/>
      <use xlink:href="#DejaVuSans-20" transform="translate(436.767578 0.015625)"/>
      <use xlink:href="#DejaVuSans-41" transform="translate(468.554688 0.015625)"/>
      <use xlink:href="#DejaVuSans-55" transform="translate(536.962891 0.015625)"/>
      <use xlink:href="#DejaVuSans-43" transform="translate(610.15625 0.015625)"/>
      <use xlink:href="#DejaVuSans-20" transform="translate(679.980469 0.015625)"/>
      <use xlink:href="#DejaVuSans-3d" transform="translate(711.767578 0.015625)"/>
      <use xlink:href="#DejaVuSans-20" transform="translate(795.556641 0.015625)"/>
      <use xlink:href="#DejaVuSans-30" transform="translate(827.34375 0.015625)"/>
      <use xlink:href="#DejaVuSans-2e" transform="translate(890.966797 0.015625)"/>
      <use xlink:href="#DejaVuSans-35" transform="translate(922.753906 0.015625)"/>
      <use xlink:href="#DejaVuSans-36" transform="translate(986.376953 0.015625)"/>
      <use xlink:href="#DejaVuSans-29" transform="translate(1050 0.015625)"/>
     </g>
    </g>
    <g id="line2d_25">
     <path d="M 211.09125 280.249375 
L 219.09125 280.249375 
L 227.09125 280.249375 
" style="fill: none; stroke: #9467bd; stroke-width: 2; stroke-linecap: square"/>
    </g>
    <g id="text_20">
     <!-- $D_D$ (mean AUC = 0.55) -->
     <g transform="translate(233.49125 283.049375) scale(0.08 -0.08)">
      <use xlink:href="#DejaVuSans-Oblique-44" transform="translate(0 0.125)"/>
      <use xlink:href="#DejaVuSans-Oblique-44" transform="translate(77.001953 -16.28125) scale(0.7)"/>
      <use xlink:href="#DejaVuSans-20" transform="translate(133.637695 0.125)"/>
      <use xlink:href="#DejaVuSans-28" transform="translate(165.424805 0.125)"/>
      <use xlink:href="#DejaVuSans-6d" transform="translate(204.438477 0.125)"/>
      <use xlink:href="#DejaVuSans-65" transform="translate(301.850586 0.125)"/>
      <use xlink:href="#DejaVuSans-61" transform="translate(363.374023 0.125)"/>
      <use xlink:href="#DejaVuSans-6e" transform="translate(424.65332 0.125)"/>
      <use xlink:href="#DejaVuSans-20" transform="translate(488.032227 0.125)"/>
      <use xlink:href="#DejaVuSans-41" transform="translate(519.819336 0.125)"/>
      <use xlink:href="#DejaVuSans-55" transform="translate(588.227539 0.125)"/>
      <use xlink:href="#DejaVuSans-43" transform="translate(661.420898 0.125)"/>
      <use xlink:href="#DejaVuSans-20" transform="translate(731.245117 0.125)"/>
      <use xlink:href="#DejaVuSans-3d" transform="translate(763.032227 0.125)"/>
      <use xlink:href="#DejaVuSans-20" transform="translate(846.821289 0.125)"/>
      <use xlink:href="#DejaVuSans-30" transform="translate(878.608398 0.125)"/>
      <use xlink:href="#DejaVuSans-2e" transform="translate(942.231445 0.125)"/>
      <use xlink:href="#DejaVuSans-35" transform="translate(974.018555 0.125)"/>
      <use xlink:href="#DejaVuSans-35" transform="translate(1037.641602 0.125)"/>
      <use xlink:href="#DejaVuSans-29" transform="translate(1101.264648 0.125)"/>
     </g>
    </g>
    <g id="line2d_26">
     <path d="M 211.09125 291.991875 
L 219.09125 291.991875 
L 227.09125 291.991875 
" style="fill: none; stroke: #8c564b; stroke-width: 2; stroke-linecap: square"/>
    </g>
    <g id="text_21">
     <!-- $U50$ (mean AUC = 0.51) -->
     <g transform="translate(233.49125 294.791875) scale(0.08 -0.08)">
      <defs>
       <path id="DejaVuSans-Oblique-55" d="M 991 4666 
L 1625 4666 
L 1075 1831 
Q 1041 1641 1027 1517 
Q 1013 1394 1013 1300 
Q 1013 869 1253 645 
Q 1494 422 1959 422 
Q 2563 422 2898 753 
Q 3234 1084 3378 1831 
L 3928 4666 
L 4563 4666 
L 4000 1753 
Q 3816 809 3300 359 
Q 2784 -91 1888 -91 
Q 1188 -91 780 261 
Q 372 613 372 1216 
Q 372 1325 387 1461 
Q 403 1597 434 1753 
L 991 4666 
z
" transform="scale(0.015625)"/>
      </defs>
      <use xlink:href="#DejaVuSans-Oblique-55" transform="translate(0 0.125)"/>
      <use xlink:href="#DejaVuSans-35" transform="translate(73.193359 0.125)"/>
      <use xlink:href="#DejaVuSans-30" transform="translate(136.816406 0.125)"/>
      <use xlink:href="#DejaVuSans-20" transform="translate(200.439453 0.125)"/>
      <use xlink:href="#DejaVuSans-28" transform="translate(232.226562 0.125)"/>
      <use xlink:href="#DejaVuSans-6d" transform="translate(271.240234 0.125)"/>
      <use xlink:href="#DejaVuSans-65" transform="translate(368.652344 0.125)"/>
      <use xlink:href="#DejaVuSans-61" transform="translate(430.175781 0.125)"/>
      <use xlink:href="#DejaVuSans-6e" transform="translate(491.455078 0.125)"/>
      <use xlink:href="#DejaVuSans-20" transform="translate(554.833984 0.125)"/>
      <use xlink:href="#DejaVuSans-41" transform="translate(586.621094 0.125)"/>
      <use xlink:href="#DejaVuSans-55" transform="translate(655.029297 0.125)"/>
      <use xlink:href="#DejaVuSans-43" transform="translate(728.222656 0.125)"/>
      <use xlink:href="#DejaVuSans-20" transform="translate(798.046875 0.125)"/>
      <use xlink:href="#DejaVuSans-3d" transform="translate(829.833984 0.125)"/>
      <use xlink:href="#DejaVuSans-20" transform="translate(913.623047 0.125)"/>
      <use xlink:href="#DejaVuSans-30" transform="translate(945.410156 0.125)"/>
      <use xlink:href="#DejaVuSans-2e" transform="translate(1009.033203 0.125)"/>
      <use xlink:href="#DejaVuSans-35" transform="translate(1040.820312 0.125)"/>
      <use xlink:href="#DejaVuSans-31" transform="translate(1104.443359 0.125)"/>
      <use xlink:href="#DejaVuSans-29" transform="translate(1168.066406 0.125)"/>
     </g>
    </g>
    <g id="line2d_27">
     <path d="M 211.09125 303.734375 
L 219.09125 303.734375 
L 227.09125 303.734375 
" style="fill: none; stroke: #e377c2; stroke-width: 2; stroke-linecap: square"/>
    </g>
    <g id="text_22">
     <!-- $Q95$ (mean AUC = 0.62) -->
     <g transform="translate(233.49125 306.534375) scale(0.08 -0.08)">
      <defs>
       <path id="DejaVuSans-Oblique-51" d="M 2309 -84 
Q 2275 -88 2237 -89 
Q 2200 -91 2125 -91 
Q 1250 -91 756 411 
Q 263 913 263 1797 
Q 263 2319 452 2844 
Q 641 3369 978 3788 
Q 1369 4269 1858 4509 
Q 2347 4750 2938 4750 
Q 3794 4750 4287 4245 
Q 4781 3741 4781 2869 
Q 4781 1928 4265 1147 
Q 3750 366 2919 44 
L 3553 -825 
L 2847 -825 
L 2309 -84 
z
M 2919 4238 
Q 2400 4238 2003 3986 
Q 1606 3734 1313 3219 
Q 1125 2891 1026 2522 
Q 928 2153 928 1778 
Q 928 1128 1239 775 
Q 1550 422 2119 422 
Q 2631 422 3032 676 
Q 3434 931 3719 1434 
Q 3909 1772 4009 2142 
Q 4109 2513 4109 2881 
Q 4109 3528 3796 3883 
Q 3484 4238 2919 4238 
z
" transform="scale(0.015625)"/>
       <path id="DejaVuSans-39" d="M 703 97 
L 703 672 
Q 941 559 1184 500 
Q 1428 441 1663 441 
Q 2288 441 2617 861 
Q 2947 1281 2994 2138 
Q 2813 1869 2534 1725 
Q 2256 1581 1919 1581 
Q 1219 1581 811 2004 
Q 403 2428 403 3163 
Q 403 3881 828 4315 
Q 1253 4750 1959 4750 
Q 2769 4750 3195 4129 
Q 3622 3509 3622 2328 
Q 3622 1225 3098 567 
Q 2575 -91 1691 -91 
Q 1453 -91 1209 -44 
Q 966 3 703 97 
z
M 1959 2075 
Q 2384 2075 2632 2365 
Q 2881 2656 2881 3163 
Q 2881 3666 2632 3958 
Q 2384 4250 1959 4250 
Q 1534 4250 1286 3958 
Q 1038 3666 1038 3163 
Q 1038 2656 1286 2365 
Q 1534 2075 1959 2075 
z
" transform="scale(0.015625)"/>
      </defs>
      <use xlink:href="#DejaVuSans-Oblique-51" transform="translate(0 0.125)"/>
      <use xlink:href="#DejaVuSans-39" transform="translate(78.710938 0.125)"/>
      <use xlink:href="#DejaVuSans-35" transform="translate(142.333984 0.125)"/>
      <use xlink:href="#DejaVuSans-20" transform="translate(205.957031 0.125)"/>
      <use xlink:href="#DejaVuSans-28" transform="translate(237.744141 0.125)"/>
      <use xlink:href="#DejaVuSans-6d" transform="translate(276.757812 0.125)"/>
      <use xlink:href="#DejaVuSans-65" transform="translate(374.169922 0.125)"/>
      <use xlink:href="#DejaVuSans-61" transform="translate(435.693359 0.125)"/>
      <use xlink:href="#DejaVuSans-6e" transform="translate(496.972656 0.125)"/>
      <use xlink:href="#DejaVuSans-20" transform="translate(560.351562 0.125)"/>
      <use xlink:href="#DejaVuSans-41" transform="translate(592.138672 0.125)"/>
      <use xlink:href="#DejaVuSans-55" transform="translate(660.546875 0.125)"/>
      <use xlink:href="#DejaVuSans-43" transform="translate(733.740234 0.125)"/>
      <use xlink:href="#DejaVuSans-20" transform="translate(803.564453 0.125)"/>
      <use xlink:href="#DejaVuSans-3d" transform="translate(835.351562 0.125)"/>
      <use xlink:href="#DejaVuSans-20" transform="translate(919.140625 0.125)"/>
      <use xlink:href="#DejaVuSans-30" transform="translate(950.927734 0.125)"/>
      <use xlink:href="#DejaVuSans-2e" transform="translate(1014.550781 0.125)"/>
      <use xlink:href="#DejaVuSans-36" transform="translate(1046.337891 0.125)"/>
      <use xlink:href="#DejaVuSans-32" transform="translate(1109.960938 0.125)"/>
      <use xlink:href="#DejaVuSans-29" transform="translate(1173.583984 0.125)"/>
     </g>
    </g>
   </g>
  </g>
 </g>
 <defs>
  <clipPath id="p8c6a5ab734">
   <rect x="43.78125" y="22.318125" width="293.95" height="293.08"/>
  </clipPath>
 </defs>
</svg>
