<?xml version="1.0" encoding="utf-8" standalone="no"?>
<!DOCTYPE svg PUBLIC "-//W3C//DTD SVG 1.1//EN"
  "http://www.w3.org/Graphics/SVG/1.1/DTD/svg11.dtd">
<svg xmlns:xlink="http://www.w3.org/1999/xlink" width="352.882812pt" height="352.954375pt" viewBox="0 0 352.882812 352.954375" xmlns="http://www.w3.org/2000/svg" version="1.1">
 <metadata>
  <rdf:RDF xmlns:dc="http://purl.org/dc/elements/1.1/" xmlns:cc="http://creativecommons.org/ns#" xmlns:rdf="http://www.w3.org/1999/02/22-rdf-syntax-ns#">
   <cc:Work>
    <dc:type rdf:resource="http://purl.org/dc/dcmitype/StillImage"/>
    <dc:date>2025-10-30T16:43:18.634330</dc:date>
    <dc:format>image/svg+xml</dc:format>
    <dc:creator>
     <cc:Agent>
      <dc:title>Matplotlib v3.9.1, https://matplotlib.org/</dc:title>
     </cc:Agent>
    </dc:creator>
   </cc:Work>
  </rdf:RDF>
 </metadata>
 <defs>
  <style type="text/css">*{stroke-linejoin: round; stroke-linecap: butt}</style>
 </defs>
 <g id="figure_1">
  <g id="patch_1">
   <path d="M -0 352.954375 
L 352.882812 352.954375 
L 352.882812 0 
L -0 0 
z
" style="fill: #ffffff"/>
  </g>
  <g id="axes_1">
   <g id="patch_2">
    <path d="M 43.78125 315.398125 
L 337.73125 315.398125 
L 337.73125 22.318125 
L 43.78125 22.318125 
z
" style="fill: #ffffff"/>
   </g>
   <g id="matplotlib.axis_1">
    <g id="xtick_1">
     <g id="line2d_1">
      <defs>
       <path id="mbbf994073b" d="M 0 0 
L 0 3.5 
" style="stroke: #000000; stroke-width: 0.8"/>
      </defs>
      <g>
       <use xlink:href="#mbbf994073b" x="43.78125" y="315.398125" style="stroke: #000000; stroke-width: 0.8"/>
      </g>
     </g>
     <g id="text_1">
      <!-- 0.0 -->
      <g transform="translate(35.829688 329.996562) scale(0.1 -0.1)">
       <defs>
        <path id="DejaVuSans-30" d="M 2034 4250 
Q 1547 4250 1301 3770 
Q 1056 3291 1056 2328 
Q 1056 1369 1301 889 
Q 1547 409 2034 409 
Q 2525 409 2770 889 
Q 3016 1369 3016 2328 
Q 3016 3291 2770 3770 
Q 2525 4250 2034 4250 
z
M 2034 4750 
Q 2819 4750 3233 4129 
Q 3647 3509 3647 2328 
Q 3647 1150 3233 529 
Q 2819 -91 2034 -91 
Q 1250 -91 836 529 
Q 422 1150 422 2328 
Q 422 3509 836 4129 
Q 1250 4750 2034 4750 
z
" transform="scale(0.015625)"/>
        <path id="DejaVuSans-2e" d="M 684 794 
L 1344 794 
L 1344 0 
L 684 0 
L 684 794 
z
" transform="scale(0.015625)"/>
       </defs>
       <use xlink:href="#DejaVuSans-30"/>
       <use xlink:href="#DejaVuSans-2e" x="63.623047"/>
       <use xlink:href="#DejaVuSans-30" x="95.410156"/>
      </g>
     </g>
    </g>
    <g id="xtick_2">
     <g id="line2d_2">
      <g>
       <use xlink:href="#mbbf994073b" x="102.57125" y="315.398125" style="stroke: #000000; stroke-width: 0.8"/>
      </g>
     </g>
     <g id="text_2">
      <!-- 0.2 -->
      <g transform="translate(94.619688 329.996562) scale(0.1 -0.1)">
       <defs>
        <path id="DejaVuSans-32" d="M 1228 531 
L 3431 531 
L 3431 0 
L 469 0 
L 469 531 
Q 828 903 1448 1529 
Q 2069 2156 2228 2338 
Q 2531 2678 2651 2914 
Q 2772 3150 2772 3378 
Q 2772 3750 2511 3984 
Q 2250 4219 1831 4219 
Q 1534 4219 1204 4116 
Q 875 4013 500 3803 
L 500 4441 
Q 881 4594 1212 4672 
Q 1544 4750 1819 4750 
Q 2544 4750 2975 4387 
Q 3406 4025 3406 3419 
Q 3406 3131 3298 2873 
Q 3191 2616 2906 2266 
Q 2828 2175 2409 1742 
Q 1991 1309 1228 531 
z
" transform="scale(0.015625)"/>
       </defs>
       <use xlink:href="#DejaVuSans-30"/>
       <use xlink:href="#DejaVuSans-2e" x="63.623047"/>
       <use xlink:href="#DejaVuSans-32" x="95.410156"/>
      </g>
     </g>
    </g>
    <g id="xtick_3">
     <g id="line2d_3">
      <g>
       <use xlink:href="#mbbf994073b" x="161.36125" y="315.398125" style="stroke: #000000; stroke-width: 0.8"/>
      </g>
     </g>
     <g id="text_3">
      <!-- 0.4 -->
      <g transform="translate(153.409688 329.996562) scale(0.1 -0.1)">
       <defs>
        <path id="DejaVuSans-34" d="M 2419 4116 
L 825 1625 
L 2419 1625 
L 2419 4116 
z
M 2253 4666 
L 3047 4666 
L 3047 1625 
L 3713 1625 
L 3713 1100 
L 3047 1100 
L 3047 0 
L 2419 0 
L 2419 1100 
L 313 1100 
L 313 1709 
L 2253 4666 
z
" transform="scale(0.015625)"/>
       </defs>
       <use xlink:href="#DejaVuSans-30"/>
       <use xlink:href="#DejaVuSans-2e" x="63.623047"/>
       <use xlink:href="#DejaVuSans-34" x="95.410156"/>
      </g>
     </g>
    </g>
    <g id="xtick_4">
     <g id="line2d_4">
      <g>
       <use xlink:href="#mbbf994073b" x="220.15125" y="315.398125" style="stroke: #000000; stroke-width: 0.8"/>
      </g>
     </g>
     <g id="text_4">
      <!-- 0.6 -->
      <g transform="translate(212.199688 329.996562) scale(0.1 -0.1)">
       <defs>
        <path id="DejaVuSans-36" d="M 2113 2584 
Q 1688 2584 1439 2293 
Q 1191 2003 1191 1497 
Q 1191 994 1439 701 
Q 1688 409 2113 409 
Q 2538 409 2786 701 
Q 3034 994 3034 1497 
Q 3034 2003 2786 2293 
Q 2538 2584 2113 2584 
z
M 3366 4563 
L 3366 3988 
Q 3128 4100 2886 4159 
Q 2644 4219 2406 4219 
Q 1781 4219 1451 3797 
Q 1122 3375 1075 2522 
Q 1259 2794 1537 2939 
Q 1816 3084 2150 3084 
Q 2853 3084 3261 2657 
Q 3669 2231 3669 1497 
Q 3669 778 3244 343 
Q 2819 -91 2113 -91 
Q 1303 -91 875 529 
Q 447 1150 447 2328 
Q 447 3434 972 4092 
Q 1497 4750 2381 4750 
Q 2619 4750 2861 4703 
Q 3103 4656 3366 4563 
z
" transform="scale(0.015625)"/>
       </defs>
       <use xlink:href="#DejaVuSans-30"/>
       <use xlink:href="#DejaVuSans-2e" x="63.623047"/>
       <use xlink:href="#DejaVuSans-36" x="95.410156"/>
      </g>
     </g>
    </g>
    <g id="xtick_5">
     <g id="line2d_5">
      <g>
       <use xlink:href="#mbbf994073b" x="278.94125" y="315.398125" style="stroke: #000000; stroke-width: 0.8"/>
      </g>
     </g>
     <g id="text_5">
      <!-- 0.8 -->
      <g transform="translate(270.989688 329.996562) scale(0.1 -0.1)">
       <defs>
        <path id="DejaVuSans-38" d="M 2034 2216 
Q 1584 2216 1326 1975 
Q 1069 1734 1069 1313 
Q 1069 891 1326 650 
Q 1584 409 2034 409 
Q 2484 409 2743 651 
Q 3003 894 3003 1313 
Q 3003 1734 2745 1975 
Q 2488 2216 2034 2216 
z
M 1403 2484 
Q 997 2584 770 2862 
Q 544 3141 544 3541 
Q 544 4100 942 4425 
Q 1341 4750 2034 4750 
Q 2731 4750 3128 4425 
Q 3525 4100 3525 3541 
Q 3525 3141 3298 2862 
Q 3072 2584 2669 2484 
Q 3125 2378 3379 2068 
Q 3634 1759 3634 1313 
Q 3634 634 3220 271 
Q 2806 -91 2034 -91 
Q 1263 -91 848 271 
Q 434 634 434 1313 
Q 434 1759 690 2068 
Q 947 2378 1403 2484 
z
M 1172 3481 
Q 1172 3119 1398 2916 
Q 1625 2713 2034 2713 
Q 2441 2713 2670 2916 
Q 2900 3119 2900 3481 
Q 2900 3844 2670 4047 
Q 2441 4250 2034 4250 
Q 1625 4250 1398 4047 
Q 1172 3844 1172 3481 
z
" transform="scale(0.015625)"/>
       </defs>
       <use xlink:href="#DejaVuSans-30"/>
       <use xlink:href="#DejaVuSans-2e" x="63.623047"/>
       <use xlink:href="#DejaVuSans-38" x="95.410156"/>
      </g>
     </g>
    </g>
    <g id="xtick_6">
     <g id="line2d_6">
      <g>
       <use xlink:href="#mbbf994073b" x="337.73125" y="315.398125" style="stroke: #000000; stroke-width: 0.8"/>
      </g>
     </g>
     <g id="text_6">
      <!-- 1.0 -->
      <g transform="translate(329.779687 329.996562) scale(0.1 -0.1)">
       <defs>
        <path id="DejaVuSans-31" d="M 794 531 
L 1825 531 
L 1825 4091 
L 703 3866 
L 703 4441 
L 1819 4666 
L 2450 4666 
L 2450 531 
L 3481 531 
L 3481 0 
L 794 0 
L 794 531 
z
" transform="scale(0.015625)"/>
       </defs>
       <use xlink:href="#DejaVuSans-31"/>
       <use xlink:href="#DejaVuSans-2e" x="63.623047"/>
       <use xlink:href="#DejaVuSans-30" x="95.410156"/>
      </g>
     </g>
    </g>
    <g id="text_7">
     <!-- False Positive Rate -->
     <g transform="translate(144.289844 343.674687) scale(0.1 -0.1)">
      <defs>
       <path id="DejaVuSans-46" d="M 628 4666 
L 3309 4666 
L 3309 4134 
L 1259 4134 
L 1259 2759 
L 3109 2759 
L 3109 2228 
L 1259 2228 
L 1259 0 
L 628 0 
L 628 4666 
z
" transform="scale(0.015625)"/>
       <path id="DejaVuSans-61" d="M 2194 1759 
Q 1497 1759 1228 1600 
Q 959 1441 959 1056 
Q 959 750 1161 570 
Q 1363 391 1709 391 
Q 2188 391 2477 730 
Q 2766 1069 2766 1631 
L 2766 1759 
L 2194 1759 
z
M 3341 1997 
L 3341 0 
L 2766 0 
L 2766 531 
Q 2569 213 2275 61 
Q 1981 -91 1556 -91 
Q 1019 -91 701 211 
Q 384 513 384 1019 
Q 384 1609 779 1909 
Q 1175 2209 1959 2209 
L 2766 2209 
L 2766 2266 
Q 2766 2663 2505 2880 
Q 2244 3097 1772 3097 
Q 1472 3097 1187 3025 
Q 903 2953 641 2809 
L 641 3341 
Q 956 3463 1253 3523 
Q 1550 3584 1831 3584 
Q 2591 3584 2966 3190 
Q 3341 2797 3341 1997 
z
" transform="scale(0.015625)"/>
       <path id="DejaVuSans-6c" d="M 603 4863 
L 1178 4863 
L 1178 0 
L 603 0 
L 603 4863 
z
" transform="scale(0.015625)"/>
       <path id="DejaVuSans-73" d="M 2834 3397 
L 2834 2853 
Q 2591 2978 2328 3040 
Q 2066 3103 1784 3103 
Q 1356 3103 1142 2972 
Q 928 2841 928 2578 
Q 928 2378 1081 2264 
Q 1234 2150 1697 2047 
L 1894 2003 
Q 2506 1872 2764 1633 
Q 3022 1394 3022 966 
Q 3022 478 2636 193 
Q 2250 -91 1575 -91 
Q 1294 -91 989 -36 
Q 684 19 347 128 
L 347 722 
Q 666 556 975 473 
Q 1284 391 1588 391 
Q 1994 391 2212 530 
Q 2431 669 2431 922 
Q 2431 1156 2273 1281 
Q 2116 1406 1581 1522 
L 1381 1569 
Q 847 1681 609 1914 
Q 372 2147 372 2553 
Q 372 3047 722 3315 
Q 1072 3584 1716 3584 
Q 2034 3584 2315 3537 
Q 2597 3491 2834 3397 
z
" transform="scale(0.015625)"/>
       <path id="DejaVuSans-65" d="M 3597 1894 
L 3597 1613 
L 953 1613 
Q 991 1019 1311 708 
Q 1631 397 2203 397 
Q 2534 397 2845 478 
Q 3156 559 3463 722 
L 3463 178 
Q 3153 47 2828 -22 
Q 2503 -91 2169 -91 
Q 1331 -91 842 396 
Q 353 884 353 1716 
Q 353 2575 817 3079 
Q 1281 3584 2069 3584 
Q 2775 3584 3186 3129 
Q 3597 2675 3597 1894 
z
M 3022 2063 
Q 3016 2534 2758 2815 
Q 2500 3097 2075 3097 
Q 1594 3097 1305 2825 
Q 1016 2553 972 2059 
L 3022 2063 
z
" transform="scale(0.015625)"/>
       <path id="DejaVuSans-20" transform="scale(0.015625)"/>
       <path id="DejaVuSans-50" d="M 1259 4147 
L 1259 2394 
L 2053 2394 
Q 2494 2394 2734 2622 
Q 2975 2850 2975 3272 
Q 2975 3691 2734 3919 
Q 2494 4147 2053 4147 
L 1259 4147 
z
M 628 4666 
L 2053 4666 
Q 2838 4666 3239 4311 
Q 3641 3956 3641 3272 
Q 3641 2581 3239 2228 
Q 2838 1875 2053 1875 
L 1259 1875 
L 1259 0 
L 628 0 
L 628 4666 
z
" transform="scale(0.015625)"/>
       <path id="DejaVuSans-6f" d="M 1959 3097 
Q 1497 3097 1228 2736 
Q 959 2375 959 1747 
Q 959 1119 1226 758 
Q 1494 397 1959 397 
Q 2419 397 2687 759 
Q 2956 1122 2956 1747 
Q 2956 2369 2687 2733 
Q 2419 3097 1959 3097 
z
M 1959 3584 
Q 2709 3584 3137 3096 
Q 3566 2609 3566 1747 
Q 3566 888 3137 398 
Q 2709 -91 1959 -91 
Q 1206 -91 779 398 
Q 353 888 353 1747 
Q 353 2609 779 3096 
Q 1206 3584 1959 3584 
z
" transform="scale(0.015625)"/>
       <path id="DejaVuSans-69" d="M 603 3500 
L 1178 3500 
L 1178 0 
L 603 0 
L 603 3500 
z
M 603 4863 
L 1178 4863 
L 1178 4134 
L 603 4134 
L 603 4863 
z
" transform="scale(0.015625)"/>
       <path id="DejaVuSans-74" d="M 1172 4494 
L 1172 3500 
L 2356 3500 
L 2356 3053 
L 1172 3053 
L 1172 1153 
Q 1172 725 1289 603 
Q 1406 481 1766 481 
L 2356 481 
L 2356 0 
L 1766 0 
Q 1100 0 847 248 
Q 594 497 594 1153 
L 594 3053 
L 172 3053 
L 172 3500 
L 594 3500 
L 594 4494 
L 1172 4494 
z
" transform="scale(0.015625)"/>
       <path id="DejaVuSans-76" d="M 191 3500 
L 800 3500 
L 1894 563 
L 2988 3500 
L 3597 3500 
L 2284 0 
L 1503 0 
L 191 3500 
z
" transform="scale(0.015625)"/>
       <path id="DejaVuSans-52" d="M 2841 2188 
Q 3044 2119 3236 1894 
Q 3428 1669 3622 1275 
L 4263 0 
L 3584 0 
L 2988 1197 
Q 2756 1666 2539 1819 
Q 2322 1972 1947 1972 
L 1259 1972 
L 1259 0 
L 628 0 
L 628 4666 
L 2053 4666 
Q 2853 4666 3247 4331 
Q 3641 3997 3641 3322 
Q 3641 2881 3436 2590 
Q 3231 2300 2841 2188 
z
M 1259 4147 
L 1259 2491 
L 2053 2491 
Q 2509 2491 2742 2702 
Q 2975 2913 2975 3322 
Q 2975 3731 2742 3939 
Q 2509 4147 2053 4147 
L 1259 4147 
z
" transform="scale(0.015625)"/>
      </defs>
      <use xlink:href="#DejaVuSans-46"/>
      <use xlink:href="#DejaVuSans-61" x="48.394531"/>
      <use xlink:href="#DejaVuSans-6c" x="109.673828"/>
      <use xlink:href="#DejaVuSans-73" x="137.457031"/>
      <use xlink:href="#DejaVuSans-65" x="189.556641"/>
      <use xlink:href="#DejaVuSans-20" x="251.080078"/>
      <use xlink:href="#DejaVuSans-50" x="282.867188"/>
      <use xlink:href="#DejaVuSans-6f" x="339.544922"/>
      <use xlink:href="#DejaVuSans-73" x="400.726562"/>
      <use xlink:href="#DejaVuSans-69" x="452.826172"/>
      <use xlink:href="#DejaVuSans-74" x="480.609375"/>
      <use xlink:href="#DejaVuSans-69" x="519.818359"/>
      <use xlink:href="#DejaVuSans-76" x="547.601562"/>
      <use xlink:href="#DejaVuSans-65" x="606.78125"/>
      <use xlink:href="#DejaVuSans-20" x="668.304688"/>
      <use xlink:href="#DejaVuSans-52" x="700.091797"/>
      <use xlink:href="#DejaVuSans-61" x="767.324219"/>
      <use xlink:href="#DejaVuSans-74" x="828.603516"/>
      <use xlink:href="#DejaVuSans-65" x="867.8125"/>
     </g>
    </g>
   </g>
   <g id="matplotlib.axis_2">
    <g id="ytick_1">
     <g id="line2d_7">
      <defs>
       <path id="m5ffa594a17" d="M 0 0 
L -3.5 0 
" style="stroke: #000000; stroke-width: 0.8"/>
      </defs>
      <g>
       <use xlink:href="#m5ffa594a17" x="43.78125" y="315.398125" style="stroke: #000000; stroke-width: 0.8"/>
      </g>
     </g>
     <g id="text_8">
      <!-- 0.0 -->
      <g transform="translate(20.878125 319.197344) scale(0.1 -0.1)">
       <use xlink:href="#DejaVuSans-30"/>
       <use xlink:href="#DejaVuSans-2e" x="63.623047"/>
       <use xlink:href="#DejaVuSans-30" x="95.410156"/>
      </g>
     </g>
    </g>
    <g id="ytick_2">
     <g id="line2d_8">
      <g>
       <use xlink:href="#m5ffa594a17" x="43.78125" y="256.782125" style="stroke: #000000; stroke-width: 0.8"/>
      </g>
     </g>
     <g id="text_9">
      <!-- 0.2 -->
      <g transform="translate(20.878125 260.581344) scale(0.1 -0.1)">
       <use xlink:href="#DejaVuSans-30"/>
       <use xlink:href="#DejaVuSans-2e" x="63.623047"/>
       <use xlink:href="#DejaVuSans-32" x="95.410156"/>
      </g>
     </g>
    </g>
    <g id="ytick_3">
     <g id="line2d_9">
      <g>
       <use xlink:href="#m5ffa594a17" x="43.78125" y="198.166125" style="stroke: #000000; stroke-width: 0.8"/>
      </g>
     </g>
     <g id="text_10">
      <!-- 0.4 -->
      <g transform="translate(20.878125 201.965344) scale(0.1 -0.1)">
       <use xlink:href="#DejaVuSans-30"/>
       <use xlink:href="#DejaVuSans-2e" x="63.623047"/>
       <use xlink:href="#DejaVuSans-34" x="95.410156"/>
      </g>
     </g>
    </g>
    <g id="ytick_4">
     <g id="line2d_10">
      <g>
       <use xlink:href="#m5ffa594a17" x="43.78125" y="139.550125" style="stroke: #000000; stroke-width: 0.8"/>
      </g>
     </g>
     <g id="text_11">
      <!-- 0.6 -->
      <g transform="translate(20.878125 143.349344) scale(0.1 -0.1)">
       <use xlink:href="#DejaVuSans-30"/>
       <use xlink:href="#DejaVuSans-2e" x="63.623047"/>
       <use xlink:href="#DejaVuSans-36" x="95.410156"/>
      </g>
     </g>
    </g>
    <g id="ytick_5">
     <g id="line2d_11">
      <g>
       <use xlink:href="#m5ffa594a17" x="43.78125" y="80.934125" style="stroke: #000000; stroke-width: 0.8"/>
      </g>
     </g>
     <g id="text_12">
      <!-- 0.8 -->
      <g transform="translate(20.878125 84.733344) scale(0.1 -0.1)">
       <use xlink:href="#DejaVuSans-30"/>
       <use xlink:href="#DejaVuSans-2e" x="63.623047"/>
       <use xlink:href="#DejaVuSans-38" x="95.410156"/>
      </g>
     </g>
    </g>
    <g id="ytick_6">
     <g id="line2d_12">
      <g>
       <use xlink:href="#m5ffa594a17" x="43.78125" y="22.318125" style="stroke: #000000; stroke-width: 0.8"/>
      </g>
     </g>
     <g id="text_13">
      <!-- 1.0 -->
      <g transform="translate(20.878125 26.117344) scale(0.1 -0.1)">
       <use xlink:href="#DejaVuSans-31"/>
       <use xlink:href="#DejaVuSans-2e" x="63.623047"/>
       <use xlink:href="#DejaVuSans-30" x="95.410156"/>
      </g>
     </g>
    </g>
    <g id="text_14">
     <!-- True Positive Rate -->
     <g transform="translate(14.798438 213.387812) rotate(-90) scale(0.1 -0.1)">
      <defs>
       <path id="DejaVuSans-54" d="M -19 4666 
L 3928 4666 
L 3928 4134 
L 2272 4134 
L 2272 0 
L 1638 0 
L 1638 4134 
L -19 4134 
L -19 4666 
z
" transform="scale(0.015625)"/>
       <path id="DejaVuSans-72" d="M 2631 2963 
Q 2534 3019 2420 3045 
Q 2306 3072 2169 3072 
Q 1681 3072 1420 2755 
Q 1159 2438 1159 1844 
L 1159 0 
L 581 0 
L 581 3500 
L 1159 3500 
L 1159 2956 
Q 1341 3275 1631 3429 
Q 1922 3584 2338 3584 
Q 2397 3584 2469 3576 
Q 2541 3569 2628 3553 
L 2631 2963 
z
" transform="scale(0.015625)"/>
       <path id="DejaVuSans-75" d="M 544 1381 
L 544 3500 
L 1119 3500 
L 1119 1403 
Q 1119 906 1312 657 
Q 1506 409 1894 409 
Q 2359 409 2629 706 
Q 2900 1003 2900 1516 
L 2900 3500 
L 3475 3500 
L 3475 0 
L 2900 0 
L 2900 538 
Q 2691 219 2414 64 
Q 2138 -91 1772 -91 
Q 1169 -91 856 284 
Q 544 659 544 1381 
z
M 1991 3584 
L 1991 3584 
z
" transform="scale(0.015625)"/>
      </defs>
      <use xlink:href="#DejaVuSans-54"/>
      <use xlink:href="#DejaVuSans-72" x="46.333984"/>
      <use xlink:href="#DejaVuSans-75" x="87.447266"/>
      <use xlink:href="#DejaVuSans-65" x="150.826172"/>
      <use xlink:href="#DejaVuSans-20" x="212.349609"/>
      <use xlink:href="#DejaVuSans-50" x="244.136719"/>
      <use xlink:href="#DejaVuSans-6f" x="300.814453"/>
      <use xlink:href="#DejaVuSans-73" x="361.996094"/>
      <use xlink:href="#DejaVuSans-69" x="414.095703"/>
      <use xlink:href="#DejaVuSans-74" x="441.878906"/>
      <use xlink:href="#DejaVuSans-69" x="481.087891"/>
      <use xlink:href="#DejaVuSans-76" x="508.871094"/>
      <use xlink:href="#DejaVuSans-65" x="568.050781"/>
      <use xlink:href="#DejaVuSans-20" x="629.574219"/>
      <use xlink:href="#DejaVuSans-52" x="661.361328"/>
      <use xlink:href="#DejaVuSans-61" x="728.59375"/>
      <use xlink:href="#DejaVuSans-74" x="789.873047"/>
      <use xlink:href="#DejaVuSans-65" x="829.082031"/>
     </g>
    </g>
   </g>
   <g id="line2d_13">
    <path d="M 43.78125 314.477268 
L 45.258386 313.010109 
L 46.735521 310.575201 
L 48.212657 309.077562 
L 49.689793 307.218848 
L 51.166928 305.812651 
L 52.644064 303.3414 
L 54.1212 301.741183 
L 55.598335 299.697243 
L 57.075471 298.436999 
L 58.552607 296.485086 
L 60.029742 295.209016 
L 61.506878 292.938232 
L 62.984014 291.101207 
L 64.461149 288.054933 
L 65.938285 286.024475 
L 67.415421 283.1646 
L 68.892557 281.382674 
L 70.369692 278.813535 
L 71.846828 277.060916 
L 73.323964 274.712759 
L 74.801099 273.434931 
L 76.278235 271.745617 
L 77.755371 270.719837 
L 79.232506 269.254437 
L 80.709642 268.17942 
L 82.186778 266.391632 
L 83.663913 265.130802 
L 85.141049 263.375253 
L 86.618185 262.236344 
L 88.09532 260.684192 
L 89.572456 259.772713 
L 91.049592 258.286212 
L 92.526727 257.157854 
L 94.003863 255.132671 
L 95.480999 253.484389 
L 96.958134 250.793328 
L 98.43527 248.915858 
L 99.912406 246.012021 
L 101.389541 244.063625 
L 102.866677 241.211371 
L 104.343813 238.684435 
L 105.820948 237.200278 
L 107.298084 235.237228 
L 108.77522 234.05084 
L 110.252356 232.366216 
L 111.729491 231.308784 
L 113.206627 229.52041 
L 114.683763 228.281267 
L 116.160898 226.199813 
L 117.638034 224.739689 
L 119.11517 222.328226 
L 120.592305 220.911478 
L 122.069441 218.562148 
L 123.546577 217.070957 
L 125.023712 214.826551 
L 126.500848 213.392803 
L 127.977984 211.426237 
L 129.455119 210.182991 
L 130.932255 208.597428 
L 132.409391 207.63554 
L 133.886526 206.449152 
L 135.363662 205.721141 
L 136.840798 204.674259 
L 138.317933 203.9949 
L 139.795069 202.878265 
L 141.272205 202.017196 
L 142.74934 200.70537 
L 144.226476 199.70714 
L 145.703612 198.131542 
L 147.180747 197.024871 
L 148.657883 195.286907 
L 150.135019 194.122207 
L 151.612155 192.284596 
L 153.08929 191.132205 
L 154.566426 189.395999 
L 156.043562 188.254159 
L 157.520697 186.635185 
L 158.997833 185.68502 
L 160.474969 184.310475 
L 161.952104 183.118812 
L 163.42924 182.393732 
L 164.906376 181.433602 
L 166.383511 180.76069 
L 167.860647 179.775355 
L 169.337783 179.074308 
L 170.814918 177.923089 
L 172.292054 177.048539 
L 173.76919 175.619481 
L 175.246325 174.576702 
L 176.723461 172.865115 
L 178.200597 171.572046 
L 179.677732 169.63127 
L 181.154868 168.313582 
L 182.632004 166.279607 
L 184.109139 165.044568 
L 185.586275 163.227472 
L 187.063411 162.086805 
L 188.540546 160.418007 
L 190.017682 159.346507 
L 191.494818 157.797872 
L 192.971954 156.668342 
L 194.449089 154.904586 
L 195.926225 153.634377 
L 197.403361 151.640261 
L 198.880496 150.194791 
L 200.357632 147.97852 
L 201.834768 146.446297 
L 203.311903 144.130965 
L 204.789039 142.666152 
L 206.266175 140.578836 
L 207.74331 139.32035 
L 209.220446 137.54663 
L 210.697582 136.373138 
L 212.174717 134.748888 
L 213.651853 133.675629 
L 215.128989 132.076585 
L 216.606124 130.984569 
L 218.08326 129.343907 
L 219.560396 128.128211 
L 222.514667 125.071973 
L 223.991803 124.060261 
L 225.468938 122.753124 
L 226.946074 121.913743 
L 228.42321 120.766042 
L 229.900345 120.019274 
L 231.377481 118.861022 
L 232.854617 118.141217 
L 234.331753 117.060338 
L 235.808888 116.288952 
L 237.286024 115.063291 
L 238.76316 114.164708 
L 240.240295 112.713962 
L 241.717431 111.665908 
L 243.194567 110.154787 
L 244.671702 109.123732 
L 246.148838 107.473691 
L 247.625974 106.381675 
L 249.103109 104.70643 
L 250.580245 103.563418 
L 252.057381 101.745736 
L 253.534516 100.449736 
L 255.011652 98.566404 
L 256.488788 97.368293 
L 257.965923 95.514855 
L 259.443059 94.415805 
L 260.920195 92.938682 
L 262.39733 92.00024 
L 263.874466 90.765787 
L 265.351602 90.005537 
L 266.828737 88.899453 
L 268.305873 88.163236 
L 269.783009 86.928783 
L 271.260144 85.978032 
L 272.73728 84.364919 
L 274.214416 83.123433 
L 275.691552 81.091216 
L 277.168687 79.658055 
L 280.122959 74.884954 
L 281.600094 73.35449 
L 283.07723 71.144667 
L 284.554366 69.846322 
L 286.031501 68.018676 
L 287.508637 66.989379 
L 288.985773 65.522806 
L 290.462908 64.576744 
L 291.940044 63.159995 
L 293.41718 62.157662 
L 294.894315 60.538688 
L 296.371451 59.278444 
L 297.848587 57.362287 
L 299.325722 56.018222 
L 300.802858 54.094445 
L 302.279994 52.896334 
L 303.757129 51.28498 
L 305.234265 50.284405 
L 306.711401 48.928031 
L 308.188536 48.100373 
L 309.665672 46.745757 
L 311.142808 45.856552 
L 312.619943 44.499006 
L 314.097079 43.569942 
L 315.574215 42.031272 
L 317.051351 40.826127 
L 318.528486 38.718882 
L 320.005622 37.397091 
L 321.482758 35.613406 
L 322.959893 34.523735 
L 324.437029 32.885417 
L 325.914165 31.83795 
L 327.3913 30.356723 
L 328.868436 29.287567 
L 330.345572 27.694971 
L 333.299843 26.107063 
L 334.776979 25.417739 
L 337.73125 22.318125 
L 337.73125 22.318125 
" clip-path="url(#p2aa3f961f9)" style="fill: none; stroke: #1f77b4; stroke-width: 2; stroke-linecap: square"/>
   </g>
   <g id="line2d_14">
    <path d="M 43.78125 314.03882 
L 45.258386 312.467325 
L 48.212657 305.493779 
L 49.689793 300.867219 
L 52.644064 295.650395 
L 54.1212 294.308674 
L 55.598335 292.010927 
L 57.075471 290.359714 
L 58.552607 287.767715 
L 60.029742 286.13057 
L 61.506878 283.570809 
L 62.984014 281.775987 
L 64.461149 279.001106 
L 65.938285 277.192802 
L 67.415421 274.743826 
L 68.892557 273.24267 
L 70.369692 271.11022 
L 71.846828 269.625477 
L 73.323964 267.457857 
L 74.801099 266.008283 
L 76.278235 263.65192 
L 77.755371 262.028843 
L 79.232506 259.395226 
L 80.709642 257.647883 
L 82.186778 255.096915 
L 83.663913 253.513111 
L 85.141049 251.170815 
L 86.618185 249.582322 
L 88.09532 247.215994 
L 89.572456 245.592331 
L 91.049592 243.34851 
L 92.526727 241.894247 
L 94.003863 239.856169 
L 95.480999 238.577754 
L 96.958134 236.624083 
L 98.43527 235.318118 
L 99.912406 233.270661 
L 101.389541 231.968214 
L 104.343813 227.686901 
L 105.820948 226.233224 
L 107.298084 224.089637 
L 108.77522 222.617203 
L 110.252356 220.546886 
L 111.729491 219.230957 
L 113.206627 217.168846 
L 114.683763 215.914464 
L 116.160898 214.097954 
L 117.638034 213.032315 
L 119.11517 211.447338 
L 120.592305 210.347116 
L 122.069441 208.752175 
L 123.546577 207.703534 
L 125.023712 206.238134 
L 126.500848 205.237559 
L 127.977984 203.745196 
L 129.455119 202.713554 
L 130.932255 201.087546 
L 132.409391 199.992013 
L 133.886526 198.300356 
L 135.363662 197.130966 
L 136.840798 195.269908 
L 138.317933 194.030766 
L 139.795069 192.261149 
L 141.272205 191.097035 
L 142.74934 189.294007 
L 144.226476 188.149823 
L 145.703612 186.486301 
L 147.180747 185.369666 
L 148.657883 183.78762 
L 150.135019 182.737221 
L 151.612155 181.243686 
L 153.08929 180.275936 
L 154.566426 178.859773 
L 156.043562 177.882644 
L 157.520697 176.465896 
L 158.997833 175.507524 
L 161.952104 172.874493 
L 163.42924 172.000529 
L 164.906376 170.828795 
L 166.383511 170.000551 
L 167.860647 168.760236 
L 169.337783 167.906787 
L 170.814918 166.535173 
L 172.292054 165.580318 
L 173.76919 164.080335 
L 175.246325 163.101448 
L 176.723461 161.607912 
L 178.200597 160.623163 
L 179.677732 159.146626 
L 181.154868 158.140776 
L 182.632004 156.668342 
L 184.109139 155.74807 
L 185.586275 154.321943 
L 187.063411 153.328988 
L 188.540546 151.993716 
L 190.017682 151.068169 
L 191.494818 149.733483 
L 192.971954 148.840175 
L 194.449089 147.531866 
L 195.926225 146.564116 
L 197.403361 145.033066 
L 198.880496 144.051834 
L 200.357632 142.372485 
L 201.834768 141.288676 
L 203.311903 139.627498 
L 204.789039 138.451661 
L 206.266175 136.7178 
L 207.74331 135.557789 
L 209.220446 133.782897 
L 210.697582 132.538479 
L 212.174717 130.760656 
L 213.651853 129.547891 
L 215.128989 127.845682 
L 216.606124 126.714979 
L 218.08326 125.132347 
L 219.560396 124.052055 
L 222.514667 121.283621 
L 223.991803 120.382107 
L 225.468938 119.127724 
L 226.946074 118.266069 
L 228.42321 116.927866 
L 229.900345 116.026938 
L 231.377481 114.604328 
L 232.854617 113.665886 
L 234.331753 112.269066 
L 235.808888 111.280801 
L 237.286024 109.862293 
L 238.76316 108.902749 
L 240.240295 107.476036 
L 241.717431 106.58859 
L 243.194567 105.245111 
L 244.671702 104.377594 
L 246.148838 102.999532 
L 247.625974 102.132601 
L 249.103109 100.80788 
L 250.580245 99.854197 
L 252.057381 98.481411 
L 253.534516 97.552933 
L 255.011652 96.274518 
L 256.488788 95.419311 
L 257.965923 94.11745 
L 259.443059 93.302101 
L 260.920195 91.996137 
L 262.39733 91.106932 
L 263.874466 89.795692 
L 265.351602 88.966862 
L 266.828737 87.705445 
L 268.305873 86.939334 
L 269.783009 85.744154 
L 271.260144 84.955769 
L 272.73728 83.565983 
L 274.214416 82.625783 
L 275.691552 81.029669 
L 277.168687 79.939411 
L 280.122959 76.359732 
L 281.600094 75.044975 
L 283.07723 73.085443 
L 284.554366 71.724379 
L 286.031501 69.74902 
L 287.508637 68.380336 
L 288.985773 66.55562 
L 290.462908 65.464776 
L 291.940044 64.073233 
L 293.41718 63.253195 
L 294.894315 62.039257 
L 296.371451 61.225667 
L 297.848587 59.818297 
L 299.325722 58.790173 
L 300.802858 57.018797 
L 302.279994 55.880474 
L 303.757129 54.216366 
L 305.234265 53.199378 
L 306.711401 51.826592 
L 308.188536 51.009485 
L 309.665672 49.921572 
L 311.142808 49.092155 
L 312.619943 47.617963 
L 314.097079 46.467917 
L 315.574215 44.583999 
L 317.051351 43.249899 
L 318.528486 41.360705 
L 320.005622 40.167283 
L 321.482758 38.459213 
L 322.959893 37.149145 
L 324.437029 34.924082 
L 325.914165 33.489748 
L 327.3913 31.825054 
L 328.868436 30.88837 
L 330.345572 29.509136 
L 331.822707 28.47808 
L 333.299843 26.769424 
L 336.254114 23.937685 
L 337.73125 22.318125 
L 337.73125 22.318125 
" clip-path="url(#p2aa3f961f9)" style="fill: none; stroke: #ff7f0e; stroke-width: 2; stroke-linecap: square"/>
   </g>
   <g id="line2d_15">
    <path d="M 43.78125 312.915737 
L 45.258386 310.755738 
L 46.735521 307.623885 
L 48.212657 305.738208 
L 49.689793 303.320298 
L 51.166928 301.269911 
L 52.644064 298.144505 
L 54.1212 295.853206 
L 55.598335 292.567193 
L 57.075471 290.604729 
L 58.552607 288.159856 
L 60.029742 286.517436 
L 61.506878 283.481713 
L 62.984014 281.179863 
L 64.461149 277.783652 
L 65.938285 275.765503 
L 67.415421 272.995311 
L 68.892557 271.247381 
L 70.369692 268.512945 
L 71.846828 266.48659 
L 73.323964 263.32836 
L 74.801099 261.232838 
L 76.278235 258.120914 
L 77.755371 256.258098 
L 79.232506 253.681925 
L 80.709642 252.077019 
L 82.186778 249.875988 
L 83.663913 248.469204 
L 85.141049 246.206626 
L 86.618185 244.563034 
L 88.09532 241.97631 
L 89.572456 240.15511 
L 91.049592 237.466981 
L 92.526727 235.734878 
L 94.003863 233.303486 
L 95.480999 231.842189 
L 96.958134 229.75546 
L 98.43527 228.448909 
L 99.912406 226.590196 
L 101.389541 225.408497 
L 104.343813 222.257887 
L 105.820948 221.357545 
L 107.298084 219.866354 
L 108.77522 218.791337 
L 110.252356 217.277286 
L 111.729491 216.298398 
L 113.206627 214.736282 
L 114.683763 213.660092 
L 116.160898 212.052842 
L 117.638034 211.106193 
L 119.11517 209.633759 
L 120.592305 208.689455 
L 122.069441 207.38056 
L 123.546577 206.588658 
L 125.023712 205.470851 
L 126.500848 204.7657 
L 127.977984 203.696545 
L 129.455119 202.922227 
L 130.932255 201.667259 
L 132.409391 200.738781 
L 133.886526 199.324377 
L 135.363662 198.358385 
L 136.840798 196.89533 
L 138.317933 195.935786 
L 139.795069 194.391255 
L 141.272205 193.337339 
L 142.74934 191.732433 
L 144.226476 190.66738 
L 145.703612 189.112298 
L 147.180747 188.128721 
L 148.657883 186.571294 
L 150.135019 185.628749 
L 151.612155 184.200863 
L 153.08929 183.096538 
L 154.566426 181.425982 
L 156.043562 180.207355 
L 157.520697 178.154623 
L 158.997833 176.783594 
L 160.474969 174.828165 
L 161.952104 173.065581 
L 163.42924 172.053869 
L 164.906376 170.712149 
L 166.383511 169.883905 
L 167.860647 168.705723 
L 169.337783 167.923786 
L 170.814918 166.774326 
L 172.292054 166.013491 
L 173.76919 164.789588 
L 175.246325 163.915038 
L 176.723461 162.493014 
L 178.200597 161.365242 
L 179.677732 159.607348 
L 181.154868 158.253904 
L 182.632004 156.226963 
L 184.109139 154.78032 
L 185.586275 152.622665 
L 187.063411 151.078134 
L 188.540546 148.79211 
L 190.017682 147.241717 
L 191.494818 145.091682 
L 192.971954 143.70893 
L 194.449089 141.747474 
L 195.926225 140.475672 
L 197.403361 138.659389 
L 198.880496 137.454017 
L 200.357632 135.688516 
L 201.834768 134.566261 
L 203.311903 132.868617 
L 204.789039 131.789726 
L 206.266175 130.125086 
L 207.74331 128.986557 
L 209.220446 127.256316 
L 210.697582 125.997271 
L 212.174717 124.294916 
L 213.651853 123.062832 
L 215.128989 121.35914 
L 216.606124 120.278894 
L 218.08326 118.618809 
L 219.560396 117.502045 
L 222.514667 114.235885 
L 223.991803 113.189124 
L 225.468938 111.646844 
L 226.946074 110.683503 
L 228.42321 109.217517 
L 229.900345 108.316589 
L 231.377481 106.972525 
L 232.854617 106.110869 
L 234.331753 104.847108 
L 235.808888 103.993073 
L 237.286024 102.688867 
L 238.76316 101.802593 
L 240.240295 100.425117 
L 241.717431 99.46616 
L 243.194567 98.058203 
L 244.671702 97.138518 
L 246.148838 95.800901 
L 247.625974 94.914041 
L 249.103109 93.569976 
L 250.580245 92.70539 
L 252.057381 91.434595 
L 253.534516 90.574112 
L 255.011652 89.245288 
L 256.488788 88.349049 
L 257.965923 87.029017 
L 259.443059 86.157397 
L 260.920195 84.872534 
L 262.39733 84.000328 
L 263.874466 82.77115 
L 265.351602 81.926494 
L 266.828737 80.761794 
L 268.305873 80.007992 
L 269.783009 78.773539 
L 271.260144 78.036736 
L 272.73728 76.971097 
L 274.214416 76.340975 
L 275.691552 75.4336 
L 277.168687 74.856818 
L 280.122959 72.909008 
L 281.600094 72.195066 
L 283.07723 71.127668 
L 284.554366 70.407278 
L 286.031501 69.319365 
L 287.508637 68.574355 
L 288.985773 67.412586 
L 290.462908 66.584928 
L 291.940044 65.223865 
L 293.41718 64.239702 
L 294.894315 62.720375 
L 296.371451 61.720386 
L 297.848587 60.342324 
L 299.325722 59.493565 
L 300.802858 58.119605 
L 302.279994 57.234504 
L 303.757129 55.787861 
L 305.234265 54.787872 
L 306.711401 53.191758 
L 308.188536 52.069262 
L 309.665672 50.568106 
L 311.142808 49.588047 
L 312.619943 48.152541 
L 314.097079 47.178343 
L 315.574215 45.767456 
L 317.051351 44.895836 
L 318.528486 43.469122 
L 320.005622 42.349557 
L 321.482758 40.041845 
L 322.959893 38.241748 
L 324.437029 35.361943 
L 327.3913 32.207817 
L 328.868436 31.513803 
L 330.345572 30.466921 
L 331.822707 29.656848 
L 333.299843 28.57128 
L 334.776979 27.761207 
L 336.254114 26.248914 
L 337.73125 22.318125 
L 337.73125 22.318125 
" clip-path="url(#p2aa3f961f9)" style="fill: none; stroke: #2ca02c; stroke-width: 2; stroke-linecap: square"/>
   </g>
   <g id="line2d_16">
    <path d="M 43.78125 313.816079 
L 45.258386 310.661952 
L 46.735521 306.567625 
L 49.689793 302.751137 
L 51.166928 301.702497 
L 52.644064 300.041319 
L 54.1212 298.802763 
L 55.598335 296.791062 
L 57.075471 295.309249 
L 58.552607 292.660979 
L 60.029742 290.8855 
L 61.506878 288.37908 
L 62.984014 286.668665 
L 64.461149 283.8973 
L 65.938285 281.881496 
L 67.415421 278.841084 
L 68.892557 277.07557 
L 70.369692 274.784271 
L 71.846828 273.38159 
L 73.323964 271.329444 
L 74.801099 270.002964 
L 76.278235 267.874617 
L 77.755371 266.364083 
L 79.232506 263.938552 
L 80.709642 262.239275 
L 82.186778 259.656067 
L 83.663913 258.042955 
L 85.141049 255.759862 
L 86.618185 254.169024 
L 88.09532 251.793903 
L 89.572456 250.105763 
L 91.049592 247.475663 
L 92.526727 245.695495 
L 94.003863 243.078877 
L 95.480999 241.504451 
L 96.958134 239.10647 
L 98.43527 237.697928 
L 99.912406 235.60475 
L 101.389541 234.372056 
L 104.343813 230.799997 
L 105.820948 229.654054 
L 107.298084 227.904953 
L 108.77522 226.80942 
L 110.252356 225.179309 
L 111.729491 224.092568 
L 113.206627 222.570897 
L 114.683763 221.489431 
L 116.160898 219.783706 
L 117.638034 218.55277 
L 119.11517 216.584445 
L 120.592305 215.190556 
L 122.069441 212.974285 
L 123.546577 211.532331 
L 125.023712 209.388744 
L 126.500848 207.941515 
L 127.977984 205.734623 
L 129.455119 204.343665 
L 130.932255 202.299725 
L 132.409391 201.006656 
L 133.886526 199.078776 
L 135.363662 197.84022 
L 136.840798 195.972714 
L 138.317933 194.824427 
L 139.795069 193.264069 
L 141.272205 192.158571 
L 142.74934 190.60935 
L 144.226476 189.587673 
L 145.703612 188.108206 
L 147.180747 187.163316 
L 148.657883 185.647506 
L 150.135019 184.590659 
L 151.612155 183.0092 
L 153.08929 182.025037 
L 154.566426 180.484022 
L 156.043562 179.53796 
L 157.520697 178.194481 
L 158.997833 177.350997 
L 161.952104 174.805891 
L 163.42924 173.96182 
L 164.906376 172.682233 
L 166.383511 171.876263 
L 167.860647 170.559161 
L 169.337783 169.664095 
L 170.814918 168.215694 
L 172.292054 167.233289 
L 173.76919 165.682896 
L 175.246325 164.573295 
L 176.723461 162.88281 
L 178.200597 161.715765 
L 179.677732 159.91684 
L 181.154868 158.659527 
L 182.632004 156.84419 
L 184.109139 155.609737 
L 185.586275 153.680098 
L 187.063411 152.444473 
L 188.540546 150.478492 
L 190.017682 149.129152 
L 191.494818 146.985565 
L 192.971954 145.644431 
L 194.449089 143.362345 
L 195.926225 141.924659 
L 197.403361 139.716235 
L 198.880496 138.275227 
L 200.357632 136.29695 
L 201.834768 134.997675 
L 203.311903 133.217382 
L 204.789039 131.951506 
L 206.266175 130.225906 
L 207.74331 129.060413 
L 209.220446 127.245179 
L 210.697582 125.890003 
L 212.174717 123.997147 
L 213.651853 122.616764 
L 215.128989 120.674505 
L 216.606124 119.338693 
L 218.08326 117.378495 
L 219.560396 116.124569 
L 222.514667 112.145638 
L 223.991803 111.025607 
L 225.468938 109.520256 
L 226.946074 108.662424 
L 228.42321 107.412145 
L 229.900345 106.724579 
L 231.377481 105.644872 
L 232.854617 104.961996 
L 234.331753 103.805502 
L 235.808888 102.943261 
L 237.286024 101.473758 
L 238.76316 100.37588 
L 240.240295 98.605677 
L 241.717431 97.375327 
L 243.194567 95.490236 
L 244.671702 94.30209 
L 246.148838 92.650291 
L 247.625974 91.676093 
L 249.103109 90.281619 
L 250.580245 89.386552 
L 252.057381 88.039557 
L 253.534516 87.149766 
L 255.011652 85.727155 
L 256.488788 84.853777 
L 257.965923 83.436442 
L 259.443059 82.543134 
L 260.920195 81.074217 
L 262.39733 80.149257 
L 263.874466 78.743059 
L 265.351602 77.818098 
L 266.828737 76.593024 
L 268.305873 75.812259 
L 269.783009 74.685659 
L 271.260144 73.957649 
L 272.73728 72.840428 
L 274.214416 72.092488 
L 275.691552 70.983473 
L 277.168687 70.232016 
L 280.122959 67.924304 
L 281.600094 67.072027 
L 283.07723 65.589042 
L 284.554366 64.515197 
L 286.031501 62.868674 
L 287.508637 61.741488 
L 288.985773 60.01173 
L 290.462908 58.926748 
L 291.940044 57.427351 
L 293.41718 56.470151 
L 294.894315 55.149533 
L 296.371451 54.347666 
L 297.848587 53.143107 
L 299.325722 52.399856 
L 300.802858 51.177126 
L 302.279994 50.317816 
L 303.757129 48.865898 
L 305.234265 47.805534 
L 306.711401 46.080465 
L 308.188536 44.834289 
L 309.665672 43.105703 
L 311.142808 42.11861 
L 312.619943 40.767511 
L 314.097079 40.065877 
L 315.574215 39.088749 
L 317.051351 38.445145 
L 318.528486 37.35606 
L 320.005622 36.410584 
L 321.482758 34.802161 
L 322.959893 33.673803 
L 324.437029 32.071241 
L 325.914165 31.226585 
L 327.3913 30.558948 
L 328.868436 30.112881 
L 331.822707 28.354987 
L 333.299843 26.847383 
L 334.776979 25.714922 
L 336.254114 24.339791 
L 337.73125 22.318125 
L 337.73125 22.318125 
" clip-path="url(#p2aa3f961f9)" style="fill: none; stroke: #d62728; stroke-width: 2; stroke-linecap: square"/>
   </g>
   <g id="line2d_17">
    <path d="M 43.78125 313.285604 
L 45.258386 311.780932 
L 46.735521 309.513665 
L 48.212657 307.640297 
L 49.689793 304.256396 
L 51.166928 301.445172 
L 52.644064 297.09821 
L 55.598335 292.563676 
L 57.075471 291.211405 
L 58.552607 289.155742 
L 60.029742 287.635829 
L 61.506878 285.155786 
L 62.984014 283.372687 
L 64.461149 280.343999 
L 65.938285 278.345193 
L 67.415421 275.393877 
L 68.892557 273.501753 
L 70.369692 270.788418 
L 71.846828 269.105553 
L 73.323964 266.804289 
L 74.801099 265.473119 
L 76.278235 263.591546 
L 77.755371 262.392849 
L 79.232506 260.604474 
L 80.709642 259.362987 
L 82.186778 257.471449 
L 83.663913 256.127384 
L 85.141049 254.263395 
L 86.618185 252.934571 
L 88.09532 250.870701 
L 89.572456 249.46509 
L 91.049592 247.283402 
L 92.526727 245.82445 
L 94.003863 243.469259 
L 95.480999 241.884282 
L 96.958134 239.587708 
L 98.43527 237.979871 
L 99.912406 235.663953 
L 101.389541 234.152832 
L 102.866677 231.890254 
L 104.343813 229.856865 
L 105.820948 228.510456 
L 107.298084 226.717392 
L 108.77522 225.460079 
L 110.252356 223.657637 
L 111.729491 222.411461 
L 113.206627 220.484167 
L 114.683763 219.16941 
L 116.160898 217.21867 
L 117.638034 215.953736 
L 119.11517 214.029959 
L 120.592305 212.800196 
L 122.069441 210.869385 
L 123.546577 209.667757 
L 125.023712 207.708224 
L 126.500848 206.332506 
L 127.977984 204.135578 
L 129.455119 202.662558 
L 130.932255 200.35426 
L 132.409391 198.918754 
L 133.886526 196.745859 
L 135.363662 195.171434 
L 136.840798 193.091738 
L 138.317933 191.645095 
L 139.795069 189.543125 
L 141.272205 188.159788 
L 142.74934 186.236597 
L 144.226476 185.012695 
L 145.703612 183.197943 
L 147.180747 182.107099 
L 148.657883 180.417786 
L 150.135019 179.352147 
L 151.612155 177.750172 
L 153.08929 176.638227 
L 154.566426 174.966498 
L 156.043562 173.825831 
L 157.520697 172.059145 
L 158.997833 170.91965 
L 161.952104 167.827656 
L 163.42924 166.916763 
L 164.906376 165.664139 
L 166.383511 164.907993 
L 167.860647 163.869903 
L 169.337783 163.137203 
L 170.814918 161.933817 
L 172.292054 161.172395 
L 173.76919 159.847673 
L 175.246325 158.912748 
L 176.723461 157.543479 
L 178.200597 156.718165 
L 179.677732 155.463197 
L 181.154868 154.685949 
L 182.632004 153.561694 
L 184.109139 152.824891 
L 185.586275 151.8038 
L 187.063411 151.185401 
L 188.540546 150.242856 
L 190.017682 149.604527 
L 191.494818 148.712978 
L 192.971954 148.083442 
L 194.449089 147.057662 
L 195.926225 146.337272 
L 197.403361 145.073511 
L 198.880496 144.089934 
L 200.357632 142.366624 
L 201.834768 141.101691 
L 203.311903 139.068888 
L 204.789039 137.649794 
L 206.266175 135.574202 
L 207.74331 134.189692 
L 209.220446 132.235434 
L 210.697582 131.054322 
L 212.174717 129.417177 
L 213.651853 128.361503 
L 215.128989 126.890827 
L 216.606124 125.910182 
L 218.08326 124.47409 
L 219.560396 123.573748 
L 222.514667 120.843415 
L 223.991803 119.918454 
L 225.468938 118.580251 
L 226.946074 117.660566 
L 228.42321 116.372772 
L 229.900345 115.497636 
L 231.377481 114.066819 
L 232.854617 113.050418 
L 234.331753 111.450787 
L 235.808888 110.359357 
L 237.286024 108.629599 
L 238.76316 107.444383 
L 240.240295 105.772069 
L 241.717431 104.634332 
L 243.194567 103.056976 
L 244.671702 102.013611 
L 246.148838 100.592173 
L 247.625974 99.654317 
L 249.103109 98.328423 
L 250.580245 97.483766 
L 252.057381 96.230556 
L 253.534516 95.437482 
L 255.011652 94.258714 
L 256.488788 93.485569 
L 257.965923 92.38183 
L 259.443059 91.623925 
L 260.920195 90.493222 
L 262.39733 89.698975 
L 263.874466 88.4909 
L 265.351602 87.547182 
L 266.828737 86.089988 
L 268.305873 85.163269 
L 269.783009 83.576534 
L 271.260144 82.489207 
L 272.73728 80.910092 
L 274.214416 79.92593 
L 275.691552 78.562522 
L 277.168687 77.680351 
L 280.122959 75.187412 
L 281.600094 74.261866 
L 283.07723 72.696819 
L 284.554366 71.554979 
L 286.031501 69.743744 
L 287.508637 68.374475 
L 288.985773 66.23968 
L 290.462908 64.784831 
L 291.940044 62.686378 
L 293.41718 61.39624 
L 294.894315 59.497668 
L 296.371451 58.375171 
L 297.848587 56.94201 
L 300.802858 55.252111 
L 302.279994 54.732187 
L 303.757129 54.043449 
L 305.234265 53.520594 
L 306.711401 52.470195 
L 308.188536 51.569854 
L 309.665672 49.957327 
L 311.142808 48.72053 
L 312.619943 46.921019 
L 314.097079 45.807315 
L 315.574215 44.422219 
L 317.051351 43.551771 
L 318.528486 42.01017 
L 320.005622 40.789199 
L 321.482758 38.596374 
L 322.959893 37.074117 
L 324.437029 34.997352 
L 325.914165 33.800999 
L 327.3913 32.047209 
L 328.868436 30.736555 
L 330.345572 28.583003 
L 333.299843 26.074238 
L 334.776979 25.198515 
L 336.254114 23.879069 
L 337.73125 22.318125 
L 337.73125 22.318125 
" clip-path="url(#p2aa3f961f9)" style="fill: none; stroke: #9467bd; stroke-width: 2; stroke-linecap: square"/>
   </g>
   <g id="line2d_18">
    <path d="M 43.78125 313.93038 
L 46.735521 308.399107 
L 48.212657 306.625899 
L 65.938285 289.206361 
L 337.73125 22.318125 
L 337.73125 22.318125 
" clip-path="url(#p2aa3f961f9)" style="fill: none; stroke: #8c564b; stroke-width: 2; stroke-linecap: square"/>
   </g>
   <g id="line2d_19">
    <path d="M 43.78125 314.038234 
L 46.735521 309.952937 
L 49.689793 304.865799 
L 51.166928 302.628638 
L 54.1212 297.207822 
L 55.598335 294.774672 
L 58.552607 288.382983 
L 60.029742 285.695021 
L 65.938285 272.907372 
L 67.415421 269.716311 
L 71.846828 260.786608 
L 74.801099 254.859025 
L 79.232506 246.65543 
L 85.141049 236.324183 
L 88.09532 230.926837 
L 91.049592 226.387526 
L 96.958134 218.286519 
L 99.912406 214.615926 
L 101.389541 212.933646 
L 104.343813 209.31575 
L 107.298084 205.780892 
L 110.252356 201.889359 
L 116.160898 193.479103 
L 117.638034 191.24348 
L 119.11517 189.24183 
L 122.069441 184.828671 
L 125.023712 180.832233 
L 127.977984 177.203238 
L 132.409391 172.161639 
L 147.180747 155.036064 
L 150.135019 151.876298 
L 153.08929 148.988023 
L 156.043562 146.455735 
L 160.474969 142.739278 
L 163.42924 140.017205 
L 166.383511 137.066482 
L 175.246325 128.318156 
L 184.109139 120.220705 
L 192.971954 112.764054 
L 195.926225 110.557283 
L 200.357632 107.604862 
L 215.128989 98.404368 
L 337.73125 22.318125 
L 337.73125 22.318125 
" clip-path="url(#p2aa3f961f9)" style="fill: none; stroke: #e377c2; stroke-width: 2; stroke-linecap: square"/>
   </g>
   <g id="line2d_20">
    <path d="M 43.78125 315.398125 
L 337.73125 22.318125 
" clip-path="url(#p2aa3f961f9)" style="fill: none; stroke-dasharray: 3.7,1.6; stroke-dashoffset: 0; stroke: #7f7f7f"/>
   </g>
   <g id="patch_3">
    <path d="M 43.78125 315.398125 
L 43.78125 22.318125 
" style="fill: none; stroke: #000000; stroke-width: 0.8; stroke-linejoin: miter; stroke-linecap: square"/>
   </g>
   <g id="patch_4">
    <path d="M 337.73125 315.398125 
L 337.73125 22.318125 
" style="fill: none; stroke: #000000; stroke-width: 0.8; stroke-linejoin: miter; stroke-linecap: square"/>
   </g>
   <g id="patch_5">
    <path d="M 43.78125 315.398125 
L 337.73125 315.398125 
" style="fill: none; stroke: #000000; stroke-width: 0.8; stroke-linejoin: miter; stroke-linecap: square"/>
   </g>
   <g id="patch_6">
    <path d="M 43.78125 22.318125 
L 337.73125 22.318125 
" style="fill: none; stroke: #000000; stroke-width: 0.8; stroke-linejoin: miter; stroke-linecap: square"/>
   </g>
   <g id="text_15">
    <!-- $s$ = 0.001 -->
    <g transform="translate(161.59625 16.318125) scale(0.12 -0.12)">
     <defs>
      <path id="DejaVuSans-Oblique-73" d="M 3200 3397 
L 3091 2853 
Q 2863 2978 2609 3040 
Q 2356 3103 2088 3103 
Q 1634 3103 1373 2948 
Q 1113 2794 1113 2528 
Q 1113 2219 1719 2053 
Q 1766 2041 1788 2034 
L 1972 1978 
Q 2547 1819 2739 1644 
Q 2931 1469 2931 1166 
Q 2931 609 2489 259 
Q 2047 -91 1331 -91 
Q 1053 -91 747 -37 
Q 441 16 72 128 
L 184 722 
Q 500 559 806 475 
Q 1113 391 1394 391 
Q 1816 391 2080 572 
Q 2344 753 2344 1031 
Q 2344 1331 1650 1516 
L 1591 1531 
L 1394 1581 
Q 956 1697 753 1886 
Q 550 2075 550 2369 
Q 550 2928 970 3256 
Q 1391 3584 2113 3584 
Q 2397 3584 2667 3537 
Q 2938 3491 3200 3397 
z
" transform="scale(0.015625)"/>
      <path id="DejaVuSans-3d" d="M 678 2906 
L 4684 2906 
L 4684 2381 
L 678 2381 
L 678 2906 
z
M 678 1631 
L 4684 1631 
L 4684 1100 
L 678 1100 
L 678 1631 
z
" transform="scale(0.015625)"/>
     </defs>
     <use xlink:href="#DejaVuSans-Oblique-73" transform="translate(0 0.78125)"/>
     <use xlink:href="#DejaVuSans-20" transform="translate(52.099609 0.78125)"/>
     <use xlink:href="#DejaVuSans-3d" transform="translate(83.886719 0.78125)"/>
     <use xlink:href="#DejaVuSans-20" transform="translate(167.675781 0.78125)"/>
     <use xlink:href="#DejaVuSans-30" transform="translate(199.462891 0.78125)"/>
     <use xlink:href="#DejaVuSans-2e" transform="translate(263.085938 0.78125)"/>
     <use xlink:href="#DejaVuSans-30" transform="translate(294.873047 0.78125)"/>
     <use xlink:href="#DejaVuSans-30" transform="translate(358.496094 0.78125)"/>
     <use xlink:href="#DejaVuSans-31" transform="translate(422.119141 0.78125)"/>
    </g>
   </g>
   <g id="legend_1">
    <g id="patch_7">
     <path d="M 209.49125 311.398125 
L 332.13125 311.398125 
Q 333.73125 311.398125 333.73125 309.798125 
L 333.73125 228.383125 
Q 333.73125 226.783125 332.13125 226.783125 
L 209.49125 226.783125 
Q 207.89125 226.783125 207.89125 228.383125 
L 207.89125 309.798125 
Q 207.89125 311.398125 209.49125 311.398125 
z
" style="fill: #ffffff; opacity: 0.8; stroke: #cccccc; stroke-linejoin: miter"/>
    </g>
    <g id="line2d_21">
     <path d="M 211.09125 233.261875 
L 219.09125 233.261875 
L 227.09125 233.261875 
" style="fill: none; stroke: #1f77b4; stroke-width: 2; stroke-linecap: square"/>
    </g>
    <g id="text_16">
     <!-- $D_{anc}$ (mean AUC = 0.53) -->
     <g transform="translate(233.49125 236.061875) scale(0.08 -0.08)">
      <defs>
       <path id="DejaVuSans-Oblique-44" d="M 1081 4666 
L 2438 4666 
Q 3519 4666 4070 4208 
Q 4622 3750 4622 2847 
Q 4622 2250 4412 1698 
Q 4203 1147 3834 769 
Q 3463 381 2891 190 
Q 2319 0 1538 0 
L 172 0 
L 1081 4666 
z
M 1613 4147 
L 909 519 
L 1734 519 
Q 2794 519 3375 1128 
Q 3956 1738 3956 2847 
Q 3956 3519 3581 3833 
Q 3206 4147 2406 4147 
L 1613 4147 
z
" transform="scale(0.015625)"/>
       <path id="DejaVuSans-Oblique-61" d="M 3438 1997 
L 3047 0 
L 2472 0 
L 2578 531 
Q 2325 219 2001 64 
Q 1678 -91 1281 -91 
Q 834 -91 548 182 
Q 263 456 263 884 
Q 263 1497 752 1853 
Q 1241 2209 2100 2209 
L 2900 2209 
L 2931 2363 
Q 2938 2388 2941 2417 
Q 2944 2447 2944 2509 
Q 2944 2788 2717 2942 
Q 2491 3097 2081 3097 
Q 1800 3097 1504 3025 
Q 1209 2953 897 2809 
L 997 3341 
Q 1322 3463 1633 3523 
Q 1944 3584 2234 3584 
Q 2853 3584 3176 3315 
Q 3500 3047 3500 2534 
Q 3500 2431 3484 2292 
Q 3469 2153 3438 1997 
z
M 2816 1759 
L 2241 1759 
Q 1534 1759 1195 1570 
Q 856 1381 856 984 
Q 856 709 1029 553 
Q 1203 397 1509 397 
Q 1978 397 2328 733 
Q 2678 1069 2791 1631 
L 2816 1759 
z
" transform="scale(0.015625)"/>
       <path id="DejaVuSans-Oblique-6e" d="M 3566 2113 
L 3156 0 
L 2578 0 
L 2988 2091 
Q 3016 2238 3031 2350 
Q 3047 2463 3047 2528 
Q 3047 2791 2881 2937 
Q 2716 3084 2419 3084 
Q 1956 3084 1622 2776 
Q 1288 2469 1184 1941 
L 800 0 
L 225 0 
L 903 3500 
L 1478 3500 
L 1363 2950 
Q 1603 3253 1940 3418 
Q 2278 3584 2650 3584 
Q 3113 3584 3367 3334 
Q 3622 3084 3622 2631 
Q 3622 2519 3608 2391 
Q 3594 2263 3566 2113 
z
" transform="scale(0.015625)"/>
       <path id="DejaVuSans-Oblique-63" d="M 3431 3366 
L 3316 2797 
Q 3109 2947 2876 3022 
Q 2644 3097 2394 3097 
Q 2119 3097 1870 3000 
Q 1622 2903 1453 2725 
Q 1184 2453 1037 2087 
Q 891 1722 891 1331 
Q 891 859 1127 628 
Q 1363 397 1844 397 
Q 2081 397 2348 469 
Q 2616 541 2906 684 
L 2797 116 
Q 2547 13 2283 -39 
Q 2019 -91 1741 -91 
Q 1044 -91 669 257 
Q 294 606 294 1253 
Q 294 1797 489 2255 
Q 684 2713 1069 3078 
Q 1331 3328 1684 3456 
Q 2038 3584 2456 3584 
Q 2700 3584 2940 3529 
Q 3181 3475 3431 3366 
z
" transform="scale(0.015625)"/>
       <path id="DejaVuSans-28" d="M 1984 4856 
Q 1566 4138 1362 3434 
Q 1159 2731 1159 2009 
Q 1159 1288 1364 580 
Q 1569 -128 1984 -844 
L 1484 -844 
Q 1016 -109 783 600 
Q 550 1309 550 2009 
Q 550 2706 781 3412 
Q 1013 4119 1484 4856 
L 1984 4856 
z
" transform="scale(0.015625)"/>
       <path id="DejaVuSans-6d" d="M 3328 2828 
Q 3544 3216 3844 3400 
Q 4144 3584 4550 3584 
Q 5097 3584 5394 3201 
Q 5691 2819 5691 2113 
L 5691 0 
L 5113 0 
L 5113 2094 
Q 5113 2597 4934 2840 
Q 4756 3084 4391 3084 
Q 3944 3084 3684 2787 
Q 3425 2491 3425 1978 
L 3425 0 
L 2847 0 
L 2847 2094 
Q 2847 2600 2669 2842 
Q 2491 3084 2119 3084 
Q 1678 3084 1418 2786 
Q 1159 2488 1159 1978 
L 1159 0 
L 581 0 
L 581 3500 
L 1159 3500 
L 1159 2956 
Q 1356 3278 1631 3431 
Q 1906 3584 2284 3584 
Q 2666 3584 2933 3390 
Q 3200 3197 3328 2828 
z
" transform="scale(0.015625)"/>
       <path id="DejaVuSans-6e" d="M 3513 2113 
L 3513 0 
L 2938 0 
L 2938 2094 
Q 2938 2591 2744 2837 
Q 2550 3084 2163 3084 
Q 1697 3084 1428 2787 
Q 1159 2491 1159 1978 
L 1159 0 
L 581 0 
L 581 3500 
L 1159 3500 
L 1159 2956 
Q 1366 3272 1645 3428 
Q 1925 3584 2291 3584 
Q 2894 3584 3203 3211 
Q 3513 2838 3513 2113 
z
" transform="scale(0.015625)"/>
       <path id="DejaVuSans-41" d="M 2188 4044 
L 1331 1722 
L 3047 1722 
L 2188 4044 
z
M 1831 4666 
L 2547 4666 
L 4325 0 
L 3669 0 
L 3244 1197 
L 1141 1197 
L 716 0 
L 50 0 
L 1831 4666 
z
" transform="scale(0.015625)"/>
       <path id="DejaVuSans-55" d="M 556 4666 
L 1191 4666 
L 1191 1831 
Q 1191 1081 1462 751 
Q 1734 422 2344 422 
Q 2950 422 3222 751 
Q 3494 1081 3494 1831 
L 3494 4666 
L 4128 4666 
L 4128 1753 
Q 4128 841 3676 375 
Q 3225 -91 2344 -91 
Q 1459 -91 1007 375 
Q 556 841 556 1753 
L 556 4666 
z
" transform="scale(0.015625)"/>
       <path id="DejaVuSans-43" d="M 4122 4306 
L 4122 3641 
Q 3803 3938 3442 4084 
Q 3081 4231 2675 4231 
Q 1875 4231 1450 3742 
Q 1025 3253 1025 2328 
Q 1025 1406 1450 917 
Q 1875 428 2675 428 
Q 3081 428 3442 575 
Q 3803 722 4122 1019 
L 4122 359 
Q 3791 134 3420 21 
Q 3050 -91 2638 -91 
Q 1578 -91 968 557 
Q 359 1206 359 2328 
Q 359 3453 968 4101 
Q 1578 4750 2638 4750 
Q 3056 4750 3426 4639 
Q 3797 4528 4122 4306 
z
" transform="scale(0.015625)"/>
       <path id="DejaVuSans-35" d="M 691 4666 
L 3169 4666 
L 3169 4134 
L 1269 4134 
L 1269 2991 
Q 1406 3038 1543 3061 
Q 1681 3084 1819 3084 
Q 2600 3084 3056 2656 
Q 3513 2228 3513 1497 
Q 3513 744 3044 326 
Q 2575 -91 1722 -91 
Q 1428 -91 1123 -41 
Q 819 9 494 109 
L 494 744 
Q 775 591 1075 516 
Q 1375 441 1709 441 
Q 2250 441 2565 725 
Q 2881 1009 2881 1497 
Q 2881 1984 2565 2268 
Q 2250 2553 1709 2553 
Q 1456 2553 1204 2497 
Q 953 2441 691 2322 
L 691 4666 
z
" transform="scale(0.015625)"/>
       <path id="DejaVuSans-33" d="M 2597 2516 
Q 3050 2419 3304 2112 
Q 3559 1806 3559 1356 
Q 3559 666 3084 287 
Q 2609 -91 1734 -91 
Q 1441 -91 1130 -33 
Q 819 25 488 141 
L 488 750 
Q 750 597 1062 519 
Q 1375 441 1716 441 
Q 2309 441 2620 675 
Q 2931 909 2931 1356 
Q 2931 1769 2642 2001 
Q 2353 2234 1838 2234 
L 1294 2234 
L 1294 2753 
L 1863 2753 
Q 2328 2753 2575 2939 
Q 2822 3125 2822 3475 
Q 2822 3834 2567 4026 
Q 2313 4219 1838 4219 
Q 1578 4219 1281 4162 
Q 984 4106 628 3988 
L 628 4550 
Q 988 4650 1302 4700 
Q 1616 4750 1894 4750 
Q 2613 4750 3031 4423 
Q 3450 4097 3450 3541 
Q 3450 3153 3228 2886 
Q 3006 2619 2597 2516 
z
" transform="scale(0.015625)"/>
       <path id="DejaVuSans-29" d="M 513 4856 
L 1013 4856 
Q 1481 4119 1714 3412 
Q 1947 2706 1947 2009 
Q 1947 1309 1714 600 
Q 1481 -109 1013 -844 
L 513 -844 
Q 928 -128 1133 580 
Q 1338 1288 1338 2009 
Q 1338 2731 1133 3434 
Q 928 4138 513 4856 
z
" transform="scale(0.015625)"/>
      </defs>
      <use xlink:href="#DejaVuSans-Oblique-44" transform="translate(0 0.125)"/>
      <use xlink:href="#DejaVuSans-Oblique-61" transform="translate(77.001953 -16.28125) scale(0.7)"/>
      <use xlink:href="#DejaVuSans-Oblique-6e" transform="translate(119.897461 -16.28125) scale(0.7)"/>
      <use xlink:href="#DejaVuSans-Oblique-63" transform="translate(164.262695 -16.28125) scale(0.7)"/>
      <use xlink:href="#DejaVuSans-20" transform="translate(205.483398 0.125)"/>
      <use xlink:href="#DejaVuSans-28" transform="translate(237.270508 0.125)"/>
      <use xlink:href="#DejaVuSans-6d" transform="translate(276.28418 0.125)"/>
      <use xlink:href="#DejaVuSans-65" transform="translate(373.696289 0.125)"/>
      <use xlink:href="#DejaVuSans-61" transform="translate(435.219727 0.125)"/>
      <use xlink:href="#DejaVuSans-6e" transform="translate(496.499023 0.125)"/>
      <use xlink:href="#DejaVuSans-20" transform="translate(559.87793 0.125)"/>
      <use xlink:href="#DejaVuSans-41" transform="translate(591.665039 0.125)"/>
      <use xlink:href="#DejaVuSans-55" transform="translate(660.073242 0.125)"/>
      <use xlink:href="#DejaVuSans-43" transform="translate(733.266602 0.125)"/>
      <use xlink:href="#DejaVuSans-20" transform="translate(803.09082 0.125)"/>
      <use xlink:href="#DejaVuSans-3d" transform="translate(834.87793 0.125)"/>
      <use xlink:href="#DejaVuSans-20" transform="translate(918.666992 0.125)"/>
      <use xlink:href="#DejaVuSans-30" transform="translate(950.454102 0.125)"/>
      <use xlink:href="#DejaVuSans-2e" transform="translate(1014.077148 0.125)"/>
      <use xlink:href="#DejaVuSans-35" transform="translate(1045.864258 0.125)"/>
      <use xlink:href="#DejaVuSans-33" transform="translate(1109.487305 0.125)"/>
      <use xlink:href="#DejaVuSans-29" transform="translate(1173.110352 0.125)"/>
     </g>
    </g>
    <g id="line2d_22">
     <path d="M 211.09125 245.021875 
L 219.09125 245.021875 
L 227.09125 245.021875 
" style="fill: none; stroke: #ff7f0e; stroke-width: 2; stroke-linecap: square"/>
    </g>
    <g id="text_17">
     <!-- $D^+$ (mean AUC = 0.55) -->
     <g transform="translate(233.49125 247.821875) scale(0.08 -0.08)">
      <defs>
       <path id="DejaVuSans-2b" d="M 2944 4013 
L 2944 2272 
L 4684 2272 
L 4684 1741 
L 2944 1741 
L 2944 0 
L 2419 0 
L 2419 1741 
L 678 1741 
L 678 2272 
L 2419 2272 
L 2419 4013 
L 2944 4013 
z
" transform="scale(0.015625)"/>
      </defs>
      <use xlink:href="#DejaVuSans-Oblique-44" transform="translate(0 0.826562)"/>
      <use xlink:href="#DejaVuSans-2b" transform="translate(97.656419 39.107812) scale(0.7)"/>
      <use xlink:href="#DejaVuSans-20" transform="translate(172.680833 0.826562)"/>
      <use xlink:href="#DejaVuSans-28" transform="translate(204.467943 0.826562)"/>
      <use xlink:href="#DejaVuSans-6d" transform="translate(243.481615 0.826562)"/>
      <use xlink:href="#DejaVuSans-65" transform="translate(340.893724 0.826562)"/>
      <use xlink:href="#DejaVuSans-61" transform="translate(402.417161 0.826562)"/>
      <use xlink:href="#DejaVuSans-6e" transform="translate(463.696458 0.826562)"/>
      <use xlink:href="#DejaVuSans-20" transform="translate(527.075365 0.826562)"/>
      <use xlink:href="#DejaVuSans-41" transform="translate(558.862474 0.826562)"/>
      <use xlink:href="#DejaVuSans-55" transform="translate(627.270677 0.826562)"/>
      <use xlink:href="#DejaVuSans-43" transform="translate(700.464036 0.826562)"/>
      <use xlink:href="#DejaVuSans-20" transform="translate(770.288255 0.826562)"/>
      <use xlink:href="#DejaVuSans-3d" transform="translate(802.075365 0.826562)"/>
      <use xlink:href="#DejaVuSans-20" transform="translate(885.864427 0.826562)"/>
      <use xlink:href="#DejaVuSans-30" transform="translate(917.651536 0.826562)"/>
      <use xlink:href="#DejaVuSans-2e" transform="translate(981.274583 0.826562)"/>
      <use xlink:href="#DejaVuSans-35" transform="translate(1013.061693 0.826562)"/>
      <use xlink:href="#DejaVuSans-35" transform="translate(1076.68474 0.826562)"/>
      <use xlink:href="#DejaVuSans-29" transform="translate(1140.307786 0.826562)"/>
     </g>
    </g>
    <g id="line2d_23">
     <path d="M 211.09125 256.764375 
L 219.09125 256.764375 
L 227.09125 256.764375 
" style="fill: none; stroke: #2ca02c; stroke-width: 2; stroke-linecap: square"/>
    </g>
    <g id="text_18">
     <!-- $d_f$ (mean AUC = 0.56) -->
     <g transform="translate(233.49125 259.564375) scale(0.08 -0.08)">
      <defs>
       <path id="DejaVuSans-Oblique-64" d="M 2675 525 
Q 2444 222 2128 65 
Q 1813 -91 1428 -91 
Q 903 -91 598 267 
Q 294 625 294 1247 
Q 294 1766 478 2236 
Q 663 2706 1013 3078 
Q 1244 3325 1534 3454 
Q 1825 3584 2144 3584 
Q 2481 3584 2739 3421 
Q 2997 3259 3138 2956 
L 3513 4863 
L 4091 4863 
L 3144 0 
L 2566 0 
L 2675 525 
z
M 891 1350 
Q 891 897 1095 644 
Q 1300 391 1663 391 
Q 1931 391 2161 520 
Q 2391 650 2566 903 
Q 2750 1166 2856 1509 
Q 2963 1853 2963 2188 
Q 2963 2622 2758 2865 
Q 2553 3109 2194 3109 
Q 1922 3109 1687 2981 
Q 1453 2853 1288 2613 
Q 1106 2353 998 2009 
Q 891 1666 891 1350 
z
" transform="scale(0.015625)"/>
       <path id="DejaVuSans-Oblique-66" d="M 3059 4863 
L 2969 4384 
L 2419 4384 
Q 2106 4384 1964 4261 
Q 1822 4138 1753 3809 
L 1691 3500 
L 2638 3500 
L 2553 3053 
L 1606 3053 
L 1013 0 
L 434 0 
L 1031 3053 
L 481 3053 
L 563 3500 
L 1113 3500 
L 1159 3744 
Q 1278 4363 1576 4613 
Q 1875 4863 2516 4863 
L 3059 4863 
z
" transform="scale(0.015625)"/>
      </defs>
      <use xlink:href="#DejaVuSans-Oblique-64" transform="translate(0 0.015625)"/>
      <use xlink:href="#DejaVuSans-Oblique-66" transform="translate(63.476562 -16.390625) scale(0.7)"/>
      <use xlink:href="#DejaVuSans-20" transform="translate(90.854492 0.015625)"/>
      <use xlink:href="#DejaVuSans-28" transform="translate(122.641602 0.015625)"/>
      <use xlink:href="#DejaVuSans-6d" transform="translate(161.655273 0.015625)"/>
      <use xlink:href="#DejaVuSans-65" transform="translate(259.067383 0.015625)"/>
      <use xlink:href="#DejaVuSans-61" transform="translate(320.59082 0.015625)"/>
      <use xlink:href="#DejaVuSans-6e" transform="translate(381.870117 0.015625)"/>
      <use xlink:href="#DejaVuSans-20" transform="translate(445.249023 0.015625)"/>
      <use xlink:href="#DejaVuSans-41" transform="translate(477.036133 0.015625)"/>
      <use xlink:href="#DejaVuSans-55" transform="translate(545.444336 0.015625)"/>
      <use xlink:href="#DejaVuSans-43" transform="translate(618.637695 0.015625)"/>
      <use xlink:href="#DejaVuSans-20" transform="translate(688.461914 0.015625)"/>
      <use xlink:href="#DejaVuSans-3d" transform="translate(720.249023 0.015625)"/>
      <use xlink:href="#DejaVuSans-20" transform="translate(804.038086 0.015625)"/>
      <use xlink:href="#DejaVuSans-30" transform="translate(835.825195 0.015625)"/>
      <use xlink:href="#DejaVuSans-2e" transform="translate(899.448242 0.015625)"/>
      <use xlink:href="#DejaVuSans-35" transform="translate(931.235352 0.015625)"/>
      <use xlink:href="#DejaVuSans-36" transform="translate(994.858398 0.015625)"/>
      <use xlink:href="#DejaVuSans-29" transform="translate(1058.481445 0.015625)"/>
     </g>
    </g>
    <g id="line2d_24">
     <path d="M 211.09125 268.506875 
L 219.09125 268.506875 
L 227.09125 268.506875 
" style="fill: none; stroke: #d62728; stroke-width: 2; stroke-linecap: square"/>
    </g>
    <g id="text_19">
     <!-- $f_d$ (mean AUC = 0.56) -->
     <g transform="translate(233.49125 271.306875) scale(0.08 -0.08)">
      <use xlink:href="#DejaVuSans-Oblique-66" transform="translate(0 0.015625)"/>
      <use xlink:href="#DejaVuSans-Oblique-64" transform="translate(35.205078 -16.390625) scale(0.7)"/>
      <use xlink:href="#DejaVuSans-20" transform="translate(82.373047 0.015625)"/>
      <use xlink:href="#DejaVuSans-28" transform="translate(114.160156 0.015625)"/>
      <use xlink:href="#DejaVuSans-6d" transform="translate(153.173828 0.015625)"/>
      <use xlink:href="#DejaVuSans-65" transform="translate(250.585938 0.015625)"/>
      <use xlink:href="#DejaVuSans-61" transform="translate(312.109375 0.015625)"/>
      <use xlink:href="#DejaVuSans-6e" transform="translate(373.388672 0.015625)"/>
      <use xlink:href="#DejaVuSans-20" transform="translate(436.767578 0.015625)"/>
      <use xlink:href="#DejaVuSans-41" transform="translate(468.554688 0.015625)"/>
      <use xlink:href="#DejaVuSans-55" transform="translate(536.962891 0.015625)"/>
      <use xlink:href="#DejaVuSans-43" transform="translate(610.15625 0.015625)"/>
      <use xlink:href="#DejaVuSans-20" transform="translate(679.980469 0.015625)"/>
      <use xlink:href="#DejaVuSans-3d" transform="translate(711.767578 0.015625)"/>
      <use xlink:href="#DejaVuSans-20" transform="translate(795.556641 0.015625)"/>
      <use xlink:href="#DejaVuSans-30" transform="translate(827.34375 0.015625)"/>
      <use xlink:href="#DejaVuSans-2e" transform="translate(890.966797 0.015625)"/>
      <use xlink:href="#DejaVuSans-35" transform="translate(922.753906 0.015625)"/>
      <use xlink:href="#DejaVuSans-36" transform="translate(986.376953 0.015625)"/>
      <use xlink:href="#DejaVuSans-29" transform="translate(1050 0.015625)"/>
     </g>
    </g>
    <g id="line2d_25">
     <path d="M 211.09125 280.249375 
L 219.09125 280.249375 
L 227.09125 280.249375 
" style="fill: none; stroke: #9467bd; stroke-width: 2; stroke-linecap: square"/>
    </g>
    <g id="text_20">
     <!-- $D_D$ (mean AUC = 0.55) -->
     <g transform="translate(233.49125 283.049375) scale(0.08 -0.08)">
      <use xlink:href="#DejaVuSans-Oblique-44" transform="translate(0 0.125)"/>
      <use xlink:href="#DejaVuSans-Oblique-44" transform="translate(77.001953 -16.28125) scale(0.7)"/>
      <use xlink:href="#DejaVuSans-20" transform="translate(133.637695 0.125)"/>
      <use xlink:href="#DejaVuSans-28" transform="translate(165.424805 0.125)"/>
      <use xlink:href="#DejaVuSans-6d" transform="translate(204.438477 0.125)"/>
      <use xlink:href="#DejaVuSans-65" transform="translate(301.850586 0.125)"/>
      <use xlink:href="#DejaVuSans-61" transform="translate(363.374023 0.125)"/>
      <use xlink:href="#DejaVuSans-6e" transform="translate(424.65332 0.125)"/>
      <use xlink:href="#DejaVuSans-20" transform="translate(488.032227 0.125)"/>
      <use xlink:href="#DejaVuSans-41" transform="translate(519.819336 0.125)"/>
      <use xlink:href="#DejaVuSans-55" transform="translate(588.227539 0.125)"/>
      <use xlink:href="#DejaVuSans-43" transform="translate(661.420898 0.125)"/>
      <use xlink:href="#DejaVuSans-20" transform="translate(731.245117 0.125)"/>
      <use xlink:href="#DejaVuSans-3d" transform="translate(763.032227 0.125)"/>
      <use xlink:href="#DejaVuSans-20" transform="translate(846.821289 0.125)"/>
      <use xlink:href="#DejaVuSans-30" transform="translate(878.608398 0.125)"/>
      <use xlink:href="#DejaVuSans-2e" transform="translate(942.231445 0.125)"/>
      <use xlink:href="#DejaVuSans-35" transform="translate(974.018555 0.125)"/>
      <use xlink:href="#DejaVuSans-35" transform="translate(1037.641602 0.125)"/>
      <use xlink:href="#DejaVuSans-29" transform="translate(1101.264648 0.125)"/>
     </g>
    </g>
    <g id="line2d_26">
     <path d="M 211.09125 291.991875 
L 219.09125 291.991875 
L 227.09125 291.991875 
" style="fill: none; stroke: #8c564b; stroke-width: 2; stroke-linecap: square"/>
    </g>
    <g id="text_21">
     <!-- $U50$ (mean AUC = 0.51) -->
     <g transform="translate(233.49125 294.791875) scale(0.08 -0.08)">
      <defs>
       <path id="DejaVuSans-Oblique-55" d="M 991 4666 
L 1625 4666 
L 1075 1831 
Q 1041 1641 1027 1517 
Q 1013 1394 1013 1300 
Q 1013 869 1253 645 
Q 1494 422 1959 422 
Q 2563 422 2898 753 
Q 3234 1084 3378 1831 
L 3928 4666 
L 4563 4666 
L 4000 1753 
Q 3816 809 3300 359 
Q 2784 -91 1888 -91 
Q 1188 -91 780 261 
Q 372 613 372 1216 
Q 372 1325 387 1461 
Q 403 1597 434 1753 
L 991 4666 
z
" transform="scale(0.015625)"/>
      </defs>
      <use xlink:href="#DejaVuSans-Oblique-55" transform="translate(0 0.125)"/>
      <use xlink:href="#DejaVuSans-35" transform="translate(73.193359 0.125)"/>
      <use xlink:href="#DejaVuSans-30" transform="translate(136.816406 0.125)"/>
      <use xlink:href="#DejaVuSans-20" transform="translate(200.439453 0.125)"/>
      <use xlink:href="#DejaVuSans-28" transform="translate(232.226562 0.125)"/>
      <use xlink:href="#DejaVuSans-6d" transform="translate(271.240234 0.125)"/>
      <use xlink:href="#DejaVuSans-65" transform="translate(368.652344 0.125)"/>
      <use xlink:href="#DejaVuSans-61" transform="translate(430.175781 0.125)"/>
      <use xlink:href="#DejaVuSans-6e" transform="translate(491.455078 0.125)"/>
      <use xlink:href="#DejaVuSans-20" transform="translate(554.833984 0.125)"/>
      <use xlink:href="#DejaVuSans-41" transform="translate(586.621094 0.125)"/>
      <use xlink:href="#DejaVuSans-55" transform="translate(655.029297 0.125)"/>
      <use xlink:href="#DejaVuSans-43" transform="translate(728.222656 0.125)"/>
      <use xlink:href="#DejaVuSans-20" transform="translate(798.046875 0.125)"/>
      <use xlink:href="#DejaVuSans-3d" transform="translate(829.833984 0.125)"/>
      <use xlink:href="#DejaVuSans-20" transform="translate(913.623047 0.125)"/>
      <use xlink:href="#DejaVuSans-30" transform="translate(945.410156 0.125)"/>
      <use xlink:href="#DejaVuSans-2e" transform="translate(1009.033203 0.125)"/>
      <use xlink:href="#DejaVuSans-35" transform="translate(1040.820312 0.125)"/>
      <use xlink:href="#DejaVuSans-31" transform="translate(1104.443359 0.125)"/>
      <use xlink:href="#DejaVuSans-29" transform="translate(1168.066406 0.125)"/>
     </g>
    </g>
    <g id="line2d_27">
     <path d="M 211.09125 303.734375 
L 219.09125 303.734375 
L 227.09125 303.734375 
" style="fill: none; stroke: #e377c2; stroke-width: 2; stroke-linecap: square"/>
    </g>
    <g id="text_22">
     <!-- $Q95$ (mean AUC = 0.62) -->
     <g transform="translate(233.49125 306.534375) scale(0.08 -0.08)">
      <defs>
       <path id="DejaVuSans-Oblique-51" d="M 2309 -84 
Q 2275 -88 2237 -89 
Q 2200 -91 2125 -91 
Q 1250 -91 756 411 
Q 263 913 263 1797 
Q 263 2319 452 2844 
Q 641 3369 978 3788 
Q 1369 4269 1858 4509 
Q 2347 4750 2938 4750 
Q 3794 4750 4287 4245 
Q 4781 3741 4781 2869 
Q 4781 1928 4265 1147 
Q 3750 366 2919 44 
L 3553 -825 
L 2847 -825 
L 2309 -84 
z
M 2919 4238 
Q 2400 4238 2003 3986 
Q 1606 3734 1313 3219 
Q 1125 2891 1026 2522 
Q 928 2153 928 1778 
Q 928 1128 1239 775 
Q 1550 422 2119 422 
Q 2631 422 3032 676 
Q 3434 931 3719 1434 
Q 3909 1772 4009 2142 
Q 4109 2513 4109 2881 
Q 4109 3528 3796 3883 
Q 3484 4238 2919 4238 
z
" transform="scale(0.015625)"/>
       <path id="DejaVuSans-39" d="M 703 97 
L 703 672 
Q 941 559 1184 500 
Q 1428 441 1663 441 
Q 2288 441 2617 861 
Q 2947 1281 2994 2138 
Q 2813 1869 2534 1725 
Q 2256 1581 1919 1581 
Q 1219 1581 811 2004 
Q 403 2428 403 3163 
Q 403 3881 828 4315 
Q 1253 4750 1959 4750 
Q 2769 4750 3195 4129 
Q 3622 3509 3622 2328 
Q 3622 1225 3098 567 
Q 2575 -91 1691 -91 
Q 1453 -91 1209 -44 
Q 966 3 703 97 
z
M 1959 2075 
Q 2384 2075 2632 2365 
Q 2881 2656 2881 3163 
Q 2881 3666 2632 3958 
Q 2384 4250 1959 4250 
Q 1534 4250 1286 3958 
Q 1038 3666 1038 3163 
Q 1038 2656 1286 2365 
Q 1534 2075 1959 2075 
z
" transform="scale(0.015625)"/>
      </defs>
      <use xlink:href="#DejaVuSans-Oblique-51" transform="translate(0 0.125)"/>
      <use xlink:href="#DejaVuSans-39" transform="translate(78.710938 0.125)"/>
      <use xlink:href="#DejaVuSans-35" transform="translate(142.333984 0.125)"/>
      <use xlink:href="#DejaVuSans-20" transform="translate(205.957031 0.125)"/>
      <use xlink:href="#DejaVuSans-28" transform="translate(237.744141 0.125)"/>
      <use xlink:href="#DejaVuSans-6d" transform="translate(276.757812 0.125)"/>
      <use xlink:href="#DejaVuSans-65" transform="translate(374.169922 0.125)"/>
      <use xlink:href="#DejaVuSans-61" transform="translate(435.693359 0.125)"/>
      <use xlink:href="#DejaVuSans-6e" transform="translate(496.972656 0.125)"/>
      <use xlink:href="#DejaVuSans-20" transform="translate(560.351562 0.125)"/>
      <use xlink:href="#DejaVuSans-41" transform="translate(592.138672 0.125)"/>
      <use xlink:href="#DejaVuSans-55" transform="translate(660.546875 0.125)"/>
      <use xlink:href="#DejaVuSans-43" transform="translate(733.740234 0.125)"/>
      <use xlink:href="#DejaVuSans-20" transform="translate(803.564453 0.125)"/>
      <use xlink:href="#DejaVuSans-3d" transform="translate(835.351562 0.125)"/>
      <use xlink:href="#DejaVuSans-20" transform="translate(919.140625 0.125)"/>
      <use xlink:href="#DejaVuSans-30" transform="translate(950.927734 0.125)"/>
      <use xlink:href="#DejaVuSans-2e" transform="translate(1014.550781 0.125)"/>
      <use xlink:href="#DejaVuSans-36" transform="translate(1046.337891 0.125)"/>
      <use xlink:href="#DejaVuSans-32" transform="translate(1109.960938 0.125)"/>
      <use xlink:href="#DejaVuSans-29" transform="translate(1173.583984 0.125)"/>
     </g>
    </g>
   </g>
  </g>
 </g>
 <defs>
  <clipPath id="p2aa3f961f9">
   <rect x="43.78125" y="22.318125" width="293.95" height="293.08"/>
  </clipPath>
 </defs>
</svg>
