<?xml version="1.0" encoding="utf-8" standalone="no"?>
<!DOCTYPE svg PUBLIC "-//W3C//DTD SVG 1.1//EN"
  "http://www.w3.org/Graphics/SVG/1.1/DTD/svg11.dtd">
<svg xmlns:xlink="http://www.w3.org/1999/xlink" width="352.882812pt" height="352.954375pt" viewBox="0 0 352.882812 352.954375" xmlns="http://www.w3.org/2000/svg" version="1.1">
 <metadata>
  <rdf:RDF xmlns:dc="http://purl.org/dc/elements/1.1/" xmlns:cc="http://creativecommons.org/ns#" xmlns:rdf="http://www.w3.org/1999/02/22-rdf-syntax-ns#">
   <cc:Work>
    <dc:type rdf:resource="http://purl.org/dc/dcmitype/StillImage"/>
    <dc:date>2025-09-15T16:28:24.118030</dc:date>
    <dc:format>image/svg+xml</dc:format>
    <dc:creator>
     <cc:Agent>
      <dc:title>Matplotlib v3.9.1, https://matplotlib.org/</dc:title>
     </cc:Agent>
    </dc:creator>
   </cc:Work>
  </rdf:RDF>
 </metadata>
 <defs>
  <style type="text/css">*{stroke-linejoin: round; stroke-linecap: butt}</style>
 </defs>
 <g id="figure_1">
  <g id="patch_1">
   <path d="M -0 352.954375 
L 352.882812 352.954375 
L 352.882812 0 
L -0 0 
z
" style="fill: #ffffff"/>
  </g>
  <g id="axes_1">
   <g id="patch_2">
    <path d="M 43.78125 315.398125 
L 337.73125 315.398125 
L 337.73125 22.318125 
L 43.78125 22.318125 
z
" style="fill: #ffffff"/>
   </g>
   <g id="matplotlib.axis_1">
    <g id="xtick_1">
     <g id="line2d_1">
      <defs>
       <path id="m3339b225e2" d="M 0 0 
L 0 3.5 
" style="stroke: #000000; stroke-width: 0.8"/>
      </defs>
      <g>
       <use xlink:href="#m3339b225e2" x="43.78125" y="315.398125" style="stroke: #000000; stroke-width: 0.8"/>
      </g>
     </g>
     <g id="text_1">
      <!-- 0.0 -->
      <g transform="translate(35.829688 329.996562) scale(0.1 -0.1)">
       <defs>
        <path id="DejaVuSans-30" d="M 2034 4250 
Q 1547 4250 1301 3770 
Q 1056 3291 1056 2328 
Q 1056 1369 1301 889 
Q 1547 409 2034 409 
Q 2525 409 2770 889 
Q 3016 1369 3016 2328 
Q 3016 3291 2770 3770 
Q 2525 4250 2034 4250 
z
M 2034 4750 
Q 2819 4750 3233 4129 
Q 3647 3509 3647 2328 
Q 3647 1150 3233 529 
Q 2819 -91 2034 -91 
Q 1250 -91 836 529 
Q 422 1150 422 2328 
Q 422 3509 836 4129 
Q 1250 4750 2034 4750 
z
" transform="scale(0.015625)"/>
        <path id="DejaVuSans-2e" d="M 684 794 
L 1344 794 
L 1344 0 
L 684 0 
L 684 794 
z
" transform="scale(0.015625)"/>
       </defs>
       <use xlink:href="#DejaVuSans-30"/>
       <use xlink:href="#DejaVuSans-2e" x="63.623047"/>
       <use xlink:href="#DejaVuSans-30" x="95.410156"/>
      </g>
     </g>
    </g>
    <g id="xtick_2">
     <g id="line2d_2">
      <g>
       <use xlink:href="#m3339b225e2" x="102.57125" y="315.398125" style="stroke: #000000; stroke-width: 0.8"/>
      </g>
     </g>
     <g id="text_2">
      <!-- 0.2 -->
      <g transform="translate(94.619688 329.996562) scale(0.1 -0.1)">
       <defs>
        <path id="DejaVuSans-32" d="M 1228 531 
L 3431 531 
L 3431 0 
L 469 0 
L 469 531 
Q 828 903 1448 1529 
Q 2069 2156 2228 2338 
Q 2531 2678 2651 2914 
Q 2772 3150 2772 3378 
Q 2772 3750 2511 3984 
Q 2250 4219 1831 4219 
Q 1534 4219 1204 4116 
Q 875 4013 500 3803 
L 500 4441 
Q 881 4594 1212 4672 
Q 1544 4750 1819 4750 
Q 2544 4750 2975 4387 
Q 3406 4025 3406 3419 
Q 3406 3131 3298 2873 
Q 3191 2616 2906 2266 
Q 2828 2175 2409 1742 
Q 1991 1309 1228 531 
z
" transform="scale(0.015625)"/>
       </defs>
       <use xlink:href="#DejaVuSans-30"/>
       <use xlink:href="#DejaVuSans-2e" x="63.623047"/>
       <use xlink:href="#DejaVuSans-32" x="95.410156"/>
      </g>
     </g>
    </g>
    <g id="xtick_3">
     <g id="line2d_3">
      <g>
       <use xlink:href="#m3339b225e2" x="161.36125" y="315.398125" style="stroke: #000000; stroke-width: 0.8"/>
      </g>
     </g>
     <g id="text_3">
      <!-- 0.4 -->
      <g transform="translate(153.409688 329.996562) scale(0.1 -0.1)">
       <defs>
        <path id="DejaVuSans-34" d="M 2419 4116 
L 825 1625 
L 2419 1625 
L 2419 4116 
z
M 2253 4666 
L 3047 4666 
L 3047 1625 
L 3713 1625 
L 3713 1100 
L 3047 1100 
L 3047 0 
L 2419 0 
L 2419 1100 
L 313 1100 
L 313 1709 
L 2253 4666 
z
" transform="scale(0.015625)"/>
       </defs>
       <use xlink:href="#DejaVuSans-30"/>
       <use xlink:href="#DejaVuSans-2e" x="63.623047"/>
       <use xlink:href="#DejaVuSans-34" x="95.410156"/>
      </g>
     </g>
    </g>
    <g id="xtick_4">
     <g id="line2d_4">
      <g>
       <use xlink:href="#m3339b225e2" x="220.15125" y="315.398125" style="stroke: #000000; stroke-width: 0.8"/>
      </g>
     </g>
     <g id="text_4">
      <!-- 0.6 -->
      <g transform="translate(212.199688 329.996562) scale(0.1 -0.1)">
       <defs>
        <path id="DejaVuSans-36" d="M 2113 2584 
Q 1688 2584 1439 2293 
Q 1191 2003 1191 1497 
Q 1191 994 1439 701 
Q 1688 409 2113 409 
Q 2538 409 2786 701 
Q 3034 994 3034 1497 
Q 3034 2003 2786 2293 
Q 2538 2584 2113 2584 
z
M 3366 4563 
L 3366 3988 
Q 3128 4100 2886 4159 
Q 2644 4219 2406 4219 
Q 1781 4219 1451 3797 
Q 1122 3375 1075 2522 
Q 1259 2794 1537 2939 
Q 1816 3084 2150 3084 
Q 2853 3084 3261 2657 
Q 3669 2231 3669 1497 
Q 3669 778 3244 343 
Q 2819 -91 2113 -91 
Q 1303 -91 875 529 
Q 447 1150 447 2328 
Q 447 3434 972 4092 
Q 1497 4750 2381 4750 
Q 2619 4750 2861 4703 
Q 3103 4656 3366 4563 
z
" transform="scale(0.015625)"/>
       </defs>
       <use xlink:href="#DejaVuSans-30"/>
       <use xlink:href="#DejaVuSans-2e" x="63.623047"/>
       <use xlink:href="#DejaVuSans-36" x="95.410156"/>
      </g>
     </g>
    </g>
    <g id="xtick_5">
     <g id="line2d_5">
      <g>
       <use xlink:href="#m3339b225e2" x="278.94125" y="315.398125" style="stroke: #000000; stroke-width: 0.8"/>
      </g>
     </g>
     <g id="text_5">
      <!-- 0.8 -->
      <g transform="translate(270.989688 329.996562) scale(0.1 -0.1)">
       <defs>
        <path id="DejaVuSans-38" d="M 2034 2216 
Q 1584 2216 1326 1975 
Q 1069 1734 1069 1313 
Q 1069 891 1326 650 
Q 1584 409 2034 409 
Q 2484 409 2743 651 
Q 3003 894 3003 1313 
Q 3003 1734 2745 1975 
Q 2488 2216 2034 2216 
z
M 1403 2484 
Q 997 2584 770 2862 
Q 544 3141 544 3541 
Q 544 4100 942 4425 
Q 1341 4750 2034 4750 
Q 2731 4750 3128 4425 
Q 3525 4100 3525 3541 
Q 3525 3141 3298 2862 
Q 3072 2584 2669 2484 
Q 3125 2378 3379 2068 
Q 3634 1759 3634 1313 
Q 3634 634 3220 271 
Q 2806 -91 2034 -91 
Q 1263 -91 848 271 
Q 434 634 434 1313 
Q 434 1759 690 2068 
Q 947 2378 1403 2484 
z
M 1172 3481 
Q 1172 3119 1398 2916 
Q 1625 2713 2034 2713 
Q 2441 2713 2670 2916 
Q 2900 3119 2900 3481 
Q 2900 3844 2670 4047 
Q 2441 4250 2034 4250 
Q 1625 4250 1398 4047 
Q 1172 3844 1172 3481 
z
" transform="scale(0.015625)"/>
       </defs>
       <use xlink:href="#DejaVuSans-30"/>
       <use xlink:href="#DejaVuSans-2e" x="63.623047"/>
       <use xlink:href="#DejaVuSans-38" x="95.410156"/>
      </g>
     </g>
    </g>
    <g id="xtick_6">
     <g id="line2d_6">
      <g>
       <use xlink:href="#m3339b225e2" x="337.73125" y="315.398125" style="stroke: #000000; stroke-width: 0.8"/>
      </g>
     </g>
     <g id="text_6">
      <!-- 1.0 -->
      <g transform="translate(329.779687 329.996562) scale(0.1 -0.1)">
       <defs>
        <path id="DejaVuSans-31" d="M 794 531 
L 1825 531 
L 1825 4091 
L 703 3866 
L 703 4441 
L 1819 4666 
L 2450 4666 
L 2450 531 
L 3481 531 
L 3481 0 
L 794 0 
L 794 531 
z
" transform="scale(0.015625)"/>
       </defs>
       <use xlink:href="#DejaVuSans-31"/>
       <use xlink:href="#DejaVuSans-2e" x="63.623047"/>
       <use xlink:href="#DejaVuSans-30" x="95.410156"/>
      </g>
     </g>
    </g>
    <g id="text_7">
     <!-- False Positive Rate -->
     <g transform="translate(144.289844 343.674687) scale(0.1 -0.1)">
      <defs>
       <path id="DejaVuSans-46" d="M 628 4666 
L 3309 4666 
L 3309 4134 
L 1259 4134 
L 1259 2759 
L 3109 2759 
L 3109 2228 
L 1259 2228 
L 1259 0 
L 628 0 
L 628 4666 
z
" transform="scale(0.015625)"/>
       <path id="DejaVuSans-61" d="M 2194 1759 
Q 1497 1759 1228 1600 
Q 959 1441 959 1056 
Q 959 750 1161 570 
Q 1363 391 1709 391 
Q 2188 391 2477 730 
Q 2766 1069 2766 1631 
L 2766 1759 
L 2194 1759 
z
M 3341 1997 
L 3341 0 
L 2766 0 
L 2766 531 
Q 2569 213 2275 61 
Q 1981 -91 1556 -91 
Q 1019 -91 701 211 
Q 384 513 384 1019 
Q 384 1609 779 1909 
Q 1175 2209 1959 2209 
L 2766 2209 
L 2766 2266 
Q 2766 2663 2505 2880 
Q 2244 3097 1772 3097 
Q 1472 3097 1187 3025 
Q 903 2953 641 2809 
L 641 3341 
Q 956 3463 1253 3523 
Q 1550 3584 1831 3584 
Q 2591 3584 2966 3190 
Q 3341 2797 3341 1997 
z
" transform="scale(0.015625)"/>
       <path id="DejaVuSans-6c" d="M 603 4863 
L 1178 4863 
L 1178 0 
L 603 0 
L 603 4863 
z
" transform="scale(0.015625)"/>
       <path id="DejaVuSans-73" d="M 2834 3397 
L 2834 2853 
Q 2591 2978 2328 3040 
Q 2066 3103 1784 3103 
Q 1356 3103 1142 2972 
Q 928 2841 928 2578 
Q 928 2378 1081 2264 
Q 1234 2150 1697 2047 
L 1894 2003 
Q 2506 1872 2764 1633 
Q 3022 1394 3022 966 
Q 3022 478 2636 193 
Q 2250 -91 1575 -91 
Q 1294 -91 989 -36 
Q 684 19 347 128 
L 347 722 
Q 666 556 975 473 
Q 1284 391 1588 391 
Q 1994 391 2212 530 
Q 2431 669 2431 922 
Q 2431 1156 2273 1281 
Q 2116 1406 1581 1522 
L 1381 1569 
Q 847 1681 609 1914 
Q 372 2147 372 2553 
Q 372 3047 722 3315 
Q 1072 3584 1716 3584 
Q 2034 3584 2315 3537 
Q 2597 3491 2834 3397 
z
" transform="scale(0.015625)"/>
       <path id="DejaVuSans-65" d="M 3597 1894 
L 3597 1613 
L 953 1613 
Q 991 1019 1311 708 
Q 1631 397 2203 397 
Q 2534 397 2845 478 
Q 3156 559 3463 722 
L 3463 178 
Q 3153 47 2828 -22 
Q 2503 -91 2169 -91 
Q 1331 -91 842 396 
Q 353 884 353 1716 
Q 353 2575 817 3079 
Q 1281 3584 2069 3584 
Q 2775 3584 3186 3129 
Q 3597 2675 3597 1894 
z
M 3022 2063 
Q 3016 2534 2758 2815 
Q 2500 3097 2075 3097 
Q 1594 3097 1305 2825 
Q 1016 2553 972 2059 
L 3022 2063 
z
" transform="scale(0.015625)"/>
       <path id="DejaVuSans-20" transform="scale(0.015625)"/>
       <path id="DejaVuSans-50" d="M 1259 4147 
L 1259 2394 
L 2053 2394 
Q 2494 2394 2734 2622 
Q 2975 2850 2975 3272 
Q 2975 3691 2734 3919 
Q 2494 4147 2053 4147 
L 1259 4147 
z
M 628 4666 
L 2053 4666 
Q 2838 4666 3239 4311 
Q 3641 3956 3641 3272 
Q 3641 2581 3239 2228 
Q 2838 1875 2053 1875 
L 1259 1875 
L 1259 0 
L 628 0 
L 628 4666 
z
" transform="scale(0.015625)"/>
       <path id="DejaVuSans-6f" d="M 1959 3097 
Q 1497 3097 1228 2736 
Q 959 2375 959 1747 
Q 959 1119 1226 758 
Q 1494 397 1959 397 
Q 2419 397 2687 759 
Q 2956 1122 2956 1747 
Q 2956 2369 2687 2733 
Q 2419 3097 1959 3097 
z
M 1959 3584 
Q 2709 3584 3137 3096 
Q 3566 2609 3566 1747 
Q 3566 888 3137 398 
Q 2709 -91 1959 -91 
Q 1206 -91 779 398 
Q 353 888 353 1747 
Q 353 2609 779 3096 
Q 1206 3584 1959 3584 
z
" transform="scale(0.015625)"/>
       <path id="DejaVuSans-69" d="M 603 3500 
L 1178 3500 
L 1178 0 
L 603 0 
L 603 3500 
z
M 603 4863 
L 1178 4863 
L 1178 4134 
L 603 4134 
L 603 4863 
z
" transform="scale(0.015625)"/>
       <path id="DejaVuSans-74" d="M 1172 4494 
L 1172 3500 
L 2356 3500 
L 2356 3053 
L 1172 3053 
L 1172 1153 
Q 1172 725 1289 603 
Q 1406 481 1766 481 
L 2356 481 
L 2356 0 
L 1766 0 
Q 1100 0 847 248 
Q 594 497 594 1153 
L 594 3053 
L 172 3053 
L 172 3500 
L 594 3500 
L 594 4494 
L 1172 4494 
z
" transform="scale(0.015625)"/>
       <path id="DejaVuSans-76" d="M 191 3500 
L 800 3500 
L 1894 563 
L 2988 3500 
L 3597 3500 
L 2284 0 
L 1503 0 
L 191 3500 
z
" transform="scale(0.015625)"/>
       <path id="DejaVuSans-52" d="M 2841 2188 
Q 3044 2119 3236 1894 
Q 3428 1669 3622 1275 
L 4263 0 
L 3584 0 
L 2988 1197 
Q 2756 1666 2539 1819 
Q 2322 1972 1947 1972 
L 1259 1972 
L 1259 0 
L 628 0 
L 628 4666 
L 2053 4666 
Q 2853 4666 3247 4331 
Q 3641 3997 3641 3322 
Q 3641 2881 3436 2590 
Q 3231 2300 2841 2188 
z
M 1259 4147 
L 1259 2491 
L 2053 2491 
Q 2509 2491 2742 2702 
Q 2975 2913 2975 3322 
Q 2975 3731 2742 3939 
Q 2509 4147 2053 4147 
L 1259 4147 
z
" transform="scale(0.015625)"/>
      </defs>
      <use xlink:href="#DejaVuSans-46"/>
      <use xlink:href="#DejaVuSans-61" x="48.394531"/>
      <use xlink:href="#DejaVuSans-6c" x="109.673828"/>
      <use xlink:href="#DejaVuSans-73" x="137.457031"/>
      <use xlink:href="#DejaVuSans-65" x="189.556641"/>
      <use xlink:href="#DejaVuSans-20" x="251.080078"/>
      <use xlink:href="#DejaVuSans-50" x="282.867188"/>
      <use xlink:href="#DejaVuSans-6f" x="339.544922"/>
      <use xlink:href="#DejaVuSans-73" x="400.726562"/>
      <use xlink:href="#DejaVuSans-69" x="452.826172"/>
      <use xlink:href="#DejaVuSans-74" x="480.609375"/>
      <use xlink:href="#DejaVuSans-69" x="519.818359"/>
      <use xlink:href="#DejaVuSans-76" x="547.601562"/>
      <use xlink:href="#DejaVuSans-65" x="606.78125"/>
      <use xlink:href="#DejaVuSans-20" x="668.304688"/>
      <use xlink:href="#DejaVuSans-52" x="700.091797"/>
      <use xlink:href="#DejaVuSans-61" x="767.324219"/>
      <use xlink:href="#DejaVuSans-74" x="828.603516"/>
      <use xlink:href="#DejaVuSans-65" x="867.8125"/>
     </g>
    </g>
   </g>
   <g id="matplotlib.axis_2">
    <g id="ytick_1">
     <g id="line2d_7">
      <defs>
       <path id="mb89faf4c32" d="M 0 0 
L -3.5 0 
" style="stroke: #000000; stroke-width: 0.8"/>
      </defs>
      <g>
       <use xlink:href="#mb89faf4c32" x="43.78125" y="315.398125" style="stroke: #000000; stroke-width: 0.8"/>
      </g>
     </g>
     <g id="text_8">
      <!-- 0.0 -->
      <g transform="translate(20.878125 319.197344) scale(0.1 -0.1)">
       <use xlink:href="#DejaVuSans-30"/>
       <use xlink:href="#DejaVuSans-2e" x="63.623047"/>
       <use xlink:href="#DejaVuSans-30" x="95.410156"/>
      </g>
     </g>
    </g>
    <g id="ytick_2">
     <g id="line2d_8">
      <g>
       <use xlink:href="#mb89faf4c32" x="43.78125" y="256.782125" style="stroke: #000000; stroke-width: 0.8"/>
      </g>
     </g>
     <g id="text_9">
      <!-- 0.2 -->
      <g transform="translate(20.878125 260.581344) scale(0.1 -0.1)">
       <use xlink:href="#DejaVuSans-30"/>
       <use xlink:href="#DejaVuSans-2e" x="63.623047"/>
       <use xlink:href="#DejaVuSans-32" x="95.410156"/>
      </g>
     </g>
    </g>
    <g id="ytick_3">
     <g id="line2d_9">
      <g>
       <use xlink:href="#mb89faf4c32" x="43.78125" y="198.166125" style="stroke: #000000; stroke-width: 0.8"/>
      </g>
     </g>
     <g id="text_10">
      <!-- 0.4 -->
      <g transform="translate(20.878125 201.965344) scale(0.1 -0.1)">
       <use xlink:href="#DejaVuSans-30"/>
       <use xlink:href="#DejaVuSans-2e" x="63.623047"/>
       <use xlink:href="#DejaVuSans-34" x="95.410156"/>
      </g>
     </g>
    </g>
    <g id="ytick_4">
     <g id="line2d_10">
      <g>
       <use xlink:href="#mb89faf4c32" x="43.78125" y="139.550125" style="stroke: #000000; stroke-width: 0.8"/>
      </g>
     </g>
     <g id="text_11">
      <!-- 0.6 -->
      <g transform="translate(20.878125 143.349344) scale(0.1 -0.1)">
       <use xlink:href="#DejaVuSans-30"/>
       <use xlink:href="#DejaVuSans-2e" x="63.623047"/>
       <use xlink:href="#DejaVuSans-36" x="95.410156"/>
      </g>
     </g>
    </g>
    <g id="ytick_5">
     <g id="line2d_11">
      <g>
       <use xlink:href="#mb89faf4c32" x="43.78125" y="80.934125" style="stroke: #000000; stroke-width: 0.8"/>
      </g>
     </g>
     <g id="text_12">
      <!-- 0.8 -->
      <g transform="translate(20.878125 84.733344) scale(0.1 -0.1)">
       <use xlink:href="#DejaVuSans-30"/>
       <use xlink:href="#DejaVuSans-2e" x="63.623047"/>
       <use xlink:href="#DejaVuSans-38" x="95.410156"/>
      </g>
     </g>
    </g>
    <g id="ytick_6">
     <g id="line2d_12">
      <g>
       <use xlink:href="#mb89faf4c32" x="43.78125" y="22.318125" style="stroke: #000000; stroke-width: 0.8"/>
      </g>
     </g>
     <g id="text_13">
      <!-- 1.0 -->
      <g transform="translate(20.878125 26.117344) scale(0.1 -0.1)">
       <use xlink:href="#DejaVuSans-31"/>
       <use xlink:href="#DejaVuSans-2e" x="63.623047"/>
       <use xlink:href="#DejaVuSans-30" x="95.410156"/>
      </g>
     </g>
    </g>
    <g id="text_14">
     <!-- True Positive Rate -->
     <g transform="translate(14.798438 213.387812) rotate(-90) scale(0.1 -0.1)">
      <defs>
       <path id="DejaVuSans-54" d="M -19 4666 
L 3928 4666 
L 3928 4134 
L 2272 4134 
L 2272 0 
L 1638 0 
L 1638 4134 
L -19 4134 
L -19 4666 
z
" transform="scale(0.015625)"/>
       <path id="DejaVuSans-72" d="M 2631 2963 
Q 2534 3019 2420 3045 
Q 2306 3072 2169 3072 
Q 1681 3072 1420 2755 
Q 1159 2438 1159 1844 
L 1159 0 
L 581 0 
L 581 3500 
L 1159 3500 
L 1159 2956 
Q 1341 3275 1631 3429 
Q 1922 3584 2338 3584 
Q 2397 3584 2469 3576 
Q 2541 3569 2628 3553 
L 2631 2963 
z
" transform="scale(0.015625)"/>
       <path id="DejaVuSans-75" d="M 544 1381 
L 544 3500 
L 1119 3500 
L 1119 1403 
Q 1119 906 1312 657 
Q 1506 409 1894 409 
Q 2359 409 2629 706 
Q 2900 1003 2900 1516 
L 2900 3500 
L 3475 3500 
L 3475 0 
L 2900 0 
L 2900 538 
Q 2691 219 2414 64 
Q 2138 -91 1772 -91 
Q 1169 -91 856 284 
Q 544 659 544 1381 
z
M 1991 3584 
L 1991 3584 
z
" transform="scale(0.015625)"/>
      </defs>
      <use xlink:href="#DejaVuSans-54"/>
      <use xlink:href="#DejaVuSans-72" x="46.333984"/>
      <use xlink:href="#DejaVuSans-75" x="87.447266"/>
      <use xlink:href="#DejaVuSans-65" x="150.826172"/>
      <use xlink:href="#DejaVuSans-20" x="212.349609"/>
      <use xlink:href="#DejaVuSans-50" x="244.136719"/>
      <use xlink:href="#DejaVuSans-6f" x="300.814453"/>
      <use xlink:href="#DejaVuSans-73" x="361.996094"/>
      <use xlink:href="#DejaVuSans-69" x="414.095703"/>
      <use xlink:href="#DejaVuSans-74" x="441.878906"/>
      <use xlink:href="#DejaVuSans-69" x="481.087891"/>
      <use xlink:href="#DejaVuSans-76" x="508.871094"/>
      <use xlink:href="#DejaVuSans-65" x="568.050781"/>
      <use xlink:href="#DejaVuSans-20" x="629.574219"/>
      <use xlink:href="#DejaVuSans-52" x="661.361328"/>
      <use xlink:href="#DejaVuSans-61" x="728.59375"/>
      <use xlink:href="#DejaVuSans-74" x="789.873047"/>
      <use xlink:href="#DejaVuSans-65" x="829.082031"/>
     </g>
    </g>
   </g>
   <g id="line2d_13">
    <path d="M 43.78125 310.914587 
L 45.258386 306.35309 
L 46.735521 304.832005 
L 48.212657 303.75054 
L 49.689793 302.126876 
L 51.166928 301.202502 
L 52.644064 299.725965 
L 54.1212 298.611089 
L 55.598335 296.865504 
L 57.075471 295.716045 
L 58.552607 294.019111 
L 60.029742 292.938232 
L 61.506878 291.403079 
L 62.984014 290.355611 
L 64.461149 288.782358 
L 65.938285 287.713202 
L 67.415421 286.158706 
L 68.892557 285.120616 
L 70.369692 283.311727 
L 71.846828 281.994039 
L 73.323964 279.899103 
L 74.801099 278.471803 
L 76.278235 276.197503 
L 77.755371 274.582046 
L 79.232506 272.144792 
L 80.709642 270.369314 
L 82.186778 267.68177 
L 83.663913 265.9356 
L 85.141049 263.370563 
L 86.618185 261.773277 
L 88.09532 259.394054 
L 89.572456 257.947997 
L 91.049592 255.872991 
L 92.526727 254.547097 
L 94.003863 252.409958 
L 95.480999 250.965073 
L 96.958134 248.736493 
L 98.43527 247.244716 
L 99.912406 244.988 
L 101.389541 243.485085 
L 104.343813 239.608809 
L 105.820948 238.399561 
L 107.298084 236.614704 
L 108.77522 235.445315 
L 110.252356 233.533261 
L 111.729491 232.178059 
L 113.206627 230.016301 
L 114.683763 228.689235 
L 116.160898 226.542131 
L 117.638034 225.18517 
L 119.11517 223.21919 
L 120.592305 221.989426 
L 122.069441 220.226257 
L 123.546577 219.109036 
L 125.023712 217.487717 
L 126.500848 216.418561 
L 127.977984 214.819517 
L 129.455119 213.718708 
L 130.932255 211.988364 
L 132.409391 210.831284 
L 133.886526 209.203518 
L 135.363662 208.110916 
L 136.840798 206.569901 
L 138.317933 205.593358 
L 139.795069 204.193022 
L 141.272205 203.271579 
L 142.74934 201.980854 
L 144.226476 201.026 
L 145.703612 199.518982 
L 147.180747 198.411726 
L 148.657883 196.529566 
L 150.135019 195.138022 
L 151.612155 193.053637 
L 153.08929 191.638061 
L 154.566426 189.588846 
L 156.043562 188.214301 
L 157.520697 186.489818 
L 158.997833 185.380217 
L 160.474969 183.897232 
L 161.952104 182.667468 
L 163.42924 181.877325 
L 164.906376 180.695626 
L 166.383511 179.904896 
L 167.860647 178.677477 
L 169.337783 177.809374 
L 170.814918 176.447725 
L 172.292054 175.476458 
L 173.76919 173.986439 
L 175.246325 172.95597 
L 176.723461 171.42785 
L 178.200597 170.358695 
L 179.677732 168.862814 
L 181.154868 167.9232 
L 182.632004 166.631303 
L 184.109139 165.787819 
L 185.586275 164.641876 
L 187.063411 163.924416 
L 188.540546 162.840606 
L 190.017682 162.07684 
L 191.494818 160.968998 
L 192.971954 160.212851 
L 194.449089 158.983674 
L 195.926225 158.120846 
L 197.403361 156.813709 
L 198.880496 155.918057 
L 200.357632 154.557579 
L 201.834768 153.700614 
L 203.311903 152.442128 
L 204.789039 151.621504 
L 206.266175 150.333711 
L 207.74331 149.49726 
L 209.220446 148.157885 
L 210.697582 147.222959 
L 212.174717 145.604572 
L 213.651853 144.425804 
L 215.128989 142.450445 
L 216.606124 140.979769 
L 218.08326 138.621648 
L 219.560396 136.990364 
L 222.514667 132.246571 
L 223.991803 130.789964 
L 225.468938 128.744265 
L 226.946074 127.618252 
L 228.42321 126.095408 
L 229.900345 125.19448 
L 231.377481 123.83752 
L 232.854617 122.957108 
L 234.331753 121.562047 
L 235.808888 120.536267 
L 237.286024 119.042731 
L 238.76316 117.92551 
L 240.240295 116.273125 
L 241.717431 115.216865 
L 243.194567 113.631888 
L 244.671702 112.593799 
L 246.148838 111.046337 
L 247.625974 109.954907 
L 249.103109 108.130777 
L 250.580245 106.828329 
L 252.057381 104.62554 
L 253.534516 102.993084 
L 255.011652 100.367674 
L 256.488788 98.588678 
L 257.965923 96.047088 
L 259.443059 94.419322 
L 260.920195 92.0231 
L 262.39733 90.521358 
L 263.874466 88.373668 
L 265.351602 86.846135 
L 266.828737 84.7342 
L 268.305873 83.20022 
L 269.783009 81.003292 
L 271.260144 79.543753 
L 272.73728 77.305795 
L 274.214416 76.006864 
L 275.691552 74.144634 
L 277.168687 73.022723 
L 278.645823 71.465883 
L 280.122959 70.098371 
L 281.600094 69.249612 
L 283.07723 67.831104 
L 284.554366 66.916109 
L 286.031501 65.540391 
L 287.508637 64.588467 
L 288.985773 63.172891 
L 290.462908 62.279583 
L 291.940044 61.008202 
L 293.41718 60.155339 
L 294.894315 58.876338 
L 296.371451 58.070368 
L 297.848587 56.859948 
L 299.325722 56.099698 
L 300.802858 54.91331 
L 302.279994 54.086825 
L 303.757129 52.722244 
L 305.234265 51.784388 
L 306.711401 50.090386 
L 308.188536 48.989577 
L 309.665672 47.119141 
L 311.142808 45.901686 
L 312.619943 44.139689 
L 314.097079 42.870067 
L 315.574215 40.872434 
L 317.051351 39.433997 
L 318.528486 36.967436 
L 320.005622 35.357254 
L 321.482758 33.331485 
L 322.959893 32.343219 
L 324.437029 31.186726 
L 325.914165 30.547811 
L 327.3913 29.556615 
L 328.868436 28.827432 
L 330.345572 27.625804 
L 331.822707 26.890759 
L 333.299843 25.915389 
L 336.254114 24.899574 
L 337.73125 22.318125 
L 337.73125 22.318125 
" clip-path="url(#p1716f3a256)" style="fill: none; stroke: #1f77b4; stroke-width: 2; stroke-linecap: square"/>
   </g>
   <g id="line2d_14">
    <path d="M 43.78125 312.615037 
L 45.258386 307.802078 
L 48.212657 302.517845 
L 49.689793 298.221292 
L 51.166928 296.112289 
L 52.644064 293.530254 
L 55.598335 290.432398 
L 57.075471 289.687975 
L 58.552607 288.529723 
L 60.029742 287.608866 
L 61.506878 285.901381 
L 62.984014 284.633517 
L 64.461149 282.789458 
L 65.938285 281.583727 
L 67.415421 279.73322 
L 68.892557 278.485871 
L 70.369692 276.497617 
L 71.846828 275.065628 
L 73.323964 272.649476 
L 74.801099 270.934958 
L 76.278235 268.052809 
L 77.755371 266.171822 
L 79.232506 263.32836 
L 80.709642 261.433891 
L 82.186778 258.97788 
L 83.663913 257.280361 
L 85.141049 254.897621 
L 86.618185 253.211238 
L 88.09532 250.47563 
L 89.572456 248.575885 
L 91.049592 245.741801 
L 92.526727 243.714274 
L 94.003863 240.86495 
L 95.480999 239.115263 
L 96.958134 236.765933 
L 98.43527 235.424213 
L 99.912406 233.556707 
L 101.389541 232.33515 
L 104.343813 228.960041 
L 105.820948 227.832855 
L 107.298084 226.082581 
L 108.77522 224.946603 
L 110.252356 223.179331 
L 111.729491 221.957773 
L 113.206627 220.164124 
L 114.683763 218.987114 
L 116.160898 217.240944 
L 117.638034 216.019972 
L 119.11517 214.243321 
L 120.592305 213.141341 
L 122.069441 211.520022 
L 123.546577 210.462589 
L 125.023712 208.961434 
L 126.500848 207.990167 
L 127.977984 206.530042 
L 129.455119 205.531225 
L 130.932255 204.062895 
L 132.409391 202.987291 
L 133.886526 201.262808 
L 135.363662 200.101039 
L 136.840798 198.299183 
L 138.317933 197.046559 
L 139.795069 195.139781 
L 141.272205 193.91412 
L 142.74934 192.227152 
L 144.226476 191.174409 
L 145.703612 189.612878 
L 147.180747 188.667988 
L 148.657883 187.496841 
L 150.135019 186.735419 
L 151.612155 185.61937 
L 153.08929 184.856776 
L 154.566426 183.660423 
L 156.043562 182.80463 
L 157.520697 181.489287 
L 158.997833 180.564913 
L 161.952104 177.437163 
L 163.42924 176.324631 
L 164.906376 174.645283 
L 166.383511 173.581988 
L 167.860647 171.906157 
L 169.337783 170.767248 
L 170.814918 169.114277 
L 172.292054 167.960128 
L 173.76919 166.215716 
L 175.246325 165.071531 
L 176.723461 163.458419 
L 178.200597 162.36992 
L 179.677732 160.791977 
L 181.154868 159.789644 
L 182.632004 158.311934 
L 184.109139 157.308428 
L 185.586275 155.821927 
L 187.063411 154.854176 
L 188.540546 153.401672 
L 190.017682 152.487262 
L 191.494818 151.083995 
L 192.971954 150.136761 
L 194.449089 148.733494 
L 195.926225 147.743469 
L 197.403361 146.268691 
L 198.880496 145.20188 
L 200.357632 143.531324 
L 201.834768 142.367796 
L 203.311903 140.609316 
L 204.789039 139.40886 
L 206.266175 137.674999 
L 207.74331 136.591775 
L 209.220446 134.977491 
L 210.697582 133.990984 
L 212.174717 132.489828 
L 213.651853 131.502148 
L 215.128989 130.088916 
L 216.606124 129.126442 
L 218.08326 127.67511 
L 219.560396 126.711463 
L 222.514667 123.744321 
L 223.991803 122.756055 
L 225.468938 121.152907 
L 226.946074 120.06558 
L 228.42321 118.364544 
L 229.900345 117.158813 
L 231.377481 115.390368 
L 232.854617 114.204567 
L 234.331753 112.402125 
L 235.808888 111.226288 
L 237.286024 109.521734 
L 238.76316 108.321865 
L 240.240295 106.389881 
L 241.717431 105.142533 
L 243.194567 103.077491 
L 244.671702 101.755701 
L 246.148838 99.860645 
L 247.625974 98.679533 
L 249.103109 96.901123 
L 250.580245 95.790936 
L 252.057381 94.20127 
L 253.534516 93.293309 
L 255.011652 91.855458 
L 256.488788 90.914085 
L 257.965923 89.586433 
L 259.443059 88.729467 
L 260.920195 87.45281 
L 262.39733 86.672045 
L 263.874466 85.536067 
L 265.351602 84.803953 
L 266.828737 83.851443 
L 268.305873 83.21546 
L 269.783009 82.168578 
L 271.260144 81.409501 
L 272.73728 80.134603 
L 274.214416 79.154543 
L 275.691552 77.471678 
L 277.168687 76.258327 
L 280.122959 72.488732 
L 281.600094 71.297655 
L 283.07723 69.607755 
L 284.554366 68.612456 
L 286.031501 67.226187 
L 287.508637 66.376255 
L 288.985773 65.182833 
L 290.462908 64.382725 
L 291.940044 63.182856 
L 293.41718 62.3212 
L 294.894315 60.924967 
L 296.371451 59.927323 
L 297.848587 58.30366 
L 299.325722 57.1161 
L 300.802858 55.400995 
L 302.279994 54.279671 
L 303.757129 52.864681 
L 305.234265 51.992475 
L 306.711401 50.981935 
L 308.188536 50.351227 
L 309.665672 49.283243 
L 311.142808 48.431553 
L 312.619943 46.770376 
L 314.097079 45.436862 
L 315.574215 43.030089 
L 317.051351 41.253438 
L 318.528486 38.442214 
L 320.005622 36.696044 
L 321.482758 34.153282 
L 322.959893 32.7125 
L 324.437029 30.81979 
L 325.914165 29.93293 
L 327.3913 28.808675 
L 328.868436 28.234238 
L 330.345572 27.421234 
L 331.822707 26.82804 
L 334.776979 24.986325 
L 336.254114 23.540269 
L 337.73125 22.318125 
L 337.73125 22.318125 
" clip-path="url(#p1716f3a256)" style="fill: none; stroke: #ff7f0e; stroke-width: 2; stroke-linecap: square"/>
   </g>
   <g id="line2d_15">
    <path d="M 43.78125 314.923922 
L 45.258386 312.743406 
L 46.735521 305.926952 
L 48.212657 302.417026 
L 49.689793 298.598193 
L 52.644064 295.23129 
L 54.1212 294.208441 
L 55.598335 292.160984 
L 57.075471 290.546113 
L 58.552607 288.010385 
L 60.029742 286.462923 
L 61.506878 284.169279 
L 62.984014 282.65171 
L 64.461149 280.204492 
L 65.938285 278.472976 
L 67.415421 275.922007 
L 68.892557 274.243245 
L 70.369692 271.641281 
L 71.846828 269.917384 
L 73.323964 267.325385 
L 74.801099 265.577456 
L 76.278235 262.814884 
L 77.755371 260.952067 
L 79.232506 258.06816 
L 80.709642 256.118006 
L 82.186778 253.309713 
L 83.663913 251.469171 
L 85.141049 248.782799 
L 86.618185 246.924086 
L 88.09532 244.194925 
L 89.572456 242.443479 
L 91.049592 239.618774 
L 92.526727 237.765922 
L 94.003863 235.049071 
L 95.480999 233.431855 
L 96.958134 231.043839 
L 98.43527 229.444209 
L 99.912406 227.36041 
L 101.389541 226.023965 
L 104.343813 222.24675 
L 105.820948 221.004091 
L 107.298084 219.269057 
L 108.77522 218.115494 
L 110.252356 216.410355 
L 111.729491 215.218692 
L 113.206627 213.375219 
L 114.683763 211.957884 
L 116.160898 209.718166 
L 117.638034 208.173635 
L 119.11517 205.798514 
L 120.592305 204.278601 
L 122.069441 202.224111 
L 123.546577 200.915802 
L 125.023712 199.136806 
L 126.500848 198.002 
L 127.977984 196.471536 
L 129.455119 195.339075 
L 130.932255 193.679656 
L 132.409391 192.584709 
L 133.886526 190.85671 
L 135.363662 189.64922 
L 136.840798 187.757682 
L 138.317933 186.472233 
L 139.795069 184.68972 
L 141.272205 183.547295 
L 142.74934 181.735474 
L 144.226476 180.65225 
L 145.703612 179.120028 
L 147.180747 178.155795 
L 148.657883 176.792973 
L 150.135019 175.870943 
L 151.612155 174.421956 
L 153.08929 173.468273 
L 154.566426 171.900882 
L 156.043562 170.806521 
L 157.520697 169.033387 
L 158.997833 167.880996 
L 161.952104 164.181741 
L 163.42924 162.925013 
L 164.906376 161.131364 
L 166.383511 160.045796 
L 167.860647 158.470197 
L 169.337783 157.48369 
L 170.814918 156.25041 
L 172.292054 155.449129 
L 173.76919 154.377628 
L 175.246325 153.726405 
L 176.723461 152.703555 
L 178.200597 151.970855 
L 179.677732 150.83605 
L 181.154868 150.025977 
L 182.632004 148.653776 
L 184.109139 147.626237 
L 185.586275 145.950406 
L 187.063411 144.713005 
L 188.540546 142.847002 
L 190.017682 141.550557 
L 191.494818 139.601302 
L 192.971954 138.268411 
L 194.449089 136.366612 
L 195.926225 134.965155 
L 197.403361 133.144787 
L 198.880496 131.752374 
L 200.357632 129.957627 
L 201.834768 128.663427 
L 203.311903 126.989279 
L 204.789039 125.765715 
L 206.266175 124.128296 
L 207.74331 123.031155 
L 209.220446 121.448241 
L 210.697582 120.391182 
L 212.174717 118.79226 
L 213.651853 117.766661 
L 215.128989 116.358118 
L 216.606124 115.43433 
L 218.08326 113.926141 
L 219.560396 112.998249 
L 222.514667 110.280225 
L 223.991803 109.434983 
L 225.468938 108.181186 
L 226.946074 107.393974 
L 228.42321 106.200552 
L 229.900345 105.436199 
L 231.377481 104.334218 
L 232.854617 103.621448 
L 234.331753 102.584531 
L 235.808888 101.896379 
L 237.286024 100.933904 
L 238.76316 100.241649 
L 240.240295 99.353031 
L 241.717431 98.767457 
L 243.194567 97.846599 
L 244.671702 97.295023 
L 246.148838 96.522464 
L 247.625974 96.034779 
L 249.103109 95.283908 
L 250.580245 94.797981 
L 252.057381 93.956256 
L 253.534516 93.276896 
L 255.011652 92.147366 
L 256.488788 91.295675 
L 257.965923 89.79745 
L 259.443059 88.747638 
L 260.920195 87.160317 
L 262.39733 86.037234 
L 263.874466 84.42588 
L 265.351602 83.417099 
L 266.828737 81.871395 
L 268.305873 80.865544 
L 269.783009 79.468725 
L 271.260144 78.52618 
L 272.73728 77.212009 
L 274.214416 76.393143 
L 275.691552 75.031494 
L 277.168687 74.21087 
L 280.122959 71.870333 
L 281.600094 71.097188 
L 283.07723 70.06496 
L 284.554366 69.438355 
L 286.031501 68.523359 
L 287.508637 67.827587 
L 288.985773 66.696299 
L 290.462908 65.869813 
L 291.940044 64.599604 
L 293.41718 63.782497 
L 294.894315 62.585559 
L 296.371451 61.773727 
L 297.848587 60.511138 
L 299.325722 59.577972 
L 300.802858 58.015269 
L 302.279994 56.858775 
L 303.757129 55.053989 
L 305.234265 53.729267 
L 306.711401 51.754494 
L 308.188536 50.259786 
L 309.665672 48.150782 
L 311.142808 46.938603 
L 312.619943 45.491961 
L 314.097079 44.685991 
L 315.574215 43.440987 
L 317.051351 42.533611 
L 318.528486 41.0729 
L 320.005622 39.98616 
L 321.482758 38.219473 
L 322.959893 36.973883 
L 324.437029 35.155615 
L 325.914165 33.977434 
L 327.3913 32.236538 
L 328.868436 31.0396 
L 330.345572 29.207263 
L 333.299843 27.043747 
L 334.776979 26.260637 
L 336.254114 23.682705 
L 337.73125 22.318125 
L 337.73125 22.318125 
" clip-path="url(#p1716f3a256)" style="fill: none; stroke: #2ca02c; stroke-width: 2; stroke-linecap: square"/>
   </g>
   <g id="line2d_16">
    <path d="M 43.78125 314.82955 
L 45.258386 312.683618 
L 46.735521 310.276259 
L 48.212657 308.596911 
L 49.689793 305.992015 
L 51.166928 303.932835 
L 52.644064 300.480353 
L 54.1212 297.835599 
L 55.598335 294.074797 
L 57.075471 291.795806 
L 58.552607 288.977549 
L 60.029742 287.421294 
L 61.506878 285.166337 
L 62.984014 283.71266 
L 64.461149 281.212688 
L 65.938285 279.41259 
L 67.415421 276.488824 
L 68.892557 274.531636 
L 70.369692 271.729205 
L 71.846828 269.96076 
L 73.323964 267.542264 
L 74.801099 266.080967 
L 76.278235 263.8137 
L 77.755371 262.280892 
L 79.232506 259.872361 
L 80.709642 258.337794 
L 82.186778 256.126798 
L 83.663913 254.694809 
L 85.141049 252.846061 
L 86.618185 251.714772 
L 88.09532 249.912916 
L 89.572456 248.571782 
L 91.049592 246.359614 
L 92.526727 244.686713 
L 94.003863 242.23422 
L 95.480999 240.598247 
L 96.958134 237.979285 
L 98.43527 236.231942 
L 99.912406 233.517435 
L 101.389541 231.767747 
L 104.343813 226.461827 
L 105.820948 224.873333 
L 107.298084 222.714506 
L 108.77522 221.43316 
L 110.252356 219.724504 
L 111.729491 218.708102 
L 113.206627 217.283733 
L 114.683763 216.280814 
L 116.160898 214.837688 
L 117.638034 213.792564 
L 119.11517 212.17066 
L 120.592305 211.039371 
L 122.069441 209.445016 
L 123.546577 208.27211 
L 125.023712 206.558178 
L 126.500848 205.504848 
L 127.977984 203.851291 
L 129.455119 202.778032 
L 130.932255 201.221191 
L 132.409391 200.100453 
L 133.886526 198.501409 
L 135.363662 197.456871 
L 136.840798 195.929338 
L 138.317933 194.87132 
L 139.795069 193.285171 
L 141.272205 192.211326 
L 142.74934 190.537839 
L 144.226476 189.395999 
L 145.703612 187.704341 
L 147.180747 186.502713 
L 148.657883 184.700271 
L 150.135019 183.461715 
L 151.612155 181.63231 
L 153.08929 180.301727 
L 154.566426 178.462357 
L 156.043562 177.316414 
L 157.520697 175.565554 
L 158.997833 174.478813 
L 161.952104 170.941924 
L 163.42924 169.746744 
L 164.906376 167.902684 
L 166.383511 166.686988 
L 167.860647 164.913268 
L 169.337783 163.748568 
L 170.814918 162.087977 
L 172.292054 161.02058 
L 173.76919 159.514735 
L 175.246325 158.562225 
L 176.723461 157.164233 
L 178.200597 156.135522 
L 179.677732 154.5652 
L 181.154868 153.413981 
L 182.632004 151.575784 
L 184.109139 150.244028 
L 185.586275 148.273944 
L 187.063411 146.94686 
L 188.540546 144.837015 
L 190.017682 143.385823 
L 191.494818 141.297063 
L 192.971954 139.84225 
L 194.449089 137.714194 
L 195.926225 136.156232 
L 197.403361 134.103159 
L 198.880496 132.497969 
L 200.357632 130.344493 
L 201.834768 128.839862 
L 203.311903 126.893735 
L 204.789039 125.438638 
L 206.266175 123.378011 
L 207.74331 122.076301 
L 209.220446 120.091867 
L 210.697582 118.789207 
L 212.174717 116.923582 
L 213.651853 115.711584 
L 215.128989 114.076198 
L 216.606124 113.077967 
L 218.08326 111.62429 
L 219.560396 110.727465 
L 222.514667 108.120812 
L 223.991803 107.224573 
L 225.468938 105.708764 
L 226.946074 104.697051 
L 228.42321 103.033529 
L 229.900345 101.916308 
L 231.377481 100.266268 
L 232.854617 99.215283 
L 234.331753 97.746366 
L 235.808888 96.870057 
L 237.286024 95.615088 
L 238.76316 94.872424 
L 240.240295 93.87771 
L 241.717431 93.222383 
L 243.194567 92.309732 
L 244.671702 91.720055 
L 246.148838 90.874226 
L 247.625974 90.346096 
L 249.103109 89.553608 
L 250.580245 88.975068 
L 252.057381 88.099931 
L 253.534516 87.475084 
L 255.011652 86.422341 
L 256.488788 85.664436 
L 257.965923 84.509701 
L 259.443059 83.660355 
L 260.920195 82.423558 
L 262.39733 81.566005 
L 263.874466 80.332725 
L 265.351602 79.513859 
L 266.828737 78.322782 
L 268.305873 77.489849 
L 269.783009 76.171575 
L 271.260144 75.332194 
L 272.73728 74.054365 
L 274.214416 73.216156 
L 275.691552 71.990496 
L 277.168687 71.278897 
L 280.122959 68.90788 
L 281.600094 67.992885 
L 283.07723 66.365118 
L 284.554366 65.110736 
L 286.031501 62.981803 
L 287.508637 61.486509 
L 288.985773 59.310683 
L 290.462908 57.905071 
L 291.940044 55.928539 
L 293.41718 54.685294 
L 294.894315 52.811341 
L 296.371451 51.594472 
L 297.848587 49.743965 
L 299.325722 48.528856 
L 300.802858 46.735206 
L 302.279994 45.699461 
L 303.757129 44.30909 
L 305.234265 43.452124 
L 306.711401 42.407587 
L 308.188536 41.786257 
L 309.665672 40.85778 
L 311.142808 40.235864 
L 312.619943 39.215945 
L 314.097079 38.453351 
L 315.574215 37.366025 
L 317.051351 36.735316 
L 318.528486 35.944 
L 320.005622 35.425249 
L 321.482758 34.538389 
L 322.959893 33.810378 
L 324.437029 32.543686 
L 325.914165 31.666791 
L 327.3913 30.244181 
L 328.868436 29.306911 
L 330.345572 27.950536 
L 331.822707 26.975166 
L 333.299843 25.291129 
L 336.254114 22.69444 
L 337.73125 22.318125 
L 337.73125 22.318125 
" clip-path="url(#p1716f3a256)" style="fill: none; stroke: #d62728; stroke-width: 2; stroke-linecap: square"/>
   </g>
   <g id="line2d_17">
    <path d="M 43.78125 313.511276 
L 46.735521 305.91347 
L 48.212657 304.171989 
L 49.689793 301.952201 
L 51.166928 300.536038 
L 52.644064 297.946969 
L 54.1212 296.002677 
L 55.598335 293.248897 
L 57.075471 291.746569 
L 58.552607 289.805207 
L 60.029742 288.625853 
L 61.506878 286.8281 
L 62.984014 285.549099 
L 64.461149 283.316416 
L 65.938285 281.70389 
L 67.415421 279.140026 
L 68.892557 277.363375 
L 70.369692 274.598458 
L 71.846828 272.779604 
L 73.323964 270.175881 
L 74.801099 268.497119 
L 76.278235 266.060452 
L 77.755371 264.560468 
L 79.232506 262.483703 
L 80.709642 261.078092 
L 82.186778 258.614461 
L 83.663913 256.891737 
L 85.141049 254.15437 
L 86.618185 252.293898 
L 88.09532 249.538946 
L 89.572456 247.731815 
L 91.049592 244.997378 
L 92.526727 243.196109 
L 94.003863 240.752994 
L 95.480999 239.277043 
L 96.958134 237.09008 
L 98.43527 235.74836 
L 99.912406 233.914851 
L 101.389541 232.68626 
L 104.343813 228.676339 
L 105.820948 227.185734 
L 107.298084 225.070869 
L 108.77522 223.691635 
L 110.252356 221.522843 
L 111.729491 220.203983 
L 113.206627 218.185247 
L 114.683763 216.864629 
L 116.160898 215.007674 
L 117.638034 213.653645 
L 119.11517 211.714627 
L 120.592305 210.387561 
L 122.069441 208.611496 
L 123.546577 207.39287 
L 125.023712 205.735209 
L 126.500848 204.744599 
L 127.977984 203.336642 
L 129.455119 202.535362 
L 130.932255 201.335492 
L 132.409391 200.619791 
L 133.886526 199.434575 
L 135.363662 198.690738 
L 136.840798 197.503764 
L 138.317933 196.681382 
L 139.795069 195.412931 
L 141.272205 194.492074 
L 142.74934 193.225969 
L 144.226476 192.343212 
L 145.703612 190.975114 
L 147.180747 190.075359 
L 148.657883 188.781117 
L 150.135019 187.823332 
L 151.612155 186.418306 
L 153.08929 185.396043 
L 154.566426 183.707316 
L 156.043562 182.562546 
L 157.520697 180.720245 
L 158.997833 179.574888 
L 161.952104 176.205054 
L 163.42924 175.033907 
L 164.906376 173.368626 
L 166.383511 172.279541 
L 167.860647 170.750836 
L 169.337783 169.682852 
L 170.814918 168.152975 
L 172.292054 167.160019 
L 173.76919 165.644796 
L 175.246325 164.664736 
L 176.723461 163.200509 
L 178.200597 162.25386 
L 179.677732 160.829491 
L 181.154868 159.867017 
L 182.632004 158.404548 
L 184.109139 157.450865 
L 185.586275 156.000705 
L 187.063411 155.061091 
L 188.540546 153.736955 
L 190.017682 152.838958 
L 191.494818 151.484343 
L 192.971954 150.5459 
L 194.449089 149.062916 
L 195.926225 147.983209 
L 197.403361 146.373614 
L 198.880496 145.178433 
L 200.357632 143.405299 
L 201.834768 142.174949 
L 203.311903 140.339096 
L 204.789039 139.000307 
L 206.266175 137.075357 
L 207.74331 135.771738 
L 209.220446 133.893095 
L 210.697582 132.627575 
L 212.174717 130.622322 
L 213.651853 129.385524 
L 215.128989 127.486952 
L 216.606124 126.257189 
L 218.08326 124.448299 
L 219.560396 123.295908 
L 221.037531 121.775995 
L 222.514667 120.42138 
L 223.991803 119.631236 
L 225.468938 118.478845 
L 226.946074 117.73325 
L 228.42321 116.674059 
L 229.900345 115.957771 
L 231.377481 114.878064 
L 232.854617 114.058613 
L 234.331753 112.79661 
L 235.808888 111.851134 
L 237.286024 110.284329 
L 238.76316 109.265582 
L 240.240295 107.678261 
L 241.717431 106.594451 
L 243.194567 104.804905 
L 244.671702 103.632585 
L 246.148838 101.547028 
L 247.625974 100.111522 
L 249.103109 97.802051 
L 250.580245 96.105118 
L 252.057381 93.674313 
L 253.534516 92.060028 
L 255.011652 89.868376 
L 256.488788 88.477418 
L 257.965923 86.634531 
L 259.443059 85.574168 
L 260.920195 83.996225 
L 262.39733 83.063058 
L 263.874466 81.760024 
L 265.351602 80.896025 
L 266.828737 79.704361 
L 268.305873 78.906011 
L 269.783009 77.733691 
L 271.260144 76.938858 
L 272.73728 75.716715 
L 274.214416 74.883781 
L 275.691552 73.535613 
L 277.168687 72.641133 
L 280.122959 69.873286 
L 281.600094 68.918431 
L 283.07723 67.577297 
L 284.554366 66.600755 
L 286.031501 65.207452 
L 287.508637 64.341694 
L 288.985773 63.082036 
L 290.462908 62.208071 
L 291.940044 60.978308 
L 293.41718 60.106102 
L 294.894315 58.821825 
L 296.371451 57.817733 
L 297.848587 56.327714 
L 299.325722 55.303107 
L 300.802858 53.760334 
L 302.279994 52.850613 
L 303.757129 51.519444 
L 305.234265 50.623205 
L 306.711401 49.244557 
L 308.188536 48.342457 
L 309.665672 46.882918 
L 311.142808 45.839553 
L 312.619943 44.179548 
L 314.097079 43.115082 
L 315.574215 41.621546 
L 317.051351 40.677829 
L 318.528486 39.373036 
L 320.005622 38.379495 
L 321.482758 36.799794 
L 322.959893 35.715398 
L 324.437029 34.064185 
L 325.914165 32.969238 
L 327.3913 31.691996 
L 328.868436 30.884267 
L 330.345572 29.594129 
L 331.822707 28.512078 
L 333.299843 26.804594 
L 334.776979 25.727818 
L 336.254114 23.491031 
L 337.73125 22.318125 
L 337.73125 22.318125 
" clip-path="url(#p1716f3a256)" style="fill: none; stroke: #9467bd; stroke-width: 2; stroke-linecap: square"/>
   </g>
   <g id="line2d_18">
    <path d="M 43.78125 315.048774 
L 45.258386 312.738025 
L 46.735521 310.981826 
L 49.689793 308.042369 
L 67.415421 290.472803 
L 337.73125 22.318125 
L 337.73125 22.318125 
" clip-path="url(#p1716f3a256)" style="fill: none; stroke: #8c564b; stroke-width: 2; stroke-linecap: square"/>
   </g>
   <g id="line2d_19">
    <path d="M 43.78125 315.165419 
L 48.212657 310.810251 
L 51.166928 308.116504 
L 52.644064 306.036505 
L 54.1212 304.619662 
L 55.598335 302.893662 
L 58.552607 298.311532 
L 61.506878 292.246889 
L 62.984014 289.06067 
L 67.415421 277.399742 
L 68.892557 273.335107 
L 71.846828 266.581239 
L 74.801099 260.636934 
L 77.755371 255.295745 
L 80.709642 250.669217 
L 86.618185 242.621489 
L 88.09532 240.358812 
L 89.572456 237.80919 
L 101.389541 215.36707 
L 104.343813 209.597784 
L 110.252356 199.061227 
L 111.729491 196.644068 
L 113.206627 194.447903 
L 116.160898 190.740007 
L 123.546577 181.886404 
L 125.023712 180.000191 
L 142.74934 159.643524 
L 147.180747 155.317695 
L 150.135019 152.863196 
L 154.566426 149.587655 
L 158.997833 146.446646 
L 170.814918 139.176712 
L 172.292054 138.082871 
L 175.246325 135.456124 
L 178.200597 132.205074 
L 181.154868 128.845676 
L 184.109139 125.915895 
L 187.063411 123.30612 
L 191.494818 120.252969 
L 201.834768 113.410188 
L 278.645823 61.921477 
L 337.73125 22.318125 
L 337.73125 22.318125 
" clip-path="url(#p1716f3a256)" style="fill: none; stroke: #e377c2; stroke-width: 2; stroke-linecap: square"/>
   </g>
   <g id="line2d_20">
    <path d="M 43.78125 315.398125 
L 337.73125 22.318125 
" clip-path="url(#p1716f3a256)" style="fill: none; stroke-dasharray: 3.7,1.6; stroke-dashoffset: 0; stroke: #7f7f7f"/>
   </g>
   <g id="patch_3">
    <path d="M 43.78125 315.398125 
L 43.78125 22.318125 
" style="fill: none; stroke: #000000; stroke-width: 0.8; stroke-linejoin: miter; stroke-linecap: square"/>
   </g>
   <g id="patch_4">
    <path d="M 337.73125 315.398125 
L 337.73125 22.318125 
" style="fill: none; stroke: #000000; stroke-width: 0.8; stroke-linejoin: miter; stroke-linecap: square"/>
   </g>
   <g id="patch_5">
    <path d="M 43.78125 315.398125 
L 337.73125 315.398125 
" style="fill: none; stroke: #000000; stroke-width: 0.8; stroke-linejoin: miter; stroke-linecap: square"/>
   </g>
   <g id="patch_6">
    <path d="M 43.78125 22.318125 
L 337.73125 22.318125 
" style="fill: none; stroke: #000000; stroke-width: 0.8; stroke-linejoin: miter; stroke-linecap: square"/>
   </g>
   <g id="text_15">
    <!-- $s$ = 0.001 -->
    <g transform="translate(161.59625 16.318125) scale(0.12 -0.12)">
     <defs>
      <path id="DejaVuSans-Oblique-73" d="M 3200 3397 
L 3091 2853 
Q 2863 2978 2609 3040 
Q 2356 3103 2088 3103 
Q 1634 3103 1373 2948 
Q 1113 2794 1113 2528 
Q 1113 2219 1719 2053 
Q 1766 2041 1788 2034 
L 1972 1978 
Q 2547 1819 2739 1644 
Q 2931 1469 2931 1166 
Q 2931 609 2489 259 
Q 2047 -91 1331 -91 
Q 1053 -91 747 -37 
Q 441 16 72 128 
L 184 722 
Q 500 559 806 475 
Q 1113 391 1394 391 
Q 1816 391 2080 572 
Q 2344 753 2344 1031 
Q 2344 1331 1650 1516 
L 1591 1531 
L 1394 1581 
Q 956 1697 753 1886 
Q 550 2075 550 2369 
Q 550 2928 970 3256 
Q 1391 3584 2113 3584 
Q 2397 3584 2667 3537 
Q 2938 3491 3200 3397 
z
" transform="scale(0.015625)"/>
      <path id="DejaVuSans-3d" d="M 678 2906 
L 4684 2906 
L 4684 2381 
L 678 2381 
L 678 2906 
z
M 678 1631 
L 4684 1631 
L 4684 1100 
L 678 1100 
L 678 1631 
z
" transform="scale(0.015625)"/>
     </defs>
     <use xlink:href="#DejaVuSans-Oblique-73" transform="translate(0 0.78125)"/>
     <use xlink:href="#DejaVuSans-20" transform="translate(52.099609 0.78125)"/>
     <use xlink:href="#DejaVuSans-3d" transform="translate(83.886719 0.78125)"/>
     <use xlink:href="#DejaVuSans-20" transform="translate(167.675781 0.78125)"/>
     <use xlink:href="#DejaVuSans-30" transform="translate(199.462891 0.78125)"/>
     <use xlink:href="#DejaVuSans-2e" transform="translate(263.085938 0.78125)"/>
     <use xlink:href="#DejaVuSans-30" transform="translate(294.873047 0.78125)"/>
     <use xlink:href="#DejaVuSans-30" transform="translate(358.496094 0.78125)"/>
     <use xlink:href="#DejaVuSans-31" transform="translate(422.119141 0.78125)"/>
    </g>
   </g>
   <g id="legend_1">
    <g id="patch_7">
     <path d="M 209.49125 311.398125 
L 332.13125 311.398125 
Q 333.73125 311.398125 333.73125 309.798125 
L 333.73125 228.383125 
Q 333.73125 226.783125 332.13125 226.783125 
L 209.49125 226.783125 
Q 207.89125 226.783125 207.89125 228.383125 
L 207.89125 309.798125 
Q 207.89125 311.398125 209.49125 311.398125 
z
" style="fill: #ffffff; opacity: 0.8; stroke: #cccccc; stroke-linejoin: miter"/>
    </g>
    <g id="line2d_21">
     <path d="M 211.09125 233.261875 
L 219.09125 233.261875 
L 227.09125 233.261875 
" style="fill: none; stroke: #1f77b4; stroke-width: 2; stroke-linecap: square"/>
    </g>
    <g id="text_16">
     <!-- $D_{anc}$ (mean AUC = 0.53) -->
     <g transform="translate(233.49125 236.061875) scale(0.08 -0.08)">
      <defs>
       <path id="DejaVuSans-Oblique-44" d="M 1081 4666 
L 2438 4666 
Q 3519 4666 4070 4208 
Q 4622 3750 4622 2847 
Q 4622 2250 4412 1698 
Q 4203 1147 3834 769 
Q 3463 381 2891 190 
Q 2319 0 1538 0 
L 172 0 
L 1081 4666 
z
M 1613 4147 
L 909 519 
L 1734 519 
Q 2794 519 3375 1128 
Q 3956 1738 3956 2847 
Q 3956 3519 3581 3833 
Q 3206 4147 2406 4147 
L 1613 4147 
z
" transform="scale(0.015625)"/>
       <path id="DejaVuSans-Oblique-61" d="M 3438 1997 
L 3047 0 
L 2472 0 
L 2578 531 
Q 2325 219 2001 64 
Q 1678 -91 1281 -91 
Q 834 -91 548 182 
Q 263 456 263 884 
Q 263 1497 752 1853 
Q 1241 2209 2100 2209 
L 2900 2209 
L 2931 2363 
Q 2938 2388 2941 2417 
Q 2944 2447 2944 2509 
Q 2944 2788 2717 2942 
Q 2491 3097 2081 3097 
Q 1800 3097 1504 3025 
Q 1209 2953 897 2809 
L 997 3341 
Q 1322 3463 1633 3523 
Q 1944 3584 2234 3584 
Q 2853 3584 3176 3315 
Q 3500 3047 3500 2534 
Q 3500 2431 3484 2292 
Q 3469 2153 3438 1997 
z
M 2816 1759 
L 2241 1759 
Q 1534 1759 1195 1570 
Q 856 1381 856 984 
Q 856 709 1029 553 
Q 1203 397 1509 397 
Q 1978 397 2328 733 
Q 2678 1069 2791 1631 
L 2816 1759 
z
" transform="scale(0.015625)"/>
       <path id="DejaVuSans-Oblique-6e" d="M 3566 2113 
L 3156 0 
L 2578 0 
L 2988 2091 
Q 3016 2238 3031 2350 
Q 3047 2463 3047 2528 
Q 3047 2791 2881 2937 
Q 2716 3084 2419 3084 
Q 1956 3084 1622 2776 
Q 1288 2469 1184 1941 
L 800 0 
L 225 0 
L 903 3500 
L 1478 3500 
L 1363 2950 
Q 1603 3253 1940 3418 
Q 2278 3584 2650 3584 
Q 3113 3584 3367 3334 
Q 3622 3084 3622 2631 
Q 3622 2519 3608 2391 
Q 3594 2263 3566 2113 
z
" transform="scale(0.015625)"/>
       <path id="DejaVuSans-Oblique-63" d="M 3431 3366 
L 3316 2797 
Q 3109 2947 2876 3022 
Q 2644 3097 2394 3097 
Q 2119 3097 1870 3000 
Q 1622 2903 1453 2725 
Q 1184 2453 1037 2087 
Q 891 1722 891 1331 
Q 891 859 1127 628 
Q 1363 397 1844 397 
Q 2081 397 2348 469 
Q 2616 541 2906 684 
L 2797 116 
Q 2547 13 2283 -39 
Q 2019 -91 1741 -91 
Q 1044 -91 669 257 
Q 294 606 294 1253 
Q 294 1797 489 2255 
Q 684 2713 1069 3078 
Q 1331 3328 1684 3456 
Q 2038 3584 2456 3584 
Q 2700 3584 2940 3529 
Q 3181 3475 3431 3366 
z
" transform="scale(0.015625)"/>
       <path id="DejaVuSans-28" d="M 1984 4856 
Q 1566 4138 1362 3434 
Q 1159 2731 1159 2009 
Q 1159 1288 1364 580 
Q 1569 -128 1984 -844 
L 1484 -844 
Q 1016 -109 783 600 
Q 550 1309 550 2009 
Q 550 2706 781 3412 
Q 1013 4119 1484 4856 
L 1984 4856 
z
" transform="scale(0.015625)"/>
       <path id="DejaVuSans-6d" d="M 3328 2828 
Q 3544 3216 3844 3400 
Q 4144 3584 4550 3584 
Q 5097 3584 5394 3201 
Q 5691 2819 5691 2113 
L 5691 0 
L 5113 0 
L 5113 2094 
Q 5113 2597 4934 2840 
Q 4756 3084 4391 3084 
Q 3944 3084 3684 2787 
Q 3425 2491 3425 1978 
L 3425 0 
L 2847 0 
L 2847 2094 
Q 2847 2600 2669 2842 
Q 2491 3084 2119 3084 
Q 1678 3084 1418 2786 
Q 1159 2488 1159 1978 
L 1159 0 
L 581 0 
L 581 3500 
L 1159 3500 
L 1159 2956 
Q 1356 3278 1631 3431 
Q 1906 3584 2284 3584 
Q 2666 3584 2933 3390 
Q 3200 3197 3328 2828 
z
" transform="scale(0.015625)"/>
       <path id="DejaVuSans-6e" d="M 3513 2113 
L 3513 0 
L 2938 0 
L 2938 2094 
Q 2938 2591 2744 2837 
Q 2550 3084 2163 3084 
Q 1697 3084 1428 2787 
Q 1159 2491 1159 1978 
L 1159 0 
L 581 0 
L 581 3500 
L 1159 3500 
L 1159 2956 
Q 1366 3272 1645 3428 
Q 1925 3584 2291 3584 
Q 2894 3584 3203 3211 
Q 3513 2838 3513 2113 
z
" transform="scale(0.015625)"/>
       <path id="DejaVuSans-41" d="M 2188 4044 
L 1331 1722 
L 3047 1722 
L 2188 4044 
z
M 1831 4666 
L 2547 4666 
L 4325 0 
L 3669 0 
L 3244 1197 
L 1141 1197 
L 716 0 
L 50 0 
L 1831 4666 
z
" transform="scale(0.015625)"/>
       <path id="DejaVuSans-55" d="M 556 4666 
L 1191 4666 
L 1191 1831 
Q 1191 1081 1462 751 
Q 1734 422 2344 422 
Q 2950 422 3222 751 
Q 3494 1081 3494 1831 
L 3494 4666 
L 4128 4666 
L 4128 1753 
Q 4128 841 3676 375 
Q 3225 -91 2344 -91 
Q 1459 -91 1007 375 
Q 556 841 556 1753 
L 556 4666 
z
" transform="scale(0.015625)"/>
       <path id="DejaVuSans-43" d="M 4122 4306 
L 4122 3641 
Q 3803 3938 3442 4084 
Q 3081 4231 2675 4231 
Q 1875 4231 1450 3742 
Q 1025 3253 1025 2328 
Q 1025 1406 1450 917 
Q 1875 428 2675 428 
Q 3081 428 3442 575 
Q 3803 722 4122 1019 
L 4122 359 
Q 3791 134 3420 21 
Q 3050 -91 2638 -91 
Q 1578 -91 968 557 
Q 359 1206 359 2328 
Q 359 3453 968 4101 
Q 1578 4750 2638 4750 
Q 3056 4750 3426 4639 
Q 3797 4528 4122 4306 
z
" transform="scale(0.015625)"/>
       <path id="DejaVuSans-35" d="M 691 4666 
L 3169 4666 
L 3169 4134 
L 1269 4134 
L 1269 2991 
Q 1406 3038 1543 3061 
Q 1681 3084 1819 3084 
Q 2600 3084 3056 2656 
Q 3513 2228 3513 1497 
Q 3513 744 3044 326 
Q 2575 -91 1722 -91 
Q 1428 -91 1123 -41 
Q 819 9 494 109 
L 494 744 
Q 775 591 1075 516 
Q 1375 441 1709 441 
Q 2250 441 2565 725 
Q 2881 1009 2881 1497 
Q 2881 1984 2565 2268 
Q 2250 2553 1709 2553 
Q 1456 2553 1204 2497 
Q 953 2441 691 2322 
L 691 4666 
z
" transform="scale(0.015625)"/>
       <path id="DejaVuSans-33" d="M 2597 2516 
Q 3050 2419 3304 2112 
Q 3559 1806 3559 1356 
Q 3559 666 3084 287 
Q 2609 -91 1734 -91 
Q 1441 -91 1130 -33 
Q 819 25 488 141 
L 488 750 
Q 750 597 1062 519 
Q 1375 441 1716 441 
Q 2309 441 2620 675 
Q 2931 909 2931 1356 
Q 2931 1769 2642 2001 
Q 2353 2234 1838 2234 
L 1294 2234 
L 1294 2753 
L 1863 2753 
Q 2328 2753 2575 2939 
Q 2822 3125 2822 3475 
Q 2822 3834 2567 4026 
Q 2313 4219 1838 4219 
Q 1578 4219 1281 4162 
Q 984 4106 628 3988 
L 628 4550 
Q 988 4650 1302 4700 
Q 1616 4750 1894 4750 
Q 2613 4750 3031 4423 
Q 3450 4097 3450 3541 
Q 3450 3153 3228 2886 
Q 3006 2619 2597 2516 
z
" transform="scale(0.015625)"/>
       <path id="DejaVuSans-29" d="M 513 4856 
L 1013 4856 
Q 1481 4119 1714 3412 
Q 1947 2706 1947 2009 
Q 1947 1309 1714 600 
Q 1481 -109 1013 -844 
L 513 -844 
Q 928 -128 1133 580 
Q 1338 1288 1338 2009 
Q 1338 2731 1133 3434 
Q 928 4138 513 4856 
z
" transform="scale(0.015625)"/>
      </defs>
      <use xlink:href="#DejaVuSans-Oblique-44" transform="translate(0 0.125)"/>
      <use xlink:href="#DejaVuSans-Oblique-61" transform="translate(77.001953 -16.28125) scale(0.7)"/>
      <use xlink:href="#DejaVuSans-Oblique-6e" transform="translate(119.897461 -16.28125) scale(0.7)"/>
      <use xlink:href="#DejaVuSans-Oblique-63" transform="translate(164.262695 -16.28125) scale(0.7)"/>
      <use xlink:href="#DejaVuSans-20" transform="translate(205.483398 0.125)"/>
      <use xlink:href="#DejaVuSans-28" transform="translate(237.270508 0.125)"/>
      <use xlink:href="#DejaVuSans-6d" transform="translate(276.28418 0.125)"/>
      <use xlink:href="#DejaVuSans-65" transform="translate(373.696289 0.125)"/>
      <use xlink:href="#DejaVuSans-61" transform="translate(435.219727 0.125)"/>
      <use xlink:href="#DejaVuSans-6e" transform="translate(496.499023 0.125)"/>
      <use xlink:href="#DejaVuSans-20" transform="translate(559.87793 0.125)"/>
      <use xlink:href="#DejaVuSans-41" transform="translate(591.665039 0.125)"/>
      <use xlink:href="#DejaVuSans-55" transform="translate(660.073242 0.125)"/>
      <use xlink:href="#DejaVuSans-43" transform="translate(733.266602 0.125)"/>
      <use xlink:href="#DejaVuSans-20" transform="translate(803.09082 0.125)"/>
      <use xlink:href="#DejaVuSans-3d" transform="translate(834.87793 0.125)"/>
      <use xlink:href="#DejaVuSans-20" transform="translate(918.666992 0.125)"/>
      <use xlink:href="#DejaVuSans-30" transform="translate(950.454102 0.125)"/>
      <use xlink:href="#DejaVuSans-2e" transform="translate(1014.077148 0.125)"/>
      <use xlink:href="#DejaVuSans-35" transform="translate(1045.864258 0.125)"/>
      <use xlink:href="#DejaVuSans-33" transform="translate(1109.487305 0.125)"/>
      <use xlink:href="#DejaVuSans-29" transform="translate(1173.110352 0.125)"/>
     </g>
    </g>
    <g id="line2d_22">
     <path d="M 211.09125 245.021875 
L 219.09125 245.021875 
L 227.09125 245.021875 
" style="fill: none; stroke: #ff7f0e; stroke-width: 2; stroke-linecap: square"/>
    </g>
    <g id="text_17">
     <!-- $D^+$ (mean AUC = 0.55) -->
     <g transform="translate(233.49125 247.821875) scale(0.08 -0.08)">
      <defs>
       <path id="DejaVuSans-2b" d="M 2944 4013 
L 2944 2272 
L 4684 2272 
L 4684 1741 
L 2944 1741 
L 2944 0 
L 2419 0 
L 2419 1741 
L 678 1741 
L 678 2272 
L 2419 2272 
L 2419 4013 
L 2944 4013 
z
" transform="scale(0.015625)"/>
      </defs>
      <use xlink:href="#DejaVuSans-Oblique-44" transform="translate(0 0.826562)"/>
      <use xlink:href="#DejaVuSans-2b" transform="translate(97.656419 39.107812) scale(0.7)"/>
      <use xlink:href="#DejaVuSans-20" transform="translate(172.680833 0.826562)"/>
      <use xlink:href="#DejaVuSans-28" transform="translate(204.467943 0.826562)"/>
      <use xlink:href="#DejaVuSans-6d" transform="translate(243.481615 0.826562)"/>
      <use xlink:href="#DejaVuSans-65" transform="translate(340.893724 0.826562)"/>
      <use xlink:href="#DejaVuSans-61" transform="translate(402.417161 0.826562)"/>
      <use xlink:href="#DejaVuSans-6e" transform="translate(463.696458 0.826562)"/>
      <use xlink:href="#DejaVuSans-20" transform="translate(527.075365 0.826562)"/>
      <use xlink:href="#DejaVuSans-41" transform="translate(558.862474 0.826562)"/>
      <use xlink:href="#DejaVuSans-55" transform="translate(627.270677 0.826562)"/>
      <use xlink:href="#DejaVuSans-43" transform="translate(700.464036 0.826562)"/>
      <use xlink:href="#DejaVuSans-20" transform="translate(770.288255 0.826562)"/>
      <use xlink:href="#DejaVuSans-3d" transform="translate(802.075365 0.826562)"/>
      <use xlink:href="#DejaVuSans-20" transform="translate(885.864427 0.826562)"/>
      <use xlink:href="#DejaVuSans-30" transform="translate(917.651536 0.826562)"/>
      <use xlink:href="#DejaVuSans-2e" transform="translate(981.274583 0.826562)"/>
      <use xlink:href="#DejaVuSans-35" transform="translate(1013.061693 0.826562)"/>
      <use xlink:href="#DejaVuSans-35" transform="translate(1076.68474 0.826562)"/>
      <use xlink:href="#DejaVuSans-29" transform="translate(1140.307786 0.826562)"/>
     </g>
    </g>
    <g id="line2d_23">
     <path d="M 211.09125 256.764375 
L 219.09125 256.764375 
L 227.09125 256.764375 
" style="fill: none; stroke: #2ca02c; stroke-width: 2; stroke-linecap: square"/>
    </g>
    <g id="text_18">
     <!-- $d_f$ (mean AUC = 0.57) -->
     <g transform="translate(233.49125 259.564375) scale(0.08 -0.08)">
      <defs>
       <path id="DejaVuSans-Oblique-64" d="M 2675 525 
Q 2444 222 2128 65 
Q 1813 -91 1428 -91 
Q 903 -91 598 267 
Q 294 625 294 1247 
Q 294 1766 478 2236 
Q 663 2706 1013 3078 
Q 1244 3325 1534 3454 
Q 1825 3584 2144 3584 
Q 2481 3584 2739 3421 
Q 2997 3259 3138 2956 
L 3513 4863 
L 4091 4863 
L 3144 0 
L 2566 0 
L 2675 525 
z
M 891 1350 
Q 891 897 1095 644 
Q 1300 391 1663 391 
Q 1931 391 2161 520 
Q 2391 650 2566 903 
Q 2750 1166 2856 1509 
Q 2963 1853 2963 2188 
Q 2963 2622 2758 2865 
Q 2553 3109 2194 3109 
Q 1922 3109 1687 2981 
Q 1453 2853 1288 2613 
Q 1106 2353 998 2009 
Q 891 1666 891 1350 
z
" transform="scale(0.015625)"/>
       <path id="DejaVuSans-Oblique-66" d="M 3059 4863 
L 2969 4384 
L 2419 4384 
Q 2106 4384 1964 4261 
Q 1822 4138 1753 3809 
L 1691 3500 
L 2638 3500 
L 2553 3053 
L 1606 3053 
L 1013 0 
L 434 0 
L 1031 3053 
L 481 3053 
L 563 3500 
L 1113 3500 
L 1159 3744 
Q 1278 4363 1576 4613 
Q 1875 4863 2516 4863 
L 3059 4863 
z
" transform="scale(0.015625)"/>
       <path id="DejaVuSans-37" d="M 525 4666 
L 3525 4666 
L 3525 4397 
L 1831 0 
L 1172 0 
L 2766 4134 
L 525 4134 
L 525 4666 
z
" transform="scale(0.015625)"/>
      </defs>
      <use xlink:href="#DejaVuSans-Oblique-64" transform="translate(0 0.015625)"/>
      <use xlink:href="#DejaVuSans-Oblique-66" transform="translate(63.476562 -16.390625) scale(0.7)"/>
      <use xlink:href="#DejaVuSans-20" transform="translate(90.854492 0.015625)"/>
      <use xlink:href="#DejaVuSans-28" transform="translate(122.641602 0.015625)"/>
      <use xlink:href="#DejaVuSans-6d" transform="translate(161.655273 0.015625)"/>
      <use xlink:href="#DejaVuSans-65" transform="translate(259.067383 0.015625)"/>
      <use xlink:href="#DejaVuSans-61" transform="translate(320.59082 0.015625)"/>
      <use xlink:href="#DejaVuSans-6e" transform="translate(381.870117 0.015625)"/>
      <use xlink:href="#DejaVuSans-20" transform="translate(445.249023 0.015625)"/>
      <use xlink:href="#DejaVuSans-41" transform="translate(477.036133 0.015625)"/>
      <use xlink:href="#DejaVuSans-55" transform="translate(545.444336 0.015625)"/>
      <use xlink:href="#DejaVuSans-43" transform="translate(618.637695 0.015625)"/>
      <use xlink:href="#DejaVuSans-20" transform="translate(688.461914 0.015625)"/>
      <use xlink:href="#DejaVuSans-3d" transform="translate(720.249023 0.015625)"/>
      <use xlink:href="#DejaVuSans-20" transform="translate(804.038086 0.015625)"/>
      <use xlink:href="#DejaVuSans-30" transform="translate(835.825195 0.015625)"/>
      <use xlink:href="#DejaVuSans-2e" transform="translate(899.448242 0.015625)"/>
      <use xlink:href="#DejaVuSans-35" transform="translate(931.235352 0.015625)"/>
      <use xlink:href="#DejaVuSans-37" transform="translate(987.608398 0.015625)"/>
      <use xlink:href="#DejaVuSans-29" transform="translate(1051.231445 0.015625)"/>
     </g>
    </g>
    <g id="line2d_24">
     <path d="M 211.09125 268.506875 
L 219.09125 268.506875 
L 227.09125 268.506875 
" style="fill: none; stroke: #d62728; stroke-width: 2; stroke-linecap: square"/>
    </g>
    <g id="text_19">
     <!-- $f_d$ (mean AUC = 0.57) -->
     <g transform="translate(233.49125 271.306875) scale(0.08 -0.08)">
      <use xlink:href="#DejaVuSans-Oblique-66" transform="translate(0 0.015625)"/>
      <use xlink:href="#DejaVuSans-Oblique-64" transform="translate(35.205078 -16.390625) scale(0.7)"/>
      <use xlink:href="#DejaVuSans-20" transform="translate(82.373047 0.015625)"/>
      <use xlink:href="#DejaVuSans-28" transform="translate(114.160156 0.015625)"/>
      <use xlink:href="#DejaVuSans-6d" transform="translate(153.173828 0.015625)"/>
      <use xlink:href="#DejaVuSans-65" transform="translate(250.585938 0.015625)"/>
      <use xlink:href="#DejaVuSans-61" transform="translate(312.109375 0.015625)"/>
      <use xlink:href="#DejaVuSans-6e" transform="translate(373.388672 0.015625)"/>
      <use xlink:href="#DejaVuSans-20" transform="translate(436.767578 0.015625)"/>
      <use xlink:href="#DejaVuSans-41" transform="translate(468.554688 0.015625)"/>
      <use xlink:href="#DejaVuSans-55" transform="translate(536.962891 0.015625)"/>
      <use xlink:href="#DejaVuSans-43" transform="translate(610.15625 0.015625)"/>
      <use xlink:href="#DejaVuSans-20" transform="translate(679.980469 0.015625)"/>
      <use xlink:href="#DejaVuSans-3d" transform="translate(711.767578 0.015625)"/>
      <use xlink:href="#DejaVuSans-20" transform="translate(795.556641 0.015625)"/>
      <use xlink:href="#DejaVuSans-30" transform="translate(827.34375 0.015625)"/>
      <use xlink:href="#DejaVuSans-2e" transform="translate(890.966797 0.015625)"/>
      <use xlink:href="#DejaVuSans-35" transform="translate(922.753906 0.015625)"/>
      <use xlink:href="#DejaVuSans-37" transform="translate(979.126953 0.015625)"/>
      <use xlink:href="#DejaVuSans-29" transform="translate(1042.75 0.015625)"/>
     </g>
    </g>
    <g id="line2d_25">
     <path d="M 211.09125 280.249375 
L 219.09125 280.249375 
L 227.09125 280.249375 
" style="fill: none; stroke: #9467bd; stroke-width: 2; stroke-linecap: square"/>
    </g>
    <g id="text_20">
     <!-- $D_D$ (mean AUC = 0.55) -->
     <g transform="translate(233.49125 283.049375) scale(0.08 -0.08)">
      <use xlink:href="#DejaVuSans-Oblique-44" transform="translate(0 0.125)"/>
      <use xlink:href="#DejaVuSans-Oblique-44" transform="translate(77.001953 -16.28125) scale(0.7)"/>
      <use xlink:href="#DejaVuSans-20" transform="translate(133.637695 0.125)"/>
      <use xlink:href="#DejaVuSans-28" transform="translate(165.424805 0.125)"/>
      <use xlink:href="#DejaVuSans-6d" transform="translate(204.438477 0.125)"/>
      <use xlink:href="#DejaVuSans-65" transform="translate(301.850586 0.125)"/>
      <use xlink:href="#DejaVuSans-61" transform="translate(363.374023 0.125)"/>
      <use xlink:href="#DejaVuSans-6e" transform="translate(424.65332 0.125)"/>
      <use xlink:href="#DejaVuSans-20" transform="translate(488.032227 0.125)"/>
      <use xlink:href="#DejaVuSans-41" transform="translate(519.819336 0.125)"/>
      <use xlink:href="#DejaVuSans-55" transform="translate(588.227539 0.125)"/>
      <use xlink:href="#DejaVuSans-43" transform="translate(661.420898 0.125)"/>
      <use xlink:href="#DejaVuSans-20" transform="translate(731.245117 0.125)"/>
      <use xlink:href="#DejaVuSans-3d" transform="translate(763.032227 0.125)"/>
      <use xlink:href="#DejaVuSans-20" transform="translate(846.821289 0.125)"/>
      <use xlink:href="#DejaVuSans-30" transform="translate(878.608398 0.125)"/>
      <use xlink:href="#DejaVuSans-2e" transform="translate(942.231445 0.125)"/>
      <use xlink:href="#DejaVuSans-35" transform="translate(974.018555 0.125)"/>
      <use xlink:href="#DejaVuSans-35" transform="translate(1037.641602 0.125)"/>
      <use xlink:href="#DejaVuSans-29" transform="translate(1101.264648 0.125)"/>
     </g>
    </g>
    <g id="line2d_26">
     <path d="M 211.09125 291.991875 
L 219.09125 291.991875 
L 227.09125 291.991875 
" style="fill: none; stroke: #8c564b; stroke-width: 2; stroke-linecap: square"/>
    </g>
    <g id="text_21">
     <!-- $U50$ (mean AUC = 0.50) -->
     <g transform="translate(233.49125 294.791875) scale(0.08 -0.08)">
      <defs>
       <path id="DejaVuSans-Oblique-55" d="M 991 4666 
L 1625 4666 
L 1075 1831 
Q 1041 1641 1027 1517 
Q 1013 1394 1013 1300 
Q 1013 869 1253 645 
Q 1494 422 1959 422 
Q 2563 422 2898 753 
Q 3234 1084 3378 1831 
L 3928 4666 
L 4563 4666 
L 4000 1753 
Q 3816 809 3300 359 
Q 2784 -91 1888 -91 
Q 1188 -91 780 261 
Q 372 613 372 1216 
Q 372 1325 387 1461 
Q 403 1597 434 1753 
L 991 4666 
z
" transform="scale(0.015625)"/>
      </defs>
      <use xlink:href="#DejaVuSans-Oblique-55" transform="translate(0 0.125)"/>
      <use xlink:href="#DejaVuSans-35" transform="translate(73.193359 0.125)"/>
      <use xlink:href="#DejaVuSans-30" transform="translate(136.816406 0.125)"/>
      <use xlink:href="#DejaVuSans-20" transform="translate(200.439453 0.125)"/>
      <use xlink:href="#DejaVuSans-28" transform="translate(232.226562 0.125)"/>
      <use xlink:href="#DejaVuSans-6d" transform="translate(271.240234 0.125)"/>
      <use xlink:href="#DejaVuSans-65" transform="translate(368.652344 0.125)"/>
      <use xlink:href="#DejaVuSans-61" transform="translate(430.175781 0.125)"/>
      <use xlink:href="#DejaVuSans-6e" transform="translate(491.455078 0.125)"/>
      <use xlink:href="#DejaVuSans-20" transform="translate(554.833984 0.125)"/>
      <use xlink:href="#DejaVuSans-41" transform="translate(586.621094 0.125)"/>
      <use xlink:href="#DejaVuSans-55" transform="translate(655.029297 0.125)"/>
      <use xlink:href="#DejaVuSans-43" transform="translate(728.222656 0.125)"/>
      <use xlink:href="#DejaVuSans-20" transform="translate(798.046875 0.125)"/>
      <use xlink:href="#DejaVuSans-3d" transform="translate(829.833984 0.125)"/>
      <use xlink:href="#DejaVuSans-20" transform="translate(913.623047 0.125)"/>
      <use xlink:href="#DejaVuSans-30" transform="translate(945.410156 0.125)"/>
      <use xlink:href="#DejaVuSans-2e" transform="translate(1009.033203 0.125)"/>
      <use xlink:href="#DejaVuSans-35" transform="translate(1040.820312 0.125)"/>
      <use xlink:href="#DejaVuSans-30" transform="translate(1104.443359 0.125)"/>
      <use xlink:href="#DejaVuSans-29" transform="translate(1168.066406 0.125)"/>
     </g>
    </g>
    <g id="line2d_27">
     <path d="M 211.09125 303.734375 
L 219.09125 303.734375 
L 227.09125 303.734375 
" style="fill: none; stroke: #e377c2; stroke-width: 2; stroke-linecap: square"/>
    </g>
    <g id="text_22">
     <!-- $Q95$ (mean AUC = 0.61) -->
     <g transform="translate(233.49125 306.534375) scale(0.08 -0.08)">
      <defs>
       <path id="DejaVuSans-Oblique-51" d="M 2309 -84 
Q 2275 -88 2237 -89 
Q 2200 -91 2125 -91 
Q 1250 -91 756 411 
Q 263 913 263 1797 
Q 263 2319 452 2844 
Q 641 3369 978 3788 
Q 1369 4269 1858 4509 
Q 2347 4750 2938 4750 
Q 3794 4750 4287 4245 
Q 4781 3741 4781 2869 
Q 4781 1928 4265 1147 
Q 3750 366 2919 44 
L 3553 -825 
L 2847 -825 
L 2309 -84 
z
M 2919 4238 
Q 2400 4238 2003 3986 
Q 1606 3734 1313 3219 
Q 1125 2891 1026 2522 
Q 928 2153 928 1778 
Q 928 1128 1239 775 
Q 1550 422 2119 422 
Q 2631 422 3032 676 
Q 3434 931 3719 1434 
Q 3909 1772 4009 2142 
Q 4109 2513 4109 2881 
Q 4109 3528 3796 3883 
Q 3484 4238 2919 4238 
z
" transform="scale(0.015625)"/>
       <path id="DejaVuSans-39" d="M 703 97 
L 703 672 
Q 941 559 1184 500 
Q 1428 441 1663 441 
Q 2288 441 2617 861 
Q 2947 1281 2994 2138 
Q 2813 1869 2534 1725 
Q 2256 1581 1919 1581 
Q 1219 1581 811 2004 
Q 403 2428 403 3163 
Q 403 3881 828 4315 
Q 1253 4750 1959 4750 
Q 2769 4750 3195 4129 
Q 3622 3509 3622 2328 
Q 3622 1225 3098 567 
Q 2575 -91 1691 -91 
Q 1453 -91 1209 -44 
Q 966 3 703 97 
z
M 1959 2075 
Q 2384 2075 2632 2365 
Q 2881 2656 2881 3163 
Q 2881 3666 2632 3958 
Q 2384 4250 1959 4250 
Q 1534 4250 1286 3958 
Q 1038 3666 1038 3163 
Q 1038 2656 1286 2365 
Q 1534 2075 1959 2075 
z
" transform="scale(0.015625)"/>
      </defs>
      <use xlink:href="#DejaVuSans-Oblique-51" transform="translate(0 0.125)"/>
      <use xlink:href="#DejaVuSans-39" transform="translate(78.710938 0.125)"/>
      <use xlink:href="#DejaVuSans-35" transform="translate(142.333984 0.125)"/>
      <use xlink:href="#DejaVuSans-20" transform="translate(205.957031 0.125)"/>
      <use xlink:href="#DejaVuSans-28" transform="translate(237.744141 0.125)"/>
      <use xlink:href="#DejaVuSans-6d" transform="translate(276.757812 0.125)"/>
      <use xlink:href="#DejaVuSans-65" transform="translate(374.169922 0.125)"/>
      <use xlink:href="#DejaVuSans-61" transform="translate(435.693359 0.125)"/>
      <use xlink:href="#DejaVuSans-6e" transform="translate(496.972656 0.125)"/>
      <use xlink:href="#DejaVuSans-20" transform="translate(560.351562 0.125)"/>
      <use xlink:href="#DejaVuSans-41" transform="translate(592.138672 0.125)"/>
      <use xlink:href="#DejaVuSans-55" transform="translate(660.546875 0.125)"/>
      <use xlink:href="#DejaVuSans-43" transform="translate(733.740234 0.125)"/>
      <use xlink:href="#DejaVuSans-20" transform="translate(803.564453 0.125)"/>
      <use xlink:href="#DejaVuSans-3d" transform="translate(835.351562 0.125)"/>
      <use xlink:href="#DejaVuSans-20" transform="translate(919.140625 0.125)"/>
      <use xlink:href="#DejaVuSans-30" transform="translate(950.927734 0.125)"/>
      <use xlink:href="#DejaVuSans-2e" transform="translate(1014.550781 0.125)"/>
      <use xlink:href="#DejaVuSans-36" transform="translate(1046.337891 0.125)"/>
      <use xlink:href="#DejaVuSans-31" transform="translate(1109.960938 0.125)"/>
      <use xlink:href="#DejaVuSans-29" transform="translate(1173.583984 0.125)"/>
     </g>
    </g>
   </g>
  </g>
 </g>
 <defs>
  <clipPath id="p1716f3a256">
   <rect x="43.78125" y="22.318125" width="293.95" height="293.08"/>
  </clipPath>
 </defs>
</svg>
