<?xml version="1.0" encoding="utf-8" standalone="no"?>
<!DOCTYPE svg PUBLIC "-//W3C//DTD SVG 1.1//EN"
  "http://www.w3.org/Graphics/SVG/1.1/DTD/svg11.dtd">
<svg xmlns:xlink="http://www.w3.org/1999/xlink" width="352.882812pt" height="352.954375pt" viewBox="0 0 352.882812 352.954375" xmlns="http://www.w3.org/2000/svg" version="1.1">
 <metadata>
  <rdf:RDF xmlns:dc="http://purl.org/dc/elements/1.1/" xmlns:cc="http://creativecommons.org/ns#" xmlns:rdf="http://www.w3.org/1999/02/22-rdf-syntax-ns#">
   <cc:Work>
    <dc:type rdf:resource="http://purl.org/dc/dcmitype/StillImage"/>
    <dc:date>2025-10-30T16:43:18.636772</dc:date>
    <dc:format>image/svg+xml</dc:format>
    <dc:creator>
     <cc:Agent>
      <dc:title>Matplotlib v3.9.1, https://matplotlib.org/</dc:title>
     </cc:Agent>
    </dc:creator>
   </cc:Work>
  </rdf:RDF>
 </metadata>
 <defs>
  <style type="text/css">*{stroke-linejoin: round; stroke-linecap: butt}</style>
 </defs>
 <g id="figure_1">
  <g id="patch_1">
   <path d="M -0 352.954375 
L 352.882812 352.954375 
L 352.882812 0 
L -0 0 
z
" style="fill: #ffffff"/>
  </g>
  <g id="axes_1">
   <g id="patch_2">
    <path d="M 43.78125 315.398125 
L 337.73125 315.398125 
L 337.73125 22.318125 
L 43.78125 22.318125 
z
" style="fill: #ffffff"/>
   </g>
   <g id="matplotlib.axis_1">
    <g id="xtick_1">
     <g id="line2d_1">
      <defs>
       <path id="mea9bf7e73b" d="M 0 0 
L 0 3.5 
" style="stroke: #000000; stroke-width: 0.8"/>
      </defs>
      <g>
       <use xlink:href="#mea9bf7e73b" x="43.78125" y="315.398125" style="stroke: #000000; stroke-width: 0.8"/>
      </g>
     </g>
     <g id="text_1">
      <!-- 0.0 -->
      <g transform="translate(35.829688 329.996562) scale(0.1 -0.1)">
       <defs>
        <path id="DejaVuSans-30" d="M 2034 4250 
Q 1547 4250 1301 3770 
Q 1056 3291 1056 2328 
Q 1056 1369 1301 889 
Q 1547 409 2034 409 
Q 2525 409 2770 889 
Q 3016 1369 3016 2328 
Q 3016 3291 2770 3770 
Q 2525 4250 2034 4250 
z
M 2034 4750 
Q 2819 4750 3233 4129 
Q 3647 3509 3647 2328 
Q 3647 1150 3233 529 
Q 2819 -91 2034 -91 
Q 1250 -91 836 529 
Q 422 1150 422 2328 
Q 422 3509 836 4129 
Q 1250 4750 2034 4750 
z
" transform="scale(0.015625)"/>
        <path id="DejaVuSans-2e" d="M 684 794 
L 1344 794 
L 1344 0 
L 684 0 
L 684 794 
z
" transform="scale(0.015625)"/>
       </defs>
       <use xlink:href="#DejaVuSans-30"/>
       <use xlink:href="#DejaVuSans-2e" x="63.623047"/>
       <use xlink:href="#DejaVuSans-30" x="95.410156"/>
      </g>
     </g>
    </g>
    <g id="xtick_2">
     <g id="line2d_2">
      <g>
       <use xlink:href="#mea9bf7e73b" x="102.57125" y="315.398125" style="stroke: #000000; stroke-width: 0.8"/>
      </g>
     </g>
     <g id="text_2">
      <!-- 0.2 -->
      <g transform="translate(94.619688 329.996562) scale(0.1 -0.1)">
       <defs>
        <path id="DejaVuSans-32" d="M 1228 531 
L 3431 531 
L 3431 0 
L 469 0 
L 469 531 
Q 828 903 1448 1529 
Q 2069 2156 2228 2338 
Q 2531 2678 2651 2914 
Q 2772 3150 2772 3378 
Q 2772 3750 2511 3984 
Q 2250 4219 1831 4219 
Q 1534 4219 1204 4116 
Q 875 4013 500 3803 
L 500 4441 
Q 881 4594 1212 4672 
Q 1544 4750 1819 4750 
Q 2544 4750 2975 4387 
Q 3406 4025 3406 3419 
Q 3406 3131 3298 2873 
Q 3191 2616 2906 2266 
Q 2828 2175 2409 1742 
Q 1991 1309 1228 531 
z
" transform="scale(0.015625)"/>
       </defs>
       <use xlink:href="#DejaVuSans-30"/>
       <use xlink:href="#DejaVuSans-2e" x="63.623047"/>
       <use xlink:href="#DejaVuSans-32" x="95.410156"/>
      </g>
     </g>
    </g>
    <g id="xtick_3">
     <g id="line2d_3">
      <g>
       <use xlink:href="#mea9bf7e73b" x="161.36125" y="315.398125" style="stroke: #000000; stroke-width: 0.8"/>
      </g>
     </g>
     <g id="text_3">
      <!-- 0.4 -->
      <g transform="translate(153.409688 329.996562) scale(0.1 -0.1)">
       <defs>
        <path id="DejaVuSans-34" d="M 2419 4116 
L 825 1625 
L 2419 1625 
L 2419 4116 
z
M 2253 4666 
L 3047 4666 
L 3047 1625 
L 3713 1625 
L 3713 1100 
L 3047 1100 
L 3047 0 
L 2419 0 
L 2419 1100 
L 313 1100 
L 313 1709 
L 2253 4666 
z
" transform="scale(0.015625)"/>
       </defs>
       <use xlink:href="#DejaVuSans-30"/>
       <use xlink:href="#DejaVuSans-2e" x="63.623047"/>
       <use xlink:href="#DejaVuSans-34" x="95.410156"/>
      </g>
     </g>
    </g>
    <g id="xtick_4">
     <g id="line2d_4">
      <g>
       <use xlink:href="#mea9bf7e73b" x="220.15125" y="315.398125" style="stroke: #000000; stroke-width: 0.8"/>
      </g>
     </g>
     <g id="text_4">
      <!-- 0.6 -->
      <g transform="translate(212.199688 329.996562) scale(0.1 -0.1)">
       <defs>
        <path id="DejaVuSans-36" d="M 2113 2584 
Q 1688 2584 1439 2293 
Q 1191 2003 1191 1497 
Q 1191 994 1439 701 
Q 1688 409 2113 409 
Q 2538 409 2786 701 
Q 3034 994 3034 1497 
Q 3034 2003 2786 2293 
Q 2538 2584 2113 2584 
z
M 3366 4563 
L 3366 3988 
Q 3128 4100 2886 4159 
Q 2644 4219 2406 4219 
Q 1781 4219 1451 3797 
Q 1122 3375 1075 2522 
Q 1259 2794 1537 2939 
Q 1816 3084 2150 3084 
Q 2853 3084 3261 2657 
Q 3669 2231 3669 1497 
Q 3669 778 3244 343 
Q 2819 -91 2113 -91 
Q 1303 -91 875 529 
Q 447 1150 447 2328 
Q 447 3434 972 4092 
Q 1497 4750 2381 4750 
Q 2619 4750 2861 4703 
Q 3103 4656 3366 4563 
z
" transform="scale(0.015625)"/>
       </defs>
       <use xlink:href="#DejaVuSans-30"/>
       <use xlink:href="#DejaVuSans-2e" x="63.623047"/>
       <use xlink:href="#DejaVuSans-36" x="95.410156"/>
      </g>
     </g>
    </g>
    <g id="xtick_5">
     <g id="line2d_5">
      <g>
       <use xlink:href="#mea9bf7e73b" x="278.94125" y="315.398125" style="stroke: #000000; stroke-width: 0.8"/>
      </g>
     </g>
     <g id="text_5">
      <!-- 0.8 -->
      <g transform="translate(270.989688 329.996562) scale(0.1 -0.1)">
       <defs>
        <path id="DejaVuSans-38" d="M 2034 2216 
Q 1584 2216 1326 1975 
Q 1069 1734 1069 1313 
Q 1069 891 1326 650 
Q 1584 409 2034 409 
Q 2484 409 2743 651 
Q 3003 894 3003 1313 
Q 3003 1734 2745 1975 
Q 2488 2216 2034 2216 
z
M 1403 2484 
Q 997 2584 770 2862 
Q 544 3141 544 3541 
Q 544 4100 942 4425 
Q 1341 4750 2034 4750 
Q 2731 4750 3128 4425 
Q 3525 4100 3525 3541 
Q 3525 3141 3298 2862 
Q 3072 2584 2669 2484 
Q 3125 2378 3379 2068 
Q 3634 1759 3634 1313 
Q 3634 634 3220 271 
Q 2806 -91 2034 -91 
Q 1263 -91 848 271 
Q 434 634 434 1313 
Q 434 1759 690 2068 
Q 947 2378 1403 2484 
z
M 1172 3481 
Q 1172 3119 1398 2916 
Q 1625 2713 2034 2713 
Q 2441 2713 2670 2916 
Q 2900 3119 2900 3481 
Q 2900 3844 2670 4047 
Q 2441 4250 2034 4250 
Q 1625 4250 1398 4047 
Q 1172 3844 1172 3481 
z
" transform="scale(0.015625)"/>
       </defs>
       <use xlink:href="#DejaVuSans-30"/>
       <use xlink:href="#DejaVuSans-2e" x="63.623047"/>
       <use xlink:href="#DejaVuSans-38" x="95.410156"/>
      </g>
     </g>
    </g>
    <g id="xtick_6">
     <g id="line2d_6">
      <g>
       <use xlink:href="#mea9bf7e73b" x="337.73125" y="315.398125" style="stroke: #000000; stroke-width: 0.8"/>
      </g>
     </g>
     <g id="text_6">
      <!-- 1.0 -->
      <g transform="translate(329.779687 329.996562) scale(0.1 -0.1)">
       <defs>
        <path id="DejaVuSans-31" d="M 794 531 
L 1825 531 
L 1825 4091 
L 703 3866 
L 703 4441 
L 1819 4666 
L 2450 4666 
L 2450 531 
L 3481 531 
L 3481 0 
L 794 0 
L 794 531 
z
" transform="scale(0.015625)"/>
       </defs>
       <use xlink:href="#DejaVuSans-31"/>
       <use xlink:href="#DejaVuSans-2e" x="63.623047"/>
       <use xlink:href="#DejaVuSans-30" x="95.410156"/>
      </g>
     </g>
    </g>
    <g id="text_7">
     <!-- False Positive Rate -->
     <g transform="translate(144.289844 343.674687) scale(0.1 -0.1)">
      <defs>
       <path id="DejaVuSans-46" d="M 628 4666 
L 3309 4666 
L 3309 4134 
L 1259 4134 
L 1259 2759 
L 3109 2759 
L 3109 2228 
L 1259 2228 
L 1259 0 
L 628 0 
L 628 4666 
z
" transform="scale(0.015625)"/>
       <path id="DejaVuSans-61" d="M 2194 1759 
Q 1497 1759 1228 1600 
Q 959 1441 959 1056 
Q 959 750 1161 570 
Q 1363 391 1709 391 
Q 2188 391 2477 730 
Q 2766 1069 2766 1631 
L 2766 1759 
L 2194 1759 
z
M 3341 1997 
L 3341 0 
L 2766 0 
L 2766 531 
Q 2569 213 2275 61 
Q 1981 -91 1556 -91 
Q 1019 -91 701 211 
Q 384 513 384 1019 
Q 384 1609 779 1909 
Q 1175 2209 1959 2209 
L 2766 2209 
L 2766 2266 
Q 2766 2663 2505 2880 
Q 2244 3097 1772 3097 
Q 1472 3097 1187 3025 
Q 903 2953 641 2809 
L 641 3341 
Q 956 3463 1253 3523 
Q 1550 3584 1831 3584 
Q 2591 3584 2966 3190 
Q 3341 2797 3341 1997 
z
" transform="scale(0.015625)"/>
       <path id="DejaVuSans-6c" d="M 603 4863 
L 1178 4863 
L 1178 0 
L 603 0 
L 603 4863 
z
" transform="scale(0.015625)"/>
       <path id="DejaVuSans-73" d="M 2834 3397 
L 2834 2853 
Q 2591 2978 2328 3040 
Q 2066 3103 1784 3103 
Q 1356 3103 1142 2972 
Q 928 2841 928 2578 
Q 928 2378 1081 2264 
Q 1234 2150 1697 2047 
L 1894 2003 
Q 2506 1872 2764 1633 
Q 3022 1394 3022 966 
Q 3022 478 2636 193 
Q 2250 -91 1575 -91 
Q 1294 -91 989 -36 
Q 684 19 347 128 
L 347 722 
Q 666 556 975 473 
Q 1284 391 1588 391 
Q 1994 391 2212 530 
Q 2431 669 2431 922 
Q 2431 1156 2273 1281 
Q 2116 1406 1581 1522 
L 1381 1569 
Q 847 1681 609 1914 
Q 372 2147 372 2553 
Q 372 3047 722 3315 
Q 1072 3584 1716 3584 
Q 2034 3584 2315 3537 
Q 2597 3491 2834 3397 
z
" transform="scale(0.015625)"/>
       <path id="DejaVuSans-65" d="M 3597 1894 
L 3597 1613 
L 953 1613 
Q 991 1019 1311 708 
Q 1631 397 2203 397 
Q 2534 397 2845 478 
Q 3156 559 3463 722 
L 3463 178 
Q 3153 47 2828 -22 
Q 2503 -91 2169 -91 
Q 1331 -91 842 396 
Q 353 884 353 1716 
Q 353 2575 817 3079 
Q 1281 3584 2069 3584 
Q 2775 3584 3186 3129 
Q 3597 2675 3597 1894 
z
M 3022 2063 
Q 3016 2534 2758 2815 
Q 2500 3097 2075 3097 
Q 1594 3097 1305 2825 
Q 1016 2553 972 2059 
L 3022 2063 
z
" transform="scale(0.015625)"/>
       <path id="DejaVuSans-20" transform="scale(0.015625)"/>
       <path id="DejaVuSans-50" d="M 1259 4147 
L 1259 2394 
L 2053 2394 
Q 2494 2394 2734 2622 
Q 2975 2850 2975 3272 
Q 2975 3691 2734 3919 
Q 2494 4147 2053 4147 
L 1259 4147 
z
M 628 4666 
L 2053 4666 
Q 2838 4666 3239 4311 
Q 3641 3956 3641 3272 
Q 3641 2581 3239 2228 
Q 2838 1875 2053 1875 
L 1259 1875 
L 1259 0 
L 628 0 
L 628 4666 
z
" transform="scale(0.015625)"/>
       <path id="DejaVuSans-6f" d="M 1959 3097 
Q 1497 3097 1228 2736 
Q 959 2375 959 1747 
Q 959 1119 1226 758 
Q 1494 397 1959 397 
Q 2419 397 2687 759 
Q 2956 1122 2956 1747 
Q 2956 2369 2687 2733 
Q 2419 3097 1959 3097 
z
M 1959 3584 
Q 2709 3584 3137 3096 
Q 3566 2609 3566 1747 
Q 3566 888 3137 398 
Q 2709 -91 1959 -91 
Q 1206 -91 779 398 
Q 353 888 353 1747 
Q 353 2609 779 3096 
Q 1206 3584 1959 3584 
z
" transform="scale(0.015625)"/>
       <path id="DejaVuSans-69" d="M 603 3500 
L 1178 3500 
L 1178 0 
L 603 0 
L 603 3500 
z
M 603 4863 
L 1178 4863 
L 1178 4134 
L 603 4134 
L 603 4863 
z
" transform="scale(0.015625)"/>
       <path id="DejaVuSans-74" d="M 1172 4494 
L 1172 3500 
L 2356 3500 
L 2356 3053 
L 1172 3053 
L 1172 1153 
Q 1172 725 1289 603 
Q 1406 481 1766 481 
L 2356 481 
L 2356 0 
L 1766 0 
Q 1100 0 847 248 
Q 594 497 594 1153 
L 594 3053 
L 172 3053 
L 172 3500 
L 594 3500 
L 594 4494 
L 1172 4494 
z
" transform="scale(0.015625)"/>
       <path id="DejaVuSans-76" d="M 191 3500 
L 800 3500 
L 1894 563 
L 2988 3500 
L 3597 3500 
L 2284 0 
L 1503 0 
L 191 3500 
z
" transform="scale(0.015625)"/>
       <path id="DejaVuSans-52" d="M 2841 2188 
Q 3044 2119 3236 1894 
Q 3428 1669 3622 1275 
L 4263 0 
L 3584 0 
L 2988 1197 
Q 2756 1666 2539 1819 
Q 2322 1972 1947 1972 
L 1259 1972 
L 1259 0 
L 628 0 
L 628 4666 
L 2053 4666 
Q 2853 4666 3247 4331 
Q 3641 3997 3641 3322 
Q 3641 2881 3436 2590 
Q 3231 2300 2841 2188 
z
M 1259 4147 
L 1259 2491 
L 2053 2491 
Q 2509 2491 2742 2702 
Q 2975 2913 2975 3322 
Q 2975 3731 2742 3939 
Q 2509 4147 2053 4147 
L 1259 4147 
z
" transform="scale(0.015625)"/>
      </defs>
      <use xlink:href="#DejaVuSans-46"/>
      <use xlink:href="#DejaVuSans-61" x="48.394531"/>
      <use xlink:href="#DejaVuSans-6c" x="109.673828"/>
      <use xlink:href="#DejaVuSans-73" x="137.457031"/>
      <use xlink:href="#DejaVuSans-65" x="189.556641"/>
      <use xlink:href="#DejaVuSans-20" x="251.080078"/>
      <use xlink:href="#DejaVuSans-50" x="282.867188"/>
      <use xlink:href="#DejaVuSans-6f" x="339.544922"/>
      <use xlink:href="#DejaVuSans-73" x="400.726562"/>
      <use xlink:href="#DejaVuSans-69" x="452.826172"/>
      <use xlink:href="#DejaVuSans-74" x="480.609375"/>
      <use xlink:href="#DejaVuSans-69" x="519.818359"/>
      <use xlink:href="#DejaVuSans-76" x="547.601562"/>
      <use xlink:href="#DejaVuSans-65" x="606.78125"/>
      <use xlink:href="#DejaVuSans-20" x="668.304688"/>
      <use xlink:href="#DejaVuSans-52" x="700.091797"/>
      <use xlink:href="#DejaVuSans-61" x="767.324219"/>
      <use xlink:href="#DejaVuSans-74" x="828.603516"/>
      <use xlink:href="#DejaVuSans-65" x="867.8125"/>
     </g>
    </g>
   </g>
   <g id="matplotlib.axis_2">
    <g id="ytick_1">
     <g id="line2d_7">
      <defs>
       <path id="m2ab553a346" d="M 0 0 
L -3.5 0 
" style="stroke: #000000; stroke-width: 0.8"/>
      </defs>
      <g>
       <use xlink:href="#m2ab553a346" x="43.78125" y="315.398125" style="stroke: #000000; stroke-width: 0.8"/>
      </g>
     </g>
     <g id="text_8">
      <!-- 0.0 -->
      <g transform="translate(20.878125 319.197344) scale(0.1 -0.1)">
       <use xlink:href="#DejaVuSans-30"/>
       <use xlink:href="#DejaVuSans-2e" x="63.623047"/>
       <use xlink:href="#DejaVuSans-30" x="95.410156"/>
      </g>
     </g>
    </g>
    <g id="ytick_2">
     <g id="line2d_8">
      <g>
       <use xlink:href="#m2ab553a346" x="43.78125" y="256.782125" style="stroke: #000000; stroke-width: 0.8"/>
      </g>
     </g>
     <g id="text_9">
      <!-- 0.2 -->
      <g transform="translate(20.878125 260.581344) scale(0.1 -0.1)">
       <use xlink:href="#DejaVuSans-30"/>
       <use xlink:href="#DejaVuSans-2e" x="63.623047"/>
       <use xlink:href="#DejaVuSans-32" x="95.410156"/>
      </g>
     </g>
    </g>
    <g id="ytick_3">
     <g id="line2d_9">
      <g>
       <use xlink:href="#m2ab553a346" x="43.78125" y="198.166125" style="stroke: #000000; stroke-width: 0.8"/>
      </g>
     </g>
     <g id="text_10">
      <!-- 0.4 -->
      <g transform="translate(20.878125 201.965344) scale(0.1 -0.1)">
       <use xlink:href="#DejaVuSans-30"/>
       <use xlink:href="#DejaVuSans-2e" x="63.623047"/>
       <use xlink:href="#DejaVuSans-34" x="95.410156"/>
      </g>
     </g>
    </g>
    <g id="ytick_4">
     <g id="line2d_10">
      <g>
       <use xlink:href="#m2ab553a346" x="43.78125" y="139.550125" style="stroke: #000000; stroke-width: 0.8"/>
      </g>
     </g>
     <g id="text_11">
      <!-- 0.6 -->
      <g transform="translate(20.878125 143.349344) scale(0.1 -0.1)">
       <use xlink:href="#DejaVuSans-30"/>
       <use xlink:href="#DejaVuSans-2e" x="63.623047"/>
       <use xlink:href="#DejaVuSans-36" x="95.410156"/>
      </g>
     </g>
    </g>
    <g id="ytick_5">
     <g id="line2d_11">
      <g>
       <use xlink:href="#m2ab553a346" x="43.78125" y="80.934125" style="stroke: #000000; stroke-width: 0.8"/>
      </g>
     </g>
     <g id="text_12">
      <!-- 0.8 -->
      <g transform="translate(20.878125 84.733344) scale(0.1 -0.1)">
       <use xlink:href="#DejaVuSans-30"/>
       <use xlink:href="#DejaVuSans-2e" x="63.623047"/>
       <use xlink:href="#DejaVuSans-38" x="95.410156"/>
      </g>
     </g>
    </g>
    <g id="ytick_6">
     <g id="line2d_12">
      <g>
       <use xlink:href="#m2ab553a346" x="43.78125" y="22.318125" style="stroke: #000000; stroke-width: 0.8"/>
      </g>
     </g>
     <g id="text_13">
      <!-- 1.0 -->
      <g transform="translate(20.878125 26.117344) scale(0.1 -0.1)">
       <use xlink:href="#DejaVuSans-31"/>
       <use xlink:href="#DejaVuSans-2e" x="63.623047"/>
       <use xlink:href="#DejaVuSans-30" x="95.410156"/>
      </g>
     </g>
    </g>
    <g id="text_14">
     <!-- True Positive Rate -->
     <g transform="translate(14.798438 213.387812) rotate(-90) scale(0.1 -0.1)">
      <defs>
       <path id="DejaVuSans-54" d="M -19 4666 
L 3928 4666 
L 3928 4134 
L 2272 4134 
L 2272 0 
L 1638 0 
L 1638 4134 
L -19 4134 
L -19 4666 
z
" transform="scale(0.015625)"/>
       <path id="DejaVuSans-72" d="M 2631 2963 
Q 2534 3019 2420 3045 
Q 2306 3072 2169 3072 
Q 1681 3072 1420 2755 
Q 1159 2438 1159 1844 
L 1159 0 
L 581 0 
L 581 3500 
L 1159 3500 
L 1159 2956 
Q 1341 3275 1631 3429 
Q 1922 3584 2338 3584 
Q 2397 3584 2469 3576 
Q 2541 3569 2628 3553 
L 2631 2963 
z
" transform="scale(0.015625)"/>
       <path id="DejaVuSans-75" d="M 544 1381 
L 544 3500 
L 1119 3500 
L 1119 1403 
Q 1119 906 1312 657 
Q 1506 409 1894 409 
Q 2359 409 2629 706 
Q 2900 1003 2900 1516 
L 2900 3500 
L 3475 3500 
L 3475 0 
L 2900 0 
L 2900 538 
Q 2691 219 2414 64 
Q 2138 -91 1772 -91 
Q 1169 -91 856 284 
Q 544 659 544 1381 
z
M 1991 3584 
L 1991 3584 
z
" transform="scale(0.015625)"/>
      </defs>
      <use xlink:href="#DejaVuSans-54"/>
      <use xlink:href="#DejaVuSans-72" x="46.333984"/>
      <use xlink:href="#DejaVuSans-75" x="87.447266"/>
      <use xlink:href="#DejaVuSans-65" x="150.826172"/>
      <use xlink:href="#DejaVuSans-20" x="212.349609"/>
      <use xlink:href="#DejaVuSans-50" x="244.136719"/>
      <use xlink:href="#DejaVuSans-6f" x="300.814453"/>
      <use xlink:href="#DejaVuSans-73" x="361.996094"/>
      <use xlink:href="#DejaVuSans-69" x="414.095703"/>
      <use xlink:href="#DejaVuSans-74" x="441.878906"/>
      <use xlink:href="#DejaVuSans-69" x="481.087891"/>
      <use xlink:href="#DejaVuSans-76" x="508.871094"/>
      <use xlink:href="#DejaVuSans-65" x="568.050781"/>
      <use xlink:href="#DejaVuSans-20" x="629.574219"/>
      <use xlink:href="#DejaVuSans-52" x="661.361328"/>
      <use xlink:href="#DejaVuSans-61" x="728.59375"/>
      <use xlink:href="#DejaVuSans-74" x="789.873047"/>
      <use xlink:href="#DejaVuSans-65" x="829.082031"/>
     </g>
    </g>
   </g>
   <g id="line2d_13">
    <path d="M 43.78125 315.075151 
L 45.258386 313.486071 
L 46.735521 309.586935 
L 48.212657 307.630919 
L 49.689793 304.786871 
L 51.166928 302.519017 
L 52.644064 299.176147 
L 54.1212 297.416495 
L 55.598335 295.251806 
L 57.075471 293.853228 
L 58.552607 291.563687 
L 60.029742 289.707318 
L 61.506878 286.38086 
L 62.984014 283.826961 
L 64.461149 279.606023 
L 65.938285 277.032781 
L 67.415421 273.750285 
L 68.892557 272.060972 
L 70.369692 269.998861 
L 71.846828 268.722204 
L 73.323964 266.753293 
L 74.801099 265.359404 
L 76.278235 263.02004 
L 77.755371 261.568708 
L 79.232506 259.173658 
L 80.709642 257.635574 
L 82.186778 255.293865 
L 83.663913 253.655548 
L 85.141049 251.126267 
L 86.618185 249.48033 
L 88.09532 246.866056 
L 89.572456 245.118713 
L 91.049592 242.638084 
L 92.526727 241.058969 
L 94.003863 238.837423 
L 95.480999 237.452913 
L 96.958134 235.563719 
L 98.43527 234.327508 
L 99.912406 232.531513 
L 101.389541 231.224377 
L 102.866677 229.153473 
L 104.343813 226.814695 
L 105.820948 225.236752 
L 107.298084 222.855184 
L 108.77522 221.343478 
L 110.252356 219.162376 
L 111.729491 217.787245 
L 113.206627 215.871674 
L 114.683763 214.64953 
L 116.160898 212.811333 
L 117.638034 211.592706 
L 119.11517 209.823089 
L 120.592305 208.616772 
L 122.069441 206.882324 
L 123.546577 205.729934 
L 125.023712 204.166059 
L 126.500848 203.023047 
L 127.977984 201.408762 
L 129.455119 200.325538 
L 130.932255 198.607503 
L 132.409391 197.523694 
L 133.886526 195.837897 
L 135.363662 194.789257 
L 136.840798 193.095841 
L 138.317933 192.034891 
L 139.795069 190.452846 
L 141.272205 189.418859 
L 142.74934 187.835055 
L 144.226476 186.813964 
L 145.703612 185.305188 
L 147.180747 184.297579 
L 148.657883 182.80463 
L 150.135019 181.72082 
L 151.612155 180.177461 
L 153.08929 179.092479 
L 154.566426 177.387925 
L 156.043562 176.303529 
L 157.520697 174.521017 
L 158.997833 173.459481 
L 161.952104 170.014619 
L 163.42924 168.794234 
L 164.906376 166.987688 
L 166.383511 165.737409 
L 167.860647 163.791944 
L 169.337783 162.555147 
L 170.814918 160.694675 
L 172.292054 159.505356 
L 173.76919 157.833042 
L 175.246325 156.711717 
L 176.723461 155.129672 
L 178.200597 154.072239 
L 179.677732 152.371789 
L 181.154868 151.236397 
L 182.632004 149.319654 
L 184.109139 147.98614 
L 185.586275 145.762835 
L 187.063411 144.210683 
L 188.540546 141.835563 
L 190.017682 140.284583 
L 191.494818 137.982733 
L 192.971954 136.557778 
L 194.449089 134.430604 
L 195.926225 133.113502 
L 197.403361 131.226067 
L 198.880496 129.941204 
L 200.357632 128.093042 
L 201.834768 126.925997 
L 203.311903 125.305851 
L 204.789039 124.382649 
L 206.266175 123.098372 
L 207.74331 122.344571 
L 209.220446 121.304137 
L 210.697582 120.696289 
L 212.174717 119.834047 
L 213.651853 119.270161 
L 215.128989 118.441331 
L 216.606124 117.812968 
L 218.08326 116.818254 
L 219.560396 116.120137 
L 222.514667 113.688746 
L 223.991803 112.793093 
L 225.468938 111.426754 
L 226.946074 110.515862 
L 228.42321 109.011775 
L 229.900345 107.961963 
L 231.377481 106.393985 
L 232.854617 105.385789 
L 234.331753 103.824259 
L 235.808888 102.902816 
L 237.286024 101.399901 
L 238.76316 100.455011 
L 240.240295 98.995473 
L 241.717431 98.038274 
L 243.194567 96.676038 
L 244.671702 95.683083 
L 246.148838 94.208891 
L 247.625974 93.25345 
L 249.103109 91.826736 
L 250.580245 90.953358 
L 252.057381 89.704837 
L 253.534516 88.964517 
L 255.011652 87.868984 
L 256.488788 87.155627 
L 257.965923 85.997375 
L 259.443059 85.170889 
L 260.920195 83.886027 
L 262.39733 82.912415 
L 263.874466 81.366711 
L 265.351602 80.109398 
L 266.828737 78.045529 
L 268.305873 76.656915 
L 269.783009 74.433611 
L 271.260144 73.00338 
L 272.73728 70.914892 
L 274.214416 69.654648 
L 275.691552 68.018089 
L 277.168687 67.069683 
L 278.645823 65.668174 
L 280.122959 64.426687 
L 281.600094 63.661162 
L 283.07723 62.474774 
L 284.554366 61.567985 
L 286.031501 60.213955 
L 287.508637 59.242688 
L 288.985773 57.600854 
L 290.462908 56.564523 
L 291.940044 54.866417 
L 293.41718 53.736301 
L 294.894315 52.205837 
L 296.371451 51.250983 
L 297.848587 50.027667 
L 299.325722 49.319585 
L 300.802858 48.423347 
L 302.279994 47.918663 
L 303.757129 47.150793 
L 305.234265 46.611526 
L 306.711401 45.632639 
L 308.188536 44.935695 
L 309.665672 43.928672 
L 311.142808 43.316721 
L 312.619943 42.513095 
L 314.097079 41.914626 
L 315.574215 40.811473 
L 317.051351 39.928716 
L 318.528486 38.396494 
L 320.005622 37.058877 
L 321.482758 34.853743 
L 322.959893 33.387757 
L 324.437029 31.472186 
L 325.914165 30.455198 
L 327.3913 29.168577 
L 328.868436 28.298715 
L 330.345572 27.097087 
L 334.776979 25.397223 
L 337.73125 22.318125 
L 337.73125 22.318125 
" clip-path="url(#p76b39a306c)" style="fill: none; stroke: #1f77b4; stroke-width: 2; stroke-linecap: square"/>
   </g>
   <g id="line2d_14">
    <path d="M 43.78125 314.765658 
L 45.258386 312.824296 
L 48.212657 299.782236 
L 49.689793 292.340349 
L 51.166928 289.482819 
L 52.644064 286.160464 
L 54.1212 284.172796 
L 55.598335 281.108351 
L 57.075471 279.026897 
L 58.552607 276.208054 
L 60.029742 274.532808 
L 61.506878 272.079143 
L 62.984014 270.274942 
L 64.461149 267.311903 
L 65.938285 265.21052 
L 67.415421 262.188279 
L 68.892557 260.145511 
L 70.369692 257.171921 
L 71.846828 255.197148 
L 73.323964 252.321447 
L 74.801099 250.445735 
L 76.278235 247.452802 
L 77.755371 245.54661 
L 79.232506 242.714285 
L 80.709642 241.144549 
L 82.186778 239.019719 
L 83.663913 237.778818 
L 85.141049 236.047301 
L 86.618185 234.879084 
L 88.09532 233.084849 
L 89.572456 231.712062 
L 91.049592 229.466483 
L 92.526727 227.89616 
L 94.003863 225.320573 
L 95.480999 223.447206 
L 96.958134 220.566816 
L 98.43527 218.622523 
L 99.912406 215.663001 
L 101.389541 213.654231 
L 102.866677 210.925656 
L 104.343813 208.609152 
L 105.820948 207.255122 
L 107.298084 205.276246 
L 108.77522 204.032414 
L 110.252356 202.218249 
L 111.729491 201.10689 
L 113.206627 199.31324 
L 114.683763 198.020171 
L 116.160898 196.042467 
L 117.638034 194.669681 
L 119.11517 192.88072 
L 120.592305 191.763499 
L 122.069441 190.091185 
L 123.546577 189.035511 
L 125.023712 187.369058 
L 126.500848 186.207875 
L 127.977984 184.261824 
L 129.455119 182.992201 
L 130.932255 181.162796 
L 132.409391 179.897862 
L 133.886526 178.159312 
L 135.363662 177.028023 
L 136.840798 175.416669 
L 138.317933 174.302379 
L 139.795069 172.692198 
L 141.272205 171.629489 
L 142.74934 169.957761 
L 144.226476 168.839368 
L 145.703612 167.103748 
L 147.180747 166.003526 
L 148.657883 164.301903 
L 150.135019 163.246229 
L 151.612155 161.676493 
L 153.08929 160.722224 
L 154.566426 159.267375 
L 156.043562 158.319554 
L 157.520697 156.852396 
L 158.997833 155.871164 
L 161.952104 152.99136 
L 163.42924 152.075778 
L 164.906376 150.745781 
L 166.383511 149.960913 
L 167.860647 148.754009 
L 169.337783 147.969727 
L 170.814918 146.850748 
L 172.292054 146.049467 
L 173.76919 144.812083 
L 175.246325 143.98677 
L 176.723461 142.601088 
L 178.200597 141.547758 
L 179.677732 139.945197 
L 181.154868 138.824459 
L 182.632004 137.013225 
L 184.109139 135.766462 
L 185.586275 133.978674 
L 187.063411 132.761806 
L 188.540546 131.039082 
L 190.017682 129.974029 
L 191.494818 128.412499 
L 192.971954 127.364445 
L 194.449089 125.943593 
L 195.926225 125.056147 
L 197.403361 123.737287 
L 198.880496 122.902595 
L 200.357632 121.744929 
L 201.834768 121.023366 
L 203.311903 119.940142 
L 204.789039 119.261369 
L 206.266175 118.256691 
L 207.74331 117.532197 
L 209.220446 116.447801 
L 210.697582 115.68931 
L 212.174717 114.511128 
L 213.651853 113.767877 
L 215.128989 112.568594 
L 216.606124 111.79838 
L 218.08326 110.594407 
L 219.560396 109.807194 
L 222.514667 107.253295 
L 223.991803 106.311336 
L 225.468938 104.947928 
L 226.946074 104.027071 
L 228.42321 102.725209 
L 229.900345 101.841866 
L 231.377481 100.541177 
L 232.854617 99.691831 
L 234.331753 98.388211 
L 235.808888 97.528315 
L 237.286024 96.195387 
L 238.76316 95.275116 
L 240.240295 93.892364 
L 241.717431 92.942785 
L 243.194567 91.398253 
L 244.671702 90.409988 
L 246.148838 88.924658 
L 247.625974 87.885396 
L 249.103109 86.308626 
L 250.580245 85.275226 
L 252.057381 83.788138 
L 253.534516 82.863764 
L 255.011652 81.547835 
L 256.488788 80.747726 
L 257.965923 79.571303 
L 259.443059 78.852671 
L 260.920195 77.848579 
L 262.39733 77.136981 
L 263.874466 76.054343 
L 265.351602 75.278267 
L 266.828737 73.950029 
L 268.305873 73.047928 
L 269.783009 71.648178 
L 271.260144 70.713839 
L 272.73728 69.319951 
L 274.214416 68.404369 
L 275.691552 67.103094 
L 277.168687 66.344016 
L 280.122959 64.074405 
L 281.600094 63.418492 
L 283.07723 62.410883 
L 284.554366 61.773141 
L 286.031501 60.796012 
L 287.508637 60.113136 
L 288.985773 58.913266 
L 290.462908 58.038715 
L 291.940044 56.722786 
L 293.41718 55.818341 
L 294.894315 54.490103 
L 296.371451 53.643102 
L 297.848587 52.491883 
L 299.325722 51.808421 
L 300.802858 50.878185 
L 302.279994 50.276785 
L 303.757129 49.340687 
L 305.234265 48.631434 
L 306.711401 47.411048 
L 308.188536 46.455021 
L 309.665672 44.959727 
L 311.142808 44.024216 
L 312.619943 42.765144 
L 314.097079 42.04534 
L 315.574215 40.935153 
L 317.051351 40.081704 
L 318.528486 38.43987 
L 320.005622 37.132147 
L 321.482758 35.139203 
L 322.959893 33.973917 
L 324.437029 32.452831 
L 325.914165 31.598796 
L 327.3913 30.368446 
L 328.868436 29.556029 
L 330.345572 28.342091 
L 331.822707 27.534949 
L 334.776979 25.00391 
L 336.254114 23.200882 
L 337.73125 22.318125 
L 337.73125 22.318125 
" clip-path="url(#p76b39a306c)" style="fill: none; stroke: #ff7f0e; stroke-width: 2; stroke-linecap: square"/>
   </g>
   <g id="line2d_15">
    <path d="M 43.78125 313.721121 
L 45.258386 310.59513 
L 46.735521 303.762849 
L 48.212657 299.034882 
L 49.689793 293.659209 
L 51.166928 291.034385 
L 52.644064 287.777093 
L 54.1212 285.343357 
L 55.598335 280.726175 
L 57.075471 277.402648 
L 58.552607 273.318285 
L 60.029742 270.910339 
L 61.506878 267.419171 
L 62.984014 265.250379 
L 64.461149 261.830721 
L 65.938285 259.398157 
L 67.415421 255.066435 
L 68.892557 252.073502 
L 70.369692 248.051858 
L 71.846828 245.752938 
L 73.323964 242.90127 
L 74.801099 240.837987 
L 76.278235 237.747751 
L 77.755371 235.69795 
L 79.232506 232.671606 
L 80.709642 230.896713 
L 82.186778 228.574933 
L 83.663913 227.050917 
L 85.141049 224.895021 
L 86.618185 223.455412 
L 88.09532 221.29424 
L 89.572456 219.858734 
L 91.049592 217.760281 
L 92.526727 216.380461 
L 94.003863 214.50299 
L 95.480999 213.255642 
L 96.958134 211.582741 
L 98.43527 210.533515 
L 99.912406 209.003637 
L 101.389541 208.000717 
L 104.343813 205.389961 
L 105.820948 204.494895 
L 107.298084 203.2241 
L 108.77522 202.163736 
L 110.252356 200.661994 
L 111.729491 199.60632 
L 113.206627 198.021343 
L 114.683763 196.863677 
L 116.160898 194.905317 
L 117.638034 193.534875 
L 119.11517 191.359049 
L 120.592305 189.755315 
L 122.069441 187.397193 
L 123.546577 185.89721 
L 125.023712 183.631115 
L 126.500848 182.243089 
L 127.977984 180.104777 
L 129.455119 178.628826 
L 130.932255 176.55382 
L 132.409391 175.227926 
L 133.886526 173.44131 
L 135.363662 172.356914 
L 136.840798 170.855172 
L 138.317933 169.977104 
L 139.795069 168.567976 
L 141.272205 167.616052 
L 142.74934 166.233301 
L 144.226476 165.197556 
L 145.703612 163.610235 
L 147.180747 162.599109 
L 148.657883 160.892797 
L 150.135019 159.864672 
L 151.612155 158.268558 
L 153.08929 157.218746 
L 154.566426 155.569878 
L 156.043562 154.489585 
L 157.520697 152.900505 
L 158.997833 151.778009 
L 161.952104 148.25929 
L 163.42924 147.068213 
L 164.906376 145.261668 
L 166.383511 144.048317 
L 167.860647 142.242944 
L 169.337783 141.120226 
L 170.814918 139.500176 
L 172.292054 138.409526 
L 173.76919 136.734978 
L 175.246325 135.606175 
L 176.723461 133.912003 
L 178.200597 132.69006 
L 179.677732 131.007716 
L 181.154868 129.808959 
L 182.632004 128.16852 
L 184.109139 127.126295 
L 185.586275 125.779338 
L 187.063411 124.892095 
L 188.540546 123.641232 
L 190.017682 122.869035 
L 191.494818 121.7336 
L 192.971954 120.985856 
L 194.449089 119.710588 
L 195.926225 118.764112 
L 197.403361 117.352473 
L 198.880496 116.434319 
L 200.357632 114.939025 
L 201.834768 113.913245 
L 203.311903 112.569766 
L 204.789039 111.713973 
L 206.266175 110.472486 
L 207.74331 109.66124 
L 209.220446 108.402755 
L 210.697582 107.60206 
L 212.174717 106.418017 
L 213.651853 105.626701 
L 215.128989 104.480758 
L 216.606124 103.748058 
L 218.08326 102.70059 
L 219.560396 101.973166 
L 222.514667 100.045872 
L 223.991803 99.38058 
L 225.468938 98.386453 
L 226.946074 97.682475 
L 228.42321 96.502535 
L 229.900345 95.62857 
L 231.377481 94.292711 
L 232.854617 93.38475 
L 234.331753 91.858975 
L 235.808888 90.884777 
L 237.286024 89.485027 
L 238.76316 88.567687 
L 240.240295 87.296892 
L 241.717431 86.47744 
L 243.194567 85.34029 
L 244.671702 84.555421 
L 246.148838 83.414168 
L 247.625974 82.689674 
L 249.103109 81.509148 
L 250.580245 80.728383 
L 252.057381 79.59006 
L 253.534516 78.838603 
L 255.011652 77.734864 
L 256.488788 77.003922 
L 257.965923 75.979315 
L 259.443059 75.3023 
L 260.920195 74.24897 
L 262.39733 73.54382 
L 263.874466 72.430116 
L 265.351602 71.76541 
L 266.828737 70.700944 
L 268.305873 70.036238 
L 269.783009 68.984667 
L 271.260144 68.348684 
L 272.73728 67.387381 
L 274.214416 66.735571 
L 275.691552 65.806508 
L 277.168687 65.169938 
L 280.122959 63.087311 
L 281.600094 62.337027 
L 283.07723 61.205738 
L 284.554366 60.499415 
L 286.031501 59.390987 
L 287.508637 58.754417 
L 288.985773 57.883969 
L 290.462908 57.327703 
L 291.940044 56.595003 
L 293.41718 56.091492 
L 294.894315 55.336518 
L 296.371451 54.756219 
L 297.848587 53.709338 
L 299.325722 52.930331 
L 300.802858 51.718152 
L 302.279994 50.910424 
L 303.757129 49.805512 
L 305.234265 49.048779 
L 306.711401 47.996036 
L 308.188536 47.182446 
L 309.665672 45.744596 
L 311.142808 44.700645 
L 312.619943 42.928097 
L 314.097079 41.760466 
L 315.574215 40.123907 
L 317.051351 39.115712 
L 318.528486 37.786887 
L 320.005622 36.973883 
L 321.482758 35.762291 
L 322.959893 34.901808 
L 324.437029 33.440511 
L 325.914165 32.530205 
L 327.3913 31.34792 
L 328.868436 30.545467 
L 330.345572 29.479828 
L 331.822707 29.022037 
L 333.299843 28.346194 
L 334.776979 27.411855 
L 336.254114 24.390201 
L 337.73125 22.318125 
L 337.73125 22.318125 
" clip-path="url(#p76b39a306c)" style="fill: none; stroke: #2ca02c; stroke-width: 2; stroke-linecap: square"/>
   </g>
   <g id="line2d_16">
    <path d="M 43.78125 312.558766 
L 45.258386 306.173725 
L 46.735521 302.02254 
L 49.689793 297.901835 
L 51.166928 296.943464 
L 54.1212 292.949369 
L 55.598335 288.552583 
L 57.075471 285.307601 
L 58.552607 280.635906 
L 60.029742 277.832889 
L 61.506878 274.174665 
L 62.984014 271.774339 
L 64.461149 268.041086 
L 65.938285 265.483084 
L 67.415421 261.379378 
L 68.892557 258.52302 
L 70.369692 254.850728 
L 71.846828 252.596356 
L 73.323964 249.542463 
L 74.801099 247.54776 
L 76.278235 244.802187 
L 77.755371 243.109357 
L 79.232506 240.756511 
L 80.709642 239.360864 
L 82.186778 237.493944 
L 83.663913 236.275904 
L 85.141049 234.430672 
L 86.618185 233.120018 
L 88.09532 230.827546 
L 89.572456 229.143509 
L 91.049592 226.619504 
L 92.526727 224.903227 
L 94.003863 222.508764 
L 95.480999 220.943716 
L 96.958134 218.741513 
L 98.43527 217.292526 
L 99.912406 215.002985 
L 101.389541 213.392803 
L 104.343813 208.419236 
L 105.820948 206.936251 
L 107.298084 204.963823 
L 108.77522 203.799709 
L 110.252356 202.216491 
L 111.729491 201.115682 
L 113.206627 199.517224 
L 114.683763 198.430483 
L 116.160898 196.727102 
L 117.638034 195.480926 
L 119.11517 193.504981 
L 120.592305 192.123988 
L 122.069441 190.025535 
L 123.546577 188.561307 
L 125.023712 186.466371 
L 126.500848 185.080103 
L 127.977984 183.115881 
L 129.455119 181.858568 
L 130.932255 179.973477 
L 132.409391 178.760126 
L 133.886526 176.933065 
L 135.363662 175.812913 
L 136.840798 174.123014 
L 138.317933 173.007552 
L 139.795069 171.491742 
L 141.272205 170.422586 
L 142.74934 168.916155 
L 144.226476 167.856964 
L 145.703612 166.257333 
L 147.180747 165.137181 
L 148.657883 163.367564 
L 150.135019 162.214001 
L 151.612155 160.319532 
L 153.08929 159.05753 
L 154.566426 157.247468 
L 156.043562 156.054046 
L 157.520697 154.452071 
L 158.997833 153.338953 
L 161.952104 150.069352 
L 163.42924 149.068191 
L 164.906376 147.441597 
L 166.383511 146.325548 
L 167.860647 144.604583 
L 169.337783 143.4719 
L 170.814918 141.603318 
L 172.292054 140.284652 
L 173.76919 138.319954 
L 175.246325 136.8969 
L 176.723461 134.730868 
L 178.200597 133.340698 
L 179.677732 131.327759 
L 181.154868 129.967223 
L 182.632004 128.089974 
L 184.109139 126.951033 
L 185.586275 125.410057 
L 187.063411 124.36162 
L 188.540546 123.01111 
L 190.017682 122.12637 
L 191.494818 120.876048 
L 192.971954 120.009313 
L 194.449089 118.700048 
L 195.926225 117.731298 
L 197.403361 116.129157 
L 198.880496 115.049809 
L 200.357632 113.218645 
L 201.834768 111.951954 
L 203.311903 110.079759 
L 204.789039 108.85234 
L 206.266175 107.158337 
L 207.74331 106.136074 
L 209.220446 104.800216 
L 210.697582 104.023554 
L 212.174717 102.935054 
L 213.651853 102.307863 
L 215.128989 101.334251 
L 216.606124 100.670718 
L 218.08326 99.530051 
L 219.560396 98.667223 
L 222.514667 95.841346 
L 223.991803 94.8226 
L 225.468938 93.215349 
L 226.946074 92.16964 
L 228.42321 90.662036 
L 229.900345 89.738834 
L 231.377481 88.500864 
L 232.854617 87.740029 
L 234.331753 86.696664 
L 235.808888 86.067128 
L 237.286024 85.226575 
L 238.76316 84.681446 
L 240.240295 83.823308 
L 241.717431 83.274662 
L 243.194567 82.323324 
L 244.671702 81.612898 
L 246.148838 80.429441 
L 247.625974 79.679156 
L 249.103109 78.400155 
L 250.580245 77.564291 
L 252.057381 76.336872 
L 253.534516 75.553762 
L 255.011652 74.318723 
L 256.488788 73.491651 
L 257.965923 72.210306 
L 259.443059 71.380303 
L 260.920195 70.118887 
L 262.39733 69.328743 
L 263.874466 68.11715 
L 265.351602 67.356901 
L 266.828737 66.172272 
L 268.305873 65.386817 
L 269.783009 64.175811 
L 271.260144 63.342877 
L 272.73728 62.158248 
L 274.214416 61.413825 
L 275.691552 60.426145 
L 277.168687 59.807746 
L 280.122959 58.080333 
L 281.600094 57.479519 
L 283.07723 56.517044 
L 284.554366 55.829478 
L 286.031501 54.772632 
L 287.508637 54.080377 
L 288.985773 53.047563 
L 290.462908 52.409235 
L 291.940044 51.476654 
L 293.41718 50.819569 
L 294.894315 49.630836 
L 296.371451 48.753355 
L 297.848587 47.207651 
L 299.325722 46.093361 
L 300.802858 44.36243 
L 302.279994 43.295619 
L 303.757129 41.996102 
L 305.234265 41.269264 
L 306.711401 40.364233 
L 308.188536 39.802692 
L 309.665672 38.812667 
L 311.142808 38.109862 
L 312.619943 37.054187 
L 314.097079 36.412928 
L 315.574215 35.523137 
L 317.051351 34.88012 
L 318.528486 33.788104 
L 320.005622 33.027268 
L 321.482758 31.905944 
L 322.959893 31.231274 
L 324.437029 30.414753 
L 325.914165 29.965755 
L 327.3913 29.267052 
L 328.868436 28.771747 
L 330.345572 27.918298 
L 331.822707 27.265315 
L 333.299843 26.155128 
L 334.776979 25.396637 
L 336.254114 24.386097 
L 337.73125 22.318125 
L 337.73125 22.318125 
" clip-path="url(#p76b39a306c)" style="fill: none; stroke: #d62728; stroke-width: 2; stroke-linecap: square"/>
   </g>
   <g id="line2d_17">
    <path d="M 43.78125 312.031808 
L 45.258386 307.450968 
L 46.735521 301.286909 
L 48.212657 295.664462 
L 49.689793 289.415411 
L 52.644064 285.785908 
L 54.1212 284.613588 
L 57.075471 280.437784 
L 58.552607 276.441931 
L 60.029742 273.728597 
L 61.506878 270.222188 
L 62.984014 268.150698 
L 64.461149 265.267377 
L 65.938285 263.295535 
L 67.415421 260.266846 
L 68.892557 258.394651 
L 70.369692 255.820236 
L 71.846828 254.132096 
L 73.323964 251.872449 
L 74.801099 250.340227 
L 76.278235 248.004965 
L 77.755371 246.300412 
L 79.232506 243.506773 
L 80.709642 241.55955 
L 82.186778 238.554307 
L 83.663913 236.599464 
L 85.141049 233.847443 
L 86.618185 232.185679 
L 88.09532 229.690982 
L 89.572456 228.098972 
L 91.049592 225.798294 
L 92.526727 224.409094 
L 94.003863 222.141827 
L 95.480999 220.612536 
L 96.958134 218.181144 
L 98.43527 216.519381 
L 99.912406 214.153053 
L 101.389541 212.420364 
L 104.343813 207.427453 
L 105.820948 205.77624 
L 107.298084 203.36595 
L 108.77522 201.827867 
L 110.252356 199.619802 
L 111.729491 198.200122 
L 113.206627 196.181387 
L 114.683763 194.741778 
L 116.160898 192.336764 
L 117.638034 190.660346 
L 119.11517 188.132238 
L 120.592305 186.330382 
L 122.069441 183.658079 
L 123.546577 182.04907 
L 125.023712 179.72729 
L 126.500848 178.255442 
L 127.977984 176.103063 
L 129.455119 174.788306 
L 130.932255 172.820567 
L 132.409391 171.56384 
L 133.886526 169.821186 
L 135.363662 168.737962 
L 136.840798 167.159433 
L 138.317933 166.120172 
L 139.795069 164.719249 
L 141.272205 163.783152 
L 142.74934 162.368748 
L 144.226476 161.37462 
L 145.703612 159.906876 
L 147.180747 158.842995 
L 148.657883 157.355907 
L 150.135019 156.436808 
L 151.612155 155.219354 
L 153.08929 154.411626 
L 154.566426 153.406947 
L 156.043562 152.753379 
L 157.520697 151.826074 
L 158.997833 151.245189 
L 161.952104 149.50488 
L 163.42924 148.965027 
L 164.906376 148.148506 
L 166.383511 147.539486 
L 167.860647 146.620387 
L 169.337783 145.959198 
L 170.814918 144.779845 
L 172.292054 143.909983 
L 173.76919 142.446928 
L 175.246325 141.431112 
L 176.723461 139.668529 
L 178.200597 138.370185 
L 179.677732 136.533159 
L 181.154868 135.340324 
L 182.632004 133.607049 
L 184.109139 132.536721 
L 185.586275 131.044357 
L 187.063411 130.067229 
L 188.540546 128.629378 
L 190.017682 127.665731 
L 191.494818 126.267739 
L 192.971954 125.428358 
L 194.449089 124.054399 
L 195.926225 123.145851 
L 197.403361 121.824647 
L 198.880496 120.966508 
L 200.357632 119.805912 
L 201.834768 119.121863 
L 203.311903 118.098427 
L 204.789039 117.481787 
L 206.266175 116.498797 
L 207.74331 115.796577 
L 209.220446 114.730938 
L 210.697582 113.956621 
L 212.174717 112.555112 
L 213.651853 111.498852 
L 215.128989 109.801919 
L 216.606124 108.644839 
L 218.08326 106.898668 
L 219.560396 105.777344 
L 222.514667 102.845372 
L 223.991803 101.984303 
L 225.468938 100.865323 
L 226.946074 100.153139 
L 228.42321 99.10743 
L 229.900345 98.426898 
L 231.377481 97.449769 
L 232.854617 96.787995 
L 234.331753 95.780385 
L 235.808888 95.053547 
L 237.286024 93.983805 
L 238.76316 93.286861 
L 240.240295 92.22767 
L 241.717431 91.527209 
L 243.194567 90.463914 
L 244.671702 89.823828 
L 246.148838 88.820908 
L 247.625974 88.194303 
L 249.103109 87.200762 
L 250.580245 86.486819 
L 252.057381 85.357288 
L 253.534516 84.49915 
L 255.011652 83.208426 
L 256.488788 82.299292 
L 257.965923 80.933539 
L 259.443059 80.073642 
L 260.920195 78.67272 
L 262.39733 77.707314 
L 263.874466 76.158093 
L 265.351602 75.081904 
L 266.828737 73.39259 
L 268.305873 72.145242 
L 269.783009 70.337525 
L 271.260144 69.092521 
L 272.73728 67.448928 
L 274.214416 66.460662 
L 275.691552 65.093151 
L 277.168687 64.264907 
L 280.122959 62.065048 
L 281.600094 61.400929 
L 283.07723 60.433765 
L 284.554366 59.725098 
L 286.031501 58.643633 
L 287.508637 57.911519 
L 288.985773 56.767334 
L 290.462908 56.027014 
L 291.940044 54.946721 
L 293.41718 54.307807 
L 294.894315 53.388708 
L 296.371451 52.80079 
L 297.848587 51.894586 
L 299.325722 51.263878 
L 300.802858 50.317816 
L 302.279994 49.646663 
L 303.757129 48.516546 
L 305.234265 47.724058 
L 306.711401 46.496639 
L 308.188536 45.637328 
L 309.665672 44.418115 
L 311.142808 43.625627 
L 312.619943 42.459169 
L 314.097079 41.600444 
L 315.574215 40.280412 
L 317.051351 39.294491 
L 318.528486 37.773992 
L 320.005622 36.752315 
L 321.482758 35.313878 
L 322.959893 34.446362 
L 324.437029 33.255284 
L 325.914165 32.538997 
L 328.868436 29.962824 
L 330.345572 27.783481 
L 331.822707 26.449967 
L 333.299843 24.767101 
L 336.254114 23.009208 
L 337.73125 22.318125 
L 337.73125 22.318125 
" clip-path="url(#p76b39a306c)" style="fill: none; stroke: #9467bd; stroke-width: 2; stroke-linecap: square"/>
   </g>
   <g id="line2d_18">
    <path d="M 43.78125 314.218771 
L 45.258386 313.30136 
L 46.735521 311.261234 
L 48.212657 308.549162 
L 49.689793 306.677958 
L 57.075471 299.348797 
L 337.73125 22.318125 
L 337.73125 22.318125 
" clip-path="url(#p76b39a306c)" style="fill: none; stroke: #8c564b; stroke-width: 2; stroke-linecap: square"/>
   </g>
   <g id="line2d_19">
    <path d="M 43.78125 314.958505 
L 45.258386 314.202359 
L 46.735521 313.164855 
L 48.212657 311.353035 
L 52.644064 301.597779 
L 54.1212 297.661679 
L 57.075471 291.761951 
L 58.552607 287.599176 
L 65.938285 268.324352 
L 68.892557 259.102525 
L 70.369692 254.329455 
L 73.323964 243.46283 
L 76.278235 231.330762 
L 79.232506 217.130319 
L 82.186778 202.026943 
L 85.141049 185.471272 
L 86.618185 177.497381 
L 89.572456 163.25317 
L 94.003863 144.762307 
L 96.958134 133.352801 
L 99.912406 123.718915 
L 101.389541 119.934757 
L 102.866677 116.698137 
L 104.343813 114.563892 
L 105.820948 113.015829 
L 107.298084 112.003932 
L 108.77522 111.210411 
L 113.206627 109.33573 
L 158.997833 91.578461 
L 337.73125 22.318125 
L 337.73125 22.318125 
" clip-path="url(#p76b39a306c)" style="fill: none; stroke: #e377c2; stroke-width: 2; stroke-linecap: square"/>
   </g>
   <g id="line2d_20">
    <path d="M 43.78125 315.398125 
L 337.73125 22.318125 
" clip-path="url(#p76b39a306c)" style="fill: none; stroke-dasharray: 3.7,1.6; stroke-dashoffset: 0; stroke: #7f7f7f"/>
   </g>
   <g id="patch_3">
    <path d="M 43.78125 315.398125 
L 43.78125 22.318125 
" style="fill: none; stroke: #000000; stroke-width: 0.8; stroke-linejoin: miter; stroke-linecap: square"/>
   </g>
   <g id="patch_4">
    <path d="M 337.73125 315.398125 
L 337.73125 22.318125 
" style="fill: none; stroke: #000000; stroke-width: 0.8; stroke-linejoin: miter; stroke-linecap: square"/>
   </g>
   <g id="patch_5">
    <path d="M 43.78125 315.398125 
L 337.73125 315.398125 
" style="fill: none; stroke: #000000; stroke-width: 0.8; stroke-linejoin: miter; stroke-linecap: square"/>
   </g>
   <g id="patch_6">
    <path d="M 43.78125 22.318125 
L 337.73125 22.318125 
" style="fill: none; stroke: #000000; stroke-width: 0.8; stroke-linejoin: miter; stroke-linecap: square"/>
   </g>
   <g id="text_15">
    <!-- $s$ = 0.001 -->
    <g transform="translate(161.59625 16.318125) scale(0.12 -0.12)">
     <defs>
      <path id="DejaVuSans-Oblique-73" d="M 3200 3397 
L 3091 2853 
Q 2863 2978 2609 3040 
Q 2356 3103 2088 3103 
Q 1634 3103 1373 2948 
Q 1113 2794 1113 2528 
Q 1113 2219 1719 2053 
Q 1766 2041 1788 2034 
L 1972 1978 
Q 2547 1819 2739 1644 
Q 2931 1469 2931 1166 
Q 2931 609 2489 259 
Q 2047 -91 1331 -91 
Q 1053 -91 747 -37 
Q 441 16 72 128 
L 184 722 
Q 500 559 806 475 
Q 1113 391 1394 391 
Q 1816 391 2080 572 
Q 2344 753 2344 1031 
Q 2344 1331 1650 1516 
L 1591 1531 
L 1394 1581 
Q 956 1697 753 1886 
Q 550 2075 550 2369 
Q 550 2928 970 3256 
Q 1391 3584 2113 3584 
Q 2397 3584 2667 3537 
Q 2938 3491 3200 3397 
z
" transform="scale(0.015625)"/>
      <path id="DejaVuSans-3d" d="M 678 2906 
L 4684 2906 
L 4684 2381 
L 678 2381 
L 678 2906 
z
M 678 1631 
L 4684 1631 
L 4684 1100 
L 678 1100 
L 678 1631 
z
" transform="scale(0.015625)"/>
     </defs>
     <use xlink:href="#DejaVuSans-Oblique-73" transform="translate(0 0.78125)"/>
     <use xlink:href="#DejaVuSans-20" transform="translate(52.099609 0.78125)"/>
     <use xlink:href="#DejaVuSans-3d" transform="translate(83.886719 0.78125)"/>
     <use xlink:href="#DejaVuSans-20" transform="translate(167.675781 0.78125)"/>
     <use xlink:href="#DejaVuSans-30" transform="translate(199.462891 0.78125)"/>
     <use xlink:href="#DejaVuSans-2e" transform="translate(263.085938 0.78125)"/>
     <use xlink:href="#DejaVuSans-30" transform="translate(294.873047 0.78125)"/>
     <use xlink:href="#DejaVuSans-30" transform="translate(358.496094 0.78125)"/>
     <use xlink:href="#DejaVuSans-31" transform="translate(422.119141 0.78125)"/>
    </g>
   </g>
   <g id="legend_1">
    <g id="patch_7">
     <path d="M 209.89125 311.398125 
L 332.13125 311.398125 
Q 333.73125 311.398125 333.73125 309.798125 
L 333.73125 228.383125 
Q 333.73125 226.783125 332.13125 226.783125 
L 209.89125 226.783125 
Q 208.29125 226.783125 208.29125 228.383125 
L 208.29125 309.798125 
Q 208.29125 311.398125 209.89125 311.398125 
z
" style="fill: #ffffff; opacity: 0.8; stroke: #cccccc; stroke-linejoin: miter"/>
    </g>
    <g id="line2d_21">
     <path d="M 211.49125 233.261875 
L 219.49125 233.261875 
L 227.49125 233.261875 
" style="fill: none; stroke: #1f77b4; stroke-width: 2; stroke-linecap: square"/>
    </g>
    <g id="text_16">
     <!-- $D_{anc}$ (mean AUC = 0.57) -->
     <g transform="translate(233.89125 236.061875) scale(0.08 -0.08)">
      <defs>
       <path id="DejaVuSans-Oblique-44" d="M 1081 4666 
L 2438 4666 
Q 3519 4666 4070 4208 
Q 4622 3750 4622 2847 
Q 4622 2250 4412 1698 
Q 4203 1147 3834 769 
Q 3463 381 2891 190 
Q 2319 0 1538 0 
L 172 0 
L 1081 4666 
z
M 1613 4147 
L 909 519 
L 1734 519 
Q 2794 519 3375 1128 
Q 3956 1738 3956 2847 
Q 3956 3519 3581 3833 
Q 3206 4147 2406 4147 
L 1613 4147 
z
" transform="scale(0.015625)"/>
       <path id="DejaVuSans-Oblique-61" d="M 3438 1997 
L 3047 0 
L 2472 0 
L 2578 531 
Q 2325 219 2001 64 
Q 1678 -91 1281 -91 
Q 834 -91 548 182 
Q 263 456 263 884 
Q 263 1497 752 1853 
Q 1241 2209 2100 2209 
L 2900 2209 
L 2931 2363 
Q 2938 2388 2941 2417 
Q 2944 2447 2944 2509 
Q 2944 2788 2717 2942 
Q 2491 3097 2081 3097 
Q 1800 3097 1504 3025 
Q 1209 2953 897 2809 
L 997 3341 
Q 1322 3463 1633 3523 
Q 1944 3584 2234 3584 
Q 2853 3584 3176 3315 
Q 3500 3047 3500 2534 
Q 3500 2431 3484 2292 
Q 3469 2153 3438 1997 
z
M 2816 1759 
L 2241 1759 
Q 1534 1759 1195 1570 
Q 856 1381 856 984 
Q 856 709 1029 553 
Q 1203 397 1509 397 
Q 1978 397 2328 733 
Q 2678 1069 2791 1631 
L 2816 1759 
z
" transform="scale(0.015625)"/>
       <path id="DejaVuSans-Oblique-6e" d="M 3566 2113 
L 3156 0 
L 2578 0 
L 2988 2091 
Q 3016 2238 3031 2350 
Q 3047 2463 3047 2528 
Q 3047 2791 2881 2937 
Q 2716 3084 2419 3084 
Q 1956 3084 1622 2776 
Q 1288 2469 1184 1941 
L 800 0 
L 225 0 
L 903 3500 
L 1478 3500 
L 1363 2950 
Q 1603 3253 1940 3418 
Q 2278 3584 2650 3584 
Q 3113 3584 3367 3334 
Q 3622 3084 3622 2631 
Q 3622 2519 3608 2391 
Q 3594 2263 3566 2113 
z
" transform="scale(0.015625)"/>
       <path id="DejaVuSans-Oblique-63" d="M 3431 3366 
L 3316 2797 
Q 3109 2947 2876 3022 
Q 2644 3097 2394 3097 
Q 2119 3097 1870 3000 
Q 1622 2903 1453 2725 
Q 1184 2453 1037 2087 
Q 891 1722 891 1331 
Q 891 859 1127 628 
Q 1363 397 1844 397 
Q 2081 397 2348 469 
Q 2616 541 2906 684 
L 2797 116 
Q 2547 13 2283 -39 
Q 2019 -91 1741 -91 
Q 1044 -91 669 257 
Q 294 606 294 1253 
Q 294 1797 489 2255 
Q 684 2713 1069 3078 
Q 1331 3328 1684 3456 
Q 2038 3584 2456 3584 
Q 2700 3584 2940 3529 
Q 3181 3475 3431 3366 
z
" transform="scale(0.015625)"/>
       <path id="DejaVuSans-28" d="M 1984 4856 
Q 1566 4138 1362 3434 
Q 1159 2731 1159 2009 
Q 1159 1288 1364 580 
Q 1569 -128 1984 -844 
L 1484 -844 
Q 1016 -109 783 600 
Q 550 1309 550 2009 
Q 550 2706 781 3412 
Q 1013 4119 1484 4856 
L 1984 4856 
z
" transform="scale(0.015625)"/>
       <path id="DejaVuSans-6d" d="M 3328 2828 
Q 3544 3216 3844 3400 
Q 4144 3584 4550 3584 
Q 5097 3584 5394 3201 
Q 5691 2819 5691 2113 
L 5691 0 
L 5113 0 
L 5113 2094 
Q 5113 2597 4934 2840 
Q 4756 3084 4391 3084 
Q 3944 3084 3684 2787 
Q 3425 2491 3425 1978 
L 3425 0 
L 2847 0 
L 2847 2094 
Q 2847 2600 2669 2842 
Q 2491 3084 2119 3084 
Q 1678 3084 1418 2786 
Q 1159 2488 1159 1978 
L 1159 0 
L 581 0 
L 581 3500 
L 1159 3500 
L 1159 2956 
Q 1356 3278 1631 3431 
Q 1906 3584 2284 3584 
Q 2666 3584 2933 3390 
Q 3200 3197 3328 2828 
z
" transform="scale(0.015625)"/>
       <path id="DejaVuSans-6e" d="M 3513 2113 
L 3513 0 
L 2938 0 
L 2938 2094 
Q 2938 2591 2744 2837 
Q 2550 3084 2163 3084 
Q 1697 3084 1428 2787 
Q 1159 2491 1159 1978 
L 1159 0 
L 581 0 
L 581 3500 
L 1159 3500 
L 1159 2956 
Q 1366 3272 1645 3428 
Q 1925 3584 2291 3584 
Q 2894 3584 3203 3211 
Q 3513 2838 3513 2113 
z
" transform="scale(0.015625)"/>
       <path id="DejaVuSans-41" d="M 2188 4044 
L 1331 1722 
L 3047 1722 
L 2188 4044 
z
M 1831 4666 
L 2547 4666 
L 4325 0 
L 3669 0 
L 3244 1197 
L 1141 1197 
L 716 0 
L 50 0 
L 1831 4666 
z
" transform="scale(0.015625)"/>
       <path id="DejaVuSans-55" d="M 556 4666 
L 1191 4666 
L 1191 1831 
Q 1191 1081 1462 751 
Q 1734 422 2344 422 
Q 2950 422 3222 751 
Q 3494 1081 3494 1831 
L 3494 4666 
L 4128 4666 
L 4128 1753 
Q 4128 841 3676 375 
Q 3225 -91 2344 -91 
Q 1459 -91 1007 375 
Q 556 841 556 1753 
L 556 4666 
z
" transform="scale(0.015625)"/>
       <path id="DejaVuSans-43" d="M 4122 4306 
L 4122 3641 
Q 3803 3938 3442 4084 
Q 3081 4231 2675 4231 
Q 1875 4231 1450 3742 
Q 1025 3253 1025 2328 
Q 1025 1406 1450 917 
Q 1875 428 2675 428 
Q 3081 428 3442 575 
Q 3803 722 4122 1019 
L 4122 359 
Q 3791 134 3420 21 
Q 3050 -91 2638 -91 
Q 1578 -91 968 557 
Q 359 1206 359 2328 
Q 359 3453 968 4101 
Q 1578 4750 2638 4750 
Q 3056 4750 3426 4639 
Q 3797 4528 4122 4306 
z
" transform="scale(0.015625)"/>
       <path id="DejaVuSans-35" d="M 691 4666 
L 3169 4666 
L 3169 4134 
L 1269 4134 
L 1269 2991 
Q 1406 3038 1543 3061 
Q 1681 3084 1819 3084 
Q 2600 3084 3056 2656 
Q 3513 2228 3513 1497 
Q 3513 744 3044 326 
Q 2575 -91 1722 -91 
Q 1428 -91 1123 -41 
Q 819 9 494 109 
L 494 744 
Q 775 591 1075 516 
Q 1375 441 1709 441 
Q 2250 441 2565 725 
Q 2881 1009 2881 1497 
Q 2881 1984 2565 2268 
Q 2250 2553 1709 2553 
Q 1456 2553 1204 2497 
Q 953 2441 691 2322 
L 691 4666 
z
" transform="scale(0.015625)"/>
       <path id="DejaVuSans-37" d="M 525 4666 
L 3525 4666 
L 3525 4397 
L 1831 0 
L 1172 0 
L 2766 4134 
L 525 4134 
L 525 4666 
z
" transform="scale(0.015625)"/>
       <path id="DejaVuSans-29" d="M 513 4856 
L 1013 4856 
Q 1481 4119 1714 3412 
Q 1947 2706 1947 2009 
Q 1947 1309 1714 600 
Q 1481 -109 1013 -844 
L 513 -844 
Q 928 -128 1133 580 
Q 1338 1288 1338 2009 
Q 1338 2731 1133 3434 
Q 928 4138 513 4856 
z
" transform="scale(0.015625)"/>
      </defs>
      <use xlink:href="#DejaVuSans-Oblique-44" transform="translate(0 0.125)"/>
      <use xlink:href="#DejaVuSans-Oblique-61" transform="translate(77.001953 -16.28125) scale(0.7)"/>
      <use xlink:href="#DejaVuSans-Oblique-6e" transform="translate(119.897461 -16.28125) scale(0.7)"/>
      <use xlink:href="#DejaVuSans-Oblique-63" transform="translate(164.262695 -16.28125) scale(0.7)"/>
      <use xlink:href="#DejaVuSans-20" transform="translate(205.483398 0.125)"/>
      <use xlink:href="#DejaVuSans-28" transform="translate(237.270508 0.125)"/>
      <use xlink:href="#DejaVuSans-6d" transform="translate(276.28418 0.125)"/>
      <use xlink:href="#DejaVuSans-65" transform="translate(373.696289 0.125)"/>
      <use xlink:href="#DejaVuSans-61" transform="translate(435.219727 0.125)"/>
      <use xlink:href="#DejaVuSans-6e" transform="translate(496.499023 0.125)"/>
      <use xlink:href="#DejaVuSans-20" transform="translate(559.87793 0.125)"/>
      <use xlink:href="#DejaVuSans-41" transform="translate(591.665039 0.125)"/>
      <use xlink:href="#DejaVuSans-55" transform="translate(660.073242 0.125)"/>
      <use xlink:href="#DejaVuSans-43" transform="translate(733.266602 0.125)"/>
      <use xlink:href="#DejaVuSans-20" transform="translate(803.09082 0.125)"/>
      <use xlink:href="#DejaVuSans-3d" transform="translate(834.87793 0.125)"/>
      <use xlink:href="#DejaVuSans-20" transform="translate(918.666992 0.125)"/>
      <use xlink:href="#DejaVuSans-30" transform="translate(950.454102 0.125)"/>
      <use xlink:href="#DejaVuSans-2e" transform="translate(1014.077148 0.125)"/>
      <use xlink:href="#DejaVuSans-35" transform="translate(1045.864258 0.125)"/>
      <use xlink:href="#DejaVuSans-37" transform="translate(1102.237305 0.125)"/>
      <use xlink:href="#DejaVuSans-29" transform="translate(1165.860352 0.125)"/>
     </g>
    </g>
    <g id="line2d_22">
     <path d="M 211.49125 245.021875 
L 219.49125 245.021875 
L 227.49125 245.021875 
" style="fill: none; stroke: #ff7f0e; stroke-width: 2; stroke-linecap: square"/>
    </g>
    <g id="text_17">
     <!-- $D^+$ (mean AUC = 0.60) -->
     <g transform="translate(233.89125 247.821875) scale(0.08 -0.08)">
      <defs>
       <path id="DejaVuSans-2b" d="M 2944 4013 
L 2944 2272 
L 4684 2272 
L 4684 1741 
L 2944 1741 
L 2944 0 
L 2419 0 
L 2419 1741 
L 678 1741 
L 678 2272 
L 2419 2272 
L 2419 4013 
L 2944 4013 
z
" transform="scale(0.015625)"/>
      </defs>
      <use xlink:href="#DejaVuSans-Oblique-44" transform="translate(0 0.826562)"/>
      <use xlink:href="#DejaVuSans-2b" transform="translate(97.656419 39.107812) scale(0.7)"/>
      <use xlink:href="#DejaVuSans-20" transform="translate(172.680833 0.826562)"/>
      <use xlink:href="#DejaVuSans-28" transform="translate(204.467943 0.826562)"/>
      <use xlink:href="#DejaVuSans-6d" transform="translate(243.481615 0.826562)"/>
      <use xlink:href="#DejaVuSans-65" transform="translate(340.893724 0.826562)"/>
      <use xlink:href="#DejaVuSans-61" transform="translate(402.417161 0.826562)"/>
      <use xlink:href="#DejaVuSans-6e" transform="translate(463.696458 0.826562)"/>
      <use xlink:href="#DejaVuSans-20" transform="translate(527.075365 0.826562)"/>
      <use xlink:href="#DejaVuSans-41" transform="translate(558.862474 0.826562)"/>
      <use xlink:href="#DejaVuSans-55" transform="translate(627.270677 0.826562)"/>
      <use xlink:href="#DejaVuSans-43" transform="translate(700.464036 0.826562)"/>
      <use xlink:href="#DejaVuSans-20" transform="translate(770.288255 0.826562)"/>
      <use xlink:href="#DejaVuSans-3d" transform="translate(802.075365 0.826562)"/>
      <use xlink:href="#DejaVuSans-20" transform="translate(885.864427 0.826562)"/>
      <use xlink:href="#DejaVuSans-30" transform="translate(917.651536 0.826562)"/>
      <use xlink:href="#DejaVuSans-2e" transform="translate(981.274583 0.826562)"/>
      <use xlink:href="#DejaVuSans-36" transform="translate(1013.061693 0.826562)"/>
      <use xlink:href="#DejaVuSans-30" transform="translate(1076.68474 0.826562)"/>
      <use xlink:href="#DejaVuSans-29" transform="translate(1140.307786 0.826562)"/>
     </g>
    </g>
    <g id="line2d_23">
     <path d="M 211.49125 256.764375 
L 219.49125 256.764375 
L 227.49125 256.764375 
" style="fill: none; stroke: #2ca02c; stroke-width: 2; stroke-linecap: square"/>
    </g>
    <g id="text_18">
     <!-- $d_f$ (mean AUC = 0.61) -->
     <g transform="translate(233.89125 259.564375) scale(0.08 -0.08)">
      <defs>
       <path id="DejaVuSans-Oblique-64" d="M 2675 525 
Q 2444 222 2128 65 
Q 1813 -91 1428 -91 
Q 903 -91 598 267 
Q 294 625 294 1247 
Q 294 1766 478 2236 
Q 663 2706 1013 3078 
Q 1244 3325 1534 3454 
Q 1825 3584 2144 3584 
Q 2481 3584 2739 3421 
Q 2997 3259 3138 2956 
L 3513 4863 
L 4091 4863 
L 3144 0 
L 2566 0 
L 2675 525 
z
M 891 1350 
Q 891 897 1095 644 
Q 1300 391 1663 391 
Q 1931 391 2161 520 
Q 2391 650 2566 903 
Q 2750 1166 2856 1509 
Q 2963 1853 2963 2188 
Q 2963 2622 2758 2865 
Q 2553 3109 2194 3109 
Q 1922 3109 1687 2981 
Q 1453 2853 1288 2613 
Q 1106 2353 998 2009 
Q 891 1666 891 1350 
z
" transform="scale(0.015625)"/>
       <path id="DejaVuSans-Oblique-66" d="M 3059 4863 
L 2969 4384 
L 2419 4384 
Q 2106 4384 1964 4261 
Q 1822 4138 1753 3809 
L 1691 3500 
L 2638 3500 
L 2553 3053 
L 1606 3053 
L 1013 0 
L 434 0 
L 1031 3053 
L 481 3053 
L 563 3500 
L 1113 3500 
L 1159 3744 
Q 1278 4363 1576 4613 
Q 1875 4863 2516 4863 
L 3059 4863 
z
" transform="scale(0.015625)"/>
      </defs>
      <use xlink:href="#DejaVuSans-Oblique-64" transform="translate(0 0.015625)"/>
      <use xlink:href="#DejaVuSans-Oblique-66" transform="translate(63.476562 -16.390625) scale(0.7)"/>
      <use xlink:href="#DejaVuSans-20" transform="translate(90.854492 0.015625)"/>
      <use xlink:href="#DejaVuSans-28" transform="translate(122.641602 0.015625)"/>
      <use xlink:href="#DejaVuSans-6d" transform="translate(161.655273 0.015625)"/>
      <use xlink:href="#DejaVuSans-65" transform="translate(259.067383 0.015625)"/>
      <use xlink:href="#DejaVuSans-61" transform="translate(320.59082 0.015625)"/>
      <use xlink:href="#DejaVuSans-6e" transform="translate(381.870117 0.015625)"/>
      <use xlink:href="#DejaVuSans-20" transform="translate(445.249023 0.015625)"/>
      <use xlink:href="#DejaVuSans-41" transform="translate(477.036133 0.015625)"/>
      <use xlink:href="#DejaVuSans-55" transform="translate(545.444336 0.015625)"/>
      <use xlink:href="#DejaVuSans-43" transform="translate(618.637695 0.015625)"/>
      <use xlink:href="#DejaVuSans-20" transform="translate(688.461914 0.015625)"/>
      <use xlink:href="#DejaVuSans-3d" transform="translate(720.249023 0.015625)"/>
      <use xlink:href="#DejaVuSans-20" transform="translate(804.038086 0.015625)"/>
      <use xlink:href="#DejaVuSans-30" transform="translate(835.825195 0.015625)"/>
      <use xlink:href="#DejaVuSans-2e" transform="translate(899.448242 0.015625)"/>
      <use xlink:href="#DejaVuSans-36" transform="translate(931.235352 0.015625)"/>
      <use xlink:href="#DejaVuSans-31" transform="translate(994.858398 0.015625)"/>
      <use xlink:href="#DejaVuSans-29" transform="translate(1058.481445 0.015625)"/>
     </g>
    </g>
    <g id="line2d_24">
     <path d="M 211.49125 268.506875 
L 219.49125 268.506875 
L 227.49125 268.506875 
" style="fill: none; stroke: #d62728; stroke-width: 2; stroke-linecap: square"/>
    </g>
    <g id="text_19">
     <!-- $f_d$ (mean AUC = 0.61) -->
     <g transform="translate(233.89125 271.306875) scale(0.08 -0.08)">
      <use xlink:href="#DejaVuSans-Oblique-66" transform="translate(0 0.015625)"/>
      <use xlink:href="#DejaVuSans-Oblique-64" transform="translate(35.205078 -16.390625) scale(0.7)"/>
      <use xlink:href="#DejaVuSans-20" transform="translate(82.373047 0.015625)"/>
      <use xlink:href="#DejaVuSans-28" transform="translate(114.160156 0.015625)"/>
      <use xlink:href="#DejaVuSans-6d" transform="translate(153.173828 0.015625)"/>
      <use xlink:href="#DejaVuSans-65" transform="translate(250.585938 0.015625)"/>
      <use xlink:href="#DejaVuSans-61" transform="translate(312.109375 0.015625)"/>
      <use xlink:href="#DejaVuSans-6e" transform="translate(373.388672 0.015625)"/>
      <use xlink:href="#DejaVuSans-20" transform="translate(436.767578 0.015625)"/>
      <use xlink:href="#DejaVuSans-41" transform="translate(468.554688 0.015625)"/>
      <use xlink:href="#DejaVuSans-55" transform="translate(536.962891 0.015625)"/>
      <use xlink:href="#DejaVuSans-43" transform="translate(610.15625 0.015625)"/>
      <use xlink:href="#DejaVuSans-20" transform="translate(679.980469 0.015625)"/>
      <use xlink:href="#DejaVuSans-3d" transform="translate(711.767578 0.015625)"/>
      <use xlink:href="#DejaVuSans-20" transform="translate(795.556641 0.015625)"/>
      <use xlink:href="#DejaVuSans-30" transform="translate(827.34375 0.015625)"/>
      <use xlink:href="#DejaVuSans-2e" transform="translate(890.966797 0.015625)"/>
      <use xlink:href="#DejaVuSans-36" transform="translate(922.753906 0.015625)"/>
      <use xlink:href="#DejaVuSans-31" transform="translate(986.376953 0.015625)"/>
      <use xlink:href="#DejaVuSans-29" transform="translate(1050 0.015625)"/>
     </g>
    </g>
    <g id="line2d_25">
     <path d="M 211.49125 280.249375 
L 219.49125 280.249375 
L 227.49125 280.249375 
" style="fill: none; stroke: #9467bd; stroke-width: 2; stroke-linecap: square"/>
    </g>
    <g id="text_20">
     <!-- $D_D$ (mean AUC = 0.61) -->
     <g transform="translate(233.89125 283.049375) scale(0.08 -0.08)">
      <use xlink:href="#DejaVuSans-Oblique-44" transform="translate(0 0.125)"/>
      <use xlink:href="#DejaVuSans-Oblique-44" transform="translate(77.001953 -16.28125) scale(0.7)"/>
      <use xlink:href="#DejaVuSans-20" transform="translate(133.637695 0.125)"/>
      <use xlink:href="#DejaVuSans-28" transform="translate(165.424805 0.125)"/>
      <use xlink:href="#DejaVuSans-6d" transform="translate(204.438477 0.125)"/>
      <use xlink:href="#DejaVuSans-65" transform="translate(301.850586 0.125)"/>
      <use xlink:href="#DejaVuSans-61" transform="translate(363.374023 0.125)"/>
      <use xlink:href="#DejaVuSans-6e" transform="translate(424.65332 0.125)"/>
      <use xlink:href="#DejaVuSans-20" transform="translate(488.032227 0.125)"/>
      <use xlink:href="#DejaVuSans-41" transform="translate(519.819336 0.125)"/>
      <use xlink:href="#DejaVuSans-55" transform="translate(588.227539 0.125)"/>
      <use xlink:href="#DejaVuSans-43" transform="translate(661.420898 0.125)"/>
      <use xlink:href="#DejaVuSans-20" transform="translate(731.245117 0.125)"/>
      <use xlink:href="#DejaVuSans-3d" transform="translate(763.032227 0.125)"/>
      <use xlink:href="#DejaVuSans-20" transform="translate(846.821289 0.125)"/>
      <use xlink:href="#DejaVuSans-30" transform="translate(878.608398 0.125)"/>
      <use xlink:href="#DejaVuSans-2e" transform="translate(942.231445 0.125)"/>
      <use xlink:href="#DejaVuSans-36" transform="translate(974.018555 0.125)"/>
      <use xlink:href="#DejaVuSans-31" transform="translate(1037.641602 0.125)"/>
      <use xlink:href="#DejaVuSans-29" transform="translate(1101.264648 0.125)"/>
     </g>
    </g>
    <g id="line2d_26">
     <path d="M 211.49125 291.991875 
L 219.49125 291.991875 
L 227.49125 291.991875 
" style="fill: none; stroke: #8c564b; stroke-width: 2; stroke-linecap: square"/>
    </g>
    <g id="text_21">
     <!-- $U50$ (mean AUC = 0.50) -->
     <g transform="translate(233.89125 294.791875) scale(0.08 -0.08)">
      <defs>
       <path id="DejaVuSans-Oblique-55" d="M 991 4666 
L 1625 4666 
L 1075 1831 
Q 1041 1641 1027 1517 
Q 1013 1394 1013 1300 
Q 1013 869 1253 645 
Q 1494 422 1959 422 
Q 2563 422 2898 753 
Q 3234 1084 3378 1831 
L 3928 4666 
L 4563 4666 
L 4000 1753 
Q 3816 809 3300 359 
Q 2784 -91 1888 -91 
Q 1188 -91 780 261 
Q 372 613 372 1216 
Q 372 1325 387 1461 
Q 403 1597 434 1753 
L 991 4666 
z
" transform="scale(0.015625)"/>
      </defs>
      <use xlink:href="#DejaVuSans-Oblique-55" transform="translate(0 0.125)"/>
      <use xlink:href="#DejaVuSans-35" transform="translate(73.193359 0.125)"/>
      <use xlink:href="#DejaVuSans-30" transform="translate(136.816406 0.125)"/>
      <use xlink:href="#DejaVuSans-20" transform="translate(200.439453 0.125)"/>
      <use xlink:href="#DejaVuSans-28" transform="translate(232.226562 0.125)"/>
      <use xlink:href="#DejaVuSans-6d" transform="translate(271.240234 0.125)"/>
      <use xlink:href="#DejaVuSans-65" transform="translate(368.652344 0.125)"/>
      <use xlink:href="#DejaVuSans-61" transform="translate(430.175781 0.125)"/>
      <use xlink:href="#DejaVuSans-6e" transform="translate(491.455078 0.125)"/>
      <use xlink:href="#DejaVuSans-20" transform="translate(554.833984 0.125)"/>
      <use xlink:href="#DejaVuSans-41" transform="translate(586.621094 0.125)"/>
      <use xlink:href="#DejaVuSans-55" transform="translate(655.029297 0.125)"/>
      <use xlink:href="#DejaVuSans-43" transform="translate(728.222656 0.125)"/>
      <use xlink:href="#DejaVuSans-20" transform="translate(798.046875 0.125)"/>
      <use xlink:href="#DejaVuSans-3d" transform="translate(829.833984 0.125)"/>
      <use xlink:href="#DejaVuSans-20" transform="translate(913.623047 0.125)"/>
      <use xlink:href="#DejaVuSans-30" transform="translate(945.410156 0.125)"/>
      <use xlink:href="#DejaVuSans-2e" transform="translate(1009.033203 0.125)"/>
      <use xlink:href="#DejaVuSans-35" transform="translate(1040.820312 0.125)"/>
      <use xlink:href="#DejaVuSans-30" transform="translate(1104.443359 0.125)"/>
      <use xlink:href="#DejaVuSans-29" transform="translate(1168.066406 0.125)"/>
     </g>
    </g>
    <g id="line2d_27">
     <path d="M 211.49125 303.734375 
L 219.49125 303.734375 
L 227.49125 303.734375 
" style="fill: none; stroke: #e377c2; stroke-width: 2; stroke-linecap: square"/>
    </g>
    <g id="text_22">
     <!-- $Q95$ (mean AUC = 0.73) -->
     <g transform="translate(233.89125 306.534375) scale(0.08 -0.08)">
      <defs>
       <path id="DejaVuSans-Oblique-51" d="M 2309 -84 
Q 2275 -88 2237 -89 
Q 2200 -91 2125 -91 
Q 1250 -91 756 411 
Q 263 913 263 1797 
Q 263 2319 452 2844 
Q 641 3369 978 3788 
Q 1369 4269 1858 4509 
Q 2347 4750 2938 4750 
Q 3794 4750 4287 4245 
Q 4781 3741 4781 2869 
Q 4781 1928 4265 1147 
Q 3750 366 2919 44 
L 3553 -825 
L 2847 -825 
L 2309 -84 
z
M 2919 4238 
Q 2400 4238 2003 3986 
Q 1606 3734 1313 3219 
Q 1125 2891 1026 2522 
Q 928 2153 928 1778 
Q 928 1128 1239 775 
Q 1550 422 2119 422 
Q 2631 422 3032 676 
Q 3434 931 3719 1434 
Q 3909 1772 4009 2142 
Q 4109 2513 4109 2881 
Q 4109 3528 3796 3883 
Q 3484 4238 2919 4238 
z
" transform="scale(0.015625)"/>
       <path id="DejaVuSans-39" d="M 703 97 
L 703 672 
Q 941 559 1184 500 
Q 1428 441 1663 441 
Q 2288 441 2617 861 
Q 2947 1281 2994 2138 
Q 2813 1869 2534 1725 
Q 2256 1581 1919 1581 
Q 1219 1581 811 2004 
Q 403 2428 403 3163 
Q 403 3881 828 4315 
Q 1253 4750 1959 4750 
Q 2769 4750 3195 4129 
Q 3622 3509 3622 2328 
Q 3622 1225 3098 567 
Q 2575 -91 1691 -91 
Q 1453 -91 1209 -44 
Q 966 3 703 97 
z
M 1959 2075 
Q 2384 2075 2632 2365 
Q 2881 2656 2881 3163 
Q 2881 3666 2632 3958 
Q 2384 4250 1959 4250 
Q 1534 4250 1286 3958 
Q 1038 3666 1038 3163 
Q 1038 2656 1286 2365 
Q 1534 2075 1959 2075 
z
" transform="scale(0.015625)"/>
       <path id="DejaVuSans-33" d="M 2597 2516 
Q 3050 2419 3304 2112 
Q 3559 1806 3559 1356 
Q 3559 666 3084 287 
Q 2609 -91 1734 -91 
Q 1441 -91 1130 -33 
Q 819 25 488 141 
L 488 750 
Q 750 597 1062 519 
Q 1375 441 1716 441 
Q 2309 441 2620 675 
Q 2931 909 2931 1356 
Q 2931 1769 2642 2001 
Q 2353 2234 1838 2234 
L 1294 2234 
L 1294 2753 
L 1863 2753 
Q 2328 2753 2575 2939 
Q 2822 3125 2822 3475 
Q 2822 3834 2567 4026 
Q 2313 4219 1838 4219 
Q 1578 4219 1281 4162 
Q 984 4106 628 3988 
L 628 4550 
Q 988 4650 1302 4700 
Q 1616 4750 1894 4750 
Q 2613 4750 3031 4423 
Q 3450 4097 3450 3541 
Q 3450 3153 3228 2886 
Q 3006 2619 2597 2516 
z
" transform="scale(0.015625)"/>
      </defs>
      <use xlink:href="#DejaVuSans-Oblique-51" transform="translate(0 0.125)"/>
      <use xlink:href="#DejaVuSans-39" transform="translate(78.710938 0.125)"/>
      <use xlink:href="#DejaVuSans-35" transform="translate(142.333984 0.125)"/>
      <use xlink:href="#DejaVuSans-20" transform="translate(205.957031 0.125)"/>
      <use xlink:href="#DejaVuSans-28" transform="translate(237.744141 0.125)"/>
      <use xlink:href="#DejaVuSans-6d" transform="translate(276.757812 0.125)"/>
      <use xlink:href="#DejaVuSans-65" transform="translate(374.169922 0.125)"/>
      <use xlink:href="#DejaVuSans-61" transform="translate(435.693359 0.125)"/>
      <use xlink:href="#DejaVuSans-6e" transform="translate(496.972656 0.125)"/>
      <use xlink:href="#DejaVuSans-20" transform="translate(560.351562 0.125)"/>
      <use xlink:href="#DejaVuSans-41" transform="translate(592.138672 0.125)"/>
      <use xlink:href="#DejaVuSans-55" transform="translate(660.546875 0.125)"/>
      <use xlink:href="#DejaVuSans-43" transform="translate(733.740234 0.125)"/>
      <use xlink:href="#DejaVuSans-20" transform="translate(803.564453 0.125)"/>
      <use xlink:href="#DejaVuSans-3d" transform="translate(835.351562 0.125)"/>
      <use xlink:href="#DejaVuSans-20" transform="translate(919.140625 0.125)"/>
      <use xlink:href="#DejaVuSans-30" transform="translate(950.927734 0.125)"/>
      <use xlink:href="#DejaVuSans-2e" transform="translate(1014.550781 0.125)"/>
      <use xlink:href="#DejaVuSans-37" transform="translate(1038.587891 0.125)"/>
      <use xlink:href="#DejaVuSans-33" transform="translate(1102.210938 0.125)"/>
      <use xlink:href="#DejaVuSans-29" transform="translate(1165.833984 0.125)"/>
     </g>
    </g>
   </g>
  </g>
 </g>
 <defs>
  <clipPath id="p76b39a306c">
   <rect x="43.78125" y="22.318125" width="293.95" height="293.08"/>
  </clipPath>
 </defs>
</svg>
