<?xml version="1.0" encoding="utf-8" standalone="no"?>
<!DOCTYPE svg PUBLIC "-//W3C//DTD SVG 1.1//EN"
  "http://www.w3.org/Graphics/SVG/1.1/DTD/svg11.dtd">
<svg xmlns:xlink="http://www.w3.org/1999/xlink" width="352.882812pt" height="352.954375pt" viewBox="0 0 352.882812 352.954375" xmlns="http://www.w3.org/2000/svg" version="1.1">
 <metadata>
  <rdf:RDF xmlns:dc="http://purl.org/dc/elements/1.1/" xmlns:cc="http://creativecommons.org/ns#" xmlns:rdf="http://www.w3.org/1999/02/22-rdf-syntax-ns#">
   <cc:Work>
    <dc:type rdf:resource="http://purl.org/dc/dcmitype/StillImage"/>
    <dc:date>2025-10-30T14:40:49.013589</dc:date>
    <dc:format>image/svg+xml</dc:format>
    <dc:creator>
     <cc:Agent>
      <dc:title>Matplotlib v3.9.1, https://matplotlib.org/</dc:title>
     </cc:Agent>
    </dc:creator>
   </cc:Work>
  </rdf:RDF>
 </metadata>
 <defs>
  <style type="text/css">*{stroke-linejoin: round; stroke-linecap: butt}</style>
 </defs>
 <g id="figure_1">
  <g id="patch_1">
   <path d="M -0 352.954375 
L 352.882812 352.954375 
L 352.882812 0 
L -0 0 
z
" style="fill: #ffffff"/>
  </g>
  <g id="axes_1">
   <g id="patch_2">
    <path d="M 43.78125 315.398125 
L 337.73125 315.398125 
L 337.73125 22.318125 
L 43.78125 22.318125 
z
" style="fill: #ffffff"/>
   </g>
   <g id="matplotlib.axis_1">
    <g id="xtick_1">
     <g id="line2d_1">
      <defs>
       <path id="m94d8c44246" d="M 0 0 
L 0 3.5 
" style="stroke: #000000; stroke-width: 0.8"/>
      </defs>
      <g>
       <use xlink:href="#m94d8c44246" x="43.78125" y="315.398125" style="stroke: #000000; stroke-width: 0.8"/>
      </g>
     </g>
     <g id="text_1">
      <!-- 0.0 -->
      <g transform="translate(35.829688 329.996562) scale(0.1 -0.1)">
       <defs>
        <path id="DejaVuSans-30" d="M 2034 4250 
Q 1547 4250 1301 3770 
Q 1056 3291 1056 2328 
Q 1056 1369 1301 889 
Q 1547 409 2034 409 
Q 2525 409 2770 889 
Q 3016 1369 3016 2328 
Q 3016 3291 2770 3770 
Q 2525 4250 2034 4250 
z
M 2034 4750 
Q 2819 4750 3233 4129 
Q 3647 3509 3647 2328 
Q 3647 1150 3233 529 
Q 2819 -91 2034 -91 
Q 1250 -91 836 529 
Q 422 1150 422 2328 
Q 422 3509 836 4129 
Q 1250 4750 2034 4750 
z
" transform="scale(0.015625)"/>
        <path id="DejaVuSans-2e" d="M 684 794 
L 1344 794 
L 1344 0 
L 684 0 
L 684 794 
z
" transform="scale(0.015625)"/>
       </defs>
       <use xlink:href="#DejaVuSans-30"/>
       <use xlink:href="#DejaVuSans-2e" x="63.623047"/>
       <use xlink:href="#DejaVuSans-30" x="95.410156"/>
      </g>
     </g>
    </g>
    <g id="xtick_2">
     <g id="line2d_2">
      <g>
       <use xlink:href="#m94d8c44246" x="102.57125" y="315.398125" style="stroke: #000000; stroke-width: 0.8"/>
      </g>
     </g>
     <g id="text_2">
      <!-- 0.2 -->
      <g transform="translate(94.619688 329.996562) scale(0.1 -0.1)">
       <defs>
        <path id="DejaVuSans-32" d="M 1228 531 
L 3431 531 
L 3431 0 
L 469 0 
L 469 531 
Q 828 903 1448 1529 
Q 2069 2156 2228 2338 
Q 2531 2678 2651 2914 
Q 2772 3150 2772 3378 
Q 2772 3750 2511 3984 
Q 2250 4219 1831 4219 
Q 1534 4219 1204 4116 
Q 875 4013 500 3803 
L 500 4441 
Q 881 4594 1212 4672 
Q 1544 4750 1819 4750 
Q 2544 4750 2975 4387 
Q 3406 4025 3406 3419 
Q 3406 3131 3298 2873 
Q 3191 2616 2906 2266 
Q 2828 2175 2409 1742 
Q 1991 1309 1228 531 
z
" transform="scale(0.015625)"/>
       </defs>
       <use xlink:href="#DejaVuSans-30"/>
       <use xlink:href="#DejaVuSans-2e" x="63.623047"/>
       <use xlink:href="#DejaVuSans-32" x="95.410156"/>
      </g>
     </g>
    </g>
    <g id="xtick_3">
     <g id="line2d_3">
      <g>
       <use xlink:href="#m94d8c44246" x="161.36125" y="315.398125" style="stroke: #000000; stroke-width: 0.8"/>
      </g>
     </g>
     <g id="text_3">
      <!-- 0.4 -->
      <g transform="translate(153.409688 329.996562) scale(0.1 -0.1)">
       <defs>
        <path id="DejaVuSans-34" d="M 2419 4116 
L 825 1625 
L 2419 1625 
L 2419 4116 
z
M 2253 4666 
L 3047 4666 
L 3047 1625 
L 3713 1625 
L 3713 1100 
L 3047 1100 
L 3047 0 
L 2419 0 
L 2419 1100 
L 313 1100 
L 313 1709 
L 2253 4666 
z
" transform="scale(0.015625)"/>
       </defs>
       <use xlink:href="#DejaVuSans-30"/>
       <use xlink:href="#DejaVuSans-2e" x="63.623047"/>
       <use xlink:href="#DejaVuSans-34" x="95.410156"/>
      </g>
     </g>
    </g>
    <g id="xtick_4">
     <g id="line2d_4">
      <g>
       <use xlink:href="#m94d8c44246" x="220.15125" y="315.398125" style="stroke: #000000; stroke-width: 0.8"/>
      </g>
     </g>
     <g id="text_4">
      <!-- 0.6 -->
      <g transform="translate(212.199688 329.996562) scale(0.1 -0.1)">
       <defs>
        <path id="DejaVuSans-36" d="M 2113 2584 
Q 1688 2584 1439 2293 
Q 1191 2003 1191 1497 
Q 1191 994 1439 701 
Q 1688 409 2113 409 
Q 2538 409 2786 701 
Q 3034 994 3034 1497 
Q 3034 2003 2786 2293 
Q 2538 2584 2113 2584 
z
M 3366 4563 
L 3366 3988 
Q 3128 4100 2886 4159 
Q 2644 4219 2406 4219 
Q 1781 4219 1451 3797 
Q 1122 3375 1075 2522 
Q 1259 2794 1537 2939 
Q 1816 3084 2150 3084 
Q 2853 3084 3261 2657 
Q 3669 2231 3669 1497 
Q 3669 778 3244 343 
Q 2819 -91 2113 -91 
Q 1303 -91 875 529 
Q 447 1150 447 2328 
Q 447 3434 972 4092 
Q 1497 4750 2381 4750 
Q 2619 4750 2861 4703 
Q 3103 4656 3366 4563 
z
" transform="scale(0.015625)"/>
       </defs>
       <use xlink:href="#DejaVuSans-30"/>
       <use xlink:href="#DejaVuSans-2e" x="63.623047"/>
       <use xlink:href="#DejaVuSans-36" x="95.410156"/>
      </g>
     </g>
    </g>
    <g id="xtick_5">
     <g id="line2d_5">
      <g>
       <use xlink:href="#m94d8c44246" x="278.94125" y="315.398125" style="stroke: #000000; stroke-width: 0.8"/>
      </g>
     </g>
     <g id="text_5">
      <!-- 0.8 -->
      <g transform="translate(270.989688 329.996562) scale(0.1 -0.1)">
       <defs>
        <path id="DejaVuSans-38" d="M 2034 2216 
Q 1584 2216 1326 1975 
Q 1069 1734 1069 1313 
Q 1069 891 1326 650 
Q 1584 409 2034 409 
Q 2484 409 2743 651 
Q 3003 894 3003 1313 
Q 3003 1734 2745 1975 
Q 2488 2216 2034 2216 
z
M 1403 2484 
Q 997 2584 770 2862 
Q 544 3141 544 3541 
Q 544 4100 942 4425 
Q 1341 4750 2034 4750 
Q 2731 4750 3128 4425 
Q 3525 4100 3525 3541 
Q 3525 3141 3298 2862 
Q 3072 2584 2669 2484 
Q 3125 2378 3379 2068 
Q 3634 1759 3634 1313 
Q 3634 634 3220 271 
Q 2806 -91 2034 -91 
Q 1263 -91 848 271 
Q 434 634 434 1313 
Q 434 1759 690 2068 
Q 947 2378 1403 2484 
z
M 1172 3481 
Q 1172 3119 1398 2916 
Q 1625 2713 2034 2713 
Q 2441 2713 2670 2916 
Q 2900 3119 2900 3481 
Q 2900 3844 2670 4047 
Q 2441 4250 2034 4250 
Q 1625 4250 1398 4047 
Q 1172 3844 1172 3481 
z
" transform="scale(0.015625)"/>
       </defs>
       <use xlink:href="#DejaVuSans-30"/>
       <use xlink:href="#DejaVuSans-2e" x="63.623047"/>
       <use xlink:href="#DejaVuSans-38" x="95.410156"/>
      </g>
     </g>
    </g>
    <g id="xtick_6">
     <g id="line2d_6">
      <g>
       <use xlink:href="#m94d8c44246" x="337.73125" y="315.398125" style="stroke: #000000; stroke-width: 0.8"/>
      </g>
     </g>
     <g id="text_6">
      <!-- 1.0 -->
      <g transform="translate(329.779687 329.996562) scale(0.1 -0.1)">
       <defs>
        <path id="DejaVuSans-31" d="M 794 531 
L 1825 531 
L 1825 4091 
L 703 3866 
L 703 4441 
L 1819 4666 
L 2450 4666 
L 2450 531 
L 3481 531 
L 3481 0 
L 794 0 
L 794 531 
z
" transform="scale(0.015625)"/>
       </defs>
       <use xlink:href="#DejaVuSans-31"/>
       <use xlink:href="#DejaVuSans-2e" x="63.623047"/>
       <use xlink:href="#DejaVuSans-30" x="95.410156"/>
      </g>
     </g>
    </g>
    <g id="text_7">
     <!-- False Positive Rate -->
     <g transform="translate(144.289844 343.674687) scale(0.1 -0.1)">
      <defs>
       <path id="DejaVuSans-46" d="M 628 4666 
L 3309 4666 
L 3309 4134 
L 1259 4134 
L 1259 2759 
L 3109 2759 
L 3109 2228 
L 1259 2228 
L 1259 0 
L 628 0 
L 628 4666 
z
" transform="scale(0.015625)"/>
       <path id="DejaVuSans-61" d="M 2194 1759 
Q 1497 1759 1228 1600 
Q 959 1441 959 1056 
Q 959 750 1161 570 
Q 1363 391 1709 391 
Q 2188 391 2477 730 
Q 2766 1069 2766 1631 
L 2766 1759 
L 2194 1759 
z
M 3341 1997 
L 3341 0 
L 2766 0 
L 2766 531 
Q 2569 213 2275 61 
Q 1981 -91 1556 -91 
Q 1019 -91 701 211 
Q 384 513 384 1019 
Q 384 1609 779 1909 
Q 1175 2209 1959 2209 
L 2766 2209 
L 2766 2266 
Q 2766 2663 2505 2880 
Q 2244 3097 1772 3097 
Q 1472 3097 1187 3025 
Q 903 2953 641 2809 
L 641 3341 
Q 956 3463 1253 3523 
Q 1550 3584 1831 3584 
Q 2591 3584 2966 3190 
Q 3341 2797 3341 1997 
z
" transform="scale(0.015625)"/>
       <path id="DejaVuSans-6c" d="M 603 4863 
L 1178 4863 
L 1178 0 
L 603 0 
L 603 4863 
z
" transform="scale(0.015625)"/>
       <path id="DejaVuSans-73" d="M 2834 3397 
L 2834 2853 
Q 2591 2978 2328 3040 
Q 2066 3103 1784 3103 
Q 1356 3103 1142 2972 
Q 928 2841 928 2578 
Q 928 2378 1081 2264 
Q 1234 2150 1697 2047 
L 1894 2003 
Q 2506 1872 2764 1633 
Q 3022 1394 3022 966 
Q 3022 478 2636 193 
Q 2250 -91 1575 -91 
Q 1294 -91 989 -36 
Q 684 19 347 128 
L 347 722 
Q 666 556 975 473 
Q 1284 391 1588 391 
Q 1994 391 2212 530 
Q 2431 669 2431 922 
Q 2431 1156 2273 1281 
Q 2116 1406 1581 1522 
L 1381 1569 
Q 847 1681 609 1914 
Q 372 2147 372 2553 
Q 372 3047 722 3315 
Q 1072 3584 1716 3584 
Q 2034 3584 2315 3537 
Q 2597 3491 2834 3397 
z
" transform="scale(0.015625)"/>
       <path id="DejaVuSans-65" d="M 3597 1894 
L 3597 1613 
L 953 1613 
Q 991 1019 1311 708 
Q 1631 397 2203 397 
Q 2534 397 2845 478 
Q 3156 559 3463 722 
L 3463 178 
Q 3153 47 2828 -22 
Q 2503 -91 2169 -91 
Q 1331 -91 842 396 
Q 353 884 353 1716 
Q 353 2575 817 3079 
Q 1281 3584 2069 3584 
Q 2775 3584 3186 3129 
Q 3597 2675 3597 1894 
z
M 3022 2063 
Q 3016 2534 2758 2815 
Q 2500 3097 2075 3097 
Q 1594 3097 1305 2825 
Q 1016 2553 972 2059 
L 3022 2063 
z
" transform="scale(0.015625)"/>
       <path id="DejaVuSans-20" transform="scale(0.015625)"/>
       <path id="DejaVuSans-50" d="M 1259 4147 
L 1259 2394 
L 2053 2394 
Q 2494 2394 2734 2622 
Q 2975 2850 2975 3272 
Q 2975 3691 2734 3919 
Q 2494 4147 2053 4147 
L 1259 4147 
z
M 628 4666 
L 2053 4666 
Q 2838 4666 3239 4311 
Q 3641 3956 3641 3272 
Q 3641 2581 3239 2228 
Q 2838 1875 2053 1875 
L 1259 1875 
L 1259 0 
L 628 0 
L 628 4666 
z
" transform="scale(0.015625)"/>
       <path id="DejaVuSans-6f" d="M 1959 3097 
Q 1497 3097 1228 2736 
Q 959 2375 959 1747 
Q 959 1119 1226 758 
Q 1494 397 1959 397 
Q 2419 397 2687 759 
Q 2956 1122 2956 1747 
Q 2956 2369 2687 2733 
Q 2419 3097 1959 3097 
z
M 1959 3584 
Q 2709 3584 3137 3096 
Q 3566 2609 3566 1747 
Q 3566 888 3137 398 
Q 2709 -91 1959 -91 
Q 1206 -91 779 398 
Q 353 888 353 1747 
Q 353 2609 779 3096 
Q 1206 3584 1959 3584 
z
" transform="scale(0.015625)"/>
       <path id="DejaVuSans-69" d="M 603 3500 
L 1178 3500 
L 1178 0 
L 603 0 
L 603 3500 
z
M 603 4863 
L 1178 4863 
L 1178 4134 
L 603 4134 
L 603 4863 
z
" transform="scale(0.015625)"/>
       <path id="DejaVuSans-74" d="M 1172 4494 
L 1172 3500 
L 2356 3500 
L 2356 3053 
L 1172 3053 
L 1172 1153 
Q 1172 725 1289 603 
Q 1406 481 1766 481 
L 2356 481 
L 2356 0 
L 1766 0 
Q 1100 0 847 248 
Q 594 497 594 1153 
L 594 3053 
L 172 3053 
L 172 3500 
L 594 3500 
L 594 4494 
L 1172 4494 
z
" transform="scale(0.015625)"/>
       <path id="DejaVuSans-76" d="M 191 3500 
L 800 3500 
L 1894 563 
L 2988 3500 
L 3597 3500 
L 2284 0 
L 1503 0 
L 191 3500 
z
" transform="scale(0.015625)"/>
       <path id="DejaVuSans-52" d="M 2841 2188 
Q 3044 2119 3236 1894 
Q 3428 1669 3622 1275 
L 4263 0 
L 3584 0 
L 2988 1197 
Q 2756 1666 2539 1819 
Q 2322 1972 1947 1972 
L 1259 1972 
L 1259 0 
L 628 0 
L 628 4666 
L 2053 4666 
Q 2853 4666 3247 4331 
Q 3641 3997 3641 3322 
Q 3641 2881 3436 2590 
Q 3231 2300 2841 2188 
z
M 1259 4147 
L 1259 2491 
L 2053 2491 
Q 2509 2491 2742 2702 
Q 2975 2913 2975 3322 
Q 2975 3731 2742 3939 
Q 2509 4147 2053 4147 
L 1259 4147 
z
" transform="scale(0.015625)"/>
      </defs>
      <use xlink:href="#DejaVuSans-46"/>
      <use xlink:href="#DejaVuSans-61" x="48.394531"/>
      <use xlink:href="#DejaVuSans-6c" x="109.673828"/>
      <use xlink:href="#DejaVuSans-73" x="137.457031"/>
      <use xlink:href="#DejaVuSans-65" x="189.556641"/>
      <use xlink:href="#DejaVuSans-20" x="251.080078"/>
      <use xlink:href="#DejaVuSans-50" x="282.867188"/>
      <use xlink:href="#DejaVuSans-6f" x="339.544922"/>
      <use xlink:href="#DejaVuSans-73" x="400.726562"/>
      <use xlink:href="#DejaVuSans-69" x="452.826172"/>
      <use xlink:href="#DejaVuSans-74" x="480.609375"/>
      <use xlink:href="#DejaVuSans-69" x="519.818359"/>
      <use xlink:href="#DejaVuSans-76" x="547.601562"/>
      <use xlink:href="#DejaVuSans-65" x="606.78125"/>
      <use xlink:href="#DejaVuSans-20" x="668.304688"/>
      <use xlink:href="#DejaVuSans-52" x="700.091797"/>
      <use xlink:href="#DejaVuSans-61" x="767.324219"/>
      <use xlink:href="#DejaVuSans-74" x="828.603516"/>
      <use xlink:href="#DejaVuSans-65" x="867.8125"/>
     </g>
    </g>
   </g>
   <g id="matplotlib.axis_2">
    <g id="ytick_1">
     <g id="line2d_7">
      <defs>
       <path id="mf950ff1262" d="M 0 0 
L -3.5 0 
" style="stroke: #000000; stroke-width: 0.8"/>
      </defs>
      <g>
       <use xlink:href="#mf950ff1262" x="43.78125" y="315.398125" style="stroke: #000000; stroke-width: 0.8"/>
      </g>
     </g>
     <g id="text_8">
      <!-- 0.0 -->
      <g transform="translate(20.878125 319.197344) scale(0.1 -0.1)">
       <use xlink:href="#DejaVuSans-30"/>
       <use xlink:href="#DejaVuSans-2e" x="63.623047"/>
       <use xlink:href="#DejaVuSans-30" x="95.410156"/>
      </g>
     </g>
    </g>
    <g id="ytick_2">
     <g id="line2d_8">
      <g>
       <use xlink:href="#mf950ff1262" x="43.78125" y="256.782125" style="stroke: #000000; stroke-width: 0.8"/>
      </g>
     </g>
     <g id="text_9">
      <!-- 0.2 -->
      <g transform="translate(20.878125 260.581344) scale(0.1 -0.1)">
       <use xlink:href="#DejaVuSans-30"/>
       <use xlink:href="#DejaVuSans-2e" x="63.623047"/>
       <use xlink:href="#DejaVuSans-32" x="95.410156"/>
      </g>
     </g>
    </g>
    <g id="ytick_3">
     <g id="line2d_9">
      <g>
       <use xlink:href="#mf950ff1262" x="43.78125" y="198.166125" style="stroke: #000000; stroke-width: 0.8"/>
      </g>
     </g>
     <g id="text_10">
      <!-- 0.4 -->
      <g transform="translate(20.878125 201.965344) scale(0.1 -0.1)">
       <use xlink:href="#DejaVuSans-30"/>
       <use xlink:href="#DejaVuSans-2e" x="63.623047"/>
       <use xlink:href="#DejaVuSans-34" x="95.410156"/>
      </g>
     </g>
    </g>
    <g id="ytick_4">
     <g id="line2d_10">
      <g>
       <use xlink:href="#mf950ff1262" x="43.78125" y="139.550125" style="stroke: #000000; stroke-width: 0.8"/>
      </g>
     </g>
     <g id="text_11">
      <!-- 0.6 -->
      <g transform="translate(20.878125 143.349344) scale(0.1 -0.1)">
       <use xlink:href="#DejaVuSans-30"/>
       <use xlink:href="#DejaVuSans-2e" x="63.623047"/>
       <use xlink:href="#DejaVuSans-36" x="95.410156"/>
      </g>
     </g>
    </g>
    <g id="ytick_5">
     <g id="line2d_11">
      <g>
       <use xlink:href="#mf950ff1262" x="43.78125" y="80.934125" style="stroke: #000000; stroke-width: 0.8"/>
      </g>
     </g>
     <g id="text_12">
      <!-- 0.8 -->
      <g transform="translate(20.878125 84.733344) scale(0.1 -0.1)">
       <use xlink:href="#DejaVuSans-30"/>
       <use xlink:href="#DejaVuSans-2e" x="63.623047"/>
       <use xlink:href="#DejaVuSans-38" x="95.410156"/>
      </g>
     </g>
    </g>
    <g id="ytick_6">
     <g id="line2d_12">
      <g>
       <use xlink:href="#mf950ff1262" x="43.78125" y="22.318125" style="stroke: #000000; stroke-width: 0.8"/>
      </g>
     </g>
     <g id="text_13">
      <!-- 1.0 -->
      <g transform="translate(20.878125 26.117344) scale(0.1 -0.1)">
       <use xlink:href="#DejaVuSans-31"/>
       <use xlink:href="#DejaVuSans-2e" x="63.623047"/>
       <use xlink:href="#DejaVuSans-30" x="95.410156"/>
      </g>
     </g>
    </g>
    <g id="text_14">
     <!-- True Positive Rate -->
     <g transform="translate(14.798438 213.387812) rotate(-90) scale(0.1 -0.1)">
      <defs>
       <path id="DejaVuSans-54" d="M -19 4666 
L 3928 4666 
L 3928 4134 
L 2272 4134 
L 2272 0 
L 1638 0 
L 1638 4134 
L -19 4134 
L -19 4666 
z
" transform="scale(0.015625)"/>
       <path id="DejaVuSans-72" d="M 2631 2963 
Q 2534 3019 2420 3045 
Q 2306 3072 2169 3072 
Q 1681 3072 1420 2755 
Q 1159 2438 1159 1844 
L 1159 0 
L 581 0 
L 581 3500 
L 1159 3500 
L 1159 2956 
Q 1341 3275 1631 3429 
Q 1922 3584 2338 3584 
Q 2397 3584 2469 3576 
Q 2541 3569 2628 3553 
L 2631 2963 
z
" transform="scale(0.015625)"/>
       <path id="DejaVuSans-75" d="M 544 1381 
L 544 3500 
L 1119 3500 
L 1119 1403 
Q 1119 906 1312 657 
Q 1506 409 1894 409 
Q 2359 409 2629 706 
Q 2900 1003 2900 1516 
L 2900 3500 
L 3475 3500 
L 3475 0 
L 2900 0 
L 2900 538 
Q 2691 219 2414 64 
Q 2138 -91 1772 -91 
Q 1169 -91 856 284 
Q 544 659 544 1381 
z
M 1991 3584 
L 1991 3584 
z
" transform="scale(0.015625)"/>
      </defs>
      <use xlink:href="#DejaVuSans-54"/>
      <use xlink:href="#DejaVuSans-72" x="46.333984"/>
      <use xlink:href="#DejaVuSans-75" x="87.447266"/>
      <use xlink:href="#DejaVuSans-65" x="150.826172"/>
      <use xlink:href="#DejaVuSans-20" x="212.349609"/>
      <use xlink:href="#DejaVuSans-50" x="244.136719"/>
      <use xlink:href="#DejaVuSans-6f" x="300.814453"/>
      <use xlink:href="#DejaVuSans-73" x="361.996094"/>
      <use xlink:href="#DejaVuSans-69" x="414.095703"/>
      <use xlink:href="#DejaVuSans-74" x="441.878906"/>
      <use xlink:href="#DejaVuSans-69" x="481.087891"/>
      <use xlink:href="#DejaVuSans-76" x="508.871094"/>
      <use xlink:href="#DejaVuSans-65" x="568.050781"/>
      <use xlink:href="#DejaVuSans-20" x="629.574219"/>
      <use xlink:href="#DejaVuSans-52" x="661.361328"/>
      <use xlink:href="#DejaVuSans-61" x="728.59375"/>
      <use xlink:href="#DejaVuSans-74" x="789.873047"/>
      <use xlink:href="#DejaVuSans-65" x="829.082031"/>
     </g>
    </g>
   </g>
   <g id="line2d_13">
    <path d="M 43.78125 145.017239 
L 45.258386 85.34791 
L 46.735521 60.450764 
L 48.212657 55.69642 
L 49.689793 52.682971 
L 51.166928 51.219916 
L 52.644064 49.455575 
L 54.1212 48.564611 
L 55.598335 47.459114 
L 57.075471 46.540601 
L 58.552607 44.827255 
L 60.029742 43.629144 
L 61.506878 41.993172 
L 62.984014 40.983218 
L 64.461149 39.639739 
L 65.938285 38.966827 
L 67.415421 38.170236 
L 73.323964 36.595224 
L 77.755371 35.996169 
L 82.186778 35.697227 
L 86.618185 35.438144 
L 92.526727 34.996766 
L 98.43527 34.527252 
L 101.389541 34.259377 
L 105.820948 33.911197 
L 114.683763 33.364896 
L 122.069441 32.40418 
L 127.977984 31.940528 
L 132.409391 31.710753 
L 141.272205 30.881336 
L 144.226476 30.588843 
L 148.657883 30.319795 
L 160.474969 29.837972 
L 167.860647 29.2735 
L 173.76919 28.873152 
L 185.586275 28.112317 
L 194.449089 27.846786 
L 204.789039 27.681489 
L 215.128989 27.124637 
L 232.854617 26.220778 
L 238.76316 26.12289 
L 250.580245 26.010933 
L 259.443059 25.528523 
L 266.828737 24.966982 
L 287.508637 24.065468 
L 308.188536 23.512719 
L 320.005622 23.39197 
L 328.868436 22.678613 
L 334.776979 22.45939 
L 336.254114 22.326917 
L 337.73125 22.318125 
L 337.73125 22.318125 
" clip-path="url(#p85f4afb877)" style="fill: none; stroke: #1f77b4; stroke-width: 2; stroke-linecap: square"/>
   </g>
   <g id="line2d_14">
    <path d="M 43.78125 91.456869 
L 45.258386 47.567553 
L 46.735521 36.922301 
L 48.212657 34.631588 
L 49.689793 32.9751 
L 52.644064 32.319187 
L 54.1212 32.11872 
L 57.075471 31.567144 
L 58.552607 31.376055 
L 71.846828 31.073597 
L 95.480999 30.99681 
L 104.343813 30.780517 
L 114.683763 30.67325 
L 120.592305 30.36024 
L 132.409391 29.097652 
L 136.840798 28.941147 
L 144.226476 28.683823 
L 148.657883 28.502113 
L 172.292054 28.099421 
L 185.586275 27.986292 
L 192.971954 27.738933 
L 204.789039 27.122292 
L 215.128989 26.369663 
L 235.808888 25.287612 
L 244.671702 24.853853 
L 252.057381 24.417164 
L 260.920195 24.108844 
L 274.214416 23.825729 
L 290.462908 23.503927 
L 311.142808 23.430071 
L 320.005622 22.90194 
L 322.959893 22.586586 
L 325.914165 22.362673 
L 331.822707 22.318125 
L 337.73125 22.318125 
L 337.73125 22.318125 
" clip-path="url(#p85f4afb877)" style="fill: none; stroke: #ff7f0e; stroke-width: 2; stroke-linecap: square"/>
   </g>
   <g id="line2d_15">
    <path d="M 43.78125 40.497291 
L 45.258386 34.173211 
L 46.735521 31.874878 
L 48.212657 31.242411 
L 49.689793 31.023187 
L 52.644064 30.757071 
L 60.029742 30.170911 
L 64.461149 30.068919 
L 67.415421 29.811594 
L 71.846828 29.602921 
L 89.572456 29.352631 
L 96.958134 29.284637 
L 104.343813 29.159785 
L 114.683763 28.998004 
L 133.886526 28.886048 
L 144.226476 28.619345 
L 151.612155 28.423568 
L 158.997833 28.231307 
L 175.246325 27.426607 
L 188.540546 26.09525 
L 212.174717 24.785272 
L 223.991803 24.667454 
L 234.331753 24.532051 
L 246.148838 24.390787 
L 268.305873 24.303449 
L 277.168687 24.10943 
L 293.41718 23.925962 
L 315.574215 22.589517 
L 327.3913 22.318125 
L 337.73125 22.318125 
L 337.73125 22.318125 
" clip-path="url(#p85f4afb877)" style="fill: none; stroke: #2ca02c; stroke-width: 2; stroke-linecap: square"/>
   </g>
   <g id="line2d_16">
    <path d="M 43.78125 40.565872 
L 45.258386 34.69079 
L 46.735521 33.093504 
L 54.1212 31.392468 
L 55.598335 31.136316 
L 62.984014 30.886612 
L 70.369692 29.722498 
L 74.801099 29.593543 
L 85.141049 29.486862 
L 96.958134 29.290498 
L 105.820948 29.20785 
L 114.683763 29.014417 
L 133.886526 28.99566 
L 147.180747 28.889565 
L 153.08929 28.516181 
L 156.043562 28.241858 
L 161.952104 27.898954 
L 172.292054 27.622645 
L 181.154868 26.836471 
L 185.586275 26.322931 
L 194.449089 25.687749 
L 204.789039 25.124073 
L 210.697582 24.820442 
L 219.560396 24.658076 
L 244.671702 24.389614 
L 260.920195 24.301104 
L 280.122959 23.81635 
L 284.554366 23.570163 
L 288.985773 23.294081 
L 296.371451 23.215536 
L 306.711401 23.113544 
L 311.142808 22.842152 
L 315.574215 22.536177 
L 322.959893 22.319883 
L 337.73125 22.318125 
L 337.73125 22.318125 
" clip-path="url(#p85f4afb877)" style="fill: none; stroke: #d62728; stroke-width: 2; stroke-linecap: square"/>
   </g>
   <g id="line2d_17">
    <path d="M 43.78125 62.294823 
L 45.258386 36.880684 
L 46.735521 34.510253 
L 49.689793 32.248848 
L 51.166928 31.781092 
L 52.644064 31.429982 
L 60.029742 31.088837 
L 74.801099 30.874303 
L 79.232506 30.779931 
L 98.43527 30.699041 
L 116.160898 29.89776 
L 126.500848 29.755323 
L 132.409391 29.333874 
L 136.840798 28.922976 
L 142.74934 28.689684 
L 153.08929 28.438808 
L 167.860647 28.106455 
L 187.063411 27.993912 
L 192.971954 27.630493 
L 200.357632 26.816317 
L 207.74331 26.421245 
L 229.900345 25.629343 
L 240.240295 25.046114 
L 249.103109 24.746 
L 253.534516 24.463471 
L 257.965923 24.16746 
L 271.260144 23.63464 
L 280.122959 23.348594 
L 291.940044 23.213777 
L 312.619943 23.144611 
L 321.482758 22.916594 
L 325.914165 22.888459 
L 334.776979 22.318125 
L 337.73125 22.318125 
L 337.73125 22.318125 
" clip-path="url(#p85f4afb877)" style="fill: none; stroke: #9467bd; stroke-width: 2; stroke-linecap: square"/>
   </g>
   <g id="line2d_18">
    <path d="M 43.78125 76.04262 
L 45.258386 42.333343 
L 46.735521 34.61145 
L 48.212657 31.243039 
L 49.689793 30.009945 
L 51.166928 29.814139 
L 110.252356 28.266334 
L 337.73125 22.318125 
L 337.73125 22.318125 
" clip-path="url(#p85f4afb877)" style="fill: none; stroke: #8c564b; stroke-width: 2; stroke-linecap: square"/>
   </g>
   <g id="line2d_19">
    <path d="M 43.78125 37.765199 
L 45.258386 30.820962 
L 46.735521 30.095882 
L 49.689793 29.325727 
L 52.644064 29.056564 
L 57.075471 28.991557 
L 62.984014 28.877842 
L 76.278235 28.256512 
L 94.003863 27.549685 
L 104.343813 27.010275 
L 114.683763 26.77143 
L 337.73125 22.318125 
L 337.73125 22.318125 
" clip-path="url(#p85f4afb877)" style="fill: none; stroke: #e377c2; stroke-width: 2; stroke-linecap: square"/>
   </g>
   <g id="line2d_20">
    <path d="M 43.78125 315.398125 
L 337.73125 22.318125 
" clip-path="url(#p85f4afb877)" style="fill: none; stroke-dasharray: 3.7,1.6; stroke-dashoffset: 0; stroke: #7f7f7f"/>
   </g>
   <g id="patch_3">
    <path d="M 43.78125 315.398125 
L 43.78125 22.318125 
" style="fill: none; stroke: #000000; stroke-width: 0.8; stroke-linejoin: miter; stroke-linecap: square"/>
   </g>
   <g id="patch_4">
    <path d="M 337.73125 315.398125 
L 337.73125 22.318125 
" style="fill: none; stroke: #000000; stroke-width: 0.8; stroke-linejoin: miter; stroke-linecap: square"/>
   </g>
   <g id="patch_5">
    <path d="M 43.78125 315.398125 
L 337.73125 315.398125 
" style="fill: none; stroke: #000000; stroke-width: 0.8; stroke-linejoin: miter; stroke-linecap: square"/>
   </g>
   <g id="patch_6">
    <path d="M 43.78125 22.318125 
L 337.73125 22.318125 
" style="fill: none; stroke: #000000; stroke-width: 0.8; stroke-linejoin: miter; stroke-linecap: square"/>
   </g>
   <g id="text_15">
    <!-- $s$ = 0.01 -->
    <g transform="translate(165.37625 16.318125) scale(0.12 -0.12)">
     <defs>
      <path id="DejaVuSans-Oblique-73" d="M 3200 3397 
L 3091 2853 
Q 2863 2978 2609 3040 
Q 2356 3103 2088 3103 
Q 1634 3103 1373 2948 
Q 1113 2794 1113 2528 
Q 1113 2219 1719 2053 
Q 1766 2041 1788 2034 
L 1972 1978 
Q 2547 1819 2739 1644 
Q 2931 1469 2931 1166 
Q 2931 609 2489 259 
Q 2047 -91 1331 -91 
Q 1053 -91 747 -37 
Q 441 16 72 128 
L 184 722 
Q 500 559 806 475 
Q 1113 391 1394 391 
Q 1816 391 2080 572 
Q 2344 753 2344 1031 
Q 2344 1331 1650 1516 
L 1591 1531 
L 1394 1581 
Q 956 1697 753 1886 
Q 550 2075 550 2369 
Q 550 2928 970 3256 
Q 1391 3584 2113 3584 
Q 2397 3584 2667 3537 
Q 2938 3491 3200 3397 
z
" transform="scale(0.015625)"/>
      <path id="DejaVuSans-3d" d="M 678 2906 
L 4684 2906 
L 4684 2381 
L 678 2381 
L 678 2906 
z
M 678 1631 
L 4684 1631 
L 4684 1100 
L 678 1100 
L 678 1631 
z
" transform="scale(0.015625)"/>
     </defs>
     <use xlink:href="#DejaVuSans-Oblique-73" transform="translate(0 0.78125)"/>
     <use xlink:href="#DejaVuSans-20" transform="translate(52.099609 0.78125)"/>
     <use xlink:href="#DejaVuSans-3d" transform="translate(83.886719 0.78125)"/>
     <use xlink:href="#DejaVuSans-20" transform="translate(167.675781 0.78125)"/>
     <use xlink:href="#DejaVuSans-30" transform="translate(199.462891 0.78125)"/>
     <use xlink:href="#DejaVuSans-2e" transform="translate(263.085938 0.78125)"/>
     <use xlink:href="#DejaVuSans-30" transform="translate(294.873047 0.78125)"/>
     <use xlink:href="#DejaVuSans-31" transform="translate(358.496094 0.78125)"/>
    </g>
   </g>
   <g id="legend_1">
    <g id="patch_7">
     <path d="M 209.49125 311.398125 
L 332.13125 311.398125 
Q 333.73125 311.398125 333.73125 309.798125 
L 333.73125 228.383125 
Q 333.73125 226.783125 332.13125 226.783125 
L 209.49125 226.783125 
Q 207.89125 226.783125 207.89125 228.383125 
L 207.89125 309.798125 
Q 207.89125 311.398125 209.49125 311.398125 
z
" style="fill: #ffffff; opacity: 0.8; stroke: #cccccc; stroke-linejoin: miter"/>
    </g>
    <g id="line2d_21">
     <path d="M 211.09125 233.261875 
L 219.09125 233.261875 
L 227.09125 233.261875 
" style="fill: none; stroke: #1f77b4; stroke-width: 2; stroke-linecap: square"/>
    </g>
    <g id="text_16">
     <!-- $D_{anc}$ (mean AUC = 0.97) -->
     <g transform="translate(233.49125 236.061875) scale(0.08 -0.08)">
      <defs>
       <path id="DejaVuSans-Oblique-44" d="M 1081 4666 
L 2438 4666 
Q 3519 4666 4070 4208 
Q 4622 3750 4622 2847 
Q 4622 2250 4412 1698 
Q 4203 1147 3834 769 
Q 3463 381 2891 190 
Q 2319 0 1538 0 
L 172 0 
L 1081 4666 
z
M 1613 4147 
L 909 519 
L 1734 519 
Q 2794 519 3375 1128 
Q 3956 1738 3956 2847 
Q 3956 3519 3581 3833 
Q 3206 4147 2406 4147 
L 1613 4147 
z
" transform="scale(0.015625)"/>
       <path id="DejaVuSans-Oblique-61" d="M 3438 1997 
L 3047 0 
L 2472 0 
L 2578 531 
Q 2325 219 2001 64 
Q 1678 -91 1281 -91 
Q 834 -91 548 182 
Q 263 456 263 884 
Q 263 1497 752 1853 
Q 1241 2209 2100 2209 
L 2900 2209 
L 2931 2363 
Q 2938 2388 2941 2417 
Q 2944 2447 2944 2509 
Q 2944 2788 2717 2942 
Q 2491 3097 2081 3097 
Q 1800 3097 1504 3025 
Q 1209 2953 897 2809 
L 997 3341 
Q 1322 3463 1633 3523 
Q 1944 3584 2234 3584 
Q 2853 3584 3176 3315 
Q 3500 3047 3500 2534 
Q 3500 2431 3484 2292 
Q 3469 2153 3438 1997 
z
M 2816 1759 
L 2241 1759 
Q 1534 1759 1195 1570 
Q 856 1381 856 984 
Q 856 709 1029 553 
Q 1203 397 1509 397 
Q 1978 397 2328 733 
Q 2678 1069 2791 1631 
L 2816 1759 
z
" transform="scale(0.015625)"/>
       <path id="DejaVuSans-Oblique-6e" d="M 3566 2113 
L 3156 0 
L 2578 0 
L 2988 2091 
Q 3016 2238 3031 2350 
Q 3047 2463 3047 2528 
Q 3047 2791 2881 2937 
Q 2716 3084 2419 3084 
Q 1956 3084 1622 2776 
Q 1288 2469 1184 1941 
L 800 0 
L 225 0 
L 903 3500 
L 1478 3500 
L 1363 2950 
Q 1603 3253 1940 3418 
Q 2278 3584 2650 3584 
Q 3113 3584 3367 3334 
Q 3622 3084 3622 2631 
Q 3622 2519 3608 2391 
Q 3594 2263 3566 2113 
z
" transform="scale(0.015625)"/>
       <path id="DejaVuSans-Oblique-63" d="M 3431 3366 
L 3316 2797 
Q 3109 2947 2876 3022 
Q 2644 3097 2394 3097 
Q 2119 3097 1870 3000 
Q 1622 2903 1453 2725 
Q 1184 2453 1037 2087 
Q 891 1722 891 1331 
Q 891 859 1127 628 
Q 1363 397 1844 397 
Q 2081 397 2348 469 
Q 2616 541 2906 684 
L 2797 116 
Q 2547 13 2283 -39 
Q 2019 -91 1741 -91 
Q 1044 -91 669 257 
Q 294 606 294 1253 
Q 294 1797 489 2255 
Q 684 2713 1069 3078 
Q 1331 3328 1684 3456 
Q 2038 3584 2456 3584 
Q 2700 3584 2940 3529 
Q 3181 3475 3431 3366 
z
" transform="scale(0.015625)"/>
       <path id="DejaVuSans-28" d="M 1984 4856 
Q 1566 4138 1362 3434 
Q 1159 2731 1159 2009 
Q 1159 1288 1364 580 
Q 1569 -128 1984 -844 
L 1484 -844 
Q 1016 -109 783 600 
Q 550 1309 550 2009 
Q 550 2706 781 3412 
Q 1013 4119 1484 4856 
L 1984 4856 
z
" transform="scale(0.015625)"/>
       <path id="DejaVuSans-6d" d="M 3328 2828 
Q 3544 3216 3844 3400 
Q 4144 3584 4550 3584 
Q 5097 3584 5394 3201 
Q 5691 2819 5691 2113 
L 5691 0 
L 5113 0 
L 5113 2094 
Q 5113 2597 4934 2840 
Q 4756 3084 4391 3084 
Q 3944 3084 3684 2787 
Q 3425 2491 3425 1978 
L 3425 0 
L 2847 0 
L 2847 2094 
Q 2847 2600 2669 2842 
Q 2491 3084 2119 3084 
Q 1678 3084 1418 2786 
Q 1159 2488 1159 1978 
L 1159 0 
L 581 0 
L 581 3500 
L 1159 3500 
L 1159 2956 
Q 1356 3278 1631 3431 
Q 1906 3584 2284 3584 
Q 2666 3584 2933 3390 
Q 3200 3197 3328 2828 
z
" transform="scale(0.015625)"/>
       <path id="DejaVuSans-6e" d="M 3513 2113 
L 3513 0 
L 2938 0 
L 2938 2094 
Q 2938 2591 2744 2837 
Q 2550 3084 2163 3084 
Q 1697 3084 1428 2787 
Q 1159 2491 1159 1978 
L 1159 0 
L 581 0 
L 581 3500 
L 1159 3500 
L 1159 2956 
Q 1366 3272 1645 3428 
Q 1925 3584 2291 3584 
Q 2894 3584 3203 3211 
Q 3513 2838 3513 2113 
z
" transform="scale(0.015625)"/>
       <path id="DejaVuSans-41" d="M 2188 4044 
L 1331 1722 
L 3047 1722 
L 2188 4044 
z
M 1831 4666 
L 2547 4666 
L 4325 0 
L 3669 0 
L 3244 1197 
L 1141 1197 
L 716 0 
L 50 0 
L 1831 4666 
z
" transform="scale(0.015625)"/>
       <path id="DejaVuSans-55" d="M 556 4666 
L 1191 4666 
L 1191 1831 
Q 1191 1081 1462 751 
Q 1734 422 2344 422 
Q 2950 422 3222 751 
Q 3494 1081 3494 1831 
L 3494 4666 
L 4128 4666 
L 4128 1753 
Q 4128 841 3676 375 
Q 3225 -91 2344 -91 
Q 1459 -91 1007 375 
Q 556 841 556 1753 
L 556 4666 
z
" transform="scale(0.015625)"/>
       <path id="DejaVuSans-43" d="M 4122 4306 
L 4122 3641 
Q 3803 3938 3442 4084 
Q 3081 4231 2675 4231 
Q 1875 4231 1450 3742 
Q 1025 3253 1025 2328 
Q 1025 1406 1450 917 
Q 1875 428 2675 428 
Q 3081 428 3442 575 
Q 3803 722 4122 1019 
L 4122 359 
Q 3791 134 3420 21 
Q 3050 -91 2638 -91 
Q 1578 -91 968 557 
Q 359 1206 359 2328 
Q 359 3453 968 4101 
Q 1578 4750 2638 4750 
Q 3056 4750 3426 4639 
Q 3797 4528 4122 4306 
z
" transform="scale(0.015625)"/>
       <path id="DejaVuSans-39" d="M 703 97 
L 703 672 
Q 941 559 1184 500 
Q 1428 441 1663 441 
Q 2288 441 2617 861 
Q 2947 1281 2994 2138 
Q 2813 1869 2534 1725 
Q 2256 1581 1919 1581 
Q 1219 1581 811 2004 
Q 403 2428 403 3163 
Q 403 3881 828 4315 
Q 1253 4750 1959 4750 
Q 2769 4750 3195 4129 
Q 3622 3509 3622 2328 
Q 3622 1225 3098 567 
Q 2575 -91 1691 -91 
Q 1453 -91 1209 -44 
Q 966 3 703 97 
z
M 1959 2075 
Q 2384 2075 2632 2365 
Q 2881 2656 2881 3163 
Q 2881 3666 2632 3958 
Q 2384 4250 1959 4250 
Q 1534 4250 1286 3958 
Q 1038 3666 1038 3163 
Q 1038 2656 1286 2365 
Q 1534 2075 1959 2075 
z
" transform="scale(0.015625)"/>
       <path id="DejaVuSans-37" d="M 525 4666 
L 3525 4666 
L 3525 4397 
L 1831 0 
L 1172 0 
L 2766 4134 
L 525 4134 
L 525 4666 
z
" transform="scale(0.015625)"/>
       <path id="DejaVuSans-29" d="M 513 4856 
L 1013 4856 
Q 1481 4119 1714 3412 
Q 1947 2706 1947 2009 
Q 1947 1309 1714 600 
Q 1481 -109 1013 -844 
L 513 -844 
Q 928 -128 1133 580 
Q 1338 1288 1338 2009 
Q 1338 2731 1133 3434 
Q 928 4138 513 4856 
z
" transform="scale(0.015625)"/>
      </defs>
      <use xlink:href="#DejaVuSans-Oblique-44" transform="translate(0 0.125)"/>
      <use xlink:href="#DejaVuSans-Oblique-61" transform="translate(77.001953 -16.28125) scale(0.7)"/>
      <use xlink:href="#DejaVuSans-Oblique-6e" transform="translate(119.897461 -16.28125) scale(0.7)"/>
      <use xlink:href="#DejaVuSans-Oblique-63" transform="translate(164.262695 -16.28125) scale(0.7)"/>
      <use xlink:href="#DejaVuSans-20" transform="translate(205.483398 0.125)"/>
      <use xlink:href="#DejaVuSans-28" transform="translate(237.270508 0.125)"/>
      <use xlink:href="#DejaVuSans-6d" transform="translate(276.28418 0.125)"/>
      <use xlink:href="#DejaVuSans-65" transform="translate(373.696289 0.125)"/>
      <use xlink:href="#DejaVuSans-61" transform="translate(435.219727 0.125)"/>
      <use xlink:href="#DejaVuSans-6e" transform="translate(496.499023 0.125)"/>
      <use xlink:href="#DejaVuSans-20" transform="translate(559.87793 0.125)"/>
      <use xlink:href="#DejaVuSans-41" transform="translate(591.665039 0.125)"/>
      <use xlink:href="#DejaVuSans-55" transform="translate(660.073242 0.125)"/>
      <use xlink:href="#DejaVuSans-43" transform="translate(733.266602 0.125)"/>
      <use xlink:href="#DejaVuSans-20" transform="translate(803.09082 0.125)"/>
      <use xlink:href="#DejaVuSans-3d" transform="translate(834.87793 0.125)"/>
      <use xlink:href="#DejaVuSans-20" transform="translate(918.666992 0.125)"/>
      <use xlink:href="#DejaVuSans-30" transform="translate(950.454102 0.125)"/>
      <use xlink:href="#DejaVuSans-2e" transform="translate(1014.077148 0.125)"/>
      <use xlink:href="#DejaVuSans-39" transform="translate(1045.864258 0.125)"/>
      <use xlink:href="#DejaVuSans-37" transform="translate(1109.487305 0.125)"/>
      <use xlink:href="#DejaVuSans-29" transform="translate(1173.110352 0.125)"/>
     </g>
    </g>
    <g id="line2d_22">
     <path d="M 211.09125 245.021875 
L 219.09125 245.021875 
L 227.09125 245.021875 
" style="fill: none; stroke: #ff7f0e; stroke-width: 2; stroke-linecap: square"/>
    </g>
    <g id="text_17">
     <!-- $D^+$ (mean AUC = 0.98) -->
     <g transform="translate(233.49125 247.821875) scale(0.08 -0.08)">
      <defs>
       <path id="DejaVuSans-2b" d="M 2944 4013 
L 2944 2272 
L 4684 2272 
L 4684 1741 
L 2944 1741 
L 2944 0 
L 2419 0 
L 2419 1741 
L 678 1741 
L 678 2272 
L 2419 2272 
L 2419 4013 
L 2944 4013 
z
" transform="scale(0.015625)"/>
      </defs>
      <use xlink:href="#DejaVuSans-Oblique-44" transform="translate(0 0.826562)"/>
      <use xlink:href="#DejaVuSans-2b" transform="translate(97.656419 39.107812) scale(0.7)"/>
      <use xlink:href="#DejaVuSans-20" transform="translate(172.680833 0.826562)"/>
      <use xlink:href="#DejaVuSans-28" transform="translate(204.467943 0.826562)"/>
      <use xlink:href="#DejaVuSans-6d" transform="translate(243.481615 0.826562)"/>
      <use xlink:href="#DejaVuSans-65" transform="translate(340.893724 0.826562)"/>
      <use xlink:href="#DejaVuSans-61" transform="translate(402.417161 0.826562)"/>
      <use xlink:href="#DejaVuSans-6e" transform="translate(463.696458 0.826562)"/>
      <use xlink:href="#DejaVuSans-20" transform="translate(527.075365 0.826562)"/>
      <use xlink:href="#DejaVuSans-41" transform="translate(558.862474 0.826562)"/>
      <use xlink:href="#DejaVuSans-55" transform="translate(627.270677 0.826562)"/>
      <use xlink:href="#DejaVuSans-43" transform="translate(700.464036 0.826562)"/>
      <use xlink:href="#DejaVuSans-20" transform="translate(770.288255 0.826562)"/>
      <use xlink:href="#DejaVuSans-3d" transform="translate(802.075365 0.826562)"/>
      <use xlink:href="#DejaVuSans-20" transform="translate(885.864427 0.826562)"/>
      <use xlink:href="#DejaVuSans-30" transform="translate(917.651536 0.826562)"/>
      <use xlink:href="#DejaVuSans-2e" transform="translate(981.274583 0.826562)"/>
      <use xlink:href="#DejaVuSans-39" transform="translate(1013.061693 0.826562)"/>
      <use xlink:href="#DejaVuSans-38" transform="translate(1076.68474 0.826562)"/>
      <use xlink:href="#DejaVuSans-29" transform="translate(1140.307786 0.826562)"/>
     </g>
    </g>
    <g id="line2d_23">
     <path d="M 211.09125 256.764375 
L 219.09125 256.764375 
L 227.09125 256.764375 
" style="fill: none; stroke: #2ca02c; stroke-width: 2; stroke-linecap: square"/>
    </g>
    <g id="text_18">
     <!-- $d_f$ (mean AUC = 0.99) -->
     <g transform="translate(233.49125 259.564375) scale(0.08 -0.08)">
      <defs>
       <path id="DejaVuSans-Oblique-64" d="M 2675 525 
Q 2444 222 2128 65 
Q 1813 -91 1428 -91 
Q 903 -91 598 267 
Q 294 625 294 1247 
Q 294 1766 478 2236 
Q 663 2706 1013 3078 
Q 1244 3325 1534 3454 
Q 1825 3584 2144 3584 
Q 2481 3584 2739 3421 
Q 2997 3259 3138 2956 
L 3513 4863 
L 4091 4863 
L 3144 0 
L 2566 0 
L 2675 525 
z
M 891 1350 
Q 891 897 1095 644 
Q 1300 391 1663 391 
Q 1931 391 2161 520 
Q 2391 650 2566 903 
Q 2750 1166 2856 1509 
Q 2963 1853 2963 2188 
Q 2963 2622 2758 2865 
Q 2553 3109 2194 3109 
Q 1922 3109 1687 2981 
Q 1453 2853 1288 2613 
Q 1106 2353 998 2009 
Q 891 1666 891 1350 
z
" transform="scale(0.015625)"/>
       <path id="DejaVuSans-Oblique-66" d="M 3059 4863 
L 2969 4384 
L 2419 4384 
Q 2106 4384 1964 4261 
Q 1822 4138 1753 3809 
L 1691 3500 
L 2638 3500 
L 2553 3053 
L 1606 3053 
L 1013 0 
L 434 0 
L 1031 3053 
L 481 3053 
L 563 3500 
L 1113 3500 
L 1159 3744 
Q 1278 4363 1576 4613 
Q 1875 4863 2516 4863 
L 3059 4863 
z
" transform="scale(0.015625)"/>
      </defs>
      <use xlink:href="#DejaVuSans-Oblique-64" transform="translate(0 0.015625)"/>
      <use xlink:href="#DejaVuSans-Oblique-66" transform="translate(63.476562 -16.390625) scale(0.7)"/>
      <use xlink:href="#DejaVuSans-20" transform="translate(90.854492 0.015625)"/>
      <use xlink:href="#DejaVuSans-28" transform="translate(122.641602 0.015625)"/>
      <use xlink:href="#DejaVuSans-6d" transform="translate(161.655273 0.015625)"/>
      <use xlink:href="#DejaVuSans-65" transform="translate(259.067383 0.015625)"/>
      <use xlink:href="#DejaVuSans-61" transform="translate(320.59082 0.015625)"/>
      <use xlink:href="#DejaVuSans-6e" transform="translate(381.870117 0.015625)"/>
      <use xlink:href="#DejaVuSans-20" transform="translate(445.249023 0.015625)"/>
      <use xlink:href="#DejaVuSans-41" transform="translate(477.036133 0.015625)"/>
      <use xlink:href="#DejaVuSans-55" transform="translate(545.444336 0.015625)"/>
      <use xlink:href="#DejaVuSans-43" transform="translate(618.637695 0.015625)"/>
      <use xlink:href="#DejaVuSans-20" transform="translate(688.461914 0.015625)"/>
      <use xlink:href="#DejaVuSans-3d" transform="translate(720.249023 0.015625)"/>
      <use xlink:href="#DejaVuSans-20" transform="translate(804.038086 0.015625)"/>
      <use xlink:href="#DejaVuSans-30" transform="translate(835.825195 0.015625)"/>
      <use xlink:href="#DejaVuSans-2e" transform="translate(899.448242 0.015625)"/>
      <use xlink:href="#DejaVuSans-39" transform="translate(931.235352 0.015625)"/>
      <use xlink:href="#DejaVuSans-39" transform="translate(994.858398 0.015625)"/>
      <use xlink:href="#DejaVuSans-29" transform="translate(1058.481445 0.015625)"/>
     </g>
    </g>
    <g id="line2d_24">
     <path d="M 211.09125 268.506875 
L 219.09125 268.506875 
L 227.09125 268.506875 
" style="fill: none; stroke: #d62728; stroke-width: 2; stroke-linecap: square"/>
    </g>
    <g id="text_19">
     <!-- $f_d$ (mean AUC = 0.99) -->
     <g transform="translate(233.49125 271.306875) scale(0.08 -0.08)">
      <use xlink:href="#DejaVuSans-Oblique-66" transform="translate(0 0.015625)"/>
      <use xlink:href="#DejaVuSans-Oblique-64" transform="translate(35.205078 -16.390625) scale(0.7)"/>
      <use xlink:href="#DejaVuSans-20" transform="translate(82.373047 0.015625)"/>
      <use xlink:href="#DejaVuSans-28" transform="translate(114.160156 0.015625)"/>
      <use xlink:href="#DejaVuSans-6d" transform="translate(153.173828 0.015625)"/>
      <use xlink:href="#DejaVuSans-65" transform="translate(250.585938 0.015625)"/>
      <use xlink:href="#DejaVuSans-61" transform="translate(312.109375 0.015625)"/>
      <use xlink:href="#DejaVuSans-6e" transform="translate(373.388672 0.015625)"/>
      <use xlink:href="#DejaVuSans-20" transform="translate(436.767578 0.015625)"/>
      <use xlink:href="#DejaVuSans-41" transform="translate(468.554688 0.015625)"/>
      <use xlink:href="#DejaVuSans-55" transform="translate(536.962891 0.015625)"/>
      <use xlink:href="#DejaVuSans-43" transform="translate(610.15625 0.015625)"/>
      <use xlink:href="#DejaVuSans-20" transform="translate(679.980469 0.015625)"/>
      <use xlink:href="#DejaVuSans-3d" transform="translate(711.767578 0.015625)"/>
      <use xlink:href="#DejaVuSans-20" transform="translate(795.556641 0.015625)"/>
      <use xlink:href="#DejaVuSans-30" transform="translate(827.34375 0.015625)"/>
      <use xlink:href="#DejaVuSans-2e" transform="translate(890.966797 0.015625)"/>
      <use xlink:href="#DejaVuSans-39" transform="translate(922.753906 0.015625)"/>
      <use xlink:href="#DejaVuSans-39" transform="translate(986.376953 0.015625)"/>
      <use xlink:href="#DejaVuSans-29" transform="translate(1050 0.015625)"/>
     </g>
    </g>
    <g id="line2d_25">
     <path d="M 211.09125 280.249375 
L 219.09125 280.249375 
L 227.09125 280.249375 
" style="fill: none; stroke: #9467bd; stroke-width: 2; stroke-linecap: square"/>
    </g>
    <g id="text_20">
     <!-- $D_D$ (mean AUC = 0.98) -->
     <g transform="translate(233.49125 283.049375) scale(0.08 -0.08)">
      <use xlink:href="#DejaVuSans-Oblique-44" transform="translate(0 0.125)"/>
      <use xlink:href="#DejaVuSans-Oblique-44" transform="translate(77.001953 -16.28125) scale(0.7)"/>
      <use xlink:href="#DejaVuSans-20" transform="translate(133.637695 0.125)"/>
      <use xlink:href="#DejaVuSans-28" transform="translate(165.424805 0.125)"/>
      <use xlink:href="#DejaVuSans-6d" transform="translate(204.438477 0.125)"/>
      <use xlink:href="#DejaVuSans-65" transform="translate(301.850586 0.125)"/>
      <use xlink:href="#DejaVuSans-61" transform="translate(363.374023 0.125)"/>
      <use xlink:href="#DejaVuSans-6e" transform="translate(424.65332 0.125)"/>
      <use xlink:href="#DejaVuSans-20" transform="translate(488.032227 0.125)"/>
      <use xlink:href="#DejaVuSans-41" transform="translate(519.819336 0.125)"/>
      <use xlink:href="#DejaVuSans-55" transform="translate(588.227539 0.125)"/>
      <use xlink:href="#DejaVuSans-43" transform="translate(661.420898 0.125)"/>
      <use xlink:href="#DejaVuSans-20" transform="translate(731.245117 0.125)"/>
      <use xlink:href="#DejaVuSans-3d" transform="translate(763.032227 0.125)"/>
      <use xlink:href="#DejaVuSans-20" transform="translate(846.821289 0.125)"/>
      <use xlink:href="#DejaVuSans-30" transform="translate(878.608398 0.125)"/>
      <use xlink:href="#DejaVuSans-2e" transform="translate(942.231445 0.125)"/>
      <use xlink:href="#DejaVuSans-39" transform="translate(974.018555 0.125)"/>
      <use xlink:href="#DejaVuSans-38" transform="translate(1037.641602 0.125)"/>
      <use xlink:href="#DejaVuSans-29" transform="translate(1101.264648 0.125)"/>
     </g>
    </g>
    <g id="line2d_26">
     <path d="M 211.09125 291.991875 
L 219.09125 291.991875 
L 227.09125 291.991875 
" style="fill: none; stroke: #8c564b; stroke-width: 2; stroke-linecap: square"/>
    </g>
    <g id="text_21">
     <!-- $U50$ (mean AUC = 0.99) -->
     <g transform="translate(233.49125 294.791875) scale(0.08 -0.08)">
      <defs>
       <path id="DejaVuSans-Oblique-55" d="M 991 4666 
L 1625 4666 
L 1075 1831 
Q 1041 1641 1027 1517 
Q 1013 1394 1013 1300 
Q 1013 869 1253 645 
Q 1494 422 1959 422 
Q 2563 422 2898 753 
Q 3234 1084 3378 1831 
L 3928 4666 
L 4563 4666 
L 4000 1753 
Q 3816 809 3300 359 
Q 2784 -91 1888 -91 
Q 1188 -91 780 261 
Q 372 613 372 1216 
Q 372 1325 387 1461 
Q 403 1597 434 1753 
L 991 4666 
z
" transform="scale(0.015625)"/>
       <path id="DejaVuSans-35" d="M 691 4666 
L 3169 4666 
L 3169 4134 
L 1269 4134 
L 1269 2991 
Q 1406 3038 1543 3061 
Q 1681 3084 1819 3084 
Q 2600 3084 3056 2656 
Q 3513 2228 3513 1497 
Q 3513 744 3044 326 
Q 2575 -91 1722 -91 
Q 1428 -91 1123 -41 
Q 819 9 494 109 
L 494 744 
Q 775 591 1075 516 
Q 1375 441 1709 441 
Q 2250 441 2565 725 
Q 2881 1009 2881 1497 
Q 2881 1984 2565 2268 
Q 2250 2553 1709 2553 
Q 1456 2553 1204 2497 
Q 953 2441 691 2322 
L 691 4666 
z
" transform="scale(0.015625)"/>
      </defs>
      <use xlink:href="#DejaVuSans-Oblique-55" transform="translate(0 0.125)"/>
      <use xlink:href="#DejaVuSans-35" transform="translate(73.193359 0.125)"/>
      <use xlink:href="#DejaVuSans-30" transform="translate(136.816406 0.125)"/>
      <use xlink:href="#DejaVuSans-20" transform="translate(200.439453 0.125)"/>
      <use xlink:href="#DejaVuSans-28" transform="translate(232.226562 0.125)"/>
      <use xlink:href="#DejaVuSans-6d" transform="translate(271.240234 0.125)"/>
      <use xlink:href="#DejaVuSans-65" transform="translate(368.652344 0.125)"/>
      <use xlink:href="#DejaVuSans-61" transform="translate(430.175781 0.125)"/>
      <use xlink:href="#DejaVuSans-6e" transform="translate(491.455078 0.125)"/>
      <use xlink:href="#DejaVuSans-20" transform="translate(554.833984 0.125)"/>
      <use xlink:href="#DejaVuSans-41" transform="translate(586.621094 0.125)"/>
      <use xlink:href="#DejaVuSans-55" transform="translate(655.029297 0.125)"/>
      <use xlink:href="#DejaVuSans-43" transform="translate(728.222656 0.125)"/>
      <use xlink:href="#DejaVuSans-20" transform="translate(798.046875 0.125)"/>
      <use xlink:href="#DejaVuSans-3d" transform="translate(829.833984 0.125)"/>
      <use xlink:href="#DejaVuSans-20" transform="translate(913.623047 0.125)"/>
      <use xlink:href="#DejaVuSans-30" transform="translate(945.410156 0.125)"/>
      <use xlink:href="#DejaVuSans-2e" transform="translate(1009.033203 0.125)"/>
      <use xlink:href="#DejaVuSans-39" transform="translate(1040.820312 0.125)"/>
      <use xlink:href="#DejaVuSans-39" transform="translate(1104.443359 0.125)"/>
      <use xlink:href="#DejaVuSans-29" transform="translate(1168.066406 0.125)"/>
     </g>
    </g>
    <g id="line2d_27">
     <path d="M 211.09125 303.734375 
L 219.09125 303.734375 
L 227.09125 303.734375 
" style="fill: none; stroke: #e377c2; stroke-width: 2; stroke-linecap: square"/>
    </g>
    <g id="text_22">
     <!-- $Q95$ (mean AUC = 0.99) -->
     <g transform="translate(233.49125 306.534375) scale(0.08 -0.08)">
      <defs>
       <path id="DejaVuSans-Oblique-51" d="M 2309 -84 
Q 2275 -88 2237 -89 
Q 2200 -91 2125 -91 
Q 1250 -91 756 411 
Q 263 913 263 1797 
Q 263 2319 452 2844 
Q 641 3369 978 3788 
Q 1369 4269 1858 4509 
Q 2347 4750 2938 4750 
Q 3794 4750 4287 4245 
Q 4781 3741 4781 2869 
Q 4781 1928 4265 1147 
Q 3750 366 2919 44 
L 3553 -825 
L 2847 -825 
L 2309 -84 
z
M 2919 4238 
Q 2400 4238 2003 3986 
Q 1606 3734 1313 3219 
Q 1125 2891 1026 2522 
Q 928 2153 928 1778 
Q 928 1128 1239 775 
Q 1550 422 2119 422 
Q 2631 422 3032 676 
Q 3434 931 3719 1434 
Q 3909 1772 4009 2142 
Q 4109 2513 4109 2881 
Q 4109 3528 3796 3883 
Q 3484 4238 2919 4238 
z
" transform="scale(0.015625)"/>
      </defs>
      <use xlink:href="#DejaVuSans-Oblique-51" transform="translate(0 0.125)"/>
      <use xlink:href="#DejaVuSans-39" transform="translate(78.710938 0.125)"/>
      <use xlink:href="#DejaVuSans-35" transform="translate(142.333984 0.125)"/>
      <use xlink:href="#DejaVuSans-20" transform="translate(205.957031 0.125)"/>
      <use xlink:href="#DejaVuSans-28" transform="translate(237.744141 0.125)"/>
      <use xlink:href="#DejaVuSans-6d" transform="translate(276.757812 0.125)"/>
      <use xlink:href="#DejaVuSans-65" transform="translate(374.169922 0.125)"/>
      <use xlink:href="#DejaVuSans-61" transform="translate(435.693359 0.125)"/>
      <use xlink:href="#DejaVuSans-6e" transform="translate(496.972656 0.125)"/>
      <use xlink:href="#DejaVuSans-20" transform="translate(560.351562 0.125)"/>
      <use xlink:href="#DejaVuSans-41" transform="translate(592.138672 0.125)"/>
      <use xlink:href="#DejaVuSans-55" transform="translate(660.546875 0.125)"/>
      <use xlink:href="#DejaVuSans-43" transform="translate(733.740234 0.125)"/>
      <use xlink:href="#DejaVuSans-20" transform="translate(803.564453 0.125)"/>
      <use xlink:href="#DejaVuSans-3d" transform="translate(835.351562 0.125)"/>
      <use xlink:href="#DejaVuSans-20" transform="translate(919.140625 0.125)"/>
      <use xlink:href="#DejaVuSans-30" transform="translate(950.927734 0.125)"/>
      <use xlink:href="#DejaVuSans-2e" transform="translate(1014.550781 0.125)"/>
      <use xlink:href="#DejaVuSans-39" transform="translate(1046.337891 0.125)"/>
      <use xlink:href="#DejaVuSans-39" transform="translate(1109.960938 0.125)"/>
      <use xlink:href="#DejaVuSans-29" transform="translate(1173.583984 0.125)"/>
     </g>
    </g>
   </g>
  </g>
 </g>
 <defs>
  <clipPath id="p85f4afb877">
   <rect x="43.78125" y="22.318125" width="293.95" height="293.08"/>
  </clipPath>
 </defs>
</svg>
