<?xml version="1.0" encoding="utf-8" standalone="no"?>
<!DOCTYPE svg PUBLIC "-//W3C//DTD SVG 1.1//EN"
  "http://www.w3.org/Graphics/SVG/1.1/DTD/svg11.dtd">
<svg xmlns:xlink="http://www.w3.org/1999/xlink" width="352.882812pt" height="352.954375pt" viewBox="0 0 352.882812 352.954375" xmlns="http://www.w3.org/2000/svg" version="1.1">
 <metadata>
  <rdf:RDF xmlns:dc="http://purl.org/dc/elements/1.1/" xmlns:cc="http://creativecommons.org/ns#" xmlns:rdf="http://www.w3.org/1999/02/22-rdf-syntax-ns#">
   <cc:Work>
    <dc:type rdf:resource="http://purl.org/dc/dcmitype/StillImage"/>
    <dc:date>2025-10-05T02:59:30.602095</dc:date>
    <dc:format>image/svg+xml</dc:format>
    <dc:creator>
     <cc:Agent>
      <dc:title>Matplotlib v3.9.1, https://matplotlib.org/</dc:title>
     </cc:Agent>
    </dc:creator>
   </cc:Work>
  </rdf:RDF>
 </metadata>
 <defs>
  <style type="text/css">*{stroke-linejoin: round; stroke-linecap: butt}</style>
 </defs>
 <g id="figure_1">
  <g id="patch_1">
   <path d="M -0 352.954375 
L 352.882812 352.954375 
L 352.882812 0 
L -0 0 
z
" style="fill: #ffffff"/>
  </g>
  <g id="axes_1">
   <g id="patch_2">
    <path d="M 43.78125 315.398125 
L 337.73125 315.398125 
L 337.73125 22.318125 
L 43.78125 22.318125 
z
" style="fill: #ffffff"/>
   </g>
   <g id="matplotlib.axis_1">
    <g id="xtick_1">
     <g id="line2d_1">
      <defs>
       <path id="m2eb45d75d1" d="M 0 0 
L 0 3.5 
" style="stroke: #000000; stroke-width: 0.8"/>
      </defs>
      <g>
       <use xlink:href="#m2eb45d75d1" x="43.78125" y="315.398125" style="stroke: #000000; stroke-width: 0.8"/>
      </g>
     </g>
     <g id="text_1">
      <!-- 0.0 -->
      <g transform="translate(35.829688 329.996562) scale(0.1 -0.1)">
       <defs>
        <path id="DejaVuSans-30" d="M 2034 4250 
Q 1547 4250 1301 3770 
Q 1056 3291 1056 2328 
Q 1056 1369 1301 889 
Q 1547 409 2034 409 
Q 2525 409 2770 889 
Q 3016 1369 3016 2328 
Q 3016 3291 2770 3770 
Q 2525 4250 2034 4250 
z
M 2034 4750 
Q 2819 4750 3233 4129 
Q 3647 3509 3647 2328 
Q 3647 1150 3233 529 
Q 2819 -91 2034 -91 
Q 1250 -91 836 529 
Q 422 1150 422 2328 
Q 422 3509 836 4129 
Q 1250 4750 2034 4750 
z
" transform="scale(0.015625)"/>
        <path id="DejaVuSans-2e" d="M 684 794 
L 1344 794 
L 1344 0 
L 684 0 
L 684 794 
z
" transform="scale(0.015625)"/>
       </defs>
       <use xlink:href="#DejaVuSans-30"/>
       <use xlink:href="#DejaVuSans-2e" x="63.623047"/>
       <use xlink:href="#DejaVuSans-30" x="95.410156"/>
      </g>
     </g>
    </g>
    <g id="xtick_2">
     <g id="line2d_2">
      <g>
       <use xlink:href="#m2eb45d75d1" x="102.57125" y="315.398125" style="stroke: #000000; stroke-width: 0.8"/>
      </g>
     </g>
     <g id="text_2">
      <!-- 0.2 -->
      <g transform="translate(94.619688 329.996562) scale(0.1 -0.1)">
       <defs>
        <path id="DejaVuSans-32" d="M 1228 531 
L 3431 531 
L 3431 0 
L 469 0 
L 469 531 
Q 828 903 1448 1529 
Q 2069 2156 2228 2338 
Q 2531 2678 2651 2914 
Q 2772 3150 2772 3378 
Q 2772 3750 2511 3984 
Q 2250 4219 1831 4219 
Q 1534 4219 1204 4116 
Q 875 4013 500 3803 
L 500 4441 
Q 881 4594 1212 4672 
Q 1544 4750 1819 4750 
Q 2544 4750 2975 4387 
Q 3406 4025 3406 3419 
Q 3406 3131 3298 2873 
Q 3191 2616 2906 2266 
Q 2828 2175 2409 1742 
Q 1991 1309 1228 531 
z
" transform="scale(0.015625)"/>
       </defs>
       <use xlink:href="#DejaVuSans-30"/>
       <use xlink:href="#DejaVuSans-2e" x="63.623047"/>
       <use xlink:href="#DejaVuSans-32" x="95.410156"/>
      </g>
     </g>
    </g>
    <g id="xtick_3">
     <g id="line2d_3">
      <g>
       <use xlink:href="#m2eb45d75d1" x="161.36125" y="315.398125" style="stroke: #000000; stroke-width: 0.8"/>
      </g>
     </g>
     <g id="text_3">
      <!-- 0.4 -->
      <g transform="translate(153.409688 329.996562) scale(0.1 -0.1)">
       <defs>
        <path id="DejaVuSans-34" d="M 2419 4116 
L 825 1625 
L 2419 1625 
L 2419 4116 
z
M 2253 4666 
L 3047 4666 
L 3047 1625 
L 3713 1625 
L 3713 1100 
L 3047 1100 
L 3047 0 
L 2419 0 
L 2419 1100 
L 313 1100 
L 313 1709 
L 2253 4666 
z
" transform="scale(0.015625)"/>
       </defs>
       <use xlink:href="#DejaVuSans-30"/>
       <use xlink:href="#DejaVuSans-2e" x="63.623047"/>
       <use xlink:href="#DejaVuSans-34" x="95.410156"/>
      </g>
     </g>
    </g>
    <g id="xtick_4">
     <g id="line2d_4">
      <g>
       <use xlink:href="#m2eb45d75d1" x="220.15125" y="315.398125" style="stroke: #000000; stroke-width: 0.8"/>
      </g>
     </g>
     <g id="text_4">
      <!-- 0.6 -->
      <g transform="translate(212.199688 329.996562) scale(0.1 -0.1)">
       <defs>
        <path id="DejaVuSans-36" d="M 2113 2584 
Q 1688 2584 1439 2293 
Q 1191 2003 1191 1497 
Q 1191 994 1439 701 
Q 1688 409 2113 409 
Q 2538 409 2786 701 
Q 3034 994 3034 1497 
Q 3034 2003 2786 2293 
Q 2538 2584 2113 2584 
z
M 3366 4563 
L 3366 3988 
Q 3128 4100 2886 4159 
Q 2644 4219 2406 4219 
Q 1781 4219 1451 3797 
Q 1122 3375 1075 2522 
Q 1259 2794 1537 2939 
Q 1816 3084 2150 3084 
Q 2853 3084 3261 2657 
Q 3669 2231 3669 1497 
Q 3669 778 3244 343 
Q 2819 -91 2113 -91 
Q 1303 -91 875 529 
Q 447 1150 447 2328 
Q 447 3434 972 4092 
Q 1497 4750 2381 4750 
Q 2619 4750 2861 4703 
Q 3103 4656 3366 4563 
z
" transform="scale(0.015625)"/>
       </defs>
       <use xlink:href="#DejaVuSans-30"/>
       <use xlink:href="#DejaVuSans-2e" x="63.623047"/>
       <use xlink:href="#DejaVuSans-36" x="95.410156"/>
      </g>
     </g>
    </g>
    <g id="xtick_5">
     <g id="line2d_5">
      <g>
       <use xlink:href="#m2eb45d75d1" x="278.94125" y="315.398125" style="stroke: #000000; stroke-width: 0.8"/>
      </g>
     </g>
     <g id="text_5">
      <!-- 0.8 -->
      <g transform="translate(270.989688 329.996562) scale(0.1 -0.1)">
       <defs>
        <path id="DejaVuSans-38" d="M 2034 2216 
Q 1584 2216 1326 1975 
Q 1069 1734 1069 1313 
Q 1069 891 1326 650 
Q 1584 409 2034 409 
Q 2484 409 2743 651 
Q 3003 894 3003 1313 
Q 3003 1734 2745 1975 
Q 2488 2216 2034 2216 
z
M 1403 2484 
Q 997 2584 770 2862 
Q 544 3141 544 3541 
Q 544 4100 942 4425 
Q 1341 4750 2034 4750 
Q 2731 4750 3128 4425 
Q 3525 4100 3525 3541 
Q 3525 3141 3298 2862 
Q 3072 2584 2669 2484 
Q 3125 2378 3379 2068 
Q 3634 1759 3634 1313 
Q 3634 634 3220 271 
Q 2806 -91 2034 -91 
Q 1263 -91 848 271 
Q 434 634 434 1313 
Q 434 1759 690 2068 
Q 947 2378 1403 2484 
z
M 1172 3481 
Q 1172 3119 1398 2916 
Q 1625 2713 2034 2713 
Q 2441 2713 2670 2916 
Q 2900 3119 2900 3481 
Q 2900 3844 2670 4047 
Q 2441 4250 2034 4250 
Q 1625 4250 1398 4047 
Q 1172 3844 1172 3481 
z
" transform="scale(0.015625)"/>
       </defs>
       <use xlink:href="#DejaVuSans-30"/>
       <use xlink:href="#DejaVuSans-2e" x="63.623047"/>
       <use xlink:href="#DejaVuSans-38" x="95.410156"/>
      </g>
     </g>
    </g>
    <g id="xtick_6">
     <g id="line2d_6">
      <g>
       <use xlink:href="#m2eb45d75d1" x="337.73125" y="315.398125" style="stroke: #000000; stroke-width: 0.8"/>
      </g>
     </g>
     <g id="text_6">
      <!-- 1.0 -->
      <g transform="translate(329.779687 329.996562) scale(0.1 -0.1)">
       <defs>
        <path id="DejaVuSans-31" d="M 794 531 
L 1825 531 
L 1825 4091 
L 703 3866 
L 703 4441 
L 1819 4666 
L 2450 4666 
L 2450 531 
L 3481 531 
L 3481 0 
L 794 0 
L 794 531 
z
" transform="scale(0.015625)"/>
       </defs>
       <use xlink:href="#DejaVuSans-31"/>
       <use xlink:href="#DejaVuSans-2e" x="63.623047"/>
       <use xlink:href="#DejaVuSans-30" x="95.410156"/>
      </g>
     </g>
    </g>
    <g id="text_7">
     <!-- False Positive Rate -->
     <g transform="translate(144.289844 343.674687) scale(0.1 -0.1)">
      <defs>
       <path id="DejaVuSans-46" d="M 628 4666 
L 3309 4666 
L 3309 4134 
L 1259 4134 
L 1259 2759 
L 3109 2759 
L 3109 2228 
L 1259 2228 
L 1259 0 
L 628 0 
L 628 4666 
z
" transform="scale(0.015625)"/>
       <path id="DejaVuSans-61" d="M 2194 1759 
Q 1497 1759 1228 1600 
Q 959 1441 959 1056 
Q 959 750 1161 570 
Q 1363 391 1709 391 
Q 2188 391 2477 730 
Q 2766 1069 2766 1631 
L 2766 1759 
L 2194 1759 
z
M 3341 1997 
L 3341 0 
L 2766 0 
L 2766 531 
Q 2569 213 2275 61 
Q 1981 -91 1556 -91 
Q 1019 -91 701 211 
Q 384 513 384 1019 
Q 384 1609 779 1909 
Q 1175 2209 1959 2209 
L 2766 2209 
L 2766 2266 
Q 2766 2663 2505 2880 
Q 2244 3097 1772 3097 
Q 1472 3097 1187 3025 
Q 903 2953 641 2809 
L 641 3341 
Q 956 3463 1253 3523 
Q 1550 3584 1831 3584 
Q 2591 3584 2966 3190 
Q 3341 2797 3341 1997 
z
" transform="scale(0.015625)"/>
       <path id="DejaVuSans-6c" d="M 603 4863 
L 1178 4863 
L 1178 0 
L 603 0 
L 603 4863 
z
" transform="scale(0.015625)"/>
       <path id="DejaVuSans-73" d="M 2834 3397 
L 2834 2853 
Q 2591 2978 2328 3040 
Q 2066 3103 1784 3103 
Q 1356 3103 1142 2972 
Q 928 2841 928 2578 
Q 928 2378 1081 2264 
Q 1234 2150 1697 2047 
L 1894 2003 
Q 2506 1872 2764 1633 
Q 3022 1394 3022 966 
Q 3022 478 2636 193 
Q 2250 -91 1575 -91 
Q 1294 -91 989 -36 
Q 684 19 347 128 
L 347 722 
Q 666 556 975 473 
Q 1284 391 1588 391 
Q 1994 391 2212 530 
Q 2431 669 2431 922 
Q 2431 1156 2273 1281 
Q 2116 1406 1581 1522 
L 1381 1569 
Q 847 1681 609 1914 
Q 372 2147 372 2553 
Q 372 3047 722 3315 
Q 1072 3584 1716 3584 
Q 2034 3584 2315 3537 
Q 2597 3491 2834 3397 
z
" transform="scale(0.015625)"/>
       <path id="DejaVuSans-65" d="M 3597 1894 
L 3597 1613 
L 953 1613 
Q 991 1019 1311 708 
Q 1631 397 2203 397 
Q 2534 397 2845 478 
Q 3156 559 3463 722 
L 3463 178 
Q 3153 47 2828 -22 
Q 2503 -91 2169 -91 
Q 1331 -91 842 396 
Q 353 884 353 1716 
Q 353 2575 817 3079 
Q 1281 3584 2069 3584 
Q 2775 3584 3186 3129 
Q 3597 2675 3597 1894 
z
M 3022 2063 
Q 3016 2534 2758 2815 
Q 2500 3097 2075 3097 
Q 1594 3097 1305 2825 
Q 1016 2553 972 2059 
L 3022 2063 
z
" transform="scale(0.015625)"/>
       <path id="DejaVuSans-20" transform="scale(0.015625)"/>
       <path id="DejaVuSans-50" d="M 1259 4147 
L 1259 2394 
L 2053 2394 
Q 2494 2394 2734 2622 
Q 2975 2850 2975 3272 
Q 2975 3691 2734 3919 
Q 2494 4147 2053 4147 
L 1259 4147 
z
M 628 4666 
L 2053 4666 
Q 2838 4666 3239 4311 
Q 3641 3956 3641 3272 
Q 3641 2581 3239 2228 
Q 2838 1875 2053 1875 
L 1259 1875 
L 1259 0 
L 628 0 
L 628 4666 
z
" transform="scale(0.015625)"/>
       <path id="DejaVuSans-6f" d="M 1959 3097 
Q 1497 3097 1228 2736 
Q 959 2375 959 1747 
Q 959 1119 1226 758 
Q 1494 397 1959 397 
Q 2419 397 2687 759 
Q 2956 1122 2956 1747 
Q 2956 2369 2687 2733 
Q 2419 3097 1959 3097 
z
M 1959 3584 
Q 2709 3584 3137 3096 
Q 3566 2609 3566 1747 
Q 3566 888 3137 398 
Q 2709 -91 1959 -91 
Q 1206 -91 779 398 
Q 353 888 353 1747 
Q 353 2609 779 3096 
Q 1206 3584 1959 3584 
z
" transform="scale(0.015625)"/>
       <path id="DejaVuSans-69" d="M 603 3500 
L 1178 3500 
L 1178 0 
L 603 0 
L 603 3500 
z
M 603 4863 
L 1178 4863 
L 1178 4134 
L 603 4134 
L 603 4863 
z
" transform="scale(0.015625)"/>
       <path id="DejaVuSans-74" d="M 1172 4494 
L 1172 3500 
L 2356 3500 
L 2356 3053 
L 1172 3053 
L 1172 1153 
Q 1172 725 1289 603 
Q 1406 481 1766 481 
L 2356 481 
L 2356 0 
L 1766 0 
Q 1100 0 847 248 
Q 594 497 594 1153 
L 594 3053 
L 172 3053 
L 172 3500 
L 594 3500 
L 594 4494 
L 1172 4494 
z
" transform="scale(0.015625)"/>
       <path id="DejaVuSans-76" d="M 191 3500 
L 800 3500 
L 1894 563 
L 2988 3500 
L 3597 3500 
L 2284 0 
L 1503 0 
L 191 3500 
z
" transform="scale(0.015625)"/>
       <path id="DejaVuSans-52" d="M 2841 2188 
Q 3044 2119 3236 1894 
Q 3428 1669 3622 1275 
L 4263 0 
L 3584 0 
L 2988 1197 
Q 2756 1666 2539 1819 
Q 2322 1972 1947 1972 
L 1259 1972 
L 1259 0 
L 628 0 
L 628 4666 
L 2053 4666 
Q 2853 4666 3247 4331 
Q 3641 3997 3641 3322 
Q 3641 2881 3436 2590 
Q 3231 2300 2841 2188 
z
M 1259 4147 
L 1259 2491 
L 2053 2491 
Q 2509 2491 2742 2702 
Q 2975 2913 2975 3322 
Q 2975 3731 2742 3939 
Q 2509 4147 2053 4147 
L 1259 4147 
z
" transform="scale(0.015625)"/>
      </defs>
      <use xlink:href="#DejaVuSans-46"/>
      <use xlink:href="#DejaVuSans-61" x="48.394531"/>
      <use xlink:href="#DejaVuSans-6c" x="109.673828"/>
      <use xlink:href="#DejaVuSans-73" x="137.457031"/>
      <use xlink:href="#DejaVuSans-65" x="189.556641"/>
      <use xlink:href="#DejaVuSans-20" x="251.080078"/>
      <use xlink:href="#DejaVuSans-50" x="282.867188"/>
      <use xlink:href="#DejaVuSans-6f" x="339.544922"/>
      <use xlink:href="#DejaVuSans-73" x="400.726562"/>
      <use xlink:href="#DejaVuSans-69" x="452.826172"/>
      <use xlink:href="#DejaVuSans-74" x="480.609375"/>
      <use xlink:href="#DejaVuSans-69" x="519.818359"/>
      <use xlink:href="#DejaVuSans-76" x="547.601562"/>
      <use xlink:href="#DejaVuSans-65" x="606.78125"/>
      <use xlink:href="#DejaVuSans-20" x="668.304688"/>
      <use xlink:href="#DejaVuSans-52" x="700.091797"/>
      <use xlink:href="#DejaVuSans-61" x="767.324219"/>
      <use xlink:href="#DejaVuSans-74" x="828.603516"/>
      <use xlink:href="#DejaVuSans-65" x="867.8125"/>
     </g>
    </g>
   </g>
   <g id="matplotlib.axis_2">
    <g id="ytick_1">
     <g id="line2d_7">
      <defs>
       <path id="m9e588e546f" d="M 0 0 
L -3.5 0 
" style="stroke: #000000; stroke-width: 0.8"/>
      </defs>
      <g>
       <use xlink:href="#m9e588e546f" x="43.78125" y="315.398125" style="stroke: #000000; stroke-width: 0.8"/>
      </g>
     </g>
     <g id="text_8">
      <!-- 0.0 -->
      <g transform="translate(20.878125 319.197344) scale(0.1 -0.1)">
       <use xlink:href="#DejaVuSans-30"/>
       <use xlink:href="#DejaVuSans-2e" x="63.623047"/>
       <use xlink:href="#DejaVuSans-30" x="95.410156"/>
      </g>
     </g>
    </g>
    <g id="ytick_2">
     <g id="line2d_8">
      <g>
       <use xlink:href="#m9e588e546f" x="43.78125" y="256.782125" style="stroke: #000000; stroke-width: 0.8"/>
      </g>
     </g>
     <g id="text_9">
      <!-- 0.2 -->
      <g transform="translate(20.878125 260.581344) scale(0.1 -0.1)">
       <use xlink:href="#DejaVuSans-30"/>
       <use xlink:href="#DejaVuSans-2e" x="63.623047"/>
       <use xlink:href="#DejaVuSans-32" x="95.410156"/>
      </g>
     </g>
    </g>
    <g id="ytick_3">
     <g id="line2d_9">
      <g>
       <use xlink:href="#m9e588e546f" x="43.78125" y="198.166125" style="stroke: #000000; stroke-width: 0.8"/>
      </g>
     </g>
     <g id="text_10">
      <!-- 0.4 -->
      <g transform="translate(20.878125 201.965344) scale(0.1 -0.1)">
       <use xlink:href="#DejaVuSans-30"/>
       <use xlink:href="#DejaVuSans-2e" x="63.623047"/>
       <use xlink:href="#DejaVuSans-34" x="95.410156"/>
      </g>
     </g>
    </g>
    <g id="ytick_4">
     <g id="line2d_10">
      <g>
       <use xlink:href="#m9e588e546f" x="43.78125" y="139.550125" style="stroke: #000000; stroke-width: 0.8"/>
      </g>
     </g>
     <g id="text_11">
      <!-- 0.6 -->
      <g transform="translate(20.878125 143.349344) scale(0.1 -0.1)">
       <use xlink:href="#DejaVuSans-30"/>
       <use xlink:href="#DejaVuSans-2e" x="63.623047"/>
       <use xlink:href="#DejaVuSans-36" x="95.410156"/>
      </g>
     </g>
    </g>
    <g id="ytick_5">
     <g id="line2d_11">
      <g>
       <use xlink:href="#m9e588e546f" x="43.78125" y="80.934125" style="stroke: #000000; stroke-width: 0.8"/>
      </g>
     </g>
     <g id="text_12">
      <!-- 0.8 -->
      <g transform="translate(20.878125 84.733344) scale(0.1 -0.1)">
       <use xlink:href="#DejaVuSans-30"/>
       <use xlink:href="#DejaVuSans-2e" x="63.623047"/>
       <use xlink:href="#DejaVuSans-38" x="95.410156"/>
      </g>
     </g>
    </g>
    <g id="ytick_6">
     <g id="line2d_12">
      <g>
       <use xlink:href="#m9e588e546f" x="43.78125" y="22.318125" style="stroke: #000000; stroke-width: 0.8"/>
      </g>
     </g>
     <g id="text_13">
      <!-- 1.0 -->
      <g transform="translate(20.878125 26.117344) scale(0.1 -0.1)">
       <use xlink:href="#DejaVuSans-31"/>
       <use xlink:href="#DejaVuSans-2e" x="63.623047"/>
       <use xlink:href="#DejaVuSans-30" x="95.410156"/>
      </g>
     </g>
    </g>
    <g id="text_14">
     <!-- True Positive Rate -->
     <g transform="translate(14.798438 213.387812) rotate(-90) scale(0.1 -0.1)">
      <defs>
       <path id="DejaVuSans-54" d="M -19 4666 
L 3928 4666 
L 3928 4134 
L 2272 4134 
L 2272 0 
L 1638 0 
L 1638 4134 
L -19 4134 
L -19 4666 
z
" transform="scale(0.015625)"/>
       <path id="DejaVuSans-72" d="M 2631 2963 
Q 2534 3019 2420 3045 
Q 2306 3072 2169 3072 
Q 1681 3072 1420 2755 
Q 1159 2438 1159 1844 
L 1159 0 
L 581 0 
L 581 3500 
L 1159 3500 
L 1159 2956 
Q 1341 3275 1631 3429 
Q 1922 3584 2338 3584 
Q 2397 3584 2469 3576 
Q 2541 3569 2628 3553 
L 2631 2963 
z
" transform="scale(0.015625)"/>
       <path id="DejaVuSans-75" d="M 544 1381 
L 544 3500 
L 1119 3500 
L 1119 1403 
Q 1119 906 1312 657 
Q 1506 409 1894 409 
Q 2359 409 2629 706 
Q 2900 1003 2900 1516 
L 2900 3500 
L 3475 3500 
L 3475 0 
L 2900 0 
L 2900 538 
Q 2691 219 2414 64 
Q 2138 -91 1772 -91 
Q 1169 -91 856 284 
Q 544 659 544 1381 
z
M 1991 3584 
L 1991 3584 
z
" transform="scale(0.015625)"/>
      </defs>
      <use xlink:href="#DejaVuSans-54"/>
      <use xlink:href="#DejaVuSans-72" x="46.333984"/>
      <use xlink:href="#DejaVuSans-75" x="87.447266"/>
      <use xlink:href="#DejaVuSans-65" x="150.826172"/>
      <use xlink:href="#DejaVuSans-20" x="212.349609"/>
      <use xlink:href="#DejaVuSans-50" x="244.136719"/>
      <use xlink:href="#DejaVuSans-6f" x="300.814453"/>
      <use xlink:href="#DejaVuSans-73" x="361.996094"/>
      <use xlink:href="#DejaVuSans-69" x="414.095703"/>
      <use xlink:href="#DejaVuSans-74" x="441.878906"/>
      <use xlink:href="#DejaVuSans-69" x="481.087891"/>
      <use xlink:href="#DejaVuSans-76" x="508.871094"/>
      <use xlink:href="#DejaVuSans-65" x="568.050781"/>
      <use xlink:href="#DejaVuSans-20" x="629.574219"/>
      <use xlink:href="#DejaVuSans-52" x="661.361328"/>
      <use xlink:href="#DejaVuSans-61" x="728.59375"/>
      <use xlink:href="#DejaVuSans-74" x="789.873047"/>
      <use xlink:href="#DejaVuSans-65" x="829.082031"/>
     </g>
    </g>
   </g>
   <g id="line2d_13">
    <path d="M 43.78125 315.055808 
L 45.258386 313.479037 
L 46.735521 309.718821 
L 48.212657 307.688363 
L 49.689793 304.891793 
L 51.166928 302.71245 
L 52.644064 299.247659 
L 54.1212 297.394221 
L 55.598335 295.277011 
L 57.075471 293.86671 
L 58.552607 291.638129 
L 60.029742 289.842721 
L 61.506878 286.493989 
L 62.984014 283.857442 
L 64.461149 279.723841 
L 65.938285 277.096672 
L 67.415421 273.791902 
L 68.892557 272.028733 
L 70.369692 269.875767 
L 71.846828 268.633108 
L 73.323964 266.704641 
L 74.801099 265.276756 
L 76.278235 262.981939 
L 77.755371 261.432718 
L 79.232506 259.181278 
L 80.709642 257.626782 
L 82.186778 255.181908 
L 83.663913 253.475596 
L 85.141049 250.963901 
L 86.618185 249.21011 
L 88.09532 246.73886 
L 89.572456 245.095267 
L 91.049592 242.473373 
L 92.526727 240.747132 
L 94.003863 238.48221 
L 95.480999 237.090666 
L 96.958134 235.23547 
L 98.43527 234.050254 
L 99.912406 232.177473 
L 101.389541 230.933055 
L 104.343813 226.547406 
L 105.820948 224.986462 
L 107.298084 222.576758 
L 108.77522 221.052156 
L 110.252356 218.883364 
L 111.729491 217.586778 
L 113.206627 215.701688 
L 114.683763 214.491267 
L 116.160898 212.643105 
L 117.638034 211.436201 
L 119.11517 209.632001 
L 120.592305 208.473749 
L 122.069441 206.722303 
L 123.546577 205.655491 
L 125.023712 204.043551 
L 126.500848 202.959741 
L 127.977984 201.361283 
L 129.455119 200.305609 
L 130.932255 198.636225 
L 132.409391 197.492627 
L 133.886526 195.791005 
L 135.363662 194.668508 
L 136.840798 193.013192 
L 138.317933 191.930555 
L 139.795069 190.326235 
L 141.272205 189.303972 
L 142.74934 187.727202 
L 144.226476 186.742453 
L 145.703612 185.259468 
L 147.180747 184.231343 
L 148.657883 182.750703 
L 150.135019 181.757162 
L 151.612155 180.154601 
L 153.08929 179.036207 
L 154.566426 177.365065 
L 156.043562 176.312322 
L 157.520697 174.591356 
L 158.997833 173.47648 
L 161.952104 170.089061 
L 163.42924 168.896225 
L 164.906376 166.968345 
L 166.383511 165.676449 
L 167.860647 163.844699 
L 169.337783 162.552802 
L 170.814918 160.624922 
L 172.292054 159.422121 
L 173.76919 157.701156 
L 175.246325 156.527077 
L 176.723461 154.922171 
L 178.200597 153.860635 
L 179.677732 152.268625 
L 181.154868 151.091029 
L 182.632004 149.209456 
L 184.109139 147.838427 
L 185.586275 145.693668 
L 187.063411 144.16848 
L 188.540546 141.8467 
L 190.017682 140.23476 
L 191.494818 137.947564 
L 192.971954 136.48275 
L 194.449089 134.367884 
L 195.926225 133.044921 
L 197.403361 130.993947 
L 198.880496 129.747185 
L 200.357632 127.958811 
L 201.834768 126.817557 
L 203.311903 125.223788 
L 204.789039 124.253107 
L 206.266175 123.004587 
L 207.74331 122.218546 
L 209.220446 121.125944 
L 210.697582 120.529819 
L 212.174717 119.678129 
L 213.651853 119.135931 
L 215.128989 118.277792 
L 216.606124 117.651187 
L 218.08326 116.654715 
L 219.560396 115.9396 
L 221.037531 114.861066 
L 222.514667 113.606683 
L 223.991803 112.760268 
L 225.468938 111.331796 
L 226.946074 110.390423 
L 228.42321 108.894543 
L 229.900345 107.863488 
L 231.377481 106.300785 
L 232.854617 105.282625 
L 234.331753 103.809605 
L 235.808888 102.807858 
L 237.286024 101.419831 
L 238.76316 100.445047 
L 240.240295 99.021264 
L 241.717431 98.09689 
L 243.194567 96.642041 
L 244.671702 95.676049 
L 246.148838 94.208891 
L 247.625974 93.239382 
L 249.103109 91.866595 
L 250.580245 91.041282 
L 252.057381 89.853136 
L 253.534516 89.126883 
L 255.011652 88.030764 
L 256.488788 87.33382 
L 257.965923 86.102884 
L 259.443059 85.25471 
L 260.920195 83.887199 
L 262.39733 82.952274 
L 263.874466 81.365539 
L 265.351602 80.194391 
L 266.828737 78.203792 
L 268.305873 76.810489 
L 269.783009 74.565497 
L 271.260144 73.159885 
L 272.73728 71.042675 
L 274.214416 69.782431 
L 275.691552 67.98292 
L 277.168687 66.940141 
L 278.645823 65.599007 
L 280.122959 64.423756 
L 281.600094 63.647094 
L 283.07723 62.415572 
L 284.554366 61.566812 
L 286.031501 60.223334 
L 287.508637 59.249136 
L 288.985773 57.699915 
L 290.462908 56.624311 
L 291.940044 54.908035 
L 293.41718 53.70289 
L 294.894315 52.135498 
L 296.371451 51.133751 
L 297.848587 49.855336 
L 299.325722 49.139634 
L 300.802858 48.257463 
L 302.279994 47.762158 
L 303.757129 46.967325 
L 305.234265 46.408129 
L 306.711401 45.457963 
L 308.188536 44.787982 
L 309.665672 43.751652 
L 311.142808 43.18249 
L 312.619943 42.348385 
L 314.097079 41.751087 
L 315.574215 40.772786 
L 317.051351 39.932819 
L 318.528486 38.311501 
L 320.005622 37.017845 
L 321.482758 34.781645 
L 322.959893 33.388929 
L 324.437029 31.448153 
L 325.914165 30.441716 
L 327.3913 29.13458 
L 328.868436 28.284648 
L 330.345572 26.991579 
L 334.776979 25.391948 
L 337.73125 22.318125 
L 337.73125 22.318125 
" clip-path="url(#p945bb985b5)" style="fill: none; stroke: #1f77b4; stroke-width: 2; stroke-linecap: square"/>
   </g>
   <g id="line2d_14">
    <path d="M 43.78125 314.742212 
L 45.258386 312.794988 
L 46.735521 305.97912 
L 48.212657 299.815648 
L 49.689793 292.479855 
L 51.166928 289.547297 
L 52.644064 286.343346 
L 54.1212 284.310543 
L 55.598335 281.162864 
L 57.075471 279.019277 
L 58.552607 276.238534 
L 60.029742 274.593183 
L 61.506878 272.077384 
L 62.984014 270.257943 
L 64.461149 267.233358 
L 65.938285 265.096218 
L 67.415421 262.045256 
L 68.892557 259.974352 
L 70.369692 256.916942 
L 71.846828 254.914033 
L 73.323964 252.013127 
L 74.801099 250.006115 
L 76.278235 247.116347 
L 77.755371 245.199017 
L 79.232506 242.478649 
L 80.709642 240.839159 
L 82.186778 238.703192 
L 83.663913 237.481635 
L 85.141049 235.763014 
L 86.618185 234.682135 
L 88.09532 232.90607 
L 89.572456 231.537386 
L 91.049592 229.363319 
L 92.526727 227.766033 
L 94.003863 225.304747 
L 95.480999 223.492926 
L 96.958134 220.583228 
L 98.43527 218.620178 
L 99.912406 215.486567 
L 101.389541 213.62082 
L 102.866677 210.818389 
L 104.343813 208.466715 
L 105.820948 207.045277 
L 107.298084 205.138498 
L 108.77522 203.931009 
L 110.252356 202.231731 
L 111.729491 201.071134 
L 113.206627 199.205973 
L 114.683763 197.917593 
L 116.160898 195.8971 
L 117.638034 194.613995 
L 119.11517 192.882479 
L 120.592305 191.829149 
L 122.069441 190.200211 
L 123.546577 189.081231 
L 125.023712 187.350301 
L 126.500848 186.148087 
L 127.977984 184.142247 
L 129.455119 182.831593 
L 130.932255 180.928918 
L 132.409391 179.756012 
L 133.886526 177.965293 
L 135.363662 176.849244 
L 136.840798 175.19979 
L 138.317933 174.137082 
L 139.795069 172.581413 
L 141.272205 171.457745 
L 142.74934 169.75495 
L 144.226476 168.611938 
L 145.703612 166.926728 
L 147.180747 165.771993 
L 148.657883 164.122538 
L 150.135019 163.017041 
L 151.612155 161.478957 
L 153.08929 160.504173 
L 154.566426 159.065736 
L 156.043562 158.113226 
L 157.520697 156.664239 
L 158.997833 155.635528 
L 161.952104 152.709417 
L 163.42924 151.76101 
L 164.906376 150.460321 
L 166.383511 149.667833 
L 167.860647 148.454482 
L 169.337783 147.71592 
L 170.814918 146.595182 
L 172.292054 145.766938 
L 173.76919 144.591687 
L 175.246325 143.77458 
L 176.723461 142.398863 
L 178.200597 141.408838 
L 179.677732 139.797485 
L 181.154868 138.608166 
L 182.632004 136.761176 
L 184.109139 135.554272 
L 185.586275 133.780552 
L 187.063411 132.618197 
L 188.540546 130.966984 
L 190.017682 129.829248 
L 191.494818 128.29937 
L 192.971954 127.275348 
L 194.449089 125.85391 
L 195.926225 124.962361 
L 197.403361 123.630019 
L 198.880496 122.765433 
L 200.357632 121.658763 
L 201.834768 120.981162 
L 203.311903 119.904973 
L 204.789039 119.22913 
L 206.266175 118.15294 
L 207.74331 117.454824 
L 209.220446 116.331155 
L 210.697582 115.573836 
L 212.174717 114.468339 
L 213.651853 113.685229 
L 215.128989 112.514667 
L 216.606124 111.681734 
L 218.08326 110.505311 
L 219.560396 109.67355 
L 222.514667 107.072172 
L 223.991803 106.15659 
L 225.468938 104.823076 
L 226.946074 103.899874 
L 228.42321 102.511261 
L 229.900345 101.630262 
L 231.377481 100.262165 
L 232.854617 99.413405 
L 234.331753 98.103924 
L 235.808888 97.232304 
L 237.286024 95.968543 
L 238.76316 95.088131 
L 240.240295 93.732342 
L 241.717431 92.843138 
L 243.194567 91.381841 
L 244.671702 90.312099 
L 246.148838 88.769326 
L 247.625974 87.762889 
L 249.103109 86.2928 
L 250.580245 85.293983 
L 252.057381 83.889544 
L 253.534516 82.918277 
L 255.011652 81.519699 
L 256.488788 80.665664 
L 257.965923 79.551374 
L 259.443059 78.833914 
L 260.920195 77.761241 
L 262.39733 77.061366 
L 263.874466 75.939456 
L 265.351602 75.200308 
L 266.828737 73.894343 
L 268.305873 73.023896 
L 269.783009 71.639972 
L 271.260144 70.710908 
L 272.73728 69.325226 
L 274.214416 68.418437 
L 275.691552 67.132402 
L 277.168687 66.291848 
L 280.122959 64.039235 
L 281.600094 63.357531 
L 283.07723 62.36399 
L 284.554366 61.722731 
L 286.031501 60.712777 
L 287.508637 60.025212 
L 288.985773 58.811274 
L 290.462908 57.975996 
L 291.940044 56.587969 
L 293.41718 55.6888 
L 294.894315 54.372871 
L 296.371451 53.616724 
L 297.848587 52.448507 
L 299.325722 51.795525 
L 300.802858 50.892253 
L 302.279994 50.317816 
L 303.757129 49.382891 
L 305.234265 48.676568 
L 306.711401 47.443873 
L 308.188536 46.496053 
L 309.665672 44.936281 
L 311.142808 43.962083 
L 312.619943 42.737595 
L 314.097079 42.059994 
L 315.574215 40.980287 
L 317.051351 40.12039 
L 318.528486 38.43518 
L 320.005622 37.129802 
L 321.482758 35.109309 
L 322.959893 33.906508 
L 324.437029 32.466899 
L 325.914165 31.628104 
L 327.3913 30.423545 
L 328.868436 29.572441 
L 330.345572 28.347953 
L 331.822707 27.560154 
L 334.776979 25.023253 
L 336.254114 23.207916 
L 337.73125 22.318125 
L 337.73125 22.318125 
" clip-path="url(#p945bb985b5)" style="fill: none; stroke: #ff7f0e; stroke-width: 2; stroke-linecap: square"/>
   </g>
   <g id="line2d_15">
    <path d="M 43.78125 313.745154 
L 45.258386 310.474967 
L 46.735521 303.597552 
L 48.212657 298.809211 
L 49.689793 293.574216 
L 51.166928 290.965218 
L 52.644064 287.678032 
L 54.1212 285.070793 
L 55.598335 280.434853 
L 57.075471 277.105465 
L 58.552607 272.987691 
L 60.029742 270.541059 
L 61.506878 267.092679 
L 62.984014 264.878753 
L 64.461149 261.552881 
L 65.938285 258.854201 
L 67.415421 254.706532 
L 68.892557 251.847244 
L 70.369692 247.873665 
L 71.846828 245.800417 
L 73.323964 242.693769 
L 74.801099 240.74596 
L 76.278235 237.652793 
L 77.755371 235.649885 
L 79.232506 232.730222 
L 80.709642 230.921918 
L 82.186778 228.616551 
L 83.663913 227.134152 
L 85.141049 224.948362 
L 86.618185 223.485306 
L 88.09532 221.289551 
L 89.572456 219.766121 
L 91.049592 217.574469 
L 92.526727 216.190545 
L 94.003863 214.276733 
L 95.480999 213.074518 
L 96.958134 211.43327 
L 98.43527 210.416283 
L 99.912406 208.929781 
L 101.389541 207.98958 
L 104.343813 205.354791 
L 105.820948 204.478482 
L 107.298084 203.018944 
L 108.77522 202.072881 
L 110.252356 200.598689 
L 111.729491 199.562944 
L 113.206627 197.856633 
L 114.683763 196.679037 
L 116.160898 194.739434 
L 117.638034 193.280481 
L 119.11517 191.104069 
L 120.592305 189.596466 
L 122.069441 187.155696 
L 123.546577 185.711397 
L 125.023712 183.536158 
L 126.500848 182.067827 
L 127.977984 179.904896 
L 129.455119 178.46646 
L 130.932255 176.363318 
L 132.409391 175.034493 
L 133.886526 173.138851 
L 135.363662 172.03394 
L 136.840798 170.583194 
L 138.317933 169.705126 
L 139.795069 168.28193 
L 141.272205 167.313593 
L 142.74934 165.830022 
L 144.226476 164.83355 
L 145.703612 163.260297 
L 147.180747 162.255033 
L 148.657883 160.681193 
L 150.135019 159.60852 
L 151.612155 158.035267 
L 153.08929 156.972559 
L 154.566426 155.370583 
L 156.043562 154.32546 
L 157.520697 152.673661 
L 158.997833 151.500755 
L 161.952104 148.006655 
L 163.42924 146.684865 
L 164.906376 144.907627 
L 166.383511 143.707172 
L 167.860647 141.994665 
L 169.337783 140.867583 
L 170.814918 139.238506 
L 172.292054 138.222945 
L 173.76919 136.557451 
L 175.246325 135.391817 
L 176.723461 133.68235 
L 178.200597 132.484044 
L 179.677732 130.751672 
L 181.154868 129.542711 
L 182.632004 127.914419 
L 184.109139 126.845127 
L 185.586275 125.550574 
L 187.063411 124.728013 
L 188.540546 123.549965 
L 190.017682 122.740441 
L 191.494818 121.631677 
L 192.971954 120.849445 
L 194.449089 119.597859 
L 195.926225 118.702239 
L 197.403361 117.317076 
L 198.880496 116.379593 
L 200.357632 114.944301 
L 201.834768 114.025788 
L 203.311903 112.565663 
L 204.789039 111.641875 
L 206.266175 110.376356 
L 207.74331 109.562766 
L 209.220446 108.311314 
L 210.697582 107.551064 
L 212.174717 106.367021 
L 213.651853 105.605013 
L 215.128989 104.461415 
L 216.606124 103.732818 
L 218.08326 102.614425 
L 219.560396 101.928618 
L 222.514667 100.062284 
L 223.991803 99.441541 
L 225.468938 98.443897 
L 226.946074 97.739332 
L 228.42321 96.630904 
L 229.900345 95.760456 
L 231.377481 94.366568 
L 232.854617 93.415816 
L 234.331753 91.890628 
L 235.808888 90.862503 
L 237.286024 89.377174 
L 238.76316 88.516691 
L 240.240295 87.185521 
L 241.717431 86.404756 
L 243.194567 85.289294 
L 244.671702 84.518493 
L 246.148838 83.425305 
L 247.625974 82.689674 
L 249.103109 81.571867 
L 250.580245 80.807514 
L 252.057381 79.658641 
L 253.534516 78.932389 
L 255.011652 77.813409 
L 256.488788 77.093019 
L 257.965923 76.054343 
L 259.443059 75.382604 
L 260.920195 74.325171 
L 262.39733 73.620607 
L 263.874466 72.557899 
L 265.351602 71.869161 
L 266.828737 70.805866 
L 268.305873 70.112439 
L 269.783009 69.062627 
L 271.260144 68.369199 
L 272.73728 67.399691 
L 274.214416 66.746708 
L 275.691552 65.804163 
L 277.168687 65.142388 
L 280.122959 63.04628 
L 281.600094 62.288375 
L 283.07723 61.133054 
L 284.554366 60.444316 
L 286.031501 59.406227 
L 287.508637 58.716316 
L 288.985773 57.840007 
L 290.462908 57.290775 
L 291.940044 56.545766 
L 293.41718 56.036979 
L 294.894315 55.232767 
L 296.371451 54.673571 
L 297.848587 53.694684 
L 299.325722 52.932676 
L 300.802858 51.696464 
L 302.279994 50.896942 
L 303.757129 49.756861 
L 305.234265 49.037056 
L 306.711401 47.949729 
L 308.188536 47.074593 
L 309.665672 45.719977 
L 311.142808 44.657855 
L 312.619943 42.986713 
L 314.097079 41.796808 
L 315.574215 40.112184 
L 317.051351 39.064716 
L 318.528486 37.711859 
L 320.005622 36.918784 
L 321.482758 35.704261 
L 322.959893 34.785748 
L 324.437029 33.320348 
L 325.914165 32.488001 
L 327.3913 31.271719 
L 328.868436 30.463404 
L 330.345572 29.467519 
L 331.822707 29.00328 
L 333.299843 28.33154 
L 334.776979 27.351481 
L 336.254114 24.35972 
L 337.73125 22.318125 
L 337.73125 22.318125 
" clip-path="url(#p945bb985b5)" style="fill: none; stroke: #2ca02c; stroke-width: 2; stroke-linecap: square"/>
   </g>
   <g id="line2d_16">
    <path d="M 43.78125 312.504253 
L 45.258386 306.104558 
L 46.735521 301.84845 
L 49.689793 297.716609 
L 51.166928 296.776408 
L 54.1212 292.86379 
L 55.598335 288.447661 
L 57.075471 285.142304 
L 58.552607 280.534501 
L 60.029742 277.752585 
L 61.506878 274.043365 
L 62.984014 271.689932 
L 64.461149 268.143078 
L 65.938285 265.632555 
L 67.415421 261.576328 
L 68.892557 258.9093 
L 70.369692 255.106294 
L 71.846828 252.875955 
L 73.323964 249.630973 
L 74.801099 247.643304 
L 76.278235 244.789878 
L 77.755371 243.065395 
L 79.232506 240.675621 
L 80.709642 239.323936 
L 82.186778 237.431811 
L 83.663913 236.282351 
L 85.141049 234.468772 
L 86.618185 233.148154 
L 88.09532 230.891438 
L 89.572456 229.146439 
L 91.049592 226.510478 
L 92.526727 224.820579 
L 94.003863 222.383325 
L 95.480999 220.908547 
L 96.958134 218.744444 
L 98.43527 217.3148 
L 99.912406 214.91213 
L 101.389541 213.154822 
L 104.343813 208.203529 
L 105.820948 206.827225 
L 107.298084 204.867692 
L 108.77522 203.720577 
L 110.252356 202.150841 
L 111.729491 201.144404 
L 113.206627 199.514879 
L 114.683763 198.370109 
L 116.160898 196.621007 
L 117.638034 195.323249 
L 119.11517 193.254104 
L 120.592305 191.846734 
L 122.069441 189.715456 
L 123.546577 188.327429 
L 125.023712 186.223115 
L 126.500848 184.852673 
L 127.977984 182.825732 
L 129.455119 181.55142 
L 130.932255 179.635263 
L 132.409391 178.380294 
L 133.886526 176.611263 
L 135.363662 175.452425 
L 136.840798 173.693945 
L 138.317933 172.614824 
L 139.795069 171.062673 
L 141.272205 170.094923 
L 142.74934 168.664106 
L 144.226476 167.624258 
L 145.703612 165.959564 
L 147.180747 164.858169 
L 148.657883 163.093828 
L 150.135019 161.876959 
L 151.612155 160.042865 
L 153.08929 158.745693 
L 154.566426 156.875842 
L 156.043562 155.726969 
L 157.520697 154.081031 
L 158.997833 153.049976 
L 161.952104 149.809683 
L 163.42924 148.775111 
L 164.906376 147.141483 
L 166.383511 145.996713 
L 167.860647 144.288309 
L 169.337783 143.143642 
L 170.814918 141.286549 
L 172.292054 139.990217 
L 173.76919 138.04278 
L 175.246325 136.674335 
L 176.723461 134.540488 
L 178.200597 133.108891 
L 179.677732 131.08168 
L 181.154868 129.756073 
L 182.632004 127.929073 
L 184.109139 126.715586 
L 185.586275 125.224669 
L 187.063411 124.198124 
L 188.540546 122.871192 
L 190.017682 122.001879 
L 191.494818 120.753609 
L 192.971954 119.890487 
L 194.449089 118.555667 
L 195.926225 117.579156 
L 197.403361 116.062694 
L 198.880496 114.982187 
L 200.357632 113.232713 
L 201.834768 111.956057 
L 203.311903 110.100274 
L 204.789039 108.879889 
L 206.266175 107.192335 
L 207.74331 106.146039 
L 209.220446 104.746289 
L 210.697582 103.93563 
L 212.174717 102.830718 
L 213.651853 102.173633 
L 215.128989 101.21233 
L 216.606124 100.550556 
L 218.08326 99.485503 
L 219.560396 98.643777 
L 221.037531 97.331365 
L 222.514667 95.836657 
L 223.991803 94.761053 
L 225.468938 93.156147 
L 226.946074 92.106921 
L 228.42321 90.58056 
L 229.900345 89.651497 
L 231.377481 88.374254 
L 232.854617 87.543665 
L 234.331753 86.494439 
L 235.808888 85.870765 
L 237.286024 85.041348 
L 238.76316 84.505012 
L 240.240295 83.757072 
L 241.717431 83.209012 
L 243.194567 82.278776 
L 244.671702 81.574798 
L 246.148838 80.464025 
L 247.625974 79.697327 
L 249.103109 78.492182 
L 250.580245 77.624666 
L 252.057381 76.372042 
L 253.534516 75.535005 
L 255.011652 74.328688 
L 256.488788 73.499858 
L 257.965923 72.29061 
L 259.443059 71.424265 
L 260.920195 70.186295 
L 262.39733 69.352776 
L 263.874466 68.114806 
L 265.351602 67.249047 
L 266.828737 66.096071 
L 268.305873 65.346958 
L 269.783009 64.167604 
L 271.260144 63.362807 
L 272.73728 62.161765 
L 274.214416 61.41148 
L 275.691552 60.371632 
L 277.168687 59.773749 
L 280.122959 58.109055 
L 281.600094 57.524067 
L 283.07723 56.530526 
L 284.554366 55.80017 
L 286.031501 54.800768 
L 287.508637 54.117305 
L 288.985773 53.171243 
L 290.462908 52.568084 
L 291.940044 51.555786 
L 293.41718 50.885805 
L 294.894315 49.707623 
L 296.371451 48.830728 
L 297.848587 47.303195 
L 299.325722 46.147287 
L 300.802858 44.480835 
L 302.279994 43.384715 
L 303.757129 42.001378 
L 305.234265 41.25461 
L 306.711401 40.373611 
L 308.188536 39.788038 
L 309.665672 38.788635 
L 311.142808 38.059452 
L 312.619943 37.057704 
L 314.097079 36.397688 
L 315.574215 35.469797 
L 317.051351 34.875431 
L 318.528486 33.867822 
L 320.005622 33.058921 
L 321.482758 31.863154 
L 322.959893 31.203724 
L 324.437029 30.410064 
L 325.914165 29.937033 
L 327.3913 29.224848 
L 328.868436 28.748886 
L 330.345572 27.937055 
L 331.822707 27.271763 
L 333.299843 26.202021 
L 334.776979 25.464632 
L 336.254114 24.389028 
L 337.73125 22.318125 
L 337.73125 22.318125 
" clip-path="url(#p945bb985b5)" style="fill: none; stroke: #d62728; stroke-width: 2; stroke-linecap: square"/>
   </g>
   <g id="line2d_17">
    <path d="M 43.78125 311.953849 
L 45.258386 307.438072 
L 46.735521 301.244706 
L 49.689793 289.475785 
L 52.644064 285.830456 
L 54.1212 284.655791 
L 57.075471 280.619494 
L 58.552607 276.699256 
L 60.029742 273.934339 
L 61.506878 270.277287 
L 62.984014 268.173558 
L 64.461149 265.16773 
L 65.938285 263.14665 
L 67.415421 260.269191 
L 68.892557 258.41927 
L 70.369692 255.752242 
L 71.846828 254.069377 
L 73.323964 251.812661 
L 74.801099 250.33671 
L 76.278235 248.038376 
L 77.755371 246.355511 
L 79.232506 243.509118 
L 80.709642 241.485107 
L 82.186778 238.550791 
L 83.663913 236.566053 
L 85.141049 233.781793 
L 86.618185 232.031519 
L 88.09532 229.539167 
L 89.572456 227.978223 
L 91.049592 225.712128 
L 92.526727 224.254348 
L 94.003863 222.0117 
L 95.480999 220.459548 
L 96.958134 218.02464 
L 98.43527 216.395701 
L 99.912406 213.927381 
L 101.389541 212.352369 
L 104.343813 207.174232 
L 105.820948 205.4603 
L 107.298084 203.023047 
L 108.77522 201.540062 
L 110.252356 199.404095 
L 111.729491 198.052996 
L 113.206627 195.960991 
L 114.683763 194.459835 
L 116.160898 192.030202 
L 117.638034 190.35144 
L 119.11517 187.67093 
L 120.592305 185.861454 
L 122.069441 183.30228 
L 123.546577 181.755403 
L 125.023712 179.405488 
L 126.500848 177.988153 
L 127.977984 175.909044 
L 129.455119 174.576116 
L 130.932255 172.675199 
L 132.409391 171.46302 
L 133.886526 169.668784 
L 135.363662 168.543357 
L 136.840798 166.886869 
L 138.317933 165.868709 
L 139.795069 164.442582 
L 141.272205 163.544585 
L 142.74934 162.144248 
L 144.226476 161.18998 
L 145.703612 159.627863 
L 147.180747 158.633736 
L 148.657883 157.146062 
L 150.135019 156.200586 
L 151.612155 154.966133 
L 153.08929 154.190057 
L 154.566426 153.178345 
L 156.043562 152.499572 
L 157.520697 151.584576 
L 158.997833 150.978487 
L 161.952104 149.280967 
L 163.42924 148.73408 
L 164.906376 147.906422 
L 166.383511 147.333157 
L 167.860647 146.36189 
L 169.337783 145.737044 
L 170.814918 144.561207 
L 172.292054 143.722412 
L 173.76919 142.241772 
L 175.246325 141.143308 
L 176.723461 139.407688 
L 178.200597 138.191406 
L 179.677732 136.349105 
L 181.154868 135.212541 
L 182.632004 133.540813 
L 184.109139 132.504482 
L 185.586275 130.90954 
L 187.063411 129.914241 
L 188.540546 128.547316 
L 190.017682 127.629389 
L 191.494818 126.261878 
L 192.971954 125.338676 
L 194.449089 123.962372 
L 195.926225 123.080787 
L 197.403361 121.750204 
L 198.880496 120.962991 
L 200.357632 119.848115 
L 201.834768 119.11307 
L 203.311903 118.116598 
L 204.789039 117.476512 
L 206.266175 116.528691 
L 207.74331 115.829988 
L 209.220446 114.770797 
L 210.697582 113.950759 
L 212.174717 112.563319 
L 213.651853 111.502369 
L 215.128989 109.794299 
L 216.606124 108.698766 
L 218.08326 106.930321 
L 219.560396 105.818375 
L 222.514667 102.820753 
L 223.991803 102.001888 
L 225.468938 100.829568 
L 226.946074 100.106832 
L 228.42321 99.063468 
L 229.900345 98.399935 
L 231.377481 97.378844 
L 232.854617 96.66197 
L 234.331753 95.655533 
L 235.808888 94.960348 
L 237.286024 93.884744 
L 238.76316 93.187214 
L 240.240295 92.054166 
L 241.717431 91.373635 
L 243.194567 90.358405 
L 244.671702 89.730042 
L 246.148838 88.793358 
L 247.625974 88.176132 
L 249.103109 87.169695 
L 250.580245 86.481543 
L 252.057381 85.301017 
L 253.534516 84.439948 
L 255.011652 83.109365 
L 256.488788 82.170336 
L 257.965923 80.779379 
L 259.443059 79.889002 
L 260.920195 78.539075 
L 262.39733 77.572497 
L 263.874466 76.059032 
L 265.351602 74.989876 
L 266.828737 73.257774 
L 268.305873 72.045009 
L 269.783009 70.24667 
L 271.260144 69.06204 
L 272.73728 67.395587 
L 274.214416 66.395012 
L 275.691552 65.034535 
L 277.168687 64.215669 
L 280.122959 62.048636 
L 281.600094 61.332935 
L 283.07723 60.313016 
L 284.554366 59.623106 
L 286.031501 58.598498 
L 287.508637 57.85173 
L 288.985773 56.760887 
L 290.462908 55.999465 
L 291.940044 54.869934 
L 293.41718 54.233365 
L 294.894315 53.325403 
L 296.371451 52.72283 
L 297.848587 51.846521 
L 299.325722 51.216985 
L 300.802858 50.252752 
L 302.279994 49.581599 
L 303.757129 48.41983 
L 305.234265 47.661339 
L 306.711401 46.327825 
L 308.188536 45.514235 
L 309.665672 44.310848 
L 311.142808 43.542979 
L 312.619943 42.337834 
L 314.097079 41.492005 
L 315.574215 40.1327 
L 317.051351 39.185465 
L 318.528486 37.676103 
L 320.005622 36.667322 
L 321.482758 35.227713 
L 322.959893 34.360782 
L 324.437029 33.204875 
L 325.914165 32.502069 
L 328.868436 29.926482 
L 330.345572 27.733071 
L 331.822707 26.395454 
L 333.299843 24.786445 
L 336.254114 23.011552 
L 337.73125 22.318125 
L 337.73125 22.318125 
" clip-path="url(#p945bb985b5)" style="fill: none; stroke: #9467bd; stroke-width: 2; stroke-linecap: square"/>
   </g>
   <g id="line2d_18">
    <path d="M 43.78125 314.187118 
L 45.258386 313.285215 
L 46.735521 311.258724 
L 48.212657 308.572775 
L 49.689793 306.663648 
L 57.075471 299.333624 
L 337.73125 22.318125 
L 337.73125 22.318125 
" clip-path="url(#p945bb985b5)" style="fill: none; stroke: #8c564b; stroke-width: 2; stroke-linecap: square"/>
   </g>
   <g id="line2d_19">
    <path d="M 43.78125 314.947954 
L 45.258386 314.194739 
L 46.735521 313.148443 
L 48.212657 311.286213 
L 49.689793 308.030094 
L 51.166928 305.103983 
L 52.644064 301.60702 
L 54.1212 297.652239 
L 55.598335 294.852478 
L 57.075471 291.620891 
L 58.552607 287.421075 
L 61.506878 279.772553 
L 64.461149 271.849801 
L 65.938285 268.080201 
L 68.892557 259.089989 
L 71.846828 249.243649 
L 74.801099 237.665225 
L 76.278235 231.48001 
L 79.232506 217.165606 
L 83.663913 193.704761 
L 86.618185 177.683473 
L 89.572456 163.490577 
L 94.003863 145.243588 
L 96.958134 133.842735 
L 99.912406 124.089707 
L 101.389541 120.234714 
L 102.866677 116.991548 
L 104.343813 114.68061 
L 105.820948 113.007178 
L 107.298084 111.882438 
L 108.77522 111.03731 
L 111.729491 109.770961 
L 125.023712 104.613638 
L 337.73125 22.318125 
L 337.73125 22.318125 
" clip-path="url(#p945bb985b5)" style="fill: none; stroke: #e377c2; stroke-width: 2; stroke-linecap: square"/>
   </g>
   <g id="line2d_20">
    <path d="M 43.78125 315.398125 
L 337.73125 22.318125 
" clip-path="url(#p945bb985b5)" style="fill: none; stroke-dasharray: 3.7,1.6; stroke-dashoffset: 0; stroke: #7f7f7f"/>
   </g>
   <g id="patch_3">
    <path d="M 43.78125 315.398125 
L 43.78125 22.318125 
" style="fill: none; stroke: #000000; stroke-width: 0.8; stroke-linejoin: miter; stroke-linecap: square"/>
   </g>
   <g id="patch_4">
    <path d="M 337.73125 315.398125 
L 337.73125 22.318125 
" style="fill: none; stroke: #000000; stroke-width: 0.8; stroke-linejoin: miter; stroke-linecap: square"/>
   </g>
   <g id="patch_5">
    <path d="M 43.78125 315.398125 
L 337.73125 315.398125 
" style="fill: none; stroke: #000000; stroke-width: 0.8; stroke-linejoin: miter; stroke-linecap: square"/>
   </g>
   <g id="patch_6">
    <path d="M 43.78125 22.318125 
L 337.73125 22.318125 
" style="fill: none; stroke: #000000; stroke-width: 0.8; stroke-linejoin: miter; stroke-linecap: square"/>
   </g>
   <g id="text_15">
    <!-- $s$ = 0.001 -->
    <g transform="translate(161.59625 16.318125) scale(0.12 -0.12)">
     <defs>
      <path id="DejaVuSans-Oblique-73" d="M 3200 3397 
L 3091 2853 
Q 2863 2978 2609 3040 
Q 2356 3103 2088 3103 
Q 1634 3103 1373 2948 
Q 1113 2794 1113 2528 
Q 1113 2219 1719 2053 
Q 1766 2041 1788 2034 
L 1972 1978 
Q 2547 1819 2739 1644 
Q 2931 1469 2931 1166 
Q 2931 609 2489 259 
Q 2047 -91 1331 -91 
Q 1053 -91 747 -37 
Q 441 16 72 128 
L 184 722 
Q 500 559 806 475 
Q 1113 391 1394 391 
Q 1816 391 2080 572 
Q 2344 753 2344 1031 
Q 2344 1331 1650 1516 
L 1591 1531 
L 1394 1581 
Q 956 1697 753 1886 
Q 550 2075 550 2369 
Q 550 2928 970 3256 
Q 1391 3584 2113 3584 
Q 2397 3584 2667 3537 
Q 2938 3491 3200 3397 
z
" transform="scale(0.015625)"/>
      <path id="DejaVuSans-3d" d="M 678 2906 
L 4684 2906 
L 4684 2381 
L 678 2381 
L 678 2906 
z
M 678 1631 
L 4684 1631 
L 4684 1100 
L 678 1100 
L 678 1631 
z
" transform="scale(0.015625)"/>
     </defs>
     <use xlink:href="#DejaVuSans-Oblique-73" transform="translate(0 0.78125)"/>
     <use xlink:href="#DejaVuSans-20" transform="translate(52.099609 0.78125)"/>
     <use xlink:href="#DejaVuSans-3d" transform="translate(83.886719 0.78125)"/>
     <use xlink:href="#DejaVuSans-20" transform="translate(167.675781 0.78125)"/>
     <use xlink:href="#DejaVuSans-30" transform="translate(199.462891 0.78125)"/>
     <use xlink:href="#DejaVuSans-2e" transform="translate(263.085938 0.78125)"/>
     <use xlink:href="#DejaVuSans-30" transform="translate(294.873047 0.78125)"/>
     <use xlink:href="#DejaVuSans-30" transform="translate(358.496094 0.78125)"/>
     <use xlink:href="#DejaVuSans-31" transform="translate(422.119141 0.78125)"/>
    </g>
   </g>
   <g id="legend_1">
    <g id="patch_7">
     <path d="M 209.89125 311.398125 
L 332.13125 311.398125 
Q 333.73125 311.398125 333.73125 309.798125 
L 333.73125 228.383125 
Q 333.73125 226.783125 332.13125 226.783125 
L 209.89125 226.783125 
Q 208.29125 226.783125 208.29125 228.383125 
L 208.29125 309.798125 
Q 208.29125 311.398125 209.89125 311.398125 
z
" style="fill: #ffffff; opacity: 0.8; stroke: #cccccc; stroke-linejoin: miter"/>
    </g>
    <g id="line2d_21">
     <path d="M 211.49125 233.261875 
L 219.49125 233.261875 
L 227.49125 233.261875 
" style="fill: none; stroke: #1f77b4; stroke-width: 2; stroke-linecap: square"/>
    </g>
    <g id="text_16">
     <!-- $D_{anc}$ (mean AUC = 0.57) -->
     <g transform="translate(233.89125 236.061875) scale(0.08 -0.08)">
      <defs>
       <path id="DejaVuSans-Oblique-44" d="M 1081 4666 
L 2438 4666 
Q 3519 4666 4070 4208 
Q 4622 3750 4622 2847 
Q 4622 2250 4412 1698 
Q 4203 1147 3834 769 
Q 3463 381 2891 190 
Q 2319 0 1538 0 
L 172 0 
L 1081 4666 
z
M 1613 4147 
L 909 519 
L 1734 519 
Q 2794 519 3375 1128 
Q 3956 1738 3956 2847 
Q 3956 3519 3581 3833 
Q 3206 4147 2406 4147 
L 1613 4147 
z
" transform="scale(0.015625)"/>
       <path id="DejaVuSans-Oblique-61" d="M 3438 1997 
L 3047 0 
L 2472 0 
L 2578 531 
Q 2325 219 2001 64 
Q 1678 -91 1281 -91 
Q 834 -91 548 182 
Q 263 456 263 884 
Q 263 1497 752 1853 
Q 1241 2209 2100 2209 
L 2900 2209 
L 2931 2363 
Q 2938 2388 2941 2417 
Q 2944 2447 2944 2509 
Q 2944 2788 2717 2942 
Q 2491 3097 2081 3097 
Q 1800 3097 1504 3025 
Q 1209 2953 897 2809 
L 997 3341 
Q 1322 3463 1633 3523 
Q 1944 3584 2234 3584 
Q 2853 3584 3176 3315 
Q 3500 3047 3500 2534 
Q 3500 2431 3484 2292 
Q 3469 2153 3438 1997 
z
M 2816 1759 
L 2241 1759 
Q 1534 1759 1195 1570 
Q 856 1381 856 984 
Q 856 709 1029 553 
Q 1203 397 1509 397 
Q 1978 397 2328 733 
Q 2678 1069 2791 1631 
L 2816 1759 
z
" transform="scale(0.015625)"/>
       <path id="DejaVuSans-Oblique-6e" d="M 3566 2113 
L 3156 0 
L 2578 0 
L 2988 2091 
Q 3016 2238 3031 2350 
Q 3047 2463 3047 2528 
Q 3047 2791 2881 2937 
Q 2716 3084 2419 3084 
Q 1956 3084 1622 2776 
Q 1288 2469 1184 1941 
L 800 0 
L 225 0 
L 903 3500 
L 1478 3500 
L 1363 2950 
Q 1603 3253 1940 3418 
Q 2278 3584 2650 3584 
Q 3113 3584 3367 3334 
Q 3622 3084 3622 2631 
Q 3622 2519 3608 2391 
Q 3594 2263 3566 2113 
z
" transform="scale(0.015625)"/>
       <path id="DejaVuSans-Oblique-63" d="M 3431 3366 
L 3316 2797 
Q 3109 2947 2876 3022 
Q 2644 3097 2394 3097 
Q 2119 3097 1870 3000 
Q 1622 2903 1453 2725 
Q 1184 2453 1037 2087 
Q 891 1722 891 1331 
Q 891 859 1127 628 
Q 1363 397 1844 397 
Q 2081 397 2348 469 
Q 2616 541 2906 684 
L 2797 116 
Q 2547 13 2283 -39 
Q 2019 -91 1741 -91 
Q 1044 -91 669 257 
Q 294 606 294 1253 
Q 294 1797 489 2255 
Q 684 2713 1069 3078 
Q 1331 3328 1684 3456 
Q 2038 3584 2456 3584 
Q 2700 3584 2940 3529 
Q 3181 3475 3431 3366 
z
" transform="scale(0.015625)"/>
       <path id="DejaVuSans-28" d="M 1984 4856 
Q 1566 4138 1362 3434 
Q 1159 2731 1159 2009 
Q 1159 1288 1364 580 
Q 1569 -128 1984 -844 
L 1484 -844 
Q 1016 -109 783 600 
Q 550 1309 550 2009 
Q 550 2706 781 3412 
Q 1013 4119 1484 4856 
L 1984 4856 
z
" transform="scale(0.015625)"/>
       <path id="DejaVuSans-6d" d="M 3328 2828 
Q 3544 3216 3844 3400 
Q 4144 3584 4550 3584 
Q 5097 3584 5394 3201 
Q 5691 2819 5691 2113 
L 5691 0 
L 5113 0 
L 5113 2094 
Q 5113 2597 4934 2840 
Q 4756 3084 4391 3084 
Q 3944 3084 3684 2787 
Q 3425 2491 3425 1978 
L 3425 0 
L 2847 0 
L 2847 2094 
Q 2847 2600 2669 2842 
Q 2491 3084 2119 3084 
Q 1678 3084 1418 2786 
Q 1159 2488 1159 1978 
L 1159 0 
L 581 0 
L 581 3500 
L 1159 3500 
L 1159 2956 
Q 1356 3278 1631 3431 
Q 1906 3584 2284 3584 
Q 2666 3584 2933 3390 
Q 3200 3197 3328 2828 
z
" transform="scale(0.015625)"/>
       <path id="DejaVuSans-6e" d="M 3513 2113 
L 3513 0 
L 2938 0 
L 2938 2094 
Q 2938 2591 2744 2837 
Q 2550 3084 2163 3084 
Q 1697 3084 1428 2787 
Q 1159 2491 1159 1978 
L 1159 0 
L 581 0 
L 581 3500 
L 1159 3500 
L 1159 2956 
Q 1366 3272 1645 3428 
Q 1925 3584 2291 3584 
Q 2894 3584 3203 3211 
Q 3513 2838 3513 2113 
z
" transform="scale(0.015625)"/>
       <path id="DejaVuSans-41" d="M 2188 4044 
L 1331 1722 
L 3047 1722 
L 2188 4044 
z
M 1831 4666 
L 2547 4666 
L 4325 0 
L 3669 0 
L 3244 1197 
L 1141 1197 
L 716 0 
L 50 0 
L 1831 4666 
z
" transform="scale(0.015625)"/>
       <path id="DejaVuSans-55" d="M 556 4666 
L 1191 4666 
L 1191 1831 
Q 1191 1081 1462 751 
Q 1734 422 2344 422 
Q 2950 422 3222 751 
Q 3494 1081 3494 1831 
L 3494 4666 
L 4128 4666 
L 4128 1753 
Q 4128 841 3676 375 
Q 3225 -91 2344 -91 
Q 1459 -91 1007 375 
Q 556 841 556 1753 
L 556 4666 
z
" transform="scale(0.015625)"/>
       <path id="DejaVuSans-43" d="M 4122 4306 
L 4122 3641 
Q 3803 3938 3442 4084 
Q 3081 4231 2675 4231 
Q 1875 4231 1450 3742 
Q 1025 3253 1025 2328 
Q 1025 1406 1450 917 
Q 1875 428 2675 428 
Q 3081 428 3442 575 
Q 3803 722 4122 1019 
L 4122 359 
Q 3791 134 3420 21 
Q 3050 -91 2638 -91 
Q 1578 -91 968 557 
Q 359 1206 359 2328 
Q 359 3453 968 4101 
Q 1578 4750 2638 4750 
Q 3056 4750 3426 4639 
Q 3797 4528 4122 4306 
z
" transform="scale(0.015625)"/>
       <path id="DejaVuSans-35" d="M 691 4666 
L 3169 4666 
L 3169 4134 
L 1269 4134 
L 1269 2991 
Q 1406 3038 1543 3061 
Q 1681 3084 1819 3084 
Q 2600 3084 3056 2656 
Q 3513 2228 3513 1497 
Q 3513 744 3044 326 
Q 2575 -91 1722 -91 
Q 1428 -91 1123 -41 
Q 819 9 494 109 
L 494 744 
Q 775 591 1075 516 
Q 1375 441 1709 441 
Q 2250 441 2565 725 
Q 2881 1009 2881 1497 
Q 2881 1984 2565 2268 
Q 2250 2553 1709 2553 
Q 1456 2553 1204 2497 
Q 953 2441 691 2322 
L 691 4666 
z
" transform="scale(0.015625)"/>
       <path id="DejaVuSans-37" d="M 525 4666 
L 3525 4666 
L 3525 4397 
L 1831 0 
L 1172 0 
L 2766 4134 
L 525 4134 
L 525 4666 
z
" transform="scale(0.015625)"/>
       <path id="DejaVuSans-29" d="M 513 4856 
L 1013 4856 
Q 1481 4119 1714 3412 
Q 1947 2706 1947 2009 
Q 1947 1309 1714 600 
Q 1481 -109 1013 -844 
L 513 -844 
Q 928 -128 1133 580 
Q 1338 1288 1338 2009 
Q 1338 2731 1133 3434 
Q 928 4138 513 4856 
z
" transform="scale(0.015625)"/>
      </defs>
      <use xlink:href="#DejaVuSans-Oblique-44" transform="translate(0 0.125)"/>
      <use xlink:href="#DejaVuSans-Oblique-61" transform="translate(77.001953 -16.28125) scale(0.7)"/>
      <use xlink:href="#DejaVuSans-Oblique-6e" transform="translate(119.897461 -16.28125) scale(0.7)"/>
      <use xlink:href="#DejaVuSans-Oblique-63" transform="translate(164.262695 -16.28125) scale(0.7)"/>
      <use xlink:href="#DejaVuSans-20" transform="translate(205.483398 0.125)"/>
      <use xlink:href="#DejaVuSans-28" transform="translate(237.270508 0.125)"/>
      <use xlink:href="#DejaVuSans-6d" transform="translate(276.28418 0.125)"/>
      <use xlink:href="#DejaVuSans-65" transform="translate(373.696289 0.125)"/>
      <use xlink:href="#DejaVuSans-61" transform="translate(435.219727 0.125)"/>
      <use xlink:href="#DejaVuSans-6e" transform="translate(496.499023 0.125)"/>
      <use xlink:href="#DejaVuSans-20" transform="translate(559.87793 0.125)"/>
      <use xlink:href="#DejaVuSans-41" transform="translate(591.665039 0.125)"/>
      <use xlink:href="#DejaVuSans-55" transform="translate(660.073242 0.125)"/>
      <use xlink:href="#DejaVuSans-43" transform="translate(733.266602 0.125)"/>
      <use xlink:href="#DejaVuSans-20" transform="translate(803.09082 0.125)"/>
      <use xlink:href="#DejaVuSans-3d" transform="translate(834.87793 0.125)"/>
      <use xlink:href="#DejaVuSans-20" transform="translate(918.666992 0.125)"/>
      <use xlink:href="#DejaVuSans-30" transform="translate(950.454102 0.125)"/>
      <use xlink:href="#DejaVuSans-2e" transform="translate(1014.077148 0.125)"/>
      <use xlink:href="#DejaVuSans-35" transform="translate(1045.864258 0.125)"/>
      <use xlink:href="#DejaVuSans-37" transform="translate(1102.237305 0.125)"/>
      <use xlink:href="#DejaVuSans-29" transform="translate(1165.860352 0.125)"/>
     </g>
    </g>
    <g id="line2d_22">
     <path d="M 211.49125 245.021875 
L 219.49125 245.021875 
L 227.49125 245.021875 
" style="fill: none; stroke: #ff7f0e; stroke-width: 2; stroke-linecap: square"/>
    </g>
    <g id="text_17">
     <!-- $D^+$ (mean AUC = 0.60) -->
     <g transform="translate(233.89125 247.821875) scale(0.08 -0.08)">
      <defs>
       <path id="DejaVuSans-2b" d="M 2944 4013 
L 2944 2272 
L 4684 2272 
L 4684 1741 
L 2944 1741 
L 2944 0 
L 2419 0 
L 2419 1741 
L 678 1741 
L 678 2272 
L 2419 2272 
L 2419 4013 
L 2944 4013 
z
" transform="scale(0.015625)"/>
      </defs>
      <use xlink:href="#DejaVuSans-Oblique-44" transform="translate(0 0.826562)"/>
      <use xlink:href="#DejaVuSans-2b" transform="translate(97.656419 39.107812) scale(0.7)"/>
      <use xlink:href="#DejaVuSans-20" transform="translate(172.680833 0.826562)"/>
      <use xlink:href="#DejaVuSans-28" transform="translate(204.467943 0.826562)"/>
      <use xlink:href="#DejaVuSans-6d" transform="translate(243.481615 0.826562)"/>
      <use xlink:href="#DejaVuSans-65" transform="translate(340.893724 0.826562)"/>
      <use xlink:href="#DejaVuSans-61" transform="translate(402.417161 0.826562)"/>
      <use xlink:href="#DejaVuSans-6e" transform="translate(463.696458 0.826562)"/>
      <use xlink:href="#DejaVuSans-20" transform="translate(527.075365 0.826562)"/>
      <use xlink:href="#DejaVuSans-41" transform="translate(558.862474 0.826562)"/>
      <use xlink:href="#DejaVuSans-55" transform="translate(627.270677 0.826562)"/>
      <use xlink:href="#DejaVuSans-43" transform="translate(700.464036 0.826562)"/>
      <use xlink:href="#DejaVuSans-20" transform="translate(770.288255 0.826562)"/>
      <use xlink:href="#DejaVuSans-3d" transform="translate(802.075365 0.826562)"/>
      <use xlink:href="#DejaVuSans-20" transform="translate(885.864427 0.826562)"/>
      <use xlink:href="#DejaVuSans-30" transform="translate(917.651536 0.826562)"/>
      <use xlink:href="#DejaVuSans-2e" transform="translate(981.274583 0.826562)"/>
      <use xlink:href="#DejaVuSans-36" transform="translate(1013.061693 0.826562)"/>
      <use xlink:href="#DejaVuSans-30" transform="translate(1076.68474 0.826562)"/>
      <use xlink:href="#DejaVuSans-29" transform="translate(1140.307786 0.826562)"/>
     </g>
    </g>
    <g id="line2d_23">
     <path d="M 211.49125 256.764375 
L 219.49125 256.764375 
L 227.49125 256.764375 
" style="fill: none; stroke: #2ca02c; stroke-width: 2; stroke-linecap: square"/>
    </g>
    <g id="text_18">
     <!-- $d_f$ (mean AUC = 0.61) -->
     <g transform="translate(233.89125 259.564375) scale(0.08 -0.08)">
      <defs>
       <path id="DejaVuSans-Oblique-64" d="M 2675 525 
Q 2444 222 2128 65 
Q 1813 -91 1428 -91 
Q 903 -91 598 267 
Q 294 625 294 1247 
Q 294 1766 478 2236 
Q 663 2706 1013 3078 
Q 1244 3325 1534 3454 
Q 1825 3584 2144 3584 
Q 2481 3584 2739 3421 
Q 2997 3259 3138 2956 
L 3513 4863 
L 4091 4863 
L 3144 0 
L 2566 0 
L 2675 525 
z
M 891 1350 
Q 891 897 1095 644 
Q 1300 391 1663 391 
Q 1931 391 2161 520 
Q 2391 650 2566 903 
Q 2750 1166 2856 1509 
Q 2963 1853 2963 2188 
Q 2963 2622 2758 2865 
Q 2553 3109 2194 3109 
Q 1922 3109 1687 2981 
Q 1453 2853 1288 2613 
Q 1106 2353 998 2009 
Q 891 1666 891 1350 
z
" transform="scale(0.015625)"/>
       <path id="DejaVuSans-Oblique-66" d="M 3059 4863 
L 2969 4384 
L 2419 4384 
Q 2106 4384 1964 4261 
Q 1822 4138 1753 3809 
L 1691 3500 
L 2638 3500 
L 2553 3053 
L 1606 3053 
L 1013 0 
L 434 0 
L 1031 3053 
L 481 3053 
L 563 3500 
L 1113 3500 
L 1159 3744 
Q 1278 4363 1576 4613 
Q 1875 4863 2516 4863 
L 3059 4863 
z
" transform="scale(0.015625)"/>
      </defs>
      <use xlink:href="#DejaVuSans-Oblique-64" transform="translate(0 0.015625)"/>
      <use xlink:href="#DejaVuSans-Oblique-66" transform="translate(63.476562 -16.390625) scale(0.7)"/>
      <use xlink:href="#DejaVuSans-20" transform="translate(90.854492 0.015625)"/>
      <use xlink:href="#DejaVuSans-28" transform="translate(122.641602 0.015625)"/>
      <use xlink:href="#DejaVuSans-6d" transform="translate(161.655273 0.015625)"/>
      <use xlink:href="#DejaVuSans-65" transform="translate(259.067383 0.015625)"/>
      <use xlink:href="#DejaVuSans-61" transform="translate(320.59082 0.015625)"/>
      <use xlink:href="#DejaVuSans-6e" transform="translate(381.870117 0.015625)"/>
      <use xlink:href="#DejaVuSans-20" transform="translate(445.249023 0.015625)"/>
      <use xlink:href="#DejaVuSans-41" transform="translate(477.036133 0.015625)"/>
      <use xlink:href="#DejaVuSans-55" transform="translate(545.444336 0.015625)"/>
      <use xlink:href="#DejaVuSans-43" transform="translate(618.637695 0.015625)"/>
      <use xlink:href="#DejaVuSans-20" transform="translate(688.461914 0.015625)"/>
      <use xlink:href="#DejaVuSans-3d" transform="translate(720.249023 0.015625)"/>
      <use xlink:href="#DejaVuSans-20" transform="translate(804.038086 0.015625)"/>
      <use xlink:href="#DejaVuSans-30" transform="translate(835.825195 0.015625)"/>
      <use xlink:href="#DejaVuSans-2e" transform="translate(899.448242 0.015625)"/>
      <use xlink:href="#DejaVuSans-36" transform="translate(931.235352 0.015625)"/>
      <use xlink:href="#DejaVuSans-31" transform="translate(994.858398 0.015625)"/>
      <use xlink:href="#DejaVuSans-29" transform="translate(1058.481445 0.015625)"/>
     </g>
    </g>
    <g id="line2d_24">
     <path d="M 211.49125 268.506875 
L 219.49125 268.506875 
L 227.49125 268.506875 
" style="fill: none; stroke: #d62728; stroke-width: 2; stroke-linecap: square"/>
    </g>
    <g id="text_19">
     <!-- $f_d$ (mean AUC = 0.61) -->
     <g transform="translate(233.89125 271.306875) scale(0.08 -0.08)">
      <use xlink:href="#DejaVuSans-Oblique-66" transform="translate(0 0.015625)"/>
      <use xlink:href="#DejaVuSans-Oblique-64" transform="translate(35.205078 -16.390625) scale(0.7)"/>
      <use xlink:href="#DejaVuSans-20" transform="translate(82.373047 0.015625)"/>
      <use xlink:href="#DejaVuSans-28" transform="translate(114.160156 0.015625)"/>
      <use xlink:href="#DejaVuSans-6d" transform="translate(153.173828 0.015625)"/>
      <use xlink:href="#DejaVuSans-65" transform="translate(250.585938 0.015625)"/>
      <use xlink:href="#DejaVuSans-61" transform="translate(312.109375 0.015625)"/>
      <use xlink:href="#DejaVuSans-6e" transform="translate(373.388672 0.015625)"/>
      <use xlink:href="#DejaVuSans-20" transform="translate(436.767578 0.015625)"/>
      <use xlink:href="#DejaVuSans-41" transform="translate(468.554688 0.015625)"/>
      <use xlink:href="#DejaVuSans-55" transform="translate(536.962891 0.015625)"/>
      <use xlink:href="#DejaVuSans-43" transform="translate(610.15625 0.015625)"/>
      <use xlink:href="#DejaVuSans-20" transform="translate(679.980469 0.015625)"/>
      <use xlink:href="#DejaVuSans-3d" transform="translate(711.767578 0.015625)"/>
      <use xlink:href="#DejaVuSans-20" transform="translate(795.556641 0.015625)"/>
      <use xlink:href="#DejaVuSans-30" transform="translate(827.34375 0.015625)"/>
      <use xlink:href="#DejaVuSans-2e" transform="translate(890.966797 0.015625)"/>
      <use xlink:href="#DejaVuSans-36" transform="translate(922.753906 0.015625)"/>
      <use xlink:href="#DejaVuSans-31" transform="translate(986.376953 0.015625)"/>
      <use xlink:href="#DejaVuSans-29" transform="translate(1050 0.015625)"/>
     </g>
    </g>
    <g id="line2d_25">
     <path d="M 211.49125 280.249375 
L 219.49125 280.249375 
L 227.49125 280.249375 
" style="fill: none; stroke: #9467bd; stroke-width: 2; stroke-linecap: square"/>
    </g>
    <g id="text_20">
     <!-- $D_D$ (mean AUC = 0.61) -->
     <g transform="translate(233.89125 283.049375) scale(0.08 -0.08)">
      <use xlink:href="#DejaVuSans-Oblique-44" transform="translate(0 0.125)"/>
      <use xlink:href="#DejaVuSans-Oblique-44" transform="translate(77.001953 -16.28125) scale(0.7)"/>
      <use xlink:href="#DejaVuSans-20" transform="translate(133.637695 0.125)"/>
      <use xlink:href="#DejaVuSans-28" transform="translate(165.424805 0.125)"/>
      <use xlink:href="#DejaVuSans-6d" transform="translate(204.438477 0.125)"/>
      <use xlink:href="#DejaVuSans-65" transform="translate(301.850586 0.125)"/>
      <use xlink:href="#DejaVuSans-61" transform="translate(363.374023 0.125)"/>
      <use xlink:href="#DejaVuSans-6e" transform="translate(424.65332 0.125)"/>
      <use xlink:href="#DejaVuSans-20" transform="translate(488.032227 0.125)"/>
      <use xlink:href="#DejaVuSans-41" transform="translate(519.819336 0.125)"/>
      <use xlink:href="#DejaVuSans-55" transform="translate(588.227539 0.125)"/>
      <use xlink:href="#DejaVuSans-43" transform="translate(661.420898 0.125)"/>
      <use xlink:href="#DejaVuSans-20" transform="translate(731.245117 0.125)"/>
      <use xlink:href="#DejaVuSans-3d" transform="translate(763.032227 0.125)"/>
      <use xlink:href="#DejaVuSans-20" transform="translate(846.821289 0.125)"/>
      <use xlink:href="#DejaVuSans-30" transform="translate(878.608398 0.125)"/>
      <use xlink:href="#DejaVuSans-2e" transform="translate(942.231445 0.125)"/>
      <use xlink:href="#DejaVuSans-36" transform="translate(974.018555 0.125)"/>
      <use xlink:href="#DejaVuSans-31" transform="translate(1037.641602 0.125)"/>
      <use xlink:href="#DejaVuSans-29" transform="translate(1101.264648 0.125)"/>
     </g>
    </g>
    <g id="line2d_26">
     <path d="M 211.49125 291.991875 
L 219.49125 291.991875 
L 227.49125 291.991875 
" style="fill: none; stroke: #8c564b; stroke-width: 2; stroke-linecap: square"/>
    </g>
    <g id="text_21">
     <!-- $U50$ (mean AUC = 0.50) -->
     <g transform="translate(233.89125 294.791875) scale(0.08 -0.08)">
      <defs>
       <path id="DejaVuSans-Oblique-55" d="M 991 4666 
L 1625 4666 
L 1075 1831 
Q 1041 1641 1027 1517 
Q 1013 1394 1013 1300 
Q 1013 869 1253 645 
Q 1494 422 1959 422 
Q 2563 422 2898 753 
Q 3234 1084 3378 1831 
L 3928 4666 
L 4563 4666 
L 4000 1753 
Q 3816 809 3300 359 
Q 2784 -91 1888 -91 
Q 1188 -91 780 261 
Q 372 613 372 1216 
Q 372 1325 387 1461 
Q 403 1597 434 1753 
L 991 4666 
z
" transform="scale(0.015625)"/>
      </defs>
      <use xlink:href="#DejaVuSans-Oblique-55" transform="translate(0 0.125)"/>
      <use xlink:href="#DejaVuSans-35" transform="translate(73.193359 0.125)"/>
      <use xlink:href="#DejaVuSans-30" transform="translate(136.816406 0.125)"/>
      <use xlink:href="#DejaVuSans-20" transform="translate(200.439453 0.125)"/>
      <use xlink:href="#DejaVuSans-28" transform="translate(232.226562 0.125)"/>
      <use xlink:href="#DejaVuSans-6d" transform="translate(271.240234 0.125)"/>
      <use xlink:href="#DejaVuSans-65" transform="translate(368.652344 0.125)"/>
      <use xlink:href="#DejaVuSans-61" transform="translate(430.175781 0.125)"/>
      <use xlink:href="#DejaVuSans-6e" transform="translate(491.455078 0.125)"/>
      <use xlink:href="#DejaVuSans-20" transform="translate(554.833984 0.125)"/>
      <use xlink:href="#DejaVuSans-41" transform="translate(586.621094 0.125)"/>
      <use xlink:href="#DejaVuSans-55" transform="translate(655.029297 0.125)"/>
      <use xlink:href="#DejaVuSans-43" transform="translate(728.222656 0.125)"/>
      <use xlink:href="#DejaVuSans-20" transform="translate(798.046875 0.125)"/>
      <use xlink:href="#DejaVuSans-3d" transform="translate(829.833984 0.125)"/>
      <use xlink:href="#DejaVuSans-20" transform="translate(913.623047 0.125)"/>
      <use xlink:href="#DejaVuSans-30" transform="translate(945.410156 0.125)"/>
      <use xlink:href="#DejaVuSans-2e" transform="translate(1009.033203 0.125)"/>
      <use xlink:href="#DejaVuSans-35" transform="translate(1040.820312 0.125)"/>
      <use xlink:href="#DejaVuSans-30" transform="translate(1104.443359 0.125)"/>
      <use xlink:href="#DejaVuSans-29" transform="translate(1168.066406 0.125)"/>
     </g>
    </g>
    <g id="line2d_27">
     <path d="M 211.49125 303.734375 
L 219.49125 303.734375 
L 227.49125 303.734375 
" style="fill: none; stroke: #e377c2; stroke-width: 2; stroke-linecap: square"/>
    </g>
    <g id="text_22">
     <!-- $Q95$ (mean AUC = 0.73) -->
     <g transform="translate(233.89125 306.534375) scale(0.08 -0.08)">
      <defs>
       <path id="DejaVuSans-Oblique-51" d="M 2309 -84 
Q 2275 -88 2237 -89 
Q 2200 -91 2125 -91 
Q 1250 -91 756 411 
Q 263 913 263 1797 
Q 263 2319 452 2844 
Q 641 3369 978 3788 
Q 1369 4269 1858 4509 
Q 2347 4750 2938 4750 
Q 3794 4750 4287 4245 
Q 4781 3741 4781 2869 
Q 4781 1928 4265 1147 
Q 3750 366 2919 44 
L 3553 -825 
L 2847 -825 
L 2309 -84 
z
M 2919 4238 
Q 2400 4238 2003 3986 
Q 1606 3734 1313 3219 
Q 1125 2891 1026 2522 
Q 928 2153 928 1778 
Q 928 1128 1239 775 
Q 1550 422 2119 422 
Q 2631 422 3032 676 
Q 3434 931 3719 1434 
Q 3909 1772 4009 2142 
Q 4109 2513 4109 2881 
Q 4109 3528 3796 3883 
Q 3484 4238 2919 4238 
z
" transform="scale(0.015625)"/>
       <path id="DejaVuSans-39" d="M 703 97 
L 703 672 
Q 941 559 1184 500 
Q 1428 441 1663 441 
Q 2288 441 2617 861 
Q 2947 1281 2994 2138 
Q 2813 1869 2534 1725 
Q 2256 1581 1919 1581 
Q 1219 1581 811 2004 
Q 403 2428 403 3163 
Q 403 3881 828 4315 
Q 1253 4750 1959 4750 
Q 2769 4750 3195 4129 
Q 3622 3509 3622 2328 
Q 3622 1225 3098 567 
Q 2575 -91 1691 -91 
Q 1453 -91 1209 -44 
Q 966 3 703 97 
z
M 1959 2075 
Q 2384 2075 2632 2365 
Q 2881 2656 2881 3163 
Q 2881 3666 2632 3958 
Q 2384 4250 1959 4250 
Q 1534 4250 1286 3958 
Q 1038 3666 1038 3163 
Q 1038 2656 1286 2365 
Q 1534 2075 1959 2075 
z
" transform="scale(0.015625)"/>
       <path id="DejaVuSans-33" d="M 2597 2516 
Q 3050 2419 3304 2112 
Q 3559 1806 3559 1356 
Q 3559 666 3084 287 
Q 2609 -91 1734 -91 
Q 1441 -91 1130 -33 
Q 819 25 488 141 
L 488 750 
Q 750 597 1062 519 
Q 1375 441 1716 441 
Q 2309 441 2620 675 
Q 2931 909 2931 1356 
Q 2931 1769 2642 2001 
Q 2353 2234 1838 2234 
L 1294 2234 
L 1294 2753 
L 1863 2753 
Q 2328 2753 2575 2939 
Q 2822 3125 2822 3475 
Q 2822 3834 2567 4026 
Q 2313 4219 1838 4219 
Q 1578 4219 1281 4162 
Q 984 4106 628 3988 
L 628 4550 
Q 988 4650 1302 4700 
Q 1616 4750 1894 4750 
Q 2613 4750 3031 4423 
Q 3450 4097 3450 3541 
Q 3450 3153 3228 2886 
Q 3006 2619 2597 2516 
z
" transform="scale(0.015625)"/>
      </defs>
      <use xlink:href="#DejaVuSans-Oblique-51" transform="translate(0 0.125)"/>
      <use xlink:href="#DejaVuSans-39" transform="translate(78.710938 0.125)"/>
      <use xlink:href="#DejaVuSans-35" transform="translate(142.333984 0.125)"/>
      <use xlink:href="#DejaVuSans-20" transform="translate(205.957031 0.125)"/>
      <use xlink:href="#DejaVuSans-28" transform="translate(237.744141 0.125)"/>
      <use xlink:href="#DejaVuSans-6d" transform="translate(276.757812 0.125)"/>
      <use xlink:href="#DejaVuSans-65" transform="translate(374.169922 0.125)"/>
      <use xlink:href="#DejaVuSans-61" transform="translate(435.693359 0.125)"/>
      <use xlink:href="#DejaVuSans-6e" transform="translate(496.972656 0.125)"/>
      <use xlink:href="#DejaVuSans-20" transform="translate(560.351562 0.125)"/>
      <use xlink:href="#DejaVuSans-41" transform="translate(592.138672 0.125)"/>
      <use xlink:href="#DejaVuSans-55" transform="translate(660.546875 0.125)"/>
      <use xlink:href="#DejaVuSans-43" transform="translate(733.740234 0.125)"/>
      <use xlink:href="#DejaVuSans-20" transform="translate(803.564453 0.125)"/>
      <use xlink:href="#DejaVuSans-3d" transform="translate(835.351562 0.125)"/>
      <use xlink:href="#DejaVuSans-20" transform="translate(919.140625 0.125)"/>
      <use xlink:href="#DejaVuSans-30" transform="translate(950.927734 0.125)"/>
      <use xlink:href="#DejaVuSans-2e" transform="translate(1014.550781 0.125)"/>
      <use xlink:href="#DejaVuSans-37" transform="translate(1038.587891 0.125)"/>
      <use xlink:href="#DejaVuSans-33" transform="translate(1102.210938 0.125)"/>
      <use xlink:href="#DejaVuSans-29" transform="translate(1165.833984 0.125)"/>
     </g>
    </g>
   </g>
  </g>
 </g>
 <defs>
  <clipPath id="p945bb985b5">
   <rect x="43.78125" y="22.318125" width="293.95" height="293.08"/>
  </clipPath>
 </defs>
</svg>
