<?xml version="1.0" encoding="utf-8" standalone="no"?>
<!DOCTYPE svg PUBLIC "-//W3C//DTD SVG 1.1//EN"
  "http://www.w3.org/Graphics/SVG/1.1/DTD/svg11.dtd">
<svg xmlns:xlink="http://www.w3.org/1999/xlink" width="352.882812pt" height="352.954375pt" viewBox="0 0 352.882812 352.954375" xmlns="http://www.w3.org/2000/svg" version="1.1">
 <metadata>
  <rdf:RDF xmlns:dc="http://purl.org/dc/elements/1.1/" xmlns:cc="http://creativecommons.org/ns#" xmlns:rdf="http://www.w3.org/1999/02/22-rdf-syntax-ns#">
   <cc:Work>
    <dc:type rdf:resource="http://purl.org/dc/dcmitype/StillImage"/>
    <dc:date>2025-09-15T16:13:50.437914</dc:date>
    <dc:format>image/svg+xml</dc:format>
    <dc:creator>
     <cc:Agent>
      <dc:title>Matplotlib v3.9.1, https://matplotlib.org/</dc:title>
     </cc:Agent>
    </dc:creator>
   </cc:Work>
  </rdf:RDF>
 </metadata>
 <defs>
  <style type="text/css">*{stroke-linejoin: round; stroke-linecap: butt}</style>
 </defs>
 <g id="figure_1">
  <g id="patch_1">
   <path d="M -0 352.954375 
L 352.882812 352.954375 
L 352.882812 0 
L -0 0 
z
" style="fill: #ffffff"/>
  </g>
  <g id="axes_1">
   <g id="patch_2">
    <path d="M 43.78125 315.398125 
L 337.73125 315.398125 
L 337.73125 22.318125 
L 43.78125 22.318125 
z
" style="fill: #ffffff"/>
   </g>
   <g id="matplotlib.axis_1">
    <g id="xtick_1">
     <g id="line2d_1">
      <defs>
       <path id="mcc9d4dc565" d="M 0 0 
L 0 3.5 
" style="stroke: #000000; stroke-width: 0.8"/>
      </defs>
      <g>
       <use xlink:href="#mcc9d4dc565" x="43.78125" y="315.398125" style="stroke: #000000; stroke-width: 0.8"/>
      </g>
     </g>
     <g id="text_1">
      <!-- 0.0 -->
      <g transform="translate(35.829688 329.996562) scale(0.1 -0.1)">
       <defs>
        <path id="DejaVuSans-30" d="M 2034 4250 
Q 1547 4250 1301 3770 
Q 1056 3291 1056 2328 
Q 1056 1369 1301 889 
Q 1547 409 2034 409 
Q 2525 409 2770 889 
Q 3016 1369 3016 2328 
Q 3016 3291 2770 3770 
Q 2525 4250 2034 4250 
z
M 2034 4750 
Q 2819 4750 3233 4129 
Q 3647 3509 3647 2328 
Q 3647 1150 3233 529 
Q 2819 -91 2034 -91 
Q 1250 -91 836 529 
Q 422 1150 422 2328 
Q 422 3509 836 4129 
Q 1250 4750 2034 4750 
z
" transform="scale(0.015625)"/>
        <path id="DejaVuSans-2e" d="M 684 794 
L 1344 794 
L 1344 0 
L 684 0 
L 684 794 
z
" transform="scale(0.015625)"/>
       </defs>
       <use xlink:href="#DejaVuSans-30"/>
       <use xlink:href="#DejaVuSans-2e" x="63.623047"/>
       <use xlink:href="#DejaVuSans-30" x="95.410156"/>
      </g>
     </g>
    </g>
    <g id="xtick_2">
     <g id="line2d_2">
      <g>
       <use xlink:href="#mcc9d4dc565" x="102.57125" y="315.398125" style="stroke: #000000; stroke-width: 0.8"/>
      </g>
     </g>
     <g id="text_2">
      <!-- 0.2 -->
      <g transform="translate(94.619688 329.996562) scale(0.1 -0.1)">
       <defs>
        <path id="DejaVuSans-32" d="M 1228 531 
L 3431 531 
L 3431 0 
L 469 0 
L 469 531 
Q 828 903 1448 1529 
Q 2069 2156 2228 2338 
Q 2531 2678 2651 2914 
Q 2772 3150 2772 3378 
Q 2772 3750 2511 3984 
Q 2250 4219 1831 4219 
Q 1534 4219 1204 4116 
Q 875 4013 500 3803 
L 500 4441 
Q 881 4594 1212 4672 
Q 1544 4750 1819 4750 
Q 2544 4750 2975 4387 
Q 3406 4025 3406 3419 
Q 3406 3131 3298 2873 
Q 3191 2616 2906 2266 
Q 2828 2175 2409 1742 
Q 1991 1309 1228 531 
z
" transform="scale(0.015625)"/>
       </defs>
       <use xlink:href="#DejaVuSans-30"/>
       <use xlink:href="#DejaVuSans-2e" x="63.623047"/>
       <use xlink:href="#DejaVuSans-32" x="95.410156"/>
      </g>
     </g>
    </g>
    <g id="xtick_3">
     <g id="line2d_3">
      <g>
       <use xlink:href="#mcc9d4dc565" x="161.36125" y="315.398125" style="stroke: #000000; stroke-width: 0.8"/>
      </g>
     </g>
     <g id="text_3">
      <!-- 0.4 -->
      <g transform="translate(153.409688 329.996562) scale(0.1 -0.1)">
       <defs>
        <path id="DejaVuSans-34" d="M 2419 4116 
L 825 1625 
L 2419 1625 
L 2419 4116 
z
M 2253 4666 
L 3047 4666 
L 3047 1625 
L 3713 1625 
L 3713 1100 
L 3047 1100 
L 3047 0 
L 2419 0 
L 2419 1100 
L 313 1100 
L 313 1709 
L 2253 4666 
z
" transform="scale(0.015625)"/>
       </defs>
       <use xlink:href="#DejaVuSans-30"/>
       <use xlink:href="#DejaVuSans-2e" x="63.623047"/>
       <use xlink:href="#DejaVuSans-34" x="95.410156"/>
      </g>
     </g>
    </g>
    <g id="xtick_4">
     <g id="line2d_4">
      <g>
       <use xlink:href="#mcc9d4dc565" x="220.15125" y="315.398125" style="stroke: #000000; stroke-width: 0.8"/>
      </g>
     </g>
     <g id="text_4">
      <!-- 0.6 -->
      <g transform="translate(212.199688 329.996562) scale(0.1 -0.1)">
       <defs>
        <path id="DejaVuSans-36" d="M 2113 2584 
Q 1688 2584 1439 2293 
Q 1191 2003 1191 1497 
Q 1191 994 1439 701 
Q 1688 409 2113 409 
Q 2538 409 2786 701 
Q 3034 994 3034 1497 
Q 3034 2003 2786 2293 
Q 2538 2584 2113 2584 
z
M 3366 4563 
L 3366 3988 
Q 3128 4100 2886 4159 
Q 2644 4219 2406 4219 
Q 1781 4219 1451 3797 
Q 1122 3375 1075 2522 
Q 1259 2794 1537 2939 
Q 1816 3084 2150 3084 
Q 2853 3084 3261 2657 
Q 3669 2231 3669 1497 
Q 3669 778 3244 343 
Q 2819 -91 2113 -91 
Q 1303 -91 875 529 
Q 447 1150 447 2328 
Q 447 3434 972 4092 
Q 1497 4750 2381 4750 
Q 2619 4750 2861 4703 
Q 3103 4656 3366 4563 
z
" transform="scale(0.015625)"/>
       </defs>
       <use xlink:href="#DejaVuSans-30"/>
       <use xlink:href="#DejaVuSans-2e" x="63.623047"/>
       <use xlink:href="#DejaVuSans-36" x="95.410156"/>
      </g>
     </g>
    </g>
    <g id="xtick_5">
     <g id="line2d_5">
      <g>
       <use xlink:href="#mcc9d4dc565" x="278.94125" y="315.398125" style="stroke: #000000; stroke-width: 0.8"/>
      </g>
     </g>
     <g id="text_5">
      <!-- 0.8 -->
      <g transform="translate(270.989688 329.996562) scale(0.1 -0.1)">
       <defs>
        <path id="DejaVuSans-38" d="M 2034 2216 
Q 1584 2216 1326 1975 
Q 1069 1734 1069 1313 
Q 1069 891 1326 650 
Q 1584 409 2034 409 
Q 2484 409 2743 651 
Q 3003 894 3003 1313 
Q 3003 1734 2745 1975 
Q 2488 2216 2034 2216 
z
M 1403 2484 
Q 997 2584 770 2862 
Q 544 3141 544 3541 
Q 544 4100 942 4425 
Q 1341 4750 2034 4750 
Q 2731 4750 3128 4425 
Q 3525 4100 3525 3541 
Q 3525 3141 3298 2862 
Q 3072 2584 2669 2484 
Q 3125 2378 3379 2068 
Q 3634 1759 3634 1313 
Q 3634 634 3220 271 
Q 2806 -91 2034 -91 
Q 1263 -91 848 271 
Q 434 634 434 1313 
Q 434 1759 690 2068 
Q 947 2378 1403 2484 
z
M 1172 3481 
Q 1172 3119 1398 2916 
Q 1625 2713 2034 2713 
Q 2441 2713 2670 2916 
Q 2900 3119 2900 3481 
Q 2900 3844 2670 4047 
Q 2441 4250 2034 4250 
Q 1625 4250 1398 4047 
Q 1172 3844 1172 3481 
z
" transform="scale(0.015625)"/>
       </defs>
       <use xlink:href="#DejaVuSans-30"/>
       <use xlink:href="#DejaVuSans-2e" x="63.623047"/>
       <use xlink:href="#DejaVuSans-38" x="95.410156"/>
      </g>
     </g>
    </g>
    <g id="xtick_6">
     <g id="line2d_6">
      <g>
       <use xlink:href="#mcc9d4dc565" x="337.73125" y="315.398125" style="stroke: #000000; stroke-width: 0.8"/>
      </g>
     </g>
     <g id="text_6">
      <!-- 1.0 -->
      <g transform="translate(329.779687 329.996562) scale(0.1 -0.1)">
       <defs>
        <path id="DejaVuSans-31" d="M 794 531 
L 1825 531 
L 1825 4091 
L 703 3866 
L 703 4441 
L 1819 4666 
L 2450 4666 
L 2450 531 
L 3481 531 
L 3481 0 
L 794 0 
L 794 531 
z
" transform="scale(0.015625)"/>
       </defs>
       <use xlink:href="#DejaVuSans-31"/>
       <use xlink:href="#DejaVuSans-2e" x="63.623047"/>
       <use xlink:href="#DejaVuSans-30" x="95.410156"/>
      </g>
     </g>
    </g>
    <g id="text_7">
     <!-- False Positive Rate -->
     <g transform="translate(144.289844 343.674687) scale(0.1 -0.1)">
      <defs>
       <path id="DejaVuSans-46" d="M 628 4666 
L 3309 4666 
L 3309 4134 
L 1259 4134 
L 1259 2759 
L 3109 2759 
L 3109 2228 
L 1259 2228 
L 1259 0 
L 628 0 
L 628 4666 
z
" transform="scale(0.015625)"/>
       <path id="DejaVuSans-61" d="M 2194 1759 
Q 1497 1759 1228 1600 
Q 959 1441 959 1056 
Q 959 750 1161 570 
Q 1363 391 1709 391 
Q 2188 391 2477 730 
Q 2766 1069 2766 1631 
L 2766 1759 
L 2194 1759 
z
M 3341 1997 
L 3341 0 
L 2766 0 
L 2766 531 
Q 2569 213 2275 61 
Q 1981 -91 1556 -91 
Q 1019 -91 701 211 
Q 384 513 384 1019 
Q 384 1609 779 1909 
Q 1175 2209 1959 2209 
L 2766 2209 
L 2766 2266 
Q 2766 2663 2505 2880 
Q 2244 3097 1772 3097 
Q 1472 3097 1187 3025 
Q 903 2953 641 2809 
L 641 3341 
Q 956 3463 1253 3523 
Q 1550 3584 1831 3584 
Q 2591 3584 2966 3190 
Q 3341 2797 3341 1997 
z
" transform="scale(0.015625)"/>
       <path id="DejaVuSans-6c" d="M 603 4863 
L 1178 4863 
L 1178 0 
L 603 0 
L 603 4863 
z
" transform="scale(0.015625)"/>
       <path id="DejaVuSans-73" d="M 2834 3397 
L 2834 2853 
Q 2591 2978 2328 3040 
Q 2066 3103 1784 3103 
Q 1356 3103 1142 2972 
Q 928 2841 928 2578 
Q 928 2378 1081 2264 
Q 1234 2150 1697 2047 
L 1894 2003 
Q 2506 1872 2764 1633 
Q 3022 1394 3022 966 
Q 3022 478 2636 193 
Q 2250 -91 1575 -91 
Q 1294 -91 989 -36 
Q 684 19 347 128 
L 347 722 
Q 666 556 975 473 
Q 1284 391 1588 391 
Q 1994 391 2212 530 
Q 2431 669 2431 922 
Q 2431 1156 2273 1281 
Q 2116 1406 1581 1522 
L 1381 1569 
Q 847 1681 609 1914 
Q 372 2147 372 2553 
Q 372 3047 722 3315 
Q 1072 3584 1716 3584 
Q 2034 3584 2315 3537 
Q 2597 3491 2834 3397 
z
" transform="scale(0.015625)"/>
       <path id="DejaVuSans-65" d="M 3597 1894 
L 3597 1613 
L 953 1613 
Q 991 1019 1311 708 
Q 1631 397 2203 397 
Q 2534 397 2845 478 
Q 3156 559 3463 722 
L 3463 178 
Q 3153 47 2828 -22 
Q 2503 -91 2169 -91 
Q 1331 -91 842 396 
Q 353 884 353 1716 
Q 353 2575 817 3079 
Q 1281 3584 2069 3584 
Q 2775 3584 3186 3129 
Q 3597 2675 3597 1894 
z
M 3022 2063 
Q 3016 2534 2758 2815 
Q 2500 3097 2075 3097 
Q 1594 3097 1305 2825 
Q 1016 2553 972 2059 
L 3022 2063 
z
" transform="scale(0.015625)"/>
       <path id="DejaVuSans-20" transform="scale(0.015625)"/>
       <path id="DejaVuSans-50" d="M 1259 4147 
L 1259 2394 
L 2053 2394 
Q 2494 2394 2734 2622 
Q 2975 2850 2975 3272 
Q 2975 3691 2734 3919 
Q 2494 4147 2053 4147 
L 1259 4147 
z
M 628 4666 
L 2053 4666 
Q 2838 4666 3239 4311 
Q 3641 3956 3641 3272 
Q 3641 2581 3239 2228 
Q 2838 1875 2053 1875 
L 1259 1875 
L 1259 0 
L 628 0 
L 628 4666 
z
" transform="scale(0.015625)"/>
       <path id="DejaVuSans-6f" d="M 1959 3097 
Q 1497 3097 1228 2736 
Q 959 2375 959 1747 
Q 959 1119 1226 758 
Q 1494 397 1959 397 
Q 2419 397 2687 759 
Q 2956 1122 2956 1747 
Q 2956 2369 2687 2733 
Q 2419 3097 1959 3097 
z
M 1959 3584 
Q 2709 3584 3137 3096 
Q 3566 2609 3566 1747 
Q 3566 888 3137 398 
Q 2709 -91 1959 -91 
Q 1206 -91 779 398 
Q 353 888 353 1747 
Q 353 2609 779 3096 
Q 1206 3584 1959 3584 
z
" transform="scale(0.015625)"/>
       <path id="DejaVuSans-69" d="M 603 3500 
L 1178 3500 
L 1178 0 
L 603 0 
L 603 3500 
z
M 603 4863 
L 1178 4863 
L 1178 4134 
L 603 4134 
L 603 4863 
z
" transform="scale(0.015625)"/>
       <path id="DejaVuSans-74" d="M 1172 4494 
L 1172 3500 
L 2356 3500 
L 2356 3053 
L 1172 3053 
L 1172 1153 
Q 1172 725 1289 603 
Q 1406 481 1766 481 
L 2356 481 
L 2356 0 
L 1766 0 
Q 1100 0 847 248 
Q 594 497 594 1153 
L 594 3053 
L 172 3053 
L 172 3500 
L 594 3500 
L 594 4494 
L 1172 4494 
z
" transform="scale(0.015625)"/>
       <path id="DejaVuSans-76" d="M 191 3500 
L 800 3500 
L 1894 563 
L 2988 3500 
L 3597 3500 
L 2284 0 
L 1503 0 
L 191 3500 
z
" transform="scale(0.015625)"/>
       <path id="DejaVuSans-52" d="M 2841 2188 
Q 3044 2119 3236 1894 
Q 3428 1669 3622 1275 
L 4263 0 
L 3584 0 
L 2988 1197 
Q 2756 1666 2539 1819 
Q 2322 1972 1947 1972 
L 1259 1972 
L 1259 0 
L 628 0 
L 628 4666 
L 2053 4666 
Q 2853 4666 3247 4331 
Q 3641 3997 3641 3322 
Q 3641 2881 3436 2590 
Q 3231 2300 2841 2188 
z
M 1259 4147 
L 1259 2491 
L 2053 2491 
Q 2509 2491 2742 2702 
Q 2975 2913 2975 3322 
Q 2975 3731 2742 3939 
Q 2509 4147 2053 4147 
L 1259 4147 
z
" transform="scale(0.015625)"/>
      </defs>
      <use xlink:href="#DejaVuSans-46"/>
      <use xlink:href="#DejaVuSans-61" x="48.394531"/>
      <use xlink:href="#DejaVuSans-6c" x="109.673828"/>
      <use xlink:href="#DejaVuSans-73" x="137.457031"/>
      <use xlink:href="#DejaVuSans-65" x="189.556641"/>
      <use xlink:href="#DejaVuSans-20" x="251.080078"/>
      <use xlink:href="#DejaVuSans-50" x="282.867188"/>
      <use xlink:href="#DejaVuSans-6f" x="339.544922"/>
      <use xlink:href="#DejaVuSans-73" x="400.726562"/>
      <use xlink:href="#DejaVuSans-69" x="452.826172"/>
      <use xlink:href="#DejaVuSans-74" x="480.609375"/>
      <use xlink:href="#DejaVuSans-69" x="519.818359"/>
      <use xlink:href="#DejaVuSans-76" x="547.601562"/>
      <use xlink:href="#DejaVuSans-65" x="606.78125"/>
      <use xlink:href="#DejaVuSans-20" x="668.304688"/>
      <use xlink:href="#DejaVuSans-52" x="700.091797"/>
      <use xlink:href="#DejaVuSans-61" x="767.324219"/>
      <use xlink:href="#DejaVuSans-74" x="828.603516"/>
      <use xlink:href="#DejaVuSans-65" x="867.8125"/>
     </g>
    </g>
   </g>
   <g id="matplotlib.axis_2">
    <g id="ytick_1">
     <g id="line2d_7">
      <defs>
       <path id="m08b630c9f1" d="M 0 0 
L -3.5 0 
" style="stroke: #000000; stroke-width: 0.8"/>
      </defs>
      <g>
       <use xlink:href="#m08b630c9f1" x="43.78125" y="315.398125" style="stroke: #000000; stroke-width: 0.8"/>
      </g>
     </g>
     <g id="text_8">
      <!-- 0.0 -->
      <g transform="translate(20.878125 319.197344) scale(0.1 -0.1)">
       <use xlink:href="#DejaVuSans-30"/>
       <use xlink:href="#DejaVuSans-2e" x="63.623047"/>
       <use xlink:href="#DejaVuSans-30" x="95.410156"/>
      </g>
     </g>
    </g>
    <g id="ytick_2">
     <g id="line2d_8">
      <g>
       <use xlink:href="#m08b630c9f1" x="43.78125" y="256.782125" style="stroke: #000000; stroke-width: 0.8"/>
      </g>
     </g>
     <g id="text_9">
      <!-- 0.2 -->
      <g transform="translate(20.878125 260.581344) scale(0.1 -0.1)">
       <use xlink:href="#DejaVuSans-30"/>
       <use xlink:href="#DejaVuSans-2e" x="63.623047"/>
       <use xlink:href="#DejaVuSans-32" x="95.410156"/>
      </g>
     </g>
    </g>
    <g id="ytick_3">
     <g id="line2d_9">
      <g>
       <use xlink:href="#m08b630c9f1" x="43.78125" y="198.166125" style="stroke: #000000; stroke-width: 0.8"/>
      </g>
     </g>
     <g id="text_10">
      <!-- 0.4 -->
      <g transform="translate(20.878125 201.965344) scale(0.1 -0.1)">
       <use xlink:href="#DejaVuSans-30"/>
       <use xlink:href="#DejaVuSans-2e" x="63.623047"/>
       <use xlink:href="#DejaVuSans-34" x="95.410156"/>
      </g>
     </g>
    </g>
    <g id="ytick_4">
     <g id="line2d_10">
      <g>
       <use xlink:href="#m08b630c9f1" x="43.78125" y="139.550125" style="stroke: #000000; stroke-width: 0.8"/>
      </g>
     </g>
     <g id="text_11">
      <!-- 0.6 -->
      <g transform="translate(20.878125 143.349344) scale(0.1 -0.1)">
       <use xlink:href="#DejaVuSans-30"/>
       <use xlink:href="#DejaVuSans-2e" x="63.623047"/>
       <use xlink:href="#DejaVuSans-36" x="95.410156"/>
      </g>
     </g>
    </g>
    <g id="ytick_5">
     <g id="line2d_11">
      <g>
       <use xlink:href="#m08b630c9f1" x="43.78125" y="80.934125" style="stroke: #000000; stroke-width: 0.8"/>
      </g>
     </g>
     <g id="text_12">
      <!-- 0.8 -->
      <g transform="translate(20.878125 84.733344) scale(0.1 -0.1)">
       <use xlink:href="#DejaVuSans-30"/>
       <use xlink:href="#DejaVuSans-2e" x="63.623047"/>
       <use xlink:href="#DejaVuSans-38" x="95.410156"/>
      </g>
     </g>
    </g>
    <g id="ytick_6">
     <g id="line2d_12">
      <g>
       <use xlink:href="#m08b630c9f1" x="43.78125" y="22.318125" style="stroke: #000000; stroke-width: 0.8"/>
      </g>
     </g>
     <g id="text_13">
      <!-- 1.0 -->
      <g transform="translate(20.878125 26.117344) scale(0.1 -0.1)">
       <use xlink:href="#DejaVuSans-31"/>
       <use xlink:href="#DejaVuSans-2e" x="63.623047"/>
       <use xlink:href="#DejaVuSans-30" x="95.410156"/>
      </g>
     </g>
    </g>
    <g id="text_14">
     <!-- True Positive Rate -->
     <g transform="translate(14.798438 213.387812) rotate(-90) scale(0.1 -0.1)">
      <defs>
       <path id="DejaVuSans-54" d="M -19 4666 
L 3928 4666 
L 3928 4134 
L 2272 4134 
L 2272 0 
L 1638 0 
L 1638 4134 
L -19 4134 
L -19 4666 
z
" transform="scale(0.015625)"/>
       <path id="DejaVuSans-72" d="M 2631 2963 
Q 2534 3019 2420 3045 
Q 2306 3072 2169 3072 
Q 1681 3072 1420 2755 
Q 1159 2438 1159 1844 
L 1159 0 
L 581 0 
L 581 3500 
L 1159 3500 
L 1159 2956 
Q 1341 3275 1631 3429 
Q 1922 3584 2338 3584 
Q 2397 3584 2469 3576 
Q 2541 3569 2628 3553 
L 2631 2963 
z
" transform="scale(0.015625)"/>
       <path id="DejaVuSans-75" d="M 544 1381 
L 544 3500 
L 1119 3500 
L 1119 1403 
Q 1119 906 1312 657 
Q 1506 409 1894 409 
Q 2359 409 2629 706 
Q 2900 1003 2900 1516 
L 2900 3500 
L 3475 3500 
L 3475 0 
L 2900 0 
L 2900 538 
Q 2691 219 2414 64 
Q 2138 -91 1772 -91 
Q 1169 -91 856 284 
Q 544 659 544 1381 
z
M 1991 3584 
L 1991 3584 
z
" transform="scale(0.015625)"/>
      </defs>
      <use xlink:href="#DejaVuSans-54"/>
      <use xlink:href="#DejaVuSans-72" x="46.333984"/>
      <use xlink:href="#DejaVuSans-75" x="87.447266"/>
      <use xlink:href="#DejaVuSans-65" x="150.826172"/>
      <use xlink:href="#DejaVuSans-20" x="212.349609"/>
      <use xlink:href="#DejaVuSans-50" x="244.136719"/>
      <use xlink:href="#DejaVuSans-6f" x="300.814453"/>
      <use xlink:href="#DejaVuSans-73" x="361.996094"/>
      <use xlink:href="#DejaVuSans-69" x="414.095703"/>
      <use xlink:href="#DejaVuSans-74" x="441.878906"/>
      <use xlink:href="#DejaVuSans-69" x="481.087891"/>
      <use xlink:href="#DejaVuSans-76" x="508.871094"/>
      <use xlink:href="#DejaVuSans-65" x="568.050781"/>
      <use xlink:href="#DejaVuSans-20" x="629.574219"/>
      <use xlink:href="#DejaVuSans-52" x="661.361328"/>
      <use xlink:href="#DejaVuSans-61" x="728.59375"/>
      <use xlink:href="#DejaVuSans-74" x="789.873047"/>
      <use xlink:href="#DejaVuSans-65" x="829.082031"/>
     </g>
    </g>
   </g>
   <g id="line2d_13">
    <path d="M 43.78125 313.722294 
L 45.258386 310.684226 
L 46.735521 308.157291 
L 48.212657 306.222963 
L 49.689793 303.116901 
L 51.166928 301.307425 
L 52.644064 298.774627 
L 54.1212 297.03256 
L 55.598335 294.433526 
L 57.075471 292.935888 
L 58.552607 290.782922 
L 60.029742 289.372621 
L 61.506878 287.407227 
L 62.984014 286.212632 
L 64.461149 284.499287 
L 65.938285 283.370343 
L 67.415421 281.611276 
L 68.892557 280.376237 
L 70.369692 278.409671 
L 71.846828 277.009334 
L 73.323964 274.505259 
L 74.801099 272.64127 
L 76.278235 270.043995 
L 77.755371 268.410367 
L 79.232506 266.174753 
L 80.709642 264.678286 
L 82.186778 262.300821 
L 83.663913 260.604474 
L 85.141049 257.764529 
L 86.618185 255.787998 
L 88.09532 252.804443 
L 89.572456 250.766951 
L 91.049592 247.929351 
L 92.526727 246.097014 
L 94.003863 243.396575 
L 95.480999 241.708434 
L 96.958134 239.264147 
L 98.43527 237.79992 
L 99.912406 235.668056 
L 101.389541 234.179209 
L 104.343813 229.620057 
L 105.820948 228.083145 
L 107.298084 226.080823 
L 108.77522 224.818234 
L 110.252356 222.995863 
L 111.729491 221.878642 
L 113.206627 220.223326 
L 114.683763 219.033421 
L 116.160898 217.232737 
L 117.638034 216.066865 
L 119.11517 214.288456 
L 120.592305 213.090345 
L 122.069441 211.304901 
L 123.546577 210.080999 
L 125.023712 208.436234 
L 126.500848 207.450313 
L 127.977984 206.167209 
L 129.455119 205.315519 
L 130.932255 204.125028 
L 132.409391 203.324333 
L 133.886526 202.211215 
L 135.363662 201.464447 
L 136.840798 200.202445 
L 138.317933 199.370098 
L 139.795069 197.972692 
L 141.272205 196.99908 
L 142.74934 195.393002 
L 144.226476 194.28516 
L 145.703612 192.550712 
L 147.180747 191.356118 
L 148.657883 189.489785 
L 150.135019 188.268227 
L 151.612155 186.459337 
L 153.08929 185.250089 
L 154.566426 183.483989 
L 156.043562 182.393732 
L 157.520697 180.851545 
L 158.997833 179.814628 
L 161.952104 176.887931 
L 163.42924 175.857462 
L 164.906376 174.187492 
L 166.383511 173.02924 
L 167.860647 171.263726 
L 169.337783 170.052719 
L 170.814918 168.160008 
L 172.292054 166.930831 
L 173.76919 165.097322 
L 175.246325 163.895694 
L 176.723461 162.221621 
L 178.200597 161.15481 
L 179.677732 159.659516 
L 181.154868 158.673009 
L 182.632004 157.267397 
L 184.109139 156.333644 
L 185.586275 154.885829 
L 187.063411 153.896977 
L 188.540546 152.425716 
L 190.017682 151.463827 
L 191.494818 150.047664 
L 192.971954 149.047089 
L 194.449089 147.644995 
L 195.926225 146.593424 
L 197.403361 145.026032 
L 198.880496 144.00963 
L 200.357632 142.314456 
L 201.834768 141.151514 
L 203.311903 139.180258 
L 204.789039 137.897154 
L 206.266175 135.975135 
L 207.74331 134.692031 
L 209.220446 132.635782 
L 210.697582 131.397226 
L 212.174717 129.6534 
L 213.651853 128.486941 
L 215.128989 126.900206 
L 216.606124 125.956488 
L 218.08326 124.611837 
L 219.560396 123.702117 
L 222.514667 121.292999 
L 223.991803 120.583746 
L 225.468938 119.532175 
L 226.946074 118.88564 
L 228.42321 117.977092 
L 229.900345 117.385071 
L 231.377481 116.395047 
L 232.854617 115.720376 
L 234.331753 114.563297 
L 235.808888 113.71864 
L 237.286024 112.323579 
L 238.76316 111.355829 
L 240.240295 109.823607 
L 241.717431 108.778483 
L 243.194567 107.219298 
L 244.671702 106.111455 
L 246.148838 104.305497 
L 247.625974 103.09449 
L 249.103109 101.15899 
L 250.580245 99.763929 
L 252.057381 97.662545 
L 253.534516 96.272174 
L 255.011652 94.292125 
L 256.488788 92.983816 
L 257.965923 91.092278 
L 259.443059 89.890064 
L 260.920195 88.169684 
L 262.39733 86.982124 
L 263.874466 85.138065 
L 265.351602 83.829169 
L 266.828737 81.58359 
L 268.305873 80.034369 
L 269.783009 77.794066 
L 271.260144 76.283532 
L 272.73728 74.202664 
L 274.214416 72.914284 
L 275.691552 71.091326 
L 277.168687 69.8727 
L 280.122959 66.189856 
L 281.600094 65.077325 
L 283.07723 63.168788 
L 284.554366 61.983572 
L 286.031501 60.385114 
L 287.508637 59.444913 
L 288.985773 58.243871 
L 290.462908 57.531101 
L 291.940044 56.541077 
L 293.41718 55.871096 
L 294.894315 54.716361 
L 296.371451 53.874635 
L 297.848587 52.52295 
L 299.325722 51.530581 
L 300.802858 50.029425 
L 302.279994 49.062847 
L 303.757129 47.628514 
L 305.234265 46.79558 
L 306.711401 45.586919 
L 308.188536 44.836634 
L 309.665672 43.684243 
L 311.142808 42.839587 
L 312.619943 41.303847 
L 314.097079 39.950404 
L 315.574215 37.477981 
L 317.051351 35.735914 
L 318.528486 33.609325 
L 321.482758 31.550145 
L 322.959893 31.064218 
L 325.914165 29.761771 
L 327.3913 28.581831 
L 328.868436 27.714314 
L 330.345572 26.70905 
L 331.822707 26.184436 
L 333.299843 25.487492 
L 334.776979 25.081283 
L 336.254114 24.383753 
L 337.73125 22.318125 
L 337.73125 22.318125 
" clip-path="url(#p85446b1a25)" style="fill: none; stroke: #1f77b4; stroke-width: 2; stroke-linecap: square"/>
   </g>
   <g id="line2d_14">
    <path d="M 43.78125 313.808459 
L 45.258386 309.845431 
L 46.735521 304.318529 
L 48.212657 301.476239 
L 49.689793 297.677922 
L 51.166928 295.652739 
L 52.644064 293.334476 
L 54.1212 291.581272 
L 55.598335 288.714363 
L 57.075471 286.843341 
L 58.552607 284.386158 
L 60.029742 282.778907 
L 61.506878 280.472954 
L 62.984014 279.029828 
L 64.461149 276.844623 
L 65.938285 275.38743 
L 67.415421 273.083821 
L 68.892557 271.336478 
L 70.369692 268.686448 
L 71.846828 266.713434 
L 73.323964 263.695296 
L 74.801099 261.619117 
L 76.278235 258.598635 
L 77.755371 256.517181 
L 79.232506 253.405843 
L 80.709642 251.328492 
L 82.186778 248.551852 
L 83.663913 247.204271 
L 85.141049 245.418241 
L 86.618185 244.330914 
L 88.09532 242.507371 
L 89.572456 241.203751 
L 91.049592 239.176223 
L 92.526727 237.862053 
L 94.003863 235.911898 
L 95.480999 234.757749 
L 96.958134 233.129397 
L 98.43527 231.986971 
L 99.912406 230.141739 
L 101.389541 228.797674 
L 104.343813 224.561496 
L 105.820948 223.026343 
L 107.298084 220.775489 
L 108.77522 219.298951 
L 110.252356 217.009411 
L 111.729491 215.412711 
L 113.206627 213.154822 
L 114.683763 211.671251 
L 116.160898 209.627311 
L 117.638034 208.280902 
L 119.11517 206.384674 
L 120.592305 205.195942 
L 122.069441 203.569934 
L 123.546577 202.453885 
L 125.023712 200.695405 
L 126.500848 199.571151 
L 127.977984 197.844323 
L 129.455119 196.691933 
L 130.932255 195.027824 
L 132.409391 193.879537 
L 133.886526 192.169708 
L 135.363662 191.131033 
L 136.840798 189.637497 
L 138.317933 188.584754 
L 139.795069 187.180314 
L 141.272205 186.28642 
L 142.74934 184.830985 
L 144.226476 183.873786 
L 145.703612 182.374975 
L 147.180747 181.400191 
L 148.657883 179.848625 
L 150.135019 178.795882 
L 151.612155 177.268935 
L 153.08929 176.249016 
L 154.566426 174.71445 
L 156.043562 173.59547 
L 157.520697 171.900882 
L 158.997833 170.655292 
L 161.952104 166.555102 
L 163.42924 165.253827 
L 164.906376 163.250332 
L 166.383511 162.055738 
L 167.860647 160.366425 
L 169.337783 159.313682 
L 170.814918 157.781459 
L 172.292054 156.77385 
L 173.76919 155.238111 
L 175.246325 154.238708 
L 176.723461 152.760999 
L 178.200597 151.660191 
L 179.677732 150.150242 
L 181.154868 149.071122 
L 182.632004 147.463285 
L 184.109139 146.428126 
L 185.586275 144.694851 
L 187.063411 143.517256 
L 188.540546 141.822081 
L 190.017682 140.658554 
L 191.494818 138.949897 
L 192.971954 137.799265 
L 194.449089 136.137501 
L 195.926225 135.1211 
L 197.403361 133.639874 
L 198.880496 132.682674 
L 200.357632 131.312232 
L 201.834768 130.374963 
L 203.311903 129.108271 
L 204.789039 128.216721 
L 206.266175 126.948271 
L 207.74331 126.173368 
L 209.220446 125.049699 
L 210.697582 124.308207 
L 212.174717 123.196261 
L 213.651853 122.413737 
L 215.128989 121.178112 
L 216.606124 120.271909 
L 218.08326 118.761374 
L 219.560396 117.766661 
L 222.514667 114.81007 
L 223.991803 113.805392 
L 225.468938 112.371644 
L 226.946074 111.4121 
L 228.42321 109.913875 
L 229.900345 108.882234 
L 231.377481 107.211678 
L 232.854617 105.993051 
L 234.331753 104.141372 
L 235.808888 102.880542 
L 237.286024 101.132026 
L 238.76316 100.034735 
L 240.240295 98.512477 
L 241.717431 97.542969 
L 243.194567 96.269243 
L 244.671702 95.435723 
L 246.148838 94.166101 
L 247.625974 93.429298 
L 249.103109 92.214188 
L 250.580245 91.38653 
L 252.057381 90.060636 
L 253.534516 89.131573 
L 255.011652 87.586455 
L 256.488788 86.596431 
L 257.965923 85.09293 
L 259.443059 84.00912 
L 260.920195 82.577718 
L 262.39733 81.700822 
L 263.874466 80.487471 
L 265.351602 79.717843 
L 266.828737 78.613518 
L 268.305873 77.914229 
L 269.783009 76.84859 
L 271.260144 76.0731 
L 272.73728 74.860921 
L 274.214416 73.989301 
L 275.691552 72.472905 
L 277.168687 71.443608 
L 280.122959 68.223245 
L 281.600094 67.168157 
L 283.07723 65.643555 
L 284.554366 64.659979 
L 286.031501 63.288951 
L 287.508637 62.392712 
L 288.985773 61.096712 
L 290.462908 60.168821 
L 291.940044 58.676457 
L 293.41718 57.534032 
L 294.894315 55.809549 
L 296.371451 54.629609 
L 297.848587 52.899851 
L 299.325722 51.888725 
L 300.802858 50.54466 
L 302.279994 49.766239 
L 303.757129 48.791455 
L 305.234265 48.214088 
L 306.711401 47.30847 
L 308.188536 46.576943 
L 311.142808 43.790338 
L 312.619943 41.458007 
L 314.097079 39.864238 
L 315.574215 37.466258 
L 317.051351 35.799805 
L 318.528486 33.488576 
L 320.005622 32.082964 
L 321.482758 30.388962 
L 324.437029 28.580658 
L 325.914165 28.094732 
L 328.868436 26.840349 
L 330.345572 25.925354 
L 331.822707 25.424187 
L 333.299843 24.642836 
L 334.776979 24.093604 
L 336.254114 23.309908 
L 337.73125 22.318125 
L 337.73125 22.318125 
" clip-path="url(#p85446b1a25)" style="fill: none; stroke: #ff7f0e; stroke-width: 2; stroke-linecap: square"/>
   </g>
   <g id="line2d_15">
    <path d="M 43.78125 313.515379 
L 45.258386 309.654343 
L 46.735521 304.74115 
L 48.212657 302.782789 
L 49.689793 298.57885 
L 51.166928 294.928832 
L 52.644064 290.169212 
L 54.1212 287.876741 
L 55.598335 285.158717 
L 57.075471 283.536812 
L 58.552607 281.135315 
L 60.029742 279.370387 
L 61.506878 276.411451 
L 62.984014 274.328238 
L 64.461149 271.332375 
L 65.938285 269.380462 
L 67.415421 266.76443 
L 68.892557 264.918612 
L 70.369692 262.224034 
L 71.846828 260.289706 
L 73.323964 257.328426 
L 74.801099 255.484367 
L 76.278235 252.776308 
L 77.755371 250.934593 
L 79.232506 247.957486 
L 80.709642 245.98623 
L 82.186778 242.972782 
L 83.663913 241.120516 
L 85.141049 238.736603 
L 86.618185 237.346818 
L 88.09532 235.645782 
L 89.572456 234.646379 
L 91.049592 233.238422 
L 92.526727 232.297636 
L 94.003863 230.777137 
L 95.480999 229.680431 
L 96.958134 227.96181 
L 98.43527 226.806489 
L 99.912406 225.045664 
L 101.389541 223.913203 
L 104.343813 220.49589 
L 105.820948 219.49297 
L 107.298084 217.962507 
L 108.77522 216.954898 
L 110.252356 215.42502 
L 111.729491 214.268526 
L 113.206627 212.256825 
L 114.683763 210.738085 
L 116.160898 208.331312 
L 117.638034 206.776815 
L 119.11517 204.378835 
L 120.592305 202.959741 
L 122.069441 201.004898 
L 123.546577 199.832578 
L 125.023712 198.303873 
L 126.500848 197.412909 
L 127.977984 195.992058 
L 129.455119 195.011412 
L 130.932255 193.445192 
L 132.409391 192.335591 
L 133.886526 190.495635 
L 135.363662 189.183223 
L 136.840798 187.312786 
L 138.317933 185.946447 
L 139.795069 183.981053 
L 141.272205 182.659848 
L 142.74934 180.648147 
L 144.226476 179.425417 
L 145.703612 177.659317 
L 147.180747 176.473516 
L 148.657883 174.803546 
L 150.135019 173.684566 
L 151.612155 172.161137 
L 153.08929 171.129495 
L 154.566426 169.647683 
L 156.043562 168.710413 
L 157.520697 167.283699 
L 158.997833 166.303054 
L 161.952104 163.174718 
L 163.42924 162.078598 
L 164.906376 160.427386 
L 166.383511 159.297855 
L 167.860647 157.675951 
L 169.337783 156.70058 
L 170.814918 155.269764 
L 172.292054 154.380559 
L 173.76919 153.159002 
L 175.246325 152.293243 
L 176.723461 151.008967 
L 178.200597 150.006047 
L 179.677732 148.397624 
L 181.154868 147.296816 
L 182.632004 145.561196 
L 184.109139 144.42639 
L 185.586275 142.712458 
L 187.063411 141.609891 
L 188.540546 140.013191 
L 190.017682 139.030787 
L 191.494818 137.466912 
L 192.971954 136.31628 
L 194.449089 134.592384 
L 195.926225 133.220769 
L 197.403361 131.119972 
L 198.880496 129.623505 
L 200.357632 127.315207 
L 201.834768 125.801156 
L 203.311903 123.611262 
L 204.789039 122.247268 
L 206.266175 120.482926 
L 207.74331 119.365119 
L 209.220446 117.796555 
L 210.697582 116.898558 
L 212.174717 115.626005 
L 213.651853 114.839964 
L 215.128989 113.703986 
L 216.606124 112.966011 
L 218.08326 111.831205 
L 219.560396 111.079161 
L 222.514667 108.935574 
L 223.991803 108.225735 
L 225.468938 107.027037 
L 226.946074 106.154245 
L 228.42321 104.83773 
L 229.900345 104.03176 
L 231.377481 102.749828 
L 232.854617 101.95734 
L 234.331753 100.726404 
L 235.808888 99.937432 
L 237.286024 98.758078 
L 238.76316 97.978485 
L 240.240295 96.775099 
L 241.717431 95.942166 
L 243.194567 94.704196 
L 244.671702 93.919327 
L 246.148838 92.700701 
L 247.625974 91.858975 
L 249.103109 90.440468 
L 250.580245 89.474476 
L 252.057381 87.891258 
L 253.534516 86.772279 
L 255.011652 85.019074 
L 256.488788 83.863167 
L 257.965923 82.034933 
L 259.443059 80.918885 
L 260.920195 79.305773 
L 262.39733 78.308714 
L 263.874466 76.905447 
L 265.351602 76.043792 
L 266.828737 74.817545 
L 268.305873 74.035608 
L 269.783009 73.011 
L 271.260144 72.287679 
L 272.73728 71.317584 
L 274.214416 70.697427 
L 275.691552 69.809981 
L 277.168687 69.186892 
L 281.600094 66.176375 
L 283.07723 64.876272 
L 284.554366 63.975344 
L 286.031501 62.630693 
L 287.508637 61.809483 
L 288.985773 60.57503 
L 290.462908 59.728029 
L 291.940044 58.482439 
L 293.41718 57.698156 
L 294.894315 56.51001 
L 296.371451 55.733348 
L 297.848587 54.489517 
L 299.325722 53.605587 
L 300.802858 52.090364 
L 302.279994 50.892253 
L 303.757129 48.940926 
L 305.234265 47.660166 
L 306.711401 45.944476 
L 308.188536 44.876493 
L 309.665672 43.295033 
L 311.142808 42.217085 
L 312.619943 40.738789 
L 314.097079 39.834344 
L 315.574215 38.326741 
L 317.051351 37.208347 
L 318.528486 35.517276 
L 320.005622 34.575903 
L 321.482758 33.319176 
L 322.959893 32.517895 
L 324.437029 31.376642 
L 325.914165 30.608772 
L 327.3913 29.438797 
L 328.868436 28.618759 
L 330.345572 27.513261 
L 331.822707 26.834488 
L 333.299843 25.309299 
L 334.776979 24.081294 
L 336.254114 23.02562 
L 337.73125 22.318125 
L 337.73125 22.318125 
" clip-path="url(#p85446b1a25)" style="fill: none; stroke: #2ca02c; stroke-width: 2; stroke-linecap: square"/>
   </g>
   <g id="line2d_16">
    <path d="M 43.78125 312.239895 
L 45.258386 310.561719 
L 46.735521 307.593991 
L 48.212657 305.116879 
L 49.689793 301.465688 
L 51.166928 298.840863 
L 52.644064 294.805152 
L 54.1212 292.248908 
L 55.598335 288.988686 
L 57.075471 287.188003 
L 58.552607 284.865051 
L 60.029742 283.592497 
L 61.506878 281.253133 
L 62.984014 279.34694 
L 64.461149 276.468309 
L 65.938285 274.630697 
L 67.415421 272.351121 
L 68.892557 271.121943 
L 70.369692 269.346465 
L 71.846828 268.143078 
L 73.323964 266.30195 
L 74.801099 264.994227 
L 76.278235 262.803747 
L 77.755371 261.29204 
L 79.232506 258.56581 
L 80.709642 256.751059 
L 82.186778 253.92987 
L 83.663913 252.166701 
L 85.141049 249.70776 
L 86.618185 248.128645 
L 88.09532 245.829725 
L 89.572456 244.150963 
L 91.049592 241.454627 
L 92.526727 239.567192 
L 94.003863 236.4031 
L 95.480999 234.22024 
L 96.958134 231.120626 
L 98.43527 229.332252 
L 99.912406 227.046228 
L 101.389541 225.669338 
L 104.343813 222.559173 
L 105.820948 221.657659 
L 107.298084 220.298354 
L 108.77522 219.390979 
L 110.252356 217.977161 
L 111.729491 216.936727 
L 113.206627 215.342958 
L 114.683763 214.127262 
L 116.160898 212.267962 
L 117.638034 210.954378 
L 119.11517 209.082183 
L 120.592305 207.886416 
L 122.069441 206.052908 
L 123.546577 204.875312 
L 125.023712 203.15083 
L 126.500848 202.075812 
L 127.977984 200.418152 
L 129.455119 199.33317 
L 130.932255 197.65558 
L 132.409391 196.615146 
L 133.886526 195.037203 
L 135.363662 193.945773 
L 136.840798 192.403 
L 138.317933 191.365497 
L 139.795069 189.761177 
L 141.272205 188.669161 
L 142.74934 186.989226 
L 144.226476 185.789943 
L 145.703612 183.901921 
L 147.180747 182.608852 
L 148.657883 180.662801 
L 150.135019 179.428348 
L 151.612155 177.705038 
L 153.08929 176.505755 
L 154.566426 174.880919 
L 156.043562 173.893826 
L 157.520697 172.51166 
L 158.997833 171.60956 
L 161.952104 168.753789 
L 163.42924 167.754386 
L 164.906376 166.203993 
L 166.383511 165.127803 
L 167.860647 163.483038 
L 169.337783 162.345887 
L 170.814918 160.651299 
L 172.292054 159.505942 
L 173.76919 157.775598 
L 175.246325 156.592141 
L 176.723461 154.76508 
L 178.200597 153.619723 
L 179.677732 151.762182 
L 181.154868 150.540039 
L 182.632004 148.806178 
L 184.109139 147.655545 
L 185.586275 145.886515 
L 187.063411 144.728262 
L 188.540546 142.926993 
L 190.017682 141.704849 
L 191.494818 139.674391 
L 192.971954 138.199026 
L 194.449089 135.908313 
L 195.926225 134.213724 
L 197.403361 131.509182 
L 198.880496 129.666295 
L 200.357632 126.7988 
L 201.834768 124.990497 
L 203.311903 122.444218 
L 204.789039 120.931925 
L 206.266175 118.967703 
L 207.74331 117.813554 
L 209.220446 116.139481 
L 210.697582 115.196349 
L 212.174717 113.759085 
L 213.651853 112.810678 
L 215.128989 111.459579 
L 216.606124 110.562168 
L 218.08326 109.273789 
L 219.560396 108.395135 
L 222.514667 105.721659 
L 223.991803 104.862935 
L 225.468938 103.462598 
L 226.946074 102.548189 
L 228.42321 101.13906 
L 229.900345 100.161931 
L 231.377481 98.709427 
L 232.854617 97.735815 
L 234.331753 96.374752 
L 235.808888 95.472065 
L 237.286024 94.14793 
L 238.76316 93.245243 
L 240.240295 91.904696 
L 241.717431 90.996148 
L 243.194567 89.602259 
L 244.671702 88.677299 
L 246.148838 87.262308 
L 247.625974 86.35845 
L 249.103109 84.982146 
L 250.580245 84.138662 
L 252.057381 82.963411 
L 253.534516 82.153338 
L 255.011652 81.003878 
L 256.488788 80.261213 
L 257.965923 79.15806 
L 259.443059 78.441187 
L 260.920195 77.282348 
L 262.39733 76.39666 
L 263.874466 75.115315 
L 265.351602 74.213801 
L 266.828737 72.839255 
L 268.305873 71.892607 
L 269.783009 70.402588 
L 271.260144 69.487593 
L 272.73728 68.119495 
L 274.214416 67.138263 
L 275.691552 65.579664 
L 277.168687 64.493509 
L 280.122959 61.143605 
L 281.600094 59.997076 
L 283.07723 58.391584 
L 284.554366 57.392767 
L 286.031501 56.010602 
L 287.508637 55.090917 
L 288.985773 53.623172 
L 290.462908 52.622597 
L 291.940044 50.935629 
L 293.41718 49.757447 
L 294.894315 48.068134 
L 296.371451 47.078696 
L 297.848587 45.738734 
L 300.802858 44.073453 
L 302.279994 43.572873 
L 303.757129 42.928683 
L 305.234265 42.516612 
L 308.188536 41.18134 
L 309.665672 40.003745 
L 311.142808 39.126263 
L 312.619943 37.709514 
L 314.097079 36.73473 
L 315.574215 35.347876 
L 317.051351 34.371919 
L 318.528486 32.905347 
L 320.005622 31.912978 
L 321.482758 30.356137 
L 322.959893 29.345011 
L 324.437029 28.052528 
L 325.914165 27.377858 
L 327.3913 26.530271 
L 331.822707 25.267096 
L 333.299843 24.085984 
L 334.776979 23.324562 
L 336.254114 22.739574 
L 337.73125 22.318125 
L 337.73125 22.318125 
" clip-path="url(#p85446b1a25)" style="fill: none; stroke: #d62728; stroke-width: 2; stroke-linecap: square"/>
   </g>
   <g id="line2d_17">
    <path d="M 43.78125 313.19768 
L 45.258386 311.094538 
L 46.735521 306.771608 
L 48.212657 303.340228 
L 49.689793 298.720115 
L 51.166928 296.109358 
L 52.644064 292.743041 
L 54.1212 290.631107 
L 55.598335 287.145799 
L 57.075471 284.771265 
L 58.552607 281.784194 
L 60.029742 280.082571 
L 61.506878 277.603114 
L 62.984014 276.051549 
L 64.461149 274.01054 
L 65.938285 272.712195 
L 67.415421 270.787832 
L 68.892557 269.354671 
L 70.369692 266.939105 
L 71.846828 265.39516 
L 73.323964 263.210542 
L 74.801099 261.867063 
L 76.278235 259.641413 
L 77.755371 257.989615 
L 79.232506 255.273935 
L 80.709642 253.374777 
L 82.186778 250.366018 
L 83.663913 248.295701 
L 85.141049 245.075924 
L 86.618185 242.951094 
L 88.09532 239.802242 
L 89.572456 237.891947 
L 91.049592 235.218471 
L 92.526727 233.63408 
L 94.003863 231.522732 
L 95.480999 230.218526 
L 96.958134 228.252545 
L 98.43527 226.9712 
L 99.912406 225.021632 
L 101.389541 223.69691 
L 104.343813 219.614892 
L 105.820948 218.192281 
L 107.298084 215.953736 
L 108.77522 214.452581 
L 110.252356 212.131973 
L 111.729491 210.676538 
L 113.206627 208.514194 
L 114.683763 207.106237 
L 116.160898 205.161358 
L 117.638034 203.928078 
L 119.11517 202.142634 
L 120.592305 200.992589 
L 122.069441 199.313826 
L 123.546577 198.238809 
L 125.023712 196.483846 
L 126.500848 195.329111 
L 127.977984 193.437572 
L 129.455119 192.230669 
L 130.932255 190.308064 
L 132.409391 189.102919 
L 133.886526 187.322165 
L 135.363662 186.176808 
L 136.840798 184.518562 
L 138.317933 183.44413 
L 139.795069 181.825743 
L 141.272205 180.81872 
L 142.74934 179.315219 
L 144.226476 178.326367 
L 145.703612 176.749011 
L 147.180747 175.645272 
L 148.657883 174.00461 
L 150.135019 172.830531 
L 151.612155 171.113669 
L 153.08929 169.921419 
L 154.566426 168.185799 
L 156.043562 167.101403 
L 157.520697 165.574457 
L 158.997833 164.586191 
L 161.952104 162.050463 
L 163.42924 161.193497 
L 164.906376 159.860569 
L 166.383511 158.952021 
L 167.860647 157.558719 
L 169.337783 156.611484 
L 170.814918 155.103881 
L 172.292054 154.059343 
L 173.76919 152.474953 
L 175.246325 151.397005 
L 176.723461 149.831958 
L 178.200597 148.757526 
L 179.677732 147.123312 
L 181.154868 145.958026 
L 182.632004 144.258748 
L 184.109139 143.101668 
L 185.586275 141.339085 
L 187.063411 140.187867 
L 188.540546 138.422353 
L 190.017682 137.175005 
L 191.494818 135.432937 
L 192.971954 134.236585 
L 194.449089 132.466968 
L 195.926225 131.340368 
L 197.403361 129.547891 
L 198.880496 128.373226 
L 200.357632 126.708532 
L 201.834768 125.62355 
L 203.311903 124.054985 
L 204.789039 123.042687 
L 206.266175 121.603664 
L 207.74331 120.672256 
L 209.220446 119.390324 
L 210.697582 118.53922 
L 212.174717 117.371003 
L 213.651853 116.594927 
L 215.128989 115.431986 
L 216.606124 114.70163 
L 218.08326 113.547481 
L 219.560396 112.772578 
L 222.514667 110.480692 
L 223.991803 109.783748 
L 225.468938 108.72104 
L 226.946074 108.014717 
L 228.42321 107.031727 
L 229.900345 106.374055 
L 231.377481 105.317209 
L 232.854617 104.578647 
L 234.331753 103.405155 
L 235.808888 102.493676 
L 237.286024 101.033551 
L 238.76316 100.071077 
L 240.240295 98.550578 
L 241.717431 97.459734 
L 243.194567 95.775696 
L 244.671702 94.64089 
L 246.148838 92.853102 
L 247.625974 91.595203 
L 249.103109 89.615155 
L 250.580245 88.390666 
L 252.057381 86.570053 
L 253.534516 85.372529 
L 255.011652 83.631047 
L 256.488788 82.638092 
L 257.965923 81.272925 
L 259.443059 80.497436 
L 260.920195 79.383146 
L 262.39733 78.724302 
L 263.874466 77.755379 
L 265.351602 77.100639 
L 266.828737 76.057274 
L 268.305873 75.247201 
L 269.783009 73.913101 
L 271.260144 73.047342 
L 272.73728 71.687451 
L 274.214416 70.88617 
L 275.691552 69.680439 
L 277.168687 68.876228 
L 280.122959 66.488798 
L 281.600094 65.685173 
L 283.07723 64.261976 
L 284.554366 63.410872 
L 286.031501 62.135388 
L 287.508637 61.277249 
L 288.985773 60.174682 
L 290.462908 59.436121 
L 291.940044 58.309521 
L 293.41718 57.559823 
L 294.894315 56.257961 
L 296.371451 55.334173 
L 297.848587 53.898667 
L 299.325722 52.818961 
L 300.802858 51.128475 
L 302.279994 50.034701 
L 303.757129 48.430381 
L 305.234265 47.437426 
L 306.711401 45.876482 
L 308.188536 44.627961 
L 309.665672 42.478512 
L 311.142808 41.062936 
L 312.619943 39.019582 
L 314.097079 37.952771 
L 315.574215 36.638014 
L 317.051351 35.891246 
L 318.528486 34.706617 
L 320.005622 33.874269 
L 321.482758 32.621059 
L 322.959893 31.89129 
L 324.437029 30.982742 
L 325.914165 30.495643 
L 328.868436 28.953456 
L 330.345572 27.614667 
L 331.822707 26.779389 
L 334.776979 24.488675 
L 336.254114 23.001001 
L 337.73125 22.318125 
L 337.73125 22.318125 
" clip-path="url(#p85446b1a25)" style="fill: none; stroke: #9467bd; stroke-width: 2; stroke-linecap: square"/>
   </g>
   <g id="line2d_18">
    <path d="M 43.78125 315.031189 
L 45.258386 311.789504 
L 46.735521 309.051839 
L 51.166928 304.606981 
L 337.73125 22.318125 
L 337.73125 22.318125 
" clip-path="url(#p85446b1a25)" style="fill: none; stroke: #8c564b; stroke-width: 2; stroke-linecap: square"/>
   </g>
   <g id="line2d_19">
    <path d="M 43.78125 314.913371 
L 45.258386 312.294555 
L 49.689793 306.388678 
L 52.644064 304.11853 
L 54.1212 302.683525 
L 55.598335 300.908936 
L 58.552607 295.716002 
L 61.506878 291.143941 
L 62.984014 288.438727 
L 64.461149 285.14021 
L 67.415421 276.328853 
L 70.369692 267.337974 
L 77.755371 246.287508 
L 79.232506 241.380296 
L 82.186778 230.639909 
L 86.618185 213.946759 
L 98.43527 172.295037 
L 102.866677 156.255582 
L 105.820948 146.558697 
L 108.77522 137.671236 
L 110.252356 133.771117 
L 113.206627 127.041266 
L 114.683763 124.594126 
L 116.160898 122.542046 
L 117.638034 120.86325 
L 119.11517 119.663674 
L 120.592305 118.671634 
L 123.546577 117.188228 
L 138.317933 110.630415 
L 337.73125 22.318125 
L 337.73125 22.318125 
" clip-path="url(#p85446b1a25)" style="fill: none; stroke: #e377c2; stroke-width: 2; stroke-linecap: square"/>
   </g>
   <g id="line2d_20">
    <path d="M 43.78125 315.398125 
L 337.73125 22.318125 
" clip-path="url(#p85446b1a25)" style="fill: none; stroke-dasharray: 3.7,1.6; stroke-dashoffset: 0; stroke: #7f7f7f"/>
   </g>
   <g id="patch_3">
    <path d="M 43.78125 315.398125 
L 43.78125 22.318125 
" style="fill: none; stroke: #000000; stroke-width: 0.8; stroke-linejoin: miter; stroke-linecap: square"/>
   </g>
   <g id="patch_4">
    <path d="M 337.73125 315.398125 
L 337.73125 22.318125 
" style="fill: none; stroke: #000000; stroke-width: 0.8; stroke-linejoin: miter; stroke-linecap: square"/>
   </g>
   <g id="patch_5">
    <path d="M 43.78125 315.398125 
L 337.73125 315.398125 
" style="fill: none; stroke: #000000; stroke-width: 0.8; stroke-linejoin: miter; stroke-linecap: square"/>
   </g>
   <g id="patch_6">
    <path d="M 43.78125 22.318125 
L 337.73125 22.318125 
" style="fill: none; stroke: #000000; stroke-width: 0.8; stroke-linejoin: miter; stroke-linecap: square"/>
   </g>
   <g id="text_15">
    <!-- $s$ = 0.001 -->
    <g transform="translate(161.59625 16.318125) scale(0.12 -0.12)">
     <defs>
      <path id="DejaVuSans-Oblique-73" d="M 3200 3397 
L 3091 2853 
Q 2863 2978 2609 3040 
Q 2356 3103 2088 3103 
Q 1634 3103 1373 2948 
Q 1113 2794 1113 2528 
Q 1113 2219 1719 2053 
Q 1766 2041 1788 2034 
L 1972 1978 
Q 2547 1819 2739 1644 
Q 2931 1469 2931 1166 
Q 2931 609 2489 259 
Q 2047 -91 1331 -91 
Q 1053 -91 747 -37 
Q 441 16 72 128 
L 184 722 
Q 500 559 806 475 
Q 1113 391 1394 391 
Q 1816 391 2080 572 
Q 2344 753 2344 1031 
Q 2344 1331 1650 1516 
L 1591 1531 
L 1394 1581 
Q 956 1697 753 1886 
Q 550 2075 550 2369 
Q 550 2928 970 3256 
Q 1391 3584 2113 3584 
Q 2397 3584 2667 3537 
Q 2938 3491 3200 3397 
z
" transform="scale(0.015625)"/>
      <path id="DejaVuSans-3d" d="M 678 2906 
L 4684 2906 
L 4684 2381 
L 678 2381 
L 678 2906 
z
M 678 1631 
L 4684 1631 
L 4684 1100 
L 678 1100 
L 678 1631 
z
" transform="scale(0.015625)"/>
     </defs>
     <use xlink:href="#DejaVuSans-Oblique-73" transform="translate(0 0.78125)"/>
     <use xlink:href="#DejaVuSans-20" transform="translate(52.099609 0.78125)"/>
     <use xlink:href="#DejaVuSans-3d" transform="translate(83.886719 0.78125)"/>
     <use xlink:href="#DejaVuSans-20" transform="translate(167.675781 0.78125)"/>
     <use xlink:href="#DejaVuSans-30" transform="translate(199.462891 0.78125)"/>
     <use xlink:href="#DejaVuSans-2e" transform="translate(263.085938 0.78125)"/>
     <use xlink:href="#DejaVuSans-30" transform="translate(294.873047 0.78125)"/>
     <use xlink:href="#DejaVuSans-30" transform="translate(358.496094 0.78125)"/>
     <use xlink:href="#DejaVuSans-31" transform="translate(422.119141 0.78125)"/>
    </g>
   </g>
   <g id="legend_1">
    <g id="patch_7">
     <path d="M 209.49125 311.398125 
L 332.13125 311.398125 
Q 333.73125 311.398125 333.73125 309.798125 
L 333.73125 228.383125 
Q 333.73125 226.783125 332.13125 226.783125 
L 209.49125 226.783125 
Q 207.89125 226.783125 207.89125 228.383125 
L 207.89125 309.798125 
Q 207.89125 311.398125 209.49125 311.398125 
z
" style="fill: #ffffff; opacity: 0.8; stroke: #cccccc; stroke-linejoin: miter"/>
    </g>
    <g id="line2d_21">
     <path d="M 211.09125 233.261875 
L 219.09125 233.261875 
L 227.09125 233.261875 
" style="fill: none; stroke: #1f77b4; stroke-width: 2; stroke-linecap: square"/>
    </g>
    <g id="text_16">
     <!-- $D_{anc}$ (mean AUC = 0.55) -->
     <g transform="translate(233.49125 236.061875) scale(0.08 -0.08)">
      <defs>
       <path id="DejaVuSans-Oblique-44" d="M 1081 4666 
L 2438 4666 
Q 3519 4666 4070 4208 
Q 4622 3750 4622 2847 
Q 4622 2250 4412 1698 
Q 4203 1147 3834 769 
Q 3463 381 2891 190 
Q 2319 0 1538 0 
L 172 0 
L 1081 4666 
z
M 1613 4147 
L 909 519 
L 1734 519 
Q 2794 519 3375 1128 
Q 3956 1738 3956 2847 
Q 3956 3519 3581 3833 
Q 3206 4147 2406 4147 
L 1613 4147 
z
" transform="scale(0.015625)"/>
       <path id="DejaVuSans-Oblique-61" d="M 3438 1997 
L 3047 0 
L 2472 0 
L 2578 531 
Q 2325 219 2001 64 
Q 1678 -91 1281 -91 
Q 834 -91 548 182 
Q 263 456 263 884 
Q 263 1497 752 1853 
Q 1241 2209 2100 2209 
L 2900 2209 
L 2931 2363 
Q 2938 2388 2941 2417 
Q 2944 2447 2944 2509 
Q 2944 2788 2717 2942 
Q 2491 3097 2081 3097 
Q 1800 3097 1504 3025 
Q 1209 2953 897 2809 
L 997 3341 
Q 1322 3463 1633 3523 
Q 1944 3584 2234 3584 
Q 2853 3584 3176 3315 
Q 3500 3047 3500 2534 
Q 3500 2431 3484 2292 
Q 3469 2153 3438 1997 
z
M 2816 1759 
L 2241 1759 
Q 1534 1759 1195 1570 
Q 856 1381 856 984 
Q 856 709 1029 553 
Q 1203 397 1509 397 
Q 1978 397 2328 733 
Q 2678 1069 2791 1631 
L 2816 1759 
z
" transform="scale(0.015625)"/>
       <path id="DejaVuSans-Oblique-6e" d="M 3566 2113 
L 3156 0 
L 2578 0 
L 2988 2091 
Q 3016 2238 3031 2350 
Q 3047 2463 3047 2528 
Q 3047 2791 2881 2937 
Q 2716 3084 2419 3084 
Q 1956 3084 1622 2776 
Q 1288 2469 1184 1941 
L 800 0 
L 225 0 
L 903 3500 
L 1478 3500 
L 1363 2950 
Q 1603 3253 1940 3418 
Q 2278 3584 2650 3584 
Q 3113 3584 3367 3334 
Q 3622 3084 3622 2631 
Q 3622 2519 3608 2391 
Q 3594 2263 3566 2113 
z
" transform="scale(0.015625)"/>
       <path id="DejaVuSans-Oblique-63" d="M 3431 3366 
L 3316 2797 
Q 3109 2947 2876 3022 
Q 2644 3097 2394 3097 
Q 2119 3097 1870 3000 
Q 1622 2903 1453 2725 
Q 1184 2453 1037 2087 
Q 891 1722 891 1331 
Q 891 859 1127 628 
Q 1363 397 1844 397 
Q 2081 397 2348 469 
Q 2616 541 2906 684 
L 2797 116 
Q 2547 13 2283 -39 
Q 2019 -91 1741 -91 
Q 1044 -91 669 257 
Q 294 606 294 1253 
Q 294 1797 489 2255 
Q 684 2713 1069 3078 
Q 1331 3328 1684 3456 
Q 2038 3584 2456 3584 
Q 2700 3584 2940 3529 
Q 3181 3475 3431 3366 
z
" transform="scale(0.015625)"/>
       <path id="DejaVuSans-28" d="M 1984 4856 
Q 1566 4138 1362 3434 
Q 1159 2731 1159 2009 
Q 1159 1288 1364 580 
Q 1569 -128 1984 -844 
L 1484 -844 
Q 1016 -109 783 600 
Q 550 1309 550 2009 
Q 550 2706 781 3412 
Q 1013 4119 1484 4856 
L 1984 4856 
z
" transform="scale(0.015625)"/>
       <path id="DejaVuSans-6d" d="M 3328 2828 
Q 3544 3216 3844 3400 
Q 4144 3584 4550 3584 
Q 5097 3584 5394 3201 
Q 5691 2819 5691 2113 
L 5691 0 
L 5113 0 
L 5113 2094 
Q 5113 2597 4934 2840 
Q 4756 3084 4391 3084 
Q 3944 3084 3684 2787 
Q 3425 2491 3425 1978 
L 3425 0 
L 2847 0 
L 2847 2094 
Q 2847 2600 2669 2842 
Q 2491 3084 2119 3084 
Q 1678 3084 1418 2786 
Q 1159 2488 1159 1978 
L 1159 0 
L 581 0 
L 581 3500 
L 1159 3500 
L 1159 2956 
Q 1356 3278 1631 3431 
Q 1906 3584 2284 3584 
Q 2666 3584 2933 3390 
Q 3200 3197 3328 2828 
z
" transform="scale(0.015625)"/>
       <path id="DejaVuSans-6e" d="M 3513 2113 
L 3513 0 
L 2938 0 
L 2938 2094 
Q 2938 2591 2744 2837 
Q 2550 3084 2163 3084 
Q 1697 3084 1428 2787 
Q 1159 2491 1159 1978 
L 1159 0 
L 581 0 
L 581 3500 
L 1159 3500 
L 1159 2956 
Q 1366 3272 1645 3428 
Q 1925 3584 2291 3584 
Q 2894 3584 3203 3211 
Q 3513 2838 3513 2113 
z
" transform="scale(0.015625)"/>
       <path id="DejaVuSans-41" d="M 2188 4044 
L 1331 1722 
L 3047 1722 
L 2188 4044 
z
M 1831 4666 
L 2547 4666 
L 4325 0 
L 3669 0 
L 3244 1197 
L 1141 1197 
L 716 0 
L 50 0 
L 1831 4666 
z
" transform="scale(0.015625)"/>
       <path id="DejaVuSans-55" d="M 556 4666 
L 1191 4666 
L 1191 1831 
Q 1191 1081 1462 751 
Q 1734 422 2344 422 
Q 2950 422 3222 751 
Q 3494 1081 3494 1831 
L 3494 4666 
L 4128 4666 
L 4128 1753 
Q 4128 841 3676 375 
Q 3225 -91 2344 -91 
Q 1459 -91 1007 375 
Q 556 841 556 1753 
L 556 4666 
z
" transform="scale(0.015625)"/>
       <path id="DejaVuSans-43" d="M 4122 4306 
L 4122 3641 
Q 3803 3938 3442 4084 
Q 3081 4231 2675 4231 
Q 1875 4231 1450 3742 
Q 1025 3253 1025 2328 
Q 1025 1406 1450 917 
Q 1875 428 2675 428 
Q 3081 428 3442 575 
Q 3803 722 4122 1019 
L 4122 359 
Q 3791 134 3420 21 
Q 3050 -91 2638 -91 
Q 1578 -91 968 557 
Q 359 1206 359 2328 
Q 359 3453 968 4101 
Q 1578 4750 2638 4750 
Q 3056 4750 3426 4639 
Q 3797 4528 4122 4306 
z
" transform="scale(0.015625)"/>
       <path id="DejaVuSans-35" d="M 691 4666 
L 3169 4666 
L 3169 4134 
L 1269 4134 
L 1269 2991 
Q 1406 3038 1543 3061 
Q 1681 3084 1819 3084 
Q 2600 3084 3056 2656 
Q 3513 2228 3513 1497 
Q 3513 744 3044 326 
Q 2575 -91 1722 -91 
Q 1428 -91 1123 -41 
Q 819 9 494 109 
L 494 744 
Q 775 591 1075 516 
Q 1375 441 1709 441 
Q 2250 441 2565 725 
Q 2881 1009 2881 1497 
Q 2881 1984 2565 2268 
Q 2250 2553 1709 2553 
Q 1456 2553 1204 2497 
Q 953 2441 691 2322 
L 691 4666 
z
" transform="scale(0.015625)"/>
       <path id="DejaVuSans-29" d="M 513 4856 
L 1013 4856 
Q 1481 4119 1714 3412 
Q 1947 2706 1947 2009 
Q 1947 1309 1714 600 
Q 1481 -109 1013 -844 
L 513 -844 
Q 928 -128 1133 580 
Q 1338 1288 1338 2009 
Q 1338 2731 1133 3434 
Q 928 4138 513 4856 
z
" transform="scale(0.015625)"/>
      </defs>
      <use xlink:href="#DejaVuSans-Oblique-44" transform="translate(0 0.125)"/>
      <use xlink:href="#DejaVuSans-Oblique-61" transform="translate(77.001953 -16.28125) scale(0.7)"/>
      <use xlink:href="#DejaVuSans-Oblique-6e" transform="translate(119.897461 -16.28125) scale(0.7)"/>
      <use xlink:href="#DejaVuSans-Oblique-63" transform="translate(164.262695 -16.28125) scale(0.7)"/>
      <use xlink:href="#DejaVuSans-20" transform="translate(205.483398 0.125)"/>
      <use xlink:href="#DejaVuSans-28" transform="translate(237.270508 0.125)"/>
      <use xlink:href="#DejaVuSans-6d" transform="translate(276.28418 0.125)"/>
      <use xlink:href="#DejaVuSans-65" transform="translate(373.696289 0.125)"/>
      <use xlink:href="#DejaVuSans-61" transform="translate(435.219727 0.125)"/>
      <use xlink:href="#DejaVuSans-6e" transform="translate(496.499023 0.125)"/>
      <use xlink:href="#DejaVuSans-20" transform="translate(559.87793 0.125)"/>
      <use xlink:href="#DejaVuSans-41" transform="translate(591.665039 0.125)"/>
      <use xlink:href="#DejaVuSans-55" transform="translate(660.073242 0.125)"/>
      <use xlink:href="#DejaVuSans-43" transform="translate(733.266602 0.125)"/>
      <use xlink:href="#DejaVuSans-20" transform="translate(803.09082 0.125)"/>
      <use xlink:href="#DejaVuSans-3d" transform="translate(834.87793 0.125)"/>
      <use xlink:href="#DejaVuSans-20" transform="translate(918.666992 0.125)"/>
      <use xlink:href="#DejaVuSans-30" transform="translate(950.454102 0.125)"/>
      <use xlink:href="#DejaVuSans-2e" transform="translate(1014.077148 0.125)"/>
      <use xlink:href="#DejaVuSans-35" transform="translate(1045.864258 0.125)"/>
      <use xlink:href="#DejaVuSans-35" transform="translate(1109.487305 0.125)"/>
      <use xlink:href="#DejaVuSans-29" transform="translate(1173.110352 0.125)"/>
     </g>
    </g>
    <g id="line2d_22">
     <path d="M 211.09125 245.021875 
L 219.09125 245.021875 
L 227.09125 245.021875 
" style="fill: none; stroke: #ff7f0e; stroke-width: 2; stroke-linecap: square"/>
    </g>
    <g id="text_17">
     <!-- $D^+$ (mean AUC = 0.57) -->
     <g transform="translate(233.49125 247.821875) scale(0.08 -0.08)">
      <defs>
       <path id="DejaVuSans-2b" d="M 2944 4013 
L 2944 2272 
L 4684 2272 
L 4684 1741 
L 2944 1741 
L 2944 0 
L 2419 0 
L 2419 1741 
L 678 1741 
L 678 2272 
L 2419 2272 
L 2419 4013 
L 2944 4013 
z
" transform="scale(0.015625)"/>
       <path id="DejaVuSans-37" d="M 525 4666 
L 3525 4666 
L 3525 4397 
L 1831 0 
L 1172 0 
L 2766 4134 
L 525 4134 
L 525 4666 
z
" transform="scale(0.015625)"/>
      </defs>
      <use xlink:href="#DejaVuSans-Oblique-44" transform="translate(0 0.826562)"/>
      <use xlink:href="#DejaVuSans-2b" transform="translate(97.656419 39.107812) scale(0.7)"/>
      <use xlink:href="#DejaVuSans-20" transform="translate(172.680833 0.826562)"/>
      <use xlink:href="#DejaVuSans-28" transform="translate(204.467943 0.826562)"/>
      <use xlink:href="#DejaVuSans-6d" transform="translate(243.481615 0.826562)"/>
      <use xlink:href="#DejaVuSans-65" transform="translate(340.893724 0.826562)"/>
      <use xlink:href="#DejaVuSans-61" transform="translate(402.417161 0.826562)"/>
      <use xlink:href="#DejaVuSans-6e" transform="translate(463.696458 0.826562)"/>
      <use xlink:href="#DejaVuSans-20" transform="translate(527.075365 0.826562)"/>
      <use xlink:href="#DejaVuSans-41" transform="translate(558.862474 0.826562)"/>
      <use xlink:href="#DejaVuSans-55" transform="translate(627.270677 0.826562)"/>
      <use xlink:href="#DejaVuSans-43" transform="translate(700.464036 0.826562)"/>
      <use xlink:href="#DejaVuSans-20" transform="translate(770.288255 0.826562)"/>
      <use xlink:href="#DejaVuSans-3d" transform="translate(802.075365 0.826562)"/>
      <use xlink:href="#DejaVuSans-20" transform="translate(885.864427 0.826562)"/>
      <use xlink:href="#DejaVuSans-30" transform="translate(917.651536 0.826562)"/>
      <use xlink:href="#DejaVuSans-2e" transform="translate(981.274583 0.826562)"/>
      <use xlink:href="#DejaVuSans-35" transform="translate(1013.061693 0.826562)"/>
      <use xlink:href="#DejaVuSans-37" transform="translate(1069.43474 0.826562)"/>
      <use xlink:href="#DejaVuSans-29" transform="translate(1133.057786 0.826562)"/>
     </g>
    </g>
    <g id="line2d_23">
     <path d="M 211.09125 256.764375 
L 219.09125 256.764375 
L 227.09125 256.764375 
" style="fill: none; stroke: #2ca02c; stroke-width: 2; stroke-linecap: square"/>
    </g>
    <g id="text_18">
     <!-- $d_f$ (mean AUC = 0.58) -->
     <g transform="translate(233.49125 259.564375) scale(0.08 -0.08)">
      <defs>
       <path id="DejaVuSans-Oblique-64" d="M 2675 525 
Q 2444 222 2128 65 
Q 1813 -91 1428 -91 
Q 903 -91 598 267 
Q 294 625 294 1247 
Q 294 1766 478 2236 
Q 663 2706 1013 3078 
Q 1244 3325 1534 3454 
Q 1825 3584 2144 3584 
Q 2481 3584 2739 3421 
Q 2997 3259 3138 2956 
L 3513 4863 
L 4091 4863 
L 3144 0 
L 2566 0 
L 2675 525 
z
M 891 1350 
Q 891 897 1095 644 
Q 1300 391 1663 391 
Q 1931 391 2161 520 
Q 2391 650 2566 903 
Q 2750 1166 2856 1509 
Q 2963 1853 2963 2188 
Q 2963 2622 2758 2865 
Q 2553 3109 2194 3109 
Q 1922 3109 1687 2981 
Q 1453 2853 1288 2613 
Q 1106 2353 998 2009 
Q 891 1666 891 1350 
z
" transform="scale(0.015625)"/>
       <path id="DejaVuSans-Oblique-66" d="M 3059 4863 
L 2969 4384 
L 2419 4384 
Q 2106 4384 1964 4261 
Q 1822 4138 1753 3809 
L 1691 3500 
L 2638 3500 
L 2553 3053 
L 1606 3053 
L 1013 0 
L 434 0 
L 1031 3053 
L 481 3053 
L 563 3500 
L 1113 3500 
L 1159 3744 
Q 1278 4363 1576 4613 
Q 1875 4863 2516 4863 
L 3059 4863 
z
" transform="scale(0.015625)"/>
      </defs>
      <use xlink:href="#DejaVuSans-Oblique-64" transform="translate(0 0.015625)"/>
      <use xlink:href="#DejaVuSans-Oblique-66" transform="translate(63.476562 -16.390625) scale(0.7)"/>
      <use xlink:href="#DejaVuSans-20" transform="translate(90.854492 0.015625)"/>
      <use xlink:href="#DejaVuSans-28" transform="translate(122.641602 0.015625)"/>
      <use xlink:href="#DejaVuSans-6d" transform="translate(161.655273 0.015625)"/>
      <use xlink:href="#DejaVuSans-65" transform="translate(259.067383 0.015625)"/>
      <use xlink:href="#DejaVuSans-61" transform="translate(320.59082 0.015625)"/>
      <use xlink:href="#DejaVuSans-6e" transform="translate(381.870117 0.015625)"/>
      <use xlink:href="#DejaVuSans-20" transform="translate(445.249023 0.015625)"/>
      <use xlink:href="#DejaVuSans-41" transform="translate(477.036133 0.015625)"/>
      <use xlink:href="#DejaVuSans-55" transform="translate(545.444336 0.015625)"/>
      <use xlink:href="#DejaVuSans-43" transform="translate(618.637695 0.015625)"/>
      <use xlink:href="#DejaVuSans-20" transform="translate(688.461914 0.015625)"/>
      <use xlink:href="#DejaVuSans-3d" transform="translate(720.249023 0.015625)"/>
      <use xlink:href="#DejaVuSans-20" transform="translate(804.038086 0.015625)"/>
      <use xlink:href="#DejaVuSans-30" transform="translate(835.825195 0.015625)"/>
      <use xlink:href="#DejaVuSans-2e" transform="translate(899.448242 0.015625)"/>
      <use xlink:href="#DejaVuSans-35" transform="translate(931.235352 0.015625)"/>
      <use xlink:href="#DejaVuSans-38" transform="translate(994.858398 0.015625)"/>
      <use xlink:href="#DejaVuSans-29" transform="translate(1058.481445 0.015625)"/>
     </g>
    </g>
    <g id="line2d_24">
     <path d="M 211.09125 268.506875 
L 219.09125 268.506875 
L 227.09125 268.506875 
" style="fill: none; stroke: #d62728; stroke-width: 2; stroke-linecap: square"/>
    </g>
    <g id="text_19">
     <!-- $f_d$ (mean AUC = 0.58) -->
     <g transform="translate(233.49125 271.306875) scale(0.08 -0.08)">
      <use xlink:href="#DejaVuSans-Oblique-66" transform="translate(0 0.015625)"/>
      <use xlink:href="#DejaVuSans-Oblique-64" transform="translate(35.205078 -16.390625) scale(0.7)"/>
      <use xlink:href="#DejaVuSans-20" transform="translate(82.373047 0.015625)"/>
      <use xlink:href="#DejaVuSans-28" transform="translate(114.160156 0.015625)"/>
      <use xlink:href="#DejaVuSans-6d" transform="translate(153.173828 0.015625)"/>
      <use xlink:href="#DejaVuSans-65" transform="translate(250.585938 0.015625)"/>
      <use xlink:href="#DejaVuSans-61" transform="translate(312.109375 0.015625)"/>
      <use xlink:href="#DejaVuSans-6e" transform="translate(373.388672 0.015625)"/>
      <use xlink:href="#DejaVuSans-20" transform="translate(436.767578 0.015625)"/>
      <use xlink:href="#DejaVuSans-41" transform="translate(468.554688 0.015625)"/>
      <use xlink:href="#DejaVuSans-55" transform="translate(536.962891 0.015625)"/>
      <use xlink:href="#DejaVuSans-43" transform="translate(610.15625 0.015625)"/>
      <use xlink:href="#DejaVuSans-20" transform="translate(679.980469 0.015625)"/>
      <use xlink:href="#DejaVuSans-3d" transform="translate(711.767578 0.015625)"/>
      <use xlink:href="#DejaVuSans-20" transform="translate(795.556641 0.015625)"/>
      <use xlink:href="#DejaVuSans-30" transform="translate(827.34375 0.015625)"/>
      <use xlink:href="#DejaVuSans-2e" transform="translate(890.966797 0.015625)"/>
      <use xlink:href="#DejaVuSans-35" transform="translate(922.753906 0.015625)"/>
      <use xlink:href="#DejaVuSans-38" transform="translate(986.376953 0.015625)"/>
      <use xlink:href="#DejaVuSans-29" transform="translate(1050 0.015625)"/>
     </g>
    </g>
    <g id="line2d_25">
     <path d="M 211.09125 280.249375 
L 219.09125 280.249375 
L 227.09125 280.249375 
" style="fill: none; stroke: #9467bd; stroke-width: 2; stroke-linecap: square"/>
    </g>
    <g id="text_20">
     <!-- $D_D$ (mean AUC = 0.58) -->
     <g transform="translate(233.49125 283.049375) scale(0.08 -0.08)">
      <use xlink:href="#DejaVuSans-Oblique-44" transform="translate(0 0.125)"/>
      <use xlink:href="#DejaVuSans-Oblique-44" transform="translate(77.001953 -16.28125) scale(0.7)"/>
      <use xlink:href="#DejaVuSans-20" transform="translate(133.637695 0.125)"/>
      <use xlink:href="#DejaVuSans-28" transform="translate(165.424805 0.125)"/>
      <use xlink:href="#DejaVuSans-6d" transform="translate(204.438477 0.125)"/>
      <use xlink:href="#DejaVuSans-65" transform="translate(301.850586 0.125)"/>
      <use xlink:href="#DejaVuSans-61" transform="translate(363.374023 0.125)"/>
      <use xlink:href="#DejaVuSans-6e" transform="translate(424.65332 0.125)"/>
      <use xlink:href="#DejaVuSans-20" transform="translate(488.032227 0.125)"/>
      <use xlink:href="#DejaVuSans-41" transform="translate(519.819336 0.125)"/>
      <use xlink:href="#DejaVuSans-55" transform="translate(588.227539 0.125)"/>
      <use xlink:href="#DejaVuSans-43" transform="translate(661.420898 0.125)"/>
      <use xlink:href="#DejaVuSans-20" transform="translate(731.245117 0.125)"/>
      <use xlink:href="#DejaVuSans-3d" transform="translate(763.032227 0.125)"/>
      <use xlink:href="#DejaVuSans-20" transform="translate(846.821289 0.125)"/>
      <use xlink:href="#DejaVuSans-30" transform="translate(878.608398 0.125)"/>
      <use xlink:href="#DejaVuSans-2e" transform="translate(942.231445 0.125)"/>
      <use xlink:href="#DejaVuSans-35" transform="translate(974.018555 0.125)"/>
      <use xlink:href="#DejaVuSans-38" transform="translate(1037.641602 0.125)"/>
      <use xlink:href="#DejaVuSans-29" transform="translate(1101.264648 0.125)"/>
     </g>
    </g>
    <g id="line2d_26">
     <path d="M 211.09125 291.991875 
L 219.09125 291.991875 
L 227.09125 291.991875 
" style="fill: none; stroke: #8c564b; stroke-width: 2; stroke-linecap: square"/>
    </g>
    <g id="text_21">
     <!-- $U50$ (mean AUC = 0.51) -->
     <g transform="translate(233.49125 294.791875) scale(0.08 -0.08)">
      <defs>
       <path id="DejaVuSans-Oblique-55" d="M 991 4666 
L 1625 4666 
L 1075 1831 
Q 1041 1641 1027 1517 
Q 1013 1394 1013 1300 
Q 1013 869 1253 645 
Q 1494 422 1959 422 
Q 2563 422 2898 753 
Q 3234 1084 3378 1831 
L 3928 4666 
L 4563 4666 
L 4000 1753 
Q 3816 809 3300 359 
Q 2784 -91 1888 -91 
Q 1188 -91 780 261 
Q 372 613 372 1216 
Q 372 1325 387 1461 
Q 403 1597 434 1753 
L 991 4666 
z
" transform="scale(0.015625)"/>
      </defs>
      <use xlink:href="#DejaVuSans-Oblique-55" transform="translate(0 0.125)"/>
      <use xlink:href="#DejaVuSans-35" transform="translate(73.193359 0.125)"/>
      <use xlink:href="#DejaVuSans-30" transform="translate(136.816406 0.125)"/>
      <use xlink:href="#DejaVuSans-20" transform="translate(200.439453 0.125)"/>
      <use xlink:href="#DejaVuSans-28" transform="translate(232.226562 0.125)"/>
      <use xlink:href="#DejaVuSans-6d" transform="translate(271.240234 0.125)"/>
      <use xlink:href="#DejaVuSans-65" transform="translate(368.652344 0.125)"/>
      <use xlink:href="#DejaVuSans-61" transform="translate(430.175781 0.125)"/>
      <use xlink:href="#DejaVuSans-6e" transform="translate(491.455078 0.125)"/>
      <use xlink:href="#DejaVuSans-20" transform="translate(554.833984 0.125)"/>
      <use xlink:href="#DejaVuSans-41" transform="translate(586.621094 0.125)"/>
      <use xlink:href="#DejaVuSans-55" transform="translate(655.029297 0.125)"/>
      <use xlink:href="#DejaVuSans-43" transform="translate(728.222656 0.125)"/>
      <use xlink:href="#DejaVuSans-20" transform="translate(798.046875 0.125)"/>
      <use xlink:href="#DejaVuSans-3d" transform="translate(829.833984 0.125)"/>
      <use xlink:href="#DejaVuSans-20" transform="translate(913.623047 0.125)"/>
      <use xlink:href="#DejaVuSans-30" transform="translate(945.410156 0.125)"/>
      <use xlink:href="#DejaVuSans-2e" transform="translate(1009.033203 0.125)"/>
      <use xlink:href="#DejaVuSans-35" transform="translate(1040.820312 0.125)"/>
      <use xlink:href="#DejaVuSans-31" transform="translate(1104.443359 0.125)"/>
      <use xlink:href="#DejaVuSans-29" transform="translate(1168.066406 0.125)"/>
     </g>
    </g>
    <g id="line2d_27">
     <path d="M 211.09125 303.734375 
L 219.09125 303.734375 
L 227.09125 303.734375 
" style="fill: none; stroke: #e377c2; stroke-width: 2; stroke-linecap: square"/>
    </g>
    <g id="text_22">
     <!-- $Q95$ (mean AUC = 0.70) -->
     <g transform="translate(233.49125 306.534375) scale(0.08 -0.08)">
      <defs>
       <path id="DejaVuSans-Oblique-51" d="M 2309 -84 
Q 2275 -88 2237 -89 
Q 2200 -91 2125 -91 
Q 1250 -91 756 411 
Q 263 913 263 1797 
Q 263 2319 452 2844 
Q 641 3369 978 3788 
Q 1369 4269 1858 4509 
Q 2347 4750 2938 4750 
Q 3794 4750 4287 4245 
Q 4781 3741 4781 2869 
Q 4781 1928 4265 1147 
Q 3750 366 2919 44 
L 3553 -825 
L 2847 -825 
L 2309 -84 
z
M 2919 4238 
Q 2400 4238 2003 3986 
Q 1606 3734 1313 3219 
Q 1125 2891 1026 2522 
Q 928 2153 928 1778 
Q 928 1128 1239 775 
Q 1550 422 2119 422 
Q 2631 422 3032 676 
Q 3434 931 3719 1434 
Q 3909 1772 4009 2142 
Q 4109 2513 4109 2881 
Q 4109 3528 3796 3883 
Q 3484 4238 2919 4238 
z
" transform="scale(0.015625)"/>
       <path id="DejaVuSans-39" d="M 703 97 
L 703 672 
Q 941 559 1184 500 
Q 1428 441 1663 441 
Q 2288 441 2617 861 
Q 2947 1281 2994 2138 
Q 2813 1869 2534 1725 
Q 2256 1581 1919 1581 
Q 1219 1581 811 2004 
Q 403 2428 403 3163 
Q 403 3881 828 4315 
Q 1253 4750 1959 4750 
Q 2769 4750 3195 4129 
Q 3622 3509 3622 2328 
Q 3622 1225 3098 567 
Q 2575 -91 1691 -91 
Q 1453 -91 1209 -44 
Q 966 3 703 97 
z
M 1959 2075 
Q 2384 2075 2632 2365 
Q 2881 2656 2881 3163 
Q 2881 3666 2632 3958 
Q 2384 4250 1959 4250 
Q 1534 4250 1286 3958 
Q 1038 3666 1038 3163 
Q 1038 2656 1286 2365 
Q 1534 2075 1959 2075 
z
" transform="scale(0.015625)"/>
      </defs>
      <use xlink:href="#DejaVuSans-Oblique-51" transform="translate(0 0.125)"/>
      <use xlink:href="#DejaVuSans-39" transform="translate(78.710938 0.125)"/>
      <use xlink:href="#DejaVuSans-35" transform="translate(142.333984 0.125)"/>
      <use xlink:href="#DejaVuSans-20" transform="translate(205.957031 0.125)"/>
      <use xlink:href="#DejaVuSans-28" transform="translate(237.744141 0.125)"/>
      <use xlink:href="#DejaVuSans-6d" transform="translate(276.757812 0.125)"/>
      <use xlink:href="#DejaVuSans-65" transform="translate(374.169922 0.125)"/>
      <use xlink:href="#DejaVuSans-61" transform="translate(435.693359 0.125)"/>
      <use xlink:href="#DejaVuSans-6e" transform="translate(496.972656 0.125)"/>
      <use xlink:href="#DejaVuSans-20" transform="translate(560.351562 0.125)"/>
      <use xlink:href="#DejaVuSans-41" transform="translate(592.138672 0.125)"/>
      <use xlink:href="#DejaVuSans-55" transform="translate(660.546875 0.125)"/>
      <use xlink:href="#DejaVuSans-43" transform="translate(733.740234 0.125)"/>
      <use xlink:href="#DejaVuSans-20" transform="translate(803.564453 0.125)"/>
      <use xlink:href="#DejaVuSans-3d" transform="translate(835.351562 0.125)"/>
      <use xlink:href="#DejaVuSans-20" transform="translate(919.140625 0.125)"/>
      <use xlink:href="#DejaVuSans-30" transform="translate(950.927734 0.125)"/>
      <use xlink:href="#DejaVuSans-2e" transform="translate(1014.550781 0.125)"/>
      <use xlink:href="#DejaVuSans-37" transform="translate(1038.587891 0.125)"/>
      <use xlink:href="#DejaVuSans-30" transform="translate(1102.210938 0.125)"/>
      <use xlink:href="#DejaVuSans-29" transform="translate(1165.833984 0.125)"/>
     </g>
    </g>
   </g>
  </g>
 </g>
 <defs>
  <clipPath id="p85446b1a25">
   <rect x="43.78125" y="22.318125" width="293.95" height="293.08"/>
  </clipPath>
 </defs>
</svg>
